%TF.GenerationSoftware,KiCad,Pcbnew,8.0.5*%
%TF.CreationDate,2025-10-28T15:14:40-05:00*%
%TF.ProjectId,Microcontroller,4d696372-6f63-46f6-9e74-726f6c6c6572,rev?*%
%TF.SameCoordinates,Original*%
%TF.FileFunction,Drillmap*%
%TF.FilePolarity,Positive*%
%FSLAX45Y45*%
G04 Gerber Fmt 4.5, Leading zero omitted, Abs format (unit mm)*
G04 Created by KiCad (PCBNEW 8.0.5) date 2025-10-28 15:14:40*
%MOMM*%
%LPD*%
G01*
G04 APERTURE LIST*
%ADD10C,0.050000*%
%ADD11C,0.200000*%
%ADD12C,0.100000*%
%ADD13C,0.110000*%
G04 APERTURE END LIST*
D10*
X7850000Y-10500000D02*
X11850000Y-10500000D01*
X11850000Y-14000000D01*
X7850000Y-14000000D01*
X7850000Y-10500000D01*
D11*
D12*
X8486000Y-11179000D02*
X8516000Y-11209000D01*
X8516000Y-11179000D02*
X8486000Y-11209000D01*
X8768000Y-13683000D02*
X8798000Y-13713000D01*
X8798000Y-13683000D02*
X8768000Y-13713000D01*
X8881500Y-11179000D02*
X8911500Y-11209000D01*
X8911500Y-11179000D02*
X8881500Y-11209000D01*
X8910000Y-11916000D02*
X8940000Y-11946000D01*
X8940000Y-11916000D02*
X8910000Y-11946000D01*
X9109000Y-11921000D02*
X9139000Y-11951000D01*
X9139000Y-11921000D02*
X9109000Y-11951000D01*
X9111750Y-12266000D02*
X9141750Y-12296000D01*
X9141750Y-12266000D02*
X9111750Y-12296000D01*
X9193000Y-11682000D02*
X9223000Y-11712000D01*
X9223000Y-11682000D02*
X9193000Y-11712000D01*
X9194000Y-11436000D02*
X9224000Y-11466000D01*
X9224000Y-11436000D02*
X9194000Y-11466000D01*
X9221000Y-11560000D02*
X9251000Y-11590000D01*
X9251000Y-11560000D02*
X9221000Y-11590000D01*
X9337000Y-11051000D02*
X9367000Y-11081000D01*
X9367000Y-11051000D02*
X9337000Y-11081000D01*
X9667000Y-11485750D02*
X9697000Y-11515750D01*
X9697000Y-11485750D02*
X9667000Y-11515750D01*
X9681250Y-12632000D02*
X9711250Y-12662000D01*
X9711250Y-12632000D02*
X9681250Y-12662000D01*
X9744000Y-11936000D02*
X9774000Y-11966000D01*
X9774000Y-11936000D02*
X9744000Y-11966000D01*
X10123000Y-11266000D02*
X10153000Y-11296000D01*
X10153000Y-11266000D02*
X10123000Y-11296000D01*
X10125000Y-12057000D02*
X10155000Y-12087000D01*
X10155000Y-12057000D02*
X10125000Y-12087000D01*
X10234000Y-12366000D02*
X10264000Y-12396000D01*
X10264000Y-12366000D02*
X10234000Y-12396000D01*
X10234000Y-12996000D02*
X10264000Y-13026000D01*
X10264000Y-12996000D02*
X10234000Y-13026000D01*
X10546000Y-11122000D02*
X10576000Y-11152000D01*
X10576000Y-11122000D02*
X10546000Y-11152000D01*
X10557000Y-11396000D02*
X10587000Y-11426000D01*
X10587000Y-11396000D02*
X10557000Y-11426000D01*
X10916000Y-11938000D02*
X10946000Y-11968000D01*
X10946000Y-11938000D02*
X10916000Y-11968000D01*
X10917000Y-10715000D02*
X10947000Y-10745000D01*
X10947000Y-10715000D02*
X10917000Y-10745000D01*
X11107000Y-11753000D02*
X11137000Y-11783000D01*
X11137000Y-11753000D02*
X11107000Y-11783000D01*
X11277000Y-11302000D02*
X11307000Y-11332000D01*
X11307000Y-11302000D02*
X11277000Y-11332000D01*
X11277000Y-12645000D02*
X11307000Y-12675000D01*
X11307000Y-12645000D02*
X11277000Y-12675000D01*
X10353000Y-13387000D02*
G75*
G02*
X10313000Y-13387000I-20000J0D01*
G01*
X10313000Y-13387000D02*
G75*
G02*
X10353000Y-13387000I20000J0D01*
G01*
X10353000Y-13522000D02*
G75*
G02*
X10313000Y-13522000I-20000J0D01*
G01*
X10313000Y-13522000D02*
G75*
G02*
X10353000Y-13522000I20000J0D01*
G01*
X10438000Y-13387000D02*
G75*
G02*
X10398000Y-13387000I-20000J0D01*
G01*
X10398000Y-13387000D02*
G75*
G02*
X10438000Y-13387000I20000J0D01*
G01*
X10438000Y-13522000D02*
G75*
G02*
X10398000Y-13522000I-20000J0D01*
G01*
X10398000Y-13522000D02*
G75*
G02*
X10438000Y-13522000I20000J0D01*
G01*
X10523000Y-13387000D02*
G75*
G02*
X10483000Y-13387000I-20000J0D01*
G01*
X10483000Y-13387000D02*
G75*
G02*
X10523000Y-13387000I20000J0D01*
G01*
X10523000Y-13522000D02*
G75*
G02*
X10483000Y-13522000I-20000J0D01*
G01*
X10483000Y-13522000D02*
G75*
G02*
X10523000Y-13522000I20000J0D01*
G01*
X10608000Y-13387000D02*
G75*
G02*
X10568000Y-13387000I-20000J0D01*
G01*
X10568000Y-13387000D02*
G75*
G02*
X10608000Y-13387000I20000J0D01*
G01*
X10608000Y-13522000D02*
G75*
G02*
X10568000Y-13522000I-20000J0D01*
G01*
X10568000Y-13522000D02*
G75*
G02*
X10608000Y-13522000I20000J0D01*
G01*
X10693000Y-13387000D02*
G75*
G02*
X10653000Y-13387000I-20000J0D01*
G01*
X10653000Y-13387000D02*
G75*
G02*
X10693000Y-13387000I20000J0D01*
G01*
X10693000Y-13522000D02*
G75*
G02*
X10653000Y-13522000I-20000J0D01*
G01*
X10653000Y-13522000D02*
G75*
G02*
X10693000Y-13522000I20000J0D01*
G01*
X10778000Y-13387000D02*
G75*
G02*
X10738000Y-13387000I-20000J0D01*
G01*
X10738000Y-13387000D02*
G75*
G02*
X10778000Y-13387000I20000J0D01*
G01*
X10778000Y-13522000D02*
G75*
G02*
X10738000Y-13522000I-20000J0D01*
G01*
X10738000Y-13522000D02*
G75*
G02*
X10778000Y-13522000I20000J0D01*
G01*
X10863000Y-13387000D02*
G75*
G02*
X10823000Y-13387000I-20000J0D01*
G01*
X10823000Y-13387000D02*
G75*
G02*
X10863000Y-13387000I20000J0D01*
G01*
X10863000Y-13522000D02*
G75*
G02*
X10823000Y-13522000I-20000J0D01*
G01*
X10823000Y-13522000D02*
G75*
G02*
X10863000Y-13522000I20000J0D01*
G01*
X10948000Y-13387000D02*
G75*
G02*
X10908000Y-13387000I-20000J0D01*
G01*
X10908000Y-13387000D02*
G75*
G02*
X10948000Y-13387000I20000J0D01*
G01*
X10948000Y-13522000D02*
G75*
G02*
X10908000Y-13522000I-20000J0D01*
G01*
X10908000Y-13522000D02*
G75*
G02*
X10948000Y-13522000I20000J0D01*
G01*
X10198000Y-13455000D02*
X10198000Y-13515000D01*
X10168000Y-13485000D02*
X10228000Y-13485000D01*
X10168000Y-13410000D02*
X10168000Y-13560000D01*
X10228000Y-13560000D02*
G75*
G02*
X10168000Y-13560000I-30000J0D01*
G01*
X10228000Y-13560000D02*
X10228000Y-13410000D01*
X10228000Y-13410000D02*
G75*
G03*
X10168000Y-13410000I-30000J0D01*
G01*
X10198000Y-13793000D02*
X10198000Y-13853000D01*
X10168000Y-13823000D02*
X10228000Y-13823000D01*
X10168000Y-13783000D02*
X10168000Y-13863000D01*
X10228000Y-13863000D02*
G75*
G02*
X10168000Y-13863000I-30000J0D01*
G01*
X10228000Y-13863000D02*
X10228000Y-13783000D01*
X10228000Y-13783000D02*
G75*
G03*
X10168000Y-13783000I-30000J0D01*
G01*
X11063000Y-13455000D02*
X11063000Y-13515000D01*
X11033000Y-13485000D02*
X11093000Y-13485000D01*
X11033000Y-13410000D02*
X11033000Y-13560000D01*
X11093000Y-13560000D02*
G75*
G02*
X11033000Y-13560000I-30000J0D01*
G01*
X11093000Y-13560000D02*
X11093000Y-13410000D01*
X11093000Y-13410000D02*
G75*
G03*
X11033000Y-13410000I-30000J0D01*
G01*
X11063000Y-13793000D02*
X11063000Y-13853000D01*
X11033000Y-13823000D02*
X11093000Y-13823000D01*
X11033000Y-13783000D02*
X11033000Y-13863000D01*
X11093000Y-13863000D02*
G75*
G02*
X11033000Y-13863000I-30000J0D01*
G01*
X11093000Y-13863000D02*
X11093000Y-13783000D01*
X11093000Y-13783000D02*
G75*
G03*
X11033000Y-13783000I-30000J0D01*
G01*
X8127356Y-10769356D02*
X8127356Y-10698644D01*
X8056644Y-10698644D01*
X8056644Y-10769356D01*
X8127356Y-10769356D01*
X8127356Y-11023356D02*
X8127356Y-10952644D01*
X8056644Y-10952644D01*
X8056644Y-11023356D01*
X8127356Y-11023356D01*
X8127356Y-11277356D02*
X8127356Y-11206644D01*
X8056644Y-11206644D01*
X8056644Y-11277356D01*
X8127356Y-11277356D01*
X8127356Y-11531356D02*
X8127356Y-11460644D01*
X8056644Y-11460644D01*
X8056644Y-11531356D01*
X8127356Y-11531356D01*
D13*
X8113000Y-12736000D02*
X8168000Y-12681000D01*
X8113000Y-12626000D01*
X8058000Y-12681000D01*
X8113000Y-12736000D01*
X8113000Y-13186000D02*
X8168000Y-13131000D01*
X8113000Y-13076000D01*
X8058000Y-13131000D01*
X8113000Y-13186000D01*
X8763000Y-12736000D02*
X8818000Y-12681000D01*
X8763000Y-12626000D01*
X8708000Y-12681000D01*
X8763000Y-12736000D01*
X8763000Y-13186000D02*
X8818000Y-13131000D01*
X8763000Y-13076000D01*
X8708000Y-13131000D01*
X8763000Y-13186000D01*
D11*
X8108277Y-14313984D02*
X8108277Y-14113984D01*
X8108277Y-14113984D02*
X8155896Y-14113984D01*
X8155896Y-14113984D02*
X8184467Y-14123508D01*
X8184467Y-14123508D02*
X8203515Y-14142555D01*
X8203515Y-14142555D02*
X8213039Y-14161603D01*
X8213039Y-14161603D02*
X8222562Y-14199698D01*
X8222562Y-14199698D02*
X8222562Y-14228269D01*
X8222562Y-14228269D02*
X8213039Y-14266365D01*
X8213039Y-14266365D02*
X8203515Y-14285412D01*
X8203515Y-14285412D02*
X8184467Y-14304460D01*
X8184467Y-14304460D02*
X8155896Y-14313984D01*
X8155896Y-14313984D02*
X8108277Y-14313984D01*
X8308277Y-14313984D02*
X8308277Y-14180650D01*
X8308277Y-14218746D02*
X8317801Y-14199698D01*
X8317801Y-14199698D02*
X8327324Y-14190174D01*
X8327324Y-14190174D02*
X8346372Y-14180650D01*
X8346372Y-14180650D02*
X8365420Y-14180650D01*
X8432086Y-14313984D02*
X8432086Y-14180650D01*
X8432086Y-14113984D02*
X8422563Y-14123508D01*
X8422563Y-14123508D02*
X8432086Y-14133031D01*
X8432086Y-14133031D02*
X8441610Y-14123508D01*
X8441610Y-14123508D02*
X8432086Y-14113984D01*
X8432086Y-14113984D02*
X8432086Y-14133031D01*
X8555896Y-14313984D02*
X8536848Y-14304460D01*
X8536848Y-14304460D02*
X8527324Y-14285412D01*
X8527324Y-14285412D02*
X8527324Y-14113984D01*
X8660658Y-14313984D02*
X8641610Y-14304460D01*
X8641610Y-14304460D02*
X8632086Y-14285412D01*
X8632086Y-14285412D02*
X8632086Y-14113984D01*
X8889229Y-14313984D02*
X8889229Y-14113984D01*
X8889229Y-14113984D02*
X8955896Y-14256841D01*
X8955896Y-14256841D02*
X9022563Y-14113984D01*
X9022563Y-14113984D02*
X9022563Y-14313984D01*
X9203515Y-14313984D02*
X9203515Y-14209222D01*
X9203515Y-14209222D02*
X9193991Y-14190174D01*
X9193991Y-14190174D02*
X9174944Y-14180650D01*
X9174944Y-14180650D02*
X9136848Y-14180650D01*
X9136848Y-14180650D02*
X9117801Y-14190174D01*
X9203515Y-14304460D02*
X9184467Y-14313984D01*
X9184467Y-14313984D02*
X9136848Y-14313984D01*
X9136848Y-14313984D02*
X9117801Y-14304460D01*
X9117801Y-14304460D02*
X9108277Y-14285412D01*
X9108277Y-14285412D02*
X9108277Y-14266365D01*
X9108277Y-14266365D02*
X9117801Y-14247317D01*
X9117801Y-14247317D02*
X9136848Y-14237793D01*
X9136848Y-14237793D02*
X9184467Y-14237793D01*
X9184467Y-14237793D02*
X9203515Y-14228269D01*
X9298753Y-14180650D02*
X9298753Y-14380650D01*
X9298753Y-14190174D02*
X9317801Y-14180650D01*
X9317801Y-14180650D02*
X9355896Y-14180650D01*
X9355896Y-14180650D02*
X9374944Y-14190174D01*
X9374944Y-14190174D02*
X9384467Y-14199698D01*
X9384467Y-14199698D02*
X9393991Y-14218746D01*
X9393991Y-14218746D02*
X9393991Y-14275888D01*
X9393991Y-14275888D02*
X9384467Y-14294936D01*
X9384467Y-14294936D02*
X9374944Y-14304460D01*
X9374944Y-14304460D02*
X9355896Y-14313984D01*
X9355896Y-14313984D02*
X9317801Y-14313984D01*
X9317801Y-14313984D02*
X9298753Y-14304460D01*
X9479705Y-14294936D02*
X9489229Y-14304460D01*
X9489229Y-14304460D02*
X9479705Y-14313984D01*
X9479705Y-14313984D02*
X9470182Y-14304460D01*
X9470182Y-14304460D02*
X9479705Y-14294936D01*
X9479705Y-14294936D02*
X9479705Y-14313984D01*
X9479705Y-14190174D02*
X9489229Y-14199698D01*
X9489229Y-14199698D02*
X9479705Y-14209222D01*
X9479705Y-14209222D02*
X9470182Y-14199698D01*
X9470182Y-14199698D02*
X9479705Y-14190174D01*
X9479705Y-14190174D02*
X9479705Y-14209222D01*
D12*
X7817500Y-14627500D02*
X7847500Y-14657500D01*
X7847500Y-14627500D02*
X7817500Y-14657500D01*
D11*
X8146372Y-14533984D02*
X8165420Y-14533984D01*
X8165420Y-14533984D02*
X8184467Y-14543508D01*
X8184467Y-14543508D02*
X8193991Y-14553031D01*
X8193991Y-14553031D02*
X8203515Y-14572079D01*
X8203515Y-14572079D02*
X8213039Y-14610174D01*
X8213039Y-14610174D02*
X8213039Y-14657793D01*
X8213039Y-14657793D02*
X8203515Y-14695888D01*
X8203515Y-14695888D02*
X8193991Y-14714936D01*
X8193991Y-14714936D02*
X8184467Y-14724460D01*
X8184467Y-14724460D02*
X8165420Y-14733984D01*
X8165420Y-14733984D02*
X8146372Y-14733984D01*
X8146372Y-14733984D02*
X8127324Y-14724460D01*
X8127324Y-14724460D02*
X8117801Y-14714936D01*
X8117801Y-14714936D02*
X8108277Y-14695888D01*
X8108277Y-14695888D02*
X8098753Y-14657793D01*
X8098753Y-14657793D02*
X8098753Y-14610174D01*
X8098753Y-14610174D02*
X8108277Y-14572079D01*
X8108277Y-14572079D02*
X8117801Y-14553031D01*
X8117801Y-14553031D02*
X8127324Y-14543508D01*
X8127324Y-14543508D02*
X8146372Y-14533984D01*
X8298753Y-14714936D02*
X8308277Y-14724460D01*
X8308277Y-14724460D02*
X8298753Y-14733984D01*
X8298753Y-14733984D02*
X8289229Y-14724460D01*
X8289229Y-14724460D02*
X8298753Y-14714936D01*
X8298753Y-14714936D02*
X8298753Y-14733984D01*
X8374943Y-14533984D02*
X8498753Y-14533984D01*
X8498753Y-14533984D02*
X8432086Y-14610174D01*
X8432086Y-14610174D02*
X8460658Y-14610174D01*
X8460658Y-14610174D02*
X8479705Y-14619698D01*
X8479705Y-14619698D02*
X8489229Y-14629222D01*
X8489229Y-14629222D02*
X8498753Y-14648269D01*
X8498753Y-14648269D02*
X8498753Y-14695888D01*
X8498753Y-14695888D02*
X8489229Y-14714936D01*
X8489229Y-14714936D02*
X8479705Y-14724460D01*
X8479705Y-14724460D02*
X8460658Y-14733984D01*
X8460658Y-14733984D02*
X8403515Y-14733984D01*
X8403515Y-14733984D02*
X8384467Y-14724460D01*
X8384467Y-14724460D02*
X8374943Y-14714936D01*
X8622563Y-14533984D02*
X8641610Y-14533984D01*
X8641610Y-14533984D02*
X8660658Y-14543508D01*
X8660658Y-14543508D02*
X8670182Y-14553031D01*
X8670182Y-14553031D02*
X8679705Y-14572079D01*
X8679705Y-14572079D02*
X8689229Y-14610174D01*
X8689229Y-14610174D02*
X8689229Y-14657793D01*
X8689229Y-14657793D02*
X8679705Y-14695888D01*
X8679705Y-14695888D02*
X8670182Y-14714936D01*
X8670182Y-14714936D02*
X8660658Y-14724460D01*
X8660658Y-14724460D02*
X8641610Y-14733984D01*
X8641610Y-14733984D02*
X8622563Y-14733984D01*
X8622563Y-14733984D02*
X8603515Y-14724460D01*
X8603515Y-14724460D02*
X8593991Y-14714936D01*
X8593991Y-14714936D02*
X8584467Y-14695888D01*
X8584467Y-14695888D02*
X8574944Y-14657793D01*
X8574944Y-14657793D02*
X8574944Y-14610174D01*
X8574944Y-14610174D02*
X8584467Y-14572079D01*
X8584467Y-14572079D02*
X8593991Y-14553031D01*
X8593991Y-14553031D02*
X8603515Y-14543508D01*
X8603515Y-14543508D02*
X8622563Y-14533984D01*
X8813039Y-14533984D02*
X8832086Y-14533984D01*
X8832086Y-14533984D02*
X8851134Y-14543508D01*
X8851134Y-14543508D02*
X8860658Y-14553031D01*
X8860658Y-14553031D02*
X8870182Y-14572079D01*
X8870182Y-14572079D02*
X8879705Y-14610174D01*
X8879705Y-14610174D02*
X8879705Y-14657793D01*
X8879705Y-14657793D02*
X8870182Y-14695888D01*
X8870182Y-14695888D02*
X8860658Y-14714936D01*
X8860658Y-14714936D02*
X8851134Y-14724460D01*
X8851134Y-14724460D02*
X8832086Y-14733984D01*
X8832086Y-14733984D02*
X8813039Y-14733984D01*
X8813039Y-14733984D02*
X8793991Y-14724460D01*
X8793991Y-14724460D02*
X8784467Y-14714936D01*
X8784467Y-14714936D02*
X8774944Y-14695888D01*
X8774944Y-14695888D02*
X8765420Y-14657793D01*
X8765420Y-14657793D02*
X8765420Y-14610174D01*
X8765420Y-14610174D02*
X8774944Y-14572079D01*
X8774944Y-14572079D02*
X8784467Y-14553031D01*
X8784467Y-14553031D02*
X8793991Y-14543508D01*
X8793991Y-14543508D02*
X8813039Y-14533984D01*
X8965420Y-14733984D02*
X8965420Y-14600650D01*
X8965420Y-14619698D02*
X8974944Y-14610174D01*
X8974944Y-14610174D02*
X8993991Y-14600650D01*
X8993991Y-14600650D02*
X9022563Y-14600650D01*
X9022563Y-14600650D02*
X9041610Y-14610174D01*
X9041610Y-14610174D02*
X9051134Y-14629222D01*
X9051134Y-14629222D02*
X9051134Y-14733984D01*
X9051134Y-14629222D02*
X9060658Y-14610174D01*
X9060658Y-14610174D02*
X9079705Y-14600650D01*
X9079705Y-14600650D02*
X9108277Y-14600650D01*
X9108277Y-14600650D02*
X9127325Y-14610174D01*
X9127325Y-14610174D02*
X9136848Y-14629222D01*
X9136848Y-14629222D02*
X9136848Y-14733984D01*
X9232086Y-14733984D02*
X9232086Y-14600650D01*
X9232086Y-14619698D02*
X9241610Y-14610174D01*
X9241610Y-14610174D02*
X9260658Y-14600650D01*
X9260658Y-14600650D02*
X9289229Y-14600650D01*
X9289229Y-14600650D02*
X9308277Y-14610174D01*
X9308277Y-14610174D02*
X9317801Y-14629222D01*
X9317801Y-14629222D02*
X9317801Y-14733984D01*
X9317801Y-14629222D02*
X9327325Y-14610174D01*
X9327325Y-14610174D02*
X9346372Y-14600650D01*
X9346372Y-14600650D02*
X9374944Y-14600650D01*
X9374944Y-14600650D02*
X9393991Y-14610174D01*
X9393991Y-14610174D02*
X9403515Y-14629222D01*
X9403515Y-14629222D02*
X9403515Y-14733984D01*
X9793991Y-14524460D02*
X9622563Y-14781603D01*
X10051134Y-14533984D02*
X10070182Y-14533984D01*
X10070182Y-14533984D02*
X10089229Y-14543508D01*
X10089229Y-14543508D02*
X10098753Y-14553031D01*
X10098753Y-14553031D02*
X10108277Y-14572079D01*
X10108277Y-14572079D02*
X10117801Y-14610174D01*
X10117801Y-14610174D02*
X10117801Y-14657793D01*
X10117801Y-14657793D02*
X10108277Y-14695888D01*
X10108277Y-14695888D02*
X10098753Y-14714936D01*
X10098753Y-14714936D02*
X10089229Y-14724460D01*
X10089229Y-14724460D02*
X10070182Y-14733984D01*
X10070182Y-14733984D02*
X10051134Y-14733984D01*
X10051134Y-14733984D02*
X10032087Y-14724460D01*
X10032087Y-14724460D02*
X10022563Y-14714936D01*
X10022563Y-14714936D02*
X10013039Y-14695888D01*
X10013039Y-14695888D02*
X10003515Y-14657793D01*
X10003515Y-14657793D02*
X10003515Y-14610174D01*
X10003515Y-14610174D02*
X10013039Y-14572079D01*
X10013039Y-14572079D02*
X10022563Y-14553031D01*
X10022563Y-14553031D02*
X10032087Y-14543508D01*
X10032087Y-14543508D02*
X10051134Y-14533984D01*
X10203515Y-14714936D02*
X10213039Y-14724460D01*
X10213039Y-14724460D02*
X10203515Y-14733984D01*
X10203515Y-14733984D02*
X10193991Y-14724460D01*
X10193991Y-14724460D02*
X10203515Y-14714936D01*
X10203515Y-14714936D02*
X10203515Y-14733984D01*
X10336848Y-14533984D02*
X10355896Y-14533984D01*
X10355896Y-14533984D02*
X10374944Y-14543508D01*
X10374944Y-14543508D02*
X10384468Y-14553031D01*
X10384468Y-14553031D02*
X10393991Y-14572079D01*
X10393991Y-14572079D02*
X10403515Y-14610174D01*
X10403515Y-14610174D02*
X10403515Y-14657793D01*
X10403515Y-14657793D02*
X10393991Y-14695888D01*
X10393991Y-14695888D02*
X10384468Y-14714936D01*
X10384468Y-14714936D02*
X10374944Y-14724460D01*
X10374944Y-14724460D02*
X10355896Y-14733984D01*
X10355896Y-14733984D02*
X10336848Y-14733984D01*
X10336848Y-14733984D02*
X10317801Y-14724460D01*
X10317801Y-14724460D02*
X10308277Y-14714936D01*
X10308277Y-14714936D02*
X10298753Y-14695888D01*
X10298753Y-14695888D02*
X10289229Y-14657793D01*
X10289229Y-14657793D02*
X10289229Y-14610174D01*
X10289229Y-14610174D02*
X10298753Y-14572079D01*
X10298753Y-14572079D02*
X10308277Y-14553031D01*
X10308277Y-14553031D02*
X10317801Y-14543508D01*
X10317801Y-14543508D02*
X10336848Y-14533984D01*
X10593991Y-14733984D02*
X10479706Y-14733984D01*
X10536848Y-14733984D02*
X10536848Y-14533984D01*
X10536848Y-14533984D02*
X10517801Y-14562555D01*
X10517801Y-14562555D02*
X10498753Y-14581603D01*
X10498753Y-14581603D02*
X10479706Y-14591127D01*
X10784468Y-14733984D02*
X10670182Y-14733984D01*
X10727325Y-14733984D02*
X10727325Y-14533984D01*
X10727325Y-14533984D02*
X10708277Y-14562555D01*
X10708277Y-14562555D02*
X10689229Y-14581603D01*
X10689229Y-14581603D02*
X10670182Y-14591127D01*
X10898753Y-14619698D02*
X10879706Y-14610174D01*
X10879706Y-14610174D02*
X10870182Y-14600650D01*
X10870182Y-14600650D02*
X10860658Y-14581603D01*
X10860658Y-14581603D02*
X10860658Y-14572079D01*
X10860658Y-14572079D02*
X10870182Y-14553031D01*
X10870182Y-14553031D02*
X10879706Y-14543508D01*
X10879706Y-14543508D02*
X10898753Y-14533984D01*
X10898753Y-14533984D02*
X10936849Y-14533984D01*
X10936849Y-14533984D02*
X10955896Y-14543508D01*
X10955896Y-14543508D02*
X10965420Y-14553031D01*
X10965420Y-14553031D02*
X10974944Y-14572079D01*
X10974944Y-14572079D02*
X10974944Y-14581603D01*
X10974944Y-14581603D02*
X10965420Y-14600650D01*
X10965420Y-14600650D02*
X10955896Y-14610174D01*
X10955896Y-14610174D02*
X10936849Y-14619698D01*
X10936849Y-14619698D02*
X10898753Y-14619698D01*
X10898753Y-14619698D02*
X10879706Y-14629222D01*
X10879706Y-14629222D02*
X10870182Y-14638746D01*
X10870182Y-14638746D02*
X10860658Y-14657793D01*
X10860658Y-14657793D02*
X10860658Y-14695888D01*
X10860658Y-14695888D02*
X10870182Y-14714936D01*
X10870182Y-14714936D02*
X10879706Y-14724460D01*
X10879706Y-14724460D02*
X10898753Y-14733984D01*
X10898753Y-14733984D02*
X10936849Y-14733984D01*
X10936849Y-14733984D02*
X10955896Y-14724460D01*
X10955896Y-14724460D02*
X10965420Y-14714936D01*
X10965420Y-14714936D02*
X10974944Y-14695888D01*
X10974944Y-14695888D02*
X10974944Y-14657793D01*
X10974944Y-14657793D02*
X10965420Y-14638746D01*
X10965420Y-14638746D02*
X10955896Y-14629222D01*
X10955896Y-14629222D02*
X10936849Y-14619698D01*
X11051134Y-14533984D02*
X11051134Y-14572079D01*
X11127325Y-14533984D02*
X11127325Y-14572079D01*
X11422563Y-14810174D02*
X11413039Y-14800650D01*
X11413039Y-14800650D02*
X11393991Y-14772079D01*
X11393991Y-14772079D02*
X11384468Y-14753031D01*
X11384468Y-14753031D02*
X11374944Y-14724460D01*
X11374944Y-14724460D02*
X11365420Y-14676841D01*
X11365420Y-14676841D02*
X11365420Y-14638746D01*
X11365420Y-14638746D02*
X11374944Y-14591127D01*
X11374944Y-14591127D02*
X11384468Y-14562555D01*
X11384468Y-14562555D02*
X11393991Y-14543508D01*
X11393991Y-14543508D02*
X11413039Y-14514936D01*
X11413039Y-14514936D02*
X11422563Y-14505412D01*
X11489229Y-14553031D02*
X11498753Y-14543508D01*
X11498753Y-14543508D02*
X11517801Y-14533984D01*
X11517801Y-14533984D02*
X11565420Y-14533984D01*
X11565420Y-14533984D02*
X11584468Y-14543508D01*
X11584468Y-14543508D02*
X11593991Y-14553031D01*
X11593991Y-14553031D02*
X11603515Y-14572079D01*
X11603515Y-14572079D02*
X11603515Y-14591127D01*
X11603515Y-14591127D02*
X11593991Y-14619698D01*
X11593991Y-14619698D02*
X11479706Y-14733984D01*
X11479706Y-14733984D02*
X11603515Y-14733984D01*
X11774944Y-14600650D02*
X11774944Y-14733984D01*
X11727325Y-14524460D02*
X11679706Y-14667317D01*
X11679706Y-14667317D02*
X11803515Y-14667317D01*
X12032087Y-14733984D02*
X12032087Y-14533984D01*
X12117801Y-14733984D02*
X12117801Y-14629222D01*
X12117801Y-14629222D02*
X12108277Y-14610174D01*
X12108277Y-14610174D02*
X12089230Y-14600650D01*
X12089230Y-14600650D02*
X12060658Y-14600650D01*
X12060658Y-14600650D02*
X12041610Y-14610174D01*
X12041610Y-14610174D02*
X12032087Y-14619698D01*
X12241610Y-14733984D02*
X12222563Y-14724460D01*
X12222563Y-14724460D02*
X12213039Y-14714936D01*
X12213039Y-14714936D02*
X12203515Y-14695888D01*
X12203515Y-14695888D02*
X12203515Y-14638746D01*
X12203515Y-14638746D02*
X12213039Y-14619698D01*
X12213039Y-14619698D02*
X12222563Y-14610174D01*
X12222563Y-14610174D02*
X12241610Y-14600650D01*
X12241610Y-14600650D02*
X12270182Y-14600650D01*
X12270182Y-14600650D02*
X12289230Y-14610174D01*
X12289230Y-14610174D02*
X12298753Y-14619698D01*
X12298753Y-14619698D02*
X12308277Y-14638746D01*
X12308277Y-14638746D02*
X12308277Y-14695888D01*
X12308277Y-14695888D02*
X12298753Y-14714936D01*
X12298753Y-14714936D02*
X12289230Y-14724460D01*
X12289230Y-14724460D02*
X12270182Y-14733984D01*
X12270182Y-14733984D02*
X12241610Y-14733984D01*
X12422563Y-14733984D02*
X12403515Y-14724460D01*
X12403515Y-14724460D02*
X12393991Y-14705412D01*
X12393991Y-14705412D02*
X12393991Y-14533984D01*
X12574944Y-14724460D02*
X12555896Y-14733984D01*
X12555896Y-14733984D02*
X12517801Y-14733984D01*
X12517801Y-14733984D02*
X12498753Y-14724460D01*
X12498753Y-14724460D02*
X12489230Y-14705412D01*
X12489230Y-14705412D02*
X12489230Y-14629222D01*
X12489230Y-14629222D02*
X12498753Y-14610174D01*
X12498753Y-14610174D02*
X12517801Y-14600650D01*
X12517801Y-14600650D02*
X12555896Y-14600650D01*
X12555896Y-14600650D02*
X12574944Y-14610174D01*
X12574944Y-14610174D02*
X12584468Y-14629222D01*
X12584468Y-14629222D02*
X12584468Y-14648269D01*
X12584468Y-14648269D02*
X12489230Y-14667317D01*
X12660658Y-14724460D02*
X12679706Y-14733984D01*
X12679706Y-14733984D02*
X12717801Y-14733984D01*
X12717801Y-14733984D02*
X12736849Y-14724460D01*
X12736849Y-14724460D02*
X12746372Y-14705412D01*
X12746372Y-14705412D02*
X12746372Y-14695888D01*
X12746372Y-14695888D02*
X12736849Y-14676841D01*
X12736849Y-14676841D02*
X12717801Y-14667317D01*
X12717801Y-14667317D02*
X12689230Y-14667317D01*
X12689230Y-14667317D02*
X12670182Y-14657793D01*
X12670182Y-14657793D02*
X12660658Y-14638746D01*
X12660658Y-14638746D02*
X12660658Y-14629222D01*
X12660658Y-14629222D02*
X12670182Y-14610174D01*
X12670182Y-14610174D02*
X12689230Y-14600650D01*
X12689230Y-14600650D02*
X12717801Y-14600650D01*
X12717801Y-14600650D02*
X12736849Y-14610174D01*
X12813039Y-14810174D02*
X12822563Y-14800650D01*
X12822563Y-14800650D02*
X12841611Y-14772079D01*
X12841611Y-14772079D02*
X12851134Y-14753031D01*
X12851134Y-14753031D02*
X12860658Y-14724460D01*
X12860658Y-14724460D02*
X12870182Y-14676841D01*
X12870182Y-14676841D02*
X12870182Y-14638746D01*
X12870182Y-14638746D02*
X12860658Y-14591127D01*
X12860658Y-14591127D02*
X12851134Y-14562555D01*
X12851134Y-14562555D02*
X12841611Y-14543508D01*
X12841611Y-14543508D02*
X12822563Y-14514936D01*
X12822563Y-14514936D02*
X12813039Y-14505412D01*
D12*
X7847500Y-14906500D02*
G75*
G02*
X7807500Y-14906500I-20000J0D01*
G01*
X7807500Y-14906500D02*
G75*
G02*
X7847500Y-14906500I20000J0D01*
G01*
D11*
X8146372Y-14797984D02*
X8165420Y-14797984D01*
X8165420Y-14797984D02*
X8184467Y-14807508D01*
X8184467Y-14807508D02*
X8193991Y-14817031D01*
X8193991Y-14817031D02*
X8203515Y-14836079D01*
X8203515Y-14836079D02*
X8213039Y-14874174D01*
X8213039Y-14874174D02*
X8213039Y-14921793D01*
X8213039Y-14921793D02*
X8203515Y-14959888D01*
X8203515Y-14959888D02*
X8193991Y-14978936D01*
X8193991Y-14978936D02*
X8184467Y-14988460D01*
X8184467Y-14988460D02*
X8165420Y-14997984D01*
X8165420Y-14997984D02*
X8146372Y-14997984D01*
X8146372Y-14997984D02*
X8127324Y-14988460D01*
X8127324Y-14988460D02*
X8117801Y-14978936D01*
X8117801Y-14978936D02*
X8108277Y-14959888D01*
X8108277Y-14959888D02*
X8098753Y-14921793D01*
X8098753Y-14921793D02*
X8098753Y-14874174D01*
X8098753Y-14874174D02*
X8108277Y-14836079D01*
X8108277Y-14836079D02*
X8117801Y-14817031D01*
X8117801Y-14817031D02*
X8127324Y-14807508D01*
X8127324Y-14807508D02*
X8146372Y-14797984D01*
X8298753Y-14978936D02*
X8308277Y-14988460D01*
X8308277Y-14988460D02*
X8298753Y-14997984D01*
X8298753Y-14997984D02*
X8289229Y-14988460D01*
X8289229Y-14988460D02*
X8298753Y-14978936D01*
X8298753Y-14978936D02*
X8298753Y-14997984D01*
X8479705Y-14864650D02*
X8479705Y-14997984D01*
X8432086Y-14788460D02*
X8384467Y-14931317D01*
X8384467Y-14931317D02*
X8508277Y-14931317D01*
X8622563Y-14797984D02*
X8641610Y-14797984D01*
X8641610Y-14797984D02*
X8660658Y-14807508D01*
X8660658Y-14807508D02*
X8670182Y-14817031D01*
X8670182Y-14817031D02*
X8679705Y-14836079D01*
X8679705Y-14836079D02*
X8689229Y-14874174D01*
X8689229Y-14874174D02*
X8689229Y-14921793D01*
X8689229Y-14921793D02*
X8679705Y-14959888D01*
X8679705Y-14959888D02*
X8670182Y-14978936D01*
X8670182Y-14978936D02*
X8660658Y-14988460D01*
X8660658Y-14988460D02*
X8641610Y-14997984D01*
X8641610Y-14997984D02*
X8622563Y-14997984D01*
X8622563Y-14997984D02*
X8603515Y-14988460D01*
X8603515Y-14988460D02*
X8593991Y-14978936D01*
X8593991Y-14978936D02*
X8584467Y-14959888D01*
X8584467Y-14959888D02*
X8574944Y-14921793D01*
X8574944Y-14921793D02*
X8574944Y-14874174D01*
X8574944Y-14874174D02*
X8584467Y-14836079D01*
X8584467Y-14836079D02*
X8593991Y-14817031D01*
X8593991Y-14817031D02*
X8603515Y-14807508D01*
X8603515Y-14807508D02*
X8622563Y-14797984D01*
X8813039Y-14797984D02*
X8832086Y-14797984D01*
X8832086Y-14797984D02*
X8851134Y-14807508D01*
X8851134Y-14807508D02*
X8860658Y-14817031D01*
X8860658Y-14817031D02*
X8870182Y-14836079D01*
X8870182Y-14836079D02*
X8879705Y-14874174D01*
X8879705Y-14874174D02*
X8879705Y-14921793D01*
X8879705Y-14921793D02*
X8870182Y-14959888D01*
X8870182Y-14959888D02*
X8860658Y-14978936D01*
X8860658Y-14978936D02*
X8851134Y-14988460D01*
X8851134Y-14988460D02*
X8832086Y-14997984D01*
X8832086Y-14997984D02*
X8813039Y-14997984D01*
X8813039Y-14997984D02*
X8793991Y-14988460D01*
X8793991Y-14988460D02*
X8784467Y-14978936D01*
X8784467Y-14978936D02*
X8774944Y-14959888D01*
X8774944Y-14959888D02*
X8765420Y-14921793D01*
X8765420Y-14921793D02*
X8765420Y-14874174D01*
X8765420Y-14874174D02*
X8774944Y-14836079D01*
X8774944Y-14836079D02*
X8784467Y-14817031D01*
X8784467Y-14817031D02*
X8793991Y-14807508D01*
X8793991Y-14807508D02*
X8813039Y-14797984D01*
X8965420Y-14997984D02*
X8965420Y-14864650D01*
X8965420Y-14883698D02*
X8974944Y-14874174D01*
X8974944Y-14874174D02*
X8993991Y-14864650D01*
X8993991Y-14864650D02*
X9022563Y-14864650D01*
X9022563Y-14864650D02*
X9041610Y-14874174D01*
X9041610Y-14874174D02*
X9051134Y-14893222D01*
X9051134Y-14893222D02*
X9051134Y-14997984D01*
X9051134Y-14893222D02*
X9060658Y-14874174D01*
X9060658Y-14874174D02*
X9079705Y-14864650D01*
X9079705Y-14864650D02*
X9108277Y-14864650D01*
X9108277Y-14864650D02*
X9127325Y-14874174D01*
X9127325Y-14874174D02*
X9136848Y-14893222D01*
X9136848Y-14893222D02*
X9136848Y-14997984D01*
X9232086Y-14997984D02*
X9232086Y-14864650D01*
X9232086Y-14883698D02*
X9241610Y-14874174D01*
X9241610Y-14874174D02*
X9260658Y-14864650D01*
X9260658Y-14864650D02*
X9289229Y-14864650D01*
X9289229Y-14864650D02*
X9308277Y-14874174D01*
X9308277Y-14874174D02*
X9317801Y-14893222D01*
X9317801Y-14893222D02*
X9317801Y-14997984D01*
X9317801Y-14893222D02*
X9327325Y-14874174D01*
X9327325Y-14874174D02*
X9346372Y-14864650D01*
X9346372Y-14864650D02*
X9374944Y-14864650D01*
X9374944Y-14864650D02*
X9393991Y-14874174D01*
X9393991Y-14874174D02*
X9403515Y-14893222D01*
X9403515Y-14893222D02*
X9403515Y-14997984D01*
X9793991Y-14788460D02*
X9622563Y-15045603D01*
X10051134Y-14797984D02*
X10070182Y-14797984D01*
X10070182Y-14797984D02*
X10089229Y-14807508D01*
X10089229Y-14807508D02*
X10098753Y-14817031D01*
X10098753Y-14817031D02*
X10108277Y-14836079D01*
X10108277Y-14836079D02*
X10117801Y-14874174D01*
X10117801Y-14874174D02*
X10117801Y-14921793D01*
X10117801Y-14921793D02*
X10108277Y-14959888D01*
X10108277Y-14959888D02*
X10098753Y-14978936D01*
X10098753Y-14978936D02*
X10089229Y-14988460D01*
X10089229Y-14988460D02*
X10070182Y-14997984D01*
X10070182Y-14997984D02*
X10051134Y-14997984D01*
X10051134Y-14997984D02*
X10032087Y-14988460D01*
X10032087Y-14988460D02*
X10022563Y-14978936D01*
X10022563Y-14978936D02*
X10013039Y-14959888D01*
X10013039Y-14959888D02*
X10003515Y-14921793D01*
X10003515Y-14921793D02*
X10003515Y-14874174D01*
X10003515Y-14874174D02*
X10013039Y-14836079D01*
X10013039Y-14836079D02*
X10022563Y-14817031D01*
X10022563Y-14817031D02*
X10032087Y-14807508D01*
X10032087Y-14807508D02*
X10051134Y-14797984D01*
X10203515Y-14978936D02*
X10213039Y-14988460D01*
X10213039Y-14988460D02*
X10203515Y-14997984D01*
X10203515Y-14997984D02*
X10193991Y-14988460D01*
X10193991Y-14988460D02*
X10203515Y-14978936D01*
X10203515Y-14978936D02*
X10203515Y-14997984D01*
X10336848Y-14797984D02*
X10355896Y-14797984D01*
X10355896Y-14797984D02*
X10374944Y-14807508D01*
X10374944Y-14807508D02*
X10384468Y-14817031D01*
X10384468Y-14817031D02*
X10393991Y-14836079D01*
X10393991Y-14836079D02*
X10403515Y-14874174D01*
X10403515Y-14874174D02*
X10403515Y-14921793D01*
X10403515Y-14921793D02*
X10393991Y-14959888D01*
X10393991Y-14959888D02*
X10384468Y-14978936D01*
X10384468Y-14978936D02*
X10374944Y-14988460D01*
X10374944Y-14988460D02*
X10355896Y-14997984D01*
X10355896Y-14997984D02*
X10336848Y-14997984D01*
X10336848Y-14997984D02*
X10317801Y-14988460D01*
X10317801Y-14988460D02*
X10308277Y-14978936D01*
X10308277Y-14978936D02*
X10298753Y-14959888D01*
X10298753Y-14959888D02*
X10289229Y-14921793D01*
X10289229Y-14921793D02*
X10289229Y-14874174D01*
X10289229Y-14874174D02*
X10298753Y-14836079D01*
X10298753Y-14836079D02*
X10308277Y-14817031D01*
X10308277Y-14817031D02*
X10317801Y-14807508D01*
X10317801Y-14807508D02*
X10336848Y-14797984D01*
X10593991Y-14997984D02*
X10479706Y-14997984D01*
X10536848Y-14997984D02*
X10536848Y-14797984D01*
X10536848Y-14797984D02*
X10517801Y-14826555D01*
X10517801Y-14826555D02*
X10498753Y-14845603D01*
X10498753Y-14845603D02*
X10479706Y-14855127D01*
X10774944Y-14797984D02*
X10679706Y-14797984D01*
X10679706Y-14797984D02*
X10670182Y-14893222D01*
X10670182Y-14893222D02*
X10679706Y-14883698D01*
X10679706Y-14883698D02*
X10698753Y-14874174D01*
X10698753Y-14874174D02*
X10746372Y-14874174D01*
X10746372Y-14874174D02*
X10765420Y-14883698D01*
X10765420Y-14883698D02*
X10774944Y-14893222D01*
X10774944Y-14893222D02*
X10784468Y-14912269D01*
X10784468Y-14912269D02*
X10784468Y-14959888D01*
X10784468Y-14959888D02*
X10774944Y-14978936D01*
X10774944Y-14978936D02*
X10765420Y-14988460D01*
X10765420Y-14988460D02*
X10746372Y-14997984D01*
X10746372Y-14997984D02*
X10698753Y-14997984D01*
X10698753Y-14997984D02*
X10679706Y-14988460D01*
X10679706Y-14988460D02*
X10670182Y-14978936D01*
X10851134Y-14797984D02*
X10984468Y-14797984D01*
X10984468Y-14797984D02*
X10898753Y-14997984D01*
X11051134Y-14797984D02*
X11051134Y-14836079D01*
X11127325Y-14797984D02*
X11127325Y-14836079D01*
X11422563Y-15074174D02*
X11413039Y-15064650D01*
X11413039Y-15064650D02*
X11393991Y-15036079D01*
X11393991Y-15036079D02*
X11384468Y-15017031D01*
X11384468Y-15017031D02*
X11374944Y-14988460D01*
X11374944Y-14988460D02*
X11365420Y-14940841D01*
X11365420Y-14940841D02*
X11365420Y-14902746D01*
X11365420Y-14902746D02*
X11374944Y-14855127D01*
X11374944Y-14855127D02*
X11384468Y-14826555D01*
X11384468Y-14826555D02*
X11393991Y-14807508D01*
X11393991Y-14807508D02*
X11413039Y-14778936D01*
X11413039Y-14778936D02*
X11422563Y-14769412D01*
X11603515Y-14997984D02*
X11489229Y-14997984D01*
X11546372Y-14997984D02*
X11546372Y-14797984D01*
X11546372Y-14797984D02*
X11527325Y-14826555D01*
X11527325Y-14826555D02*
X11508277Y-14845603D01*
X11508277Y-14845603D02*
X11489229Y-14855127D01*
X11774944Y-14797984D02*
X11736848Y-14797984D01*
X11736848Y-14797984D02*
X11717801Y-14807508D01*
X11717801Y-14807508D02*
X11708277Y-14817031D01*
X11708277Y-14817031D02*
X11689229Y-14845603D01*
X11689229Y-14845603D02*
X11679706Y-14883698D01*
X11679706Y-14883698D02*
X11679706Y-14959888D01*
X11679706Y-14959888D02*
X11689229Y-14978936D01*
X11689229Y-14978936D02*
X11698753Y-14988460D01*
X11698753Y-14988460D02*
X11717801Y-14997984D01*
X11717801Y-14997984D02*
X11755896Y-14997984D01*
X11755896Y-14997984D02*
X11774944Y-14988460D01*
X11774944Y-14988460D02*
X11784468Y-14978936D01*
X11784468Y-14978936D02*
X11793991Y-14959888D01*
X11793991Y-14959888D02*
X11793991Y-14912269D01*
X11793991Y-14912269D02*
X11784468Y-14893222D01*
X11784468Y-14893222D02*
X11774944Y-14883698D01*
X11774944Y-14883698D02*
X11755896Y-14874174D01*
X11755896Y-14874174D02*
X11717801Y-14874174D01*
X11717801Y-14874174D02*
X11698753Y-14883698D01*
X11698753Y-14883698D02*
X11689229Y-14893222D01*
X11689229Y-14893222D02*
X11679706Y-14912269D01*
X12032087Y-14997984D02*
X12032087Y-14797984D01*
X12117801Y-14997984D02*
X12117801Y-14893222D01*
X12117801Y-14893222D02*
X12108277Y-14874174D01*
X12108277Y-14874174D02*
X12089230Y-14864650D01*
X12089230Y-14864650D02*
X12060658Y-14864650D01*
X12060658Y-14864650D02*
X12041610Y-14874174D01*
X12041610Y-14874174D02*
X12032087Y-14883698D01*
X12241610Y-14997984D02*
X12222563Y-14988460D01*
X12222563Y-14988460D02*
X12213039Y-14978936D01*
X12213039Y-14978936D02*
X12203515Y-14959888D01*
X12203515Y-14959888D02*
X12203515Y-14902746D01*
X12203515Y-14902746D02*
X12213039Y-14883698D01*
X12213039Y-14883698D02*
X12222563Y-14874174D01*
X12222563Y-14874174D02*
X12241610Y-14864650D01*
X12241610Y-14864650D02*
X12270182Y-14864650D01*
X12270182Y-14864650D02*
X12289230Y-14874174D01*
X12289230Y-14874174D02*
X12298753Y-14883698D01*
X12298753Y-14883698D02*
X12308277Y-14902746D01*
X12308277Y-14902746D02*
X12308277Y-14959888D01*
X12308277Y-14959888D02*
X12298753Y-14978936D01*
X12298753Y-14978936D02*
X12289230Y-14988460D01*
X12289230Y-14988460D02*
X12270182Y-14997984D01*
X12270182Y-14997984D02*
X12241610Y-14997984D01*
X12422563Y-14997984D02*
X12403515Y-14988460D01*
X12403515Y-14988460D02*
X12393991Y-14969412D01*
X12393991Y-14969412D02*
X12393991Y-14797984D01*
X12574944Y-14988460D02*
X12555896Y-14997984D01*
X12555896Y-14997984D02*
X12517801Y-14997984D01*
X12517801Y-14997984D02*
X12498753Y-14988460D01*
X12498753Y-14988460D02*
X12489230Y-14969412D01*
X12489230Y-14969412D02*
X12489230Y-14893222D01*
X12489230Y-14893222D02*
X12498753Y-14874174D01*
X12498753Y-14874174D02*
X12517801Y-14864650D01*
X12517801Y-14864650D02*
X12555896Y-14864650D01*
X12555896Y-14864650D02*
X12574944Y-14874174D01*
X12574944Y-14874174D02*
X12584468Y-14893222D01*
X12584468Y-14893222D02*
X12584468Y-14912269D01*
X12584468Y-14912269D02*
X12489230Y-14931317D01*
X12660658Y-14988460D02*
X12679706Y-14997984D01*
X12679706Y-14997984D02*
X12717801Y-14997984D01*
X12717801Y-14997984D02*
X12736849Y-14988460D01*
X12736849Y-14988460D02*
X12746372Y-14969412D01*
X12746372Y-14969412D02*
X12746372Y-14959888D01*
X12746372Y-14959888D02*
X12736849Y-14940841D01*
X12736849Y-14940841D02*
X12717801Y-14931317D01*
X12717801Y-14931317D02*
X12689230Y-14931317D01*
X12689230Y-14931317D02*
X12670182Y-14921793D01*
X12670182Y-14921793D02*
X12660658Y-14902746D01*
X12660658Y-14902746D02*
X12660658Y-14893222D01*
X12660658Y-14893222D02*
X12670182Y-14874174D01*
X12670182Y-14874174D02*
X12689230Y-14864650D01*
X12689230Y-14864650D02*
X12717801Y-14864650D01*
X12717801Y-14864650D02*
X12736849Y-14874174D01*
X12813039Y-15074174D02*
X12822563Y-15064650D01*
X12822563Y-15064650D02*
X12841611Y-15036079D01*
X12841611Y-15036079D02*
X12851134Y-15017031D01*
X12851134Y-15017031D02*
X12860658Y-14988460D01*
X12860658Y-14988460D02*
X12870182Y-14940841D01*
X12870182Y-14940841D02*
X12870182Y-14902746D01*
X12870182Y-14902746D02*
X12860658Y-14855127D01*
X12860658Y-14855127D02*
X12851134Y-14826555D01*
X12851134Y-14826555D02*
X12841611Y-14807508D01*
X12841611Y-14807508D02*
X12822563Y-14778936D01*
X12822563Y-14778936D02*
X12813039Y-14769412D01*
D12*
X7817500Y-15140500D02*
X7817500Y-15200500D01*
X7787500Y-15170500D02*
X7847500Y-15170500D01*
D11*
X8146372Y-15061984D02*
X8165420Y-15061984D01*
X8165420Y-15061984D02*
X8184467Y-15071508D01*
X8184467Y-15071508D02*
X8193991Y-15081031D01*
X8193991Y-15081031D02*
X8203515Y-15100079D01*
X8203515Y-15100079D02*
X8213039Y-15138174D01*
X8213039Y-15138174D02*
X8213039Y-15185793D01*
X8213039Y-15185793D02*
X8203515Y-15223888D01*
X8203515Y-15223888D02*
X8193991Y-15242936D01*
X8193991Y-15242936D02*
X8184467Y-15252460D01*
X8184467Y-15252460D02*
X8165420Y-15261984D01*
X8165420Y-15261984D02*
X8146372Y-15261984D01*
X8146372Y-15261984D02*
X8127324Y-15252460D01*
X8127324Y-15252460D02*
X8117801Y-15242936D01*
X8117801Y-15242936D02*
X8108277Y-15223888D01*
X8108277Y-15223888D02*
X8098753Y-15185793D01*
X8098753Y-15185793D02*
X8098753Y-15138174D01*
X8098753Y-15138174D02*
X8108277Y-15100079D01*
X8108277Y-15100079D02*
X8117801Y-15081031D01*
X8117801Y-15081031D02*
X8127324Y-15071508D01*
X8127324Y-15071508D02*
X8146372Y-15061984D01*
X8298753Y-15242936D02*
X8308277Y-15252460D01*
X8308277Y-15252460D02*
X8298753Y-15261984D01*
X8298753Y-15261984D02*
X8289229Y-15252460D01*
X8289229Y-15252460D02*
X8298753Y-15242936D01*
X8298753Y-15242936D02*
X8298753Y-15261984D01*
X8479705Y-15061984D02*
X8441610Y-15061984D01*
X8441610Y-15061984D02*
X8422563Y-15071508D01*
X8422563Y-15071508D02*
X8413039Y-15081031D01*
X8413039Y-15081031D02*
X8393991Y-15109603D01*
X8393991Y-15109603D02*
X8384467Y-15147698D01*
X8384467Y-15147698D02*
X8384467Y-15223888D01*
X8384467Y-15223888D02*
X8393991Y-15242936D01*
X8393991Y-15242936D02*
X8403515Y-15252460D01*
X8403515Y-15252460D02*
X8422563Y-15261984D01*
X8422563Y-15261984D02*
X8460658Y-15261984D01*
X8460658Y-15261984D02*
X8479705Y-15252460D01*
X8479705Y-15252460D02*
X8489229Y-15242936D01*
X8489229Y-15242936D02*
X8498753Y-15223888D01*
X8498753Y-15223888D02*
X8498753Y-15176269D01*
X8498753Y-15176269D02*
X8489229Y-15157222D01*
X8489229Y-15157222D02*
X8479705Y-15147698D01*
X8479705Y-15147698D02*
X8460658Y-15138174D01*
X8460658Y-15138174D02*
X8422563Y-15138174D01*
X8422563Y-15138174D02*
X8403515Y-15147698D01*
X8403515Y-15147698D02*
X8393991Y-15157222D01*
X8393991Y-15157222D02*
X8384467Y-15176269D01*
X8622563Y-15061984D02*
X8641610Y-15061984D01*
X8641610Y-15061984D02*
X8660658Y-15071508D01*
X8660658Y-15071508D02*
X8670182Y-15081031D01*
X8670182Y-15081031D02*
X8679705Y-15100079D01*
X8679705Y-15100079D02*
X8689229Y-15138174D01*
X8689229Y-15138174D02*
X8689229Y-15185793D01*
X8689229Y-15185793D02*
X8679705Y-15223888D01*
X8679705Y-15223888D02*
X8670182Y-15242936D01*
X8670182Y-15242936D02*
X8660658Y-15252460D01*
X8660658Y-15252460D02*
X8641610Y-15261984D01*
X8641610Y-15261984D02*
X8622563Y-15261984D01*
X8622563Y-15261984D02*
X8603515Y-15252460D01*
X8603515Y-15252460D02*
X8593991Y-15242936D01*
X8593991Y-15242936D02*
X8584467Y-15223888D01*
X8584467Y-15223888D02*
X8574944Y-15185793D01*
X8574944Y-15185793D02*
X8574944Y-15138174D01*
X8574944Y-15138174D02*
X8584467Y-15100079D01*
X8584467Y-15100079D02*
X8593991Y-15081031D01*
X8593991Y-15081031D02*
X8603515Y-15071508D01*
X8603515Y-15071508D02*
X8622563Y-15061984D01*
X8813039Y-15061984D02*
X8832086Y-15061984D01*
X8832086Y-15061984D02*
X8851134Y-15071508D01*
X8851134Y-15071508D02*
X8860658Y-15081031D01*
X8860658Y-15081031D02*
X8870182Y-15100079D01*
X8870182Y-15100079D02*
X8879705Y-15138174D01*
X8879705Y-15138174D02*
X8879705Y-15185793D01*
X8879705Y-15185793D02*
X8870182Y-15223888D01*
X8870182Y-15223888D02*
X8860658Y-15242936D01*
X8860658Y-15242936D02*
X8851134Y-15252460D01*
X8851134Y-15252460D02*
X8832086Y-15261984D01*
X8832086Y-15261984D02*
X8813039Y-15261984D01*
X8813039Y-15261984D02*
X8793991Y-15252460D01*
X8793991Y-15252460D02*
X8784467Y-15242936D01*
X8784467Y-15242936D02*
X8774944Y-15223888D01*
X8774944Y-15223888D02*
X8765420Y-15185793D01*
X8765420Y-15185793D02*
X8765420Y-15138174D01*
X8765420Y-15138174D02*
X8774944Y-15100079D01*
X8774944Y-15100079D02*
X8784467Y-15081031D01*
X8784467Y-15081031D02*
X8793991Y-15071508D01*
X8793991Y-15071508D02*
X8813039Y-15061984D01*
X8965420Y-15261984D02*
X8965420Y-15128650D01*
X8965420Y-15147698D02*
X8974944Y-15138174D01*
X8974944Y-15138174D02*
X8993991Y-15128650D01*
X8993991Y-15128650D02*
X9022563Y-15128650D01*
X9022563Y-15128650D02*
X9041610Y-15138174D01*
X9041610Y-15138174D02*
X9051134Y-15157222D01*
X9051134Y-15157222D02*
X9051134Y-15261984D01*
X9051134Y-15157222D02*
X9060658Y-15138174D01*
X9060658Y-15138174D02*
X9079705Y-15128650D01*
X9079705Y-15128650D02*
X9108277Y-15128650D01*
X9108277Y-15128650D02*
X9127325Y-15138174D01*
X9127325Y-15138174D02*
X9136848Y-15157222D01*
X9136848Y-15157222D02*
X9136848Y-15261984D01*
X9232086Y-15261984D02*
X9232086Y-15128650D01*
X9232086Y-15147698D02*
X9241610Y-15138174D01*
X9241610Y-15138174D02*
X9260658Y-15128650D01*
X9260658Y-15128650D02*
X9289229Y-15128650D01*
X9289229Y-15128650D02*
X9308277Y-15138174D01*
X9308277Y-15138174D02*
X9317801Y-15157222D01*
X9317801Y-15157222D02*
X9317801Y-15261984D01*
X9317801Y-15157222D02*
X9327325Y-15138174D01*
X9327325Y-15138174D02*
X9346372Y-15128650D01*
X9346372Y-15128650D02*
X9374944Y-15128650D01*
X9374944Y-15128650D02*
X9393991Y-15138174D01*
X9393991Y-15138174D02*
X9403515Y-15157222D01*
X9403515Y-15157222D02*
X9403515Y-15261984D01*
X9793991Y-15052460D02*
X9622563Y-15309603D01*
X10051134Y-15061984D02*
X10070182Y-15061984D01*
X10070182Y-15061984D02*
X10089229Y-15071508D01*
X10089229Y-15071508D02*
X10098753Y-15081031D01*
X10098753Y-15081031D02*
X10108277Y-15100079D01*
X10108277Y-15100079D02*
X10117801Y-15138174D01*
X10117801Y-15138174D02*
X10117801Y-15185793D01*
X10117801Y-15185793D02*
X10108277Y-15223888D01*
X10108277Y-15223888D02*
X10098753Y-15242936D01*
X10098753Y-15242936D02*
X10089229Y-15252460D01*
X10089229Y-15252460D02*
X10070182Y-15261984D01*
X10070182Y-15261984D02*
X10051134Y-15261984D01*
X10051134Y-15261984D02*
X10032087Y-15252460D01*
X10032087Y-15252460D02*
X10022563Y-15242936D01*
X10022563Y-15242936D02*
X10013039Y-15223888D01*
X10013039Y-15223888D02*
X10003515Y-15185793D01*
X10003515Y-15185793D02*
X10003515Y-15138174D01*
X10003515Y-15138174D02*
X10013039Y-15100079D01*
X10013039Y-15100079D02*
X10022563Y-15081031D01*
X10022563Y-15081031D02*
X10032087Y-15071508D01*
X10032087Y-15071508D02*
X10051134Y-15061984D01*
X10203515Y-15242936D02*
X10213039Y-15252460D01*
X10213039Y-15252460D02*
X10203515Y-15261984D01*
X10203515Y-15261984D02*
X10193991Y-15252460D01*
X10193991Y-15252460D02*
X10203515Y-15242936D01*
X10203515Y-15242936D02*
X10203515Y-15261984D01*
X10336848Y-15061984D02*
X10355896Y-15061984D01*
X10355896Y-15061984D02*
X10374944Y-15071508D01*
X10374944Y-15071508D02*
X10384468Y-15081031D01*
X10384468Y-15081031D02*
X10393991Y-15100079D01*
X10393991Y-15100079D02*
X10403515Y-15138174D01*
X10403515Y-15138174D02*
X10403515Y-15185793D01*
X10403515Y-15185793D02*
X10393991Y-15223888D01*
X10393991Y-15223888D02*
X10384468Y-15242936D01*
X10384468Y-15242936D02*
X10374944Y-15252460D01*
X10374944Y-15252460D02*
X10355896Y-15261984D01*
X10355896Y-15261984D02*
X10336848Y-15261984D01*
X10336848Y-15261984D02*
X10317801Y-15252460D01*
X10317801Y-15252460D02*
X10308277Y-15242936D01*
X10308277Y-15242936D02*
X10298753Y-15223888D01*
X10298753Y-15223888D02*
X10289229Y-15185793D01*
X10289229Y-15185793D02*
X10289229Y-15138174D01*
X10289229Y-15138174D02*
X10298753Y-15100079D01*
X10298753Y-15100079D02*
X10308277Y-15081031D01*
X10308277Y-15081031D02*
X10317801Y-15071508D01*
X10317801Y-15071508D02*
X10336848Y-15061984D01*
X10479706Y-15081031D02*
X10489229Y-15071508D01*
X10489229Y-15071508D02*
X10508277Y-15061984D01*
X10508277Y-15061984D02*
X10555896Y-15061984D01*
X10555896Y-15061984D02*
X10574944Y-15071508D01*
X10574944Y-15071508D02*
X10584468Y-15081031D01*
X10584468Y-15081031D02*
X10593991Y-15100079D01*
X10593991Y-15100079D02*
X10593991Y-15119127D01*
X10593991Y-15119127D02*
X10584468Y-15147698D01*
X10584468Y-15147698D02*
X10470182Y-15261984D01*
X10470182Y-15261984D02*
X10593991Y-15261984D01*
X10660658Y-15061984D02*
X10784468Y-15061984D01*
X10784468Y-15061984D02*
X10717801Y-15138174D01*
X10717801Y-15138174D02*
X10746372Y-15138174D01*
X10746372Y-15138174D02*
X10765420Y-15147698D01*
X10765420Y-15147698D02*
X10774944Y-15157222D01*
X10774944Y-15157222D02*
X10784468Y-15176269D01*
X10784468Y-15176269D02*
X10784468Y-15223888D01*
X10784468Y-15223888D02*
X10774944Y-15242936D01*
X10774944Y-15242936D02*
X10765420Y-15252460D01*
X10765420Y-15252460D02*
X10746372Y-15261984D01*
X10746372Y-15261984D02*
X10689229Y-15261984D01*
X10689229Y-15261984D02*
X10670182Y-15252460D01*
X10670182Y-15252460D02*
X10660658Y-15242936D01*
X10955896Y-15061984D02*
X10917801Y-15061984D01*
X10917801Y-15061984D02*
X10898753Y-15071508D01*
X10898753Y-15071508D02*
X10889229Y-15081031D01*
X10889229Y-15081031D02*
X10870182Y-15109603D01*
X10870182Y-15109603D02*
X10860658Y-15147698D01*
X10860658Y-15147698D02*
X10860658Y-15223888D01*
X10860658Y-15223888D02*
X10870182Y-15242936D01*
X10870182Y-15242936D02*
X10879706Y-15252460D01*
X10879706Y-15252460D02*
X10898753Y-15261984D01*
X10898753Y-15261984D02*
X10936849Y-15261984D01*
X10936849Y-15261984D02*
X10955896Y-15252460D01*
X10955896Y-15252460D02*
X10965420Y-15242936D01*
X10965420Y-15242936D02*
X10974944Y-15223888D01*
X10974944Y-15223888D02*
X10974944Y-15176269D01*
X10974944Y-15176269D02*
X10965420Y-15157222D01*
X10965420Y-15157222D02*
X10955896Y-15147698D01*
X10955896Y-15147698D02*
X10936849Y-15138174D01*
X10936849Y-15138174D02*
X10898753Y-15138174D01*
X10898753Y-15138174D02*
X10879706Y-15147698D01*
X10879706Y-15147698D02*
X10870182Y-15157222D01*
X10870182Y-15157222D02*
X10860658Y-15176269D01*
X11051134Y-15061984D02*
X11051134Y-15100079D01*
X11127325Y-15061984D02*
X11127325Y-15100079D01*
X11422563Y-15338174D02*
X11413039Y-15328650D01*
X11413039Y-15328650D02*
X11393991Y-15300079D01*
X11393991Y-15300079D02*
X11384468Y-15281031D01*
X11384468Y-15281031D02*
X11374944Y-15252460D01*
X11374944Y-15252460D02*
X11365420Y-15204841D01*
X11365420Y-15204841D02*
X11365420Y-15166746D01*
X11365420Y-15166746D02*
X11374944Y-15119127D01*
X11374944Y-15119127D02*
X11384468Y-15090555D01*
X11384468Y-15090555D02*
X11393991Y-15071508D01*
X11393991Y-15071508D02*
X11413039Y-15042936D01*
X11413039Y-15042936D02*
X11422563Y-15033412D01*
X11536848Y-15061984D02*
X11555896Y-15061984D01*
X11555896Y-15061984D02*
X11574944Y-15071508D01*
X11574944Y-15071508D02*
X11584468Y-15081031D01*
X11584468Y-15081031D02*
X11593991Y-15100079D01*
X11593991Y-15100079D02*
X11603515Y-15138174D01*
X11603515Y-15138174D02*
X11603515Y-15185793D01*
X11603515Y-15185793D02*
X11593991Y-15223888D01*
X11593991Y-15223888D02*
X11584468Y-15242936D01*
X11584468Y-15242936D02*
X11574944Y-15252460D01*
X11574944Y-15252460D02*
X11555896Y-15261984D01*
X11555896Y-15261984D02*
X11536848Y-15261984D01*
X11536848Y-15261984D02*
X11517801Y-15252460D01*
X11517801Y-15252460D02*
X11508277Y-15242936D01*
X11508277Y-15242936D02*
X11498753Y-15223888D01*
X11498753Y-15223888D02*
X11489229Y-15185793D01*
X11489229Y-15185793D02*
X11489229Y-15138174D01*
X11489229Y-15138174D02*
X11498753Y-15100079D01*
X11498753Y-15100079D02*
X11508277Y-15081031D01*
X11508277Y-15081031D02*
X11517801Y-15071508D01*
X11517801Y-15071508D02*
X11536848Y-15061984D01*
X11841610Y-15261984D02*
X11841610Y-15061984D01*
X11927325Y-15261984D02*
X11927325Y-15157222D01*
X11927325Y-15157222D02*
X11917801Y-15138174D01*
X11917801Y-15138174D02*
X11898753Y-15128650D01*
X11898753Y-15128650D02*
X11870182Y-15128650D01*
X11870182Y-15128650D02*
X11851134Y-15138174D01*
X11851134Y-15138174D02*
X11841610Y-15147698D01*
X12051134Y-15261984D02*
X12032087Y-15252460D01*
X12032087Y-15252460D02*
X12022563Y-15242936D01*
X12022563Y-15242936D02*
X12013039Y-15223888D01*
X12013039Y-15223888D02*
X12013039Y-15166746D01*
X12013039Y-15166746D02*
X12022563Y-15147698D01*
X12022563Y-15147698D02*
X12032087Y-15138174D01*
X12032087Y-15138174D02*
X12051134Y-15128650D01*
X12051134Y-15128650D02*
X12079706Y-15128650D01*
X12079706Y-15128650D02*
X12098753Y-15138174D01*
X12098753Y-15138174D02*
X12108277Y-15147698D01*
X12108277Y-15147698D02*
X12117801Y-15166746D01*
X12117801Y-15166746D02*
X12117801Y-15223888D01*
X12117801Y-15223888D02*
X12108277Y-15242936D01*
X12108277Y-15242936D02*
X12098753Y-15252460D01*
X12098753Y-15252460D02*
X12079706Y-15261984D01*
X12079706Y-15261984D02*
X12051134Y-15261984D01*
X12232087Y-15261984D02*
X12213039Y-15252460D01*
X12213039Y-15252460D02*
X12203515Y-15233412D01*
X12203515Y-15233412D02*
X12203515Y-15061984D01*
X12384468Y-15252460D02*
X12365420Y-15261984D01*
X12365420Y-15261984D02*
X12327325Y-15261984D01*
X12327325Y-15261984D02*
X12308277Y-15252460D01*
X12308277Y-15252460D02*
X12298753Y-15233412D01*
X12298753Y-15233412D02*
X12298753Y-15157222D01*
X12298753Y-15157222D02*
X12308277Y-15138174D01*
X12308277Y-15138174D02*
X12327325Y-15128650D01*
X12327325Y-15128650D02*
X12365420Y-15128650D01*
X12365420Y-15128650D02*
X12384468Y-15138174D01*
X12384468Y-15138174D02*
X12393991Y-15157222D01*
X12393991Y-15157222D02*
X12393991Y-15176269D01*
X12393991Y-15176269D02*
X12298753Y-15195317D01*
X12470182Y-15252460D02*
X12489230Y-15261984D01*
X12489230Y-15261984D02*
X12527325Y-15261984D01*
X12527325Y-15261984D02*
X12546372Y-15252460D01*
X12546372Y-15252460D02*
X12555896Y-15233412D01*
X12555896Y-15233412D02*
X12555896Y-15223888D01*
X12555896Y-15223888D02*
X12546372Y-15204841D01*
X12546372Y-15204841D02*
X12527325Y-15195317D01*
X12527325Y-15195317D02*
X12498753Y-15195317D01*
X12498753Y-15195317D02*
X12479706Y-15185793D01*
X12479706Y-15185793D02*
X12470182Y-15166746D01*
X12470182Y-15166746D02*
X12470182Y-15157222D01*
X12470182Y-15157222D02*
X12479706Y-15138174D01*
X12479706Y-15138174D02*
X12498753Y-15128650D01*
X12498753Y-15128650D02*
X12527325Y-15128650D01*
X12527325Y-15128650D02*
X12546372Y-15138174D01*
X12793992Y-15185793D02*
X12946373Y-15185793D01*
X12870182Y-15261984D02*
X12870182Y-15109603D01*
X13279706Y-15128650D02*
X13279706Y-15261984D01*
X13232087Y-15052460D02*
X13184468Y-15195317D01*
X13184468Y-15195317D02*
X13308277Y-15195317D01*
X13527325Y-15252460D02*
X13546373Y-15261984D01*
X13546373Y-15261984D02*
X13584468Y-15261984D01*
X13584468Y-15261984D02*
X13603515Y-15252460D01*
X13603515Y-15252460D02*
X13613039Y-15233412D01*
X13613039Y-15233412D02*
X13613039Y-15223888D01*
X13613039Y-15223888D02*
X13603515Y-15204841D01*
X13603515Y-15204841D02*
X13584468Y-15195317D01*
X13584468Y-15195317D02*
X13555896Y-15195317D01*
X13555896Y-15195317D02*
X13536849Y-15185793D01*
X13536849Y-15185793D02*
X13527325Y-15166746D01*
X13527325Y-15166746D02*
X13527325Y-15157222D01*
X13527325Y-15157222D02*
X13536849Y-15138174D01*
X13536849Y-15138174D02*
X13555896Y-15128650D01*
X13555896Y-15128650D02*
X13584468Y-15128650D01*
X13584468Y-15128650D02*
X13603515Y-15138174D01*
X13727325Y-15261984D02*
X13708277Y-15252460D01*
X13708277Y-15252460D02*
X13698754Y-15233412D01*
X13698754Y-15233412D02*
X13698754Y-15061984D01*
X13832087Y-15261984D02*
X13813039Y-15252460D01*
X13813039Y-15252460D02*
X13803515Y-15242936D01*
X13803515Y-15242936D02*
X13793992Y-15223888D01*
X13793992Y-15223888D02*
X13793992Y-15166746D01*
X13793992Y-15166746D02*
X13803515Y-15147698D01*
X13803515Y-15147698D02*
X13813039Y-15138174D01*
X13813039Y-15138174D02*
X13832087Y-15128650D01*
X13832087Y-15128650D02*
X13860658Y-15128650D01*
X13860658Y-15128650D02*
X13879706Y-15138174D01*
X13879706Y-15138174D02*
X13889230Y-15147698D01*
X13889230Y-15147698D02*
X13898754Y-15166746D01*
X13898754Y-15166746D02*
X13898754Y-15223888D01*
X13898754Y-15223888D02*
X13889230Y-15242936D01*
X13889230Y-15242936D02*
X13879706Y-15252460D01*
X13879706Y-15252460D02*
X13860658Y-15261984D01*
X13860658Y-15261984D02*
X13832087Y-15261984D01*
X13955896Y-15128650D02*
X14032087Y-15128650D01*
X13984468Y-15061984D02*
X13984468Y-15233412D01*
X13984468Y-15233412D02*
X13993992Y-15252460D01*
X13993992Y-15252460D02*
X14013039Y-15261984D01*
X14013039Y-15261984D02*
X14032087Y-15261984D01*
X14089230Y-15252460D02*
X14108277Y-15261984D01*
X14108277Y-15261984D02*
X14146373Y-15261984D01*
X14146373Y-15261984D02*
X14165420Y-15252460D01*
X14165420Y-15252460D02*
X14174944Y-15233412D01*
X14174944Y-15233412D02*
X14174944Y-15223888D01*
X14174944Y-15223888D02*
X14165420Y-15204841D01*
X14165420Y-15204841D02*
X14146373Y-15195317D01*
X14146373Y-15195317D02*
X14117801Y-15195317D01*
X14117801Y-15195317D02*
X14098754Y-15185793D01*
X14098754Y-15185793D02*
X14089230Y-15166746D01*
X14089230Y-15166746D02*
X14089230Y-15157222D01*
X14089230Y-15157222D02*
X14098754Y-15138174D01*
X14098754Y-15138174D02*
X14117801Y-15128650D01*
X14117801Y-15128650D02*
X14146373Y-15128650D01*
X14146373Y-15128650D02*
X14165420Y-15138174D01*
X14241611Y-15338174D02*
X14251135Y-15328650D01*
X14251135Y-15328650D02*
X14270182Y-15300079D01*
X14270182Y-15300079D02*
X14279706Y-15281031D01*
X14279706Y-15281031D02*
X14289230Y-15252460D01*
X14289230Y-15252460D02*
X14298754Y-15204841D01*
X14298754Y-15204841D02*
X14298754Y-15166746D01*
X14298754Y-15166746D02*
X14289230Y-15119127D01*
X14289230Y-15119127D02*
X14279706Y-15090555D01*
X14279706Y-15090555D02*
X14270182Y-15071508D01*
X14270182Y-15071508D02*
X14251135Y-15042936D01*
X14251135Y-15042936D02*
X14241611Y-15033412D01*
D12*
X7832856Y-15469856D02*
X7832856Y-15399144D01*
X7762144Y-15399144D01*
X7762144Y-15469856D01*
X7832856Y-15469856D01*
D11*
X8213039Y-15525984D02*
X8098753Y-15525984D01*
X8155896Y-15525984D02*
X8155896Y-15325984D01*
X8155896Y-15325984D02*
X8136848Y-15354555D01*
X8136848Y-15354555D02*
X8117801Y-15373603D01*
X8117801Y-15373603D02*
X8098753Y-15383127D01*
X8298753Y-15506936D02*
X8308277Y-15516460D01*
X8308277Y-15516460D02*
X8298753Y-15525984D01*
X8298753Y-15525984D02*
X8289229Y-15516460D01*
X8289229Y-15516460D02*
X8298753Y-15506936D01*
X8298753Y-15506936D02*
X8298753Y-15525984D01*
X8432086Y-15325984D02*
X8451134Y-15325984D01*
X8451134Y-15325984D02*
X8470182Y-15335508D01*
X8470182Y-15335508D02*
X8479705Y-15345031D01*
X8479705Y-15345031D02*
X8489229Y-15364079D01*
X8489229Y-15364079D02*
X8498753Y-15402174D01*
X8498753Y-15402174D02*
X8498753Y-15449793D01*
X8498753Y-15449793D02*
X8489229Y-15487888D01*
X8489229Y-15487888D02*
X8479705Y-15506936D01*
X8479705Y-15506936D02*
X8470182Y-15516460D01*
X8470182Y-15516460D02*
X8451134Y-15525984D01*
X8451134Y-15525984D02*
X8432086Y-15525984D01*
X8432086Y-15525984D02*
X8413039Y-15516460D01*
X8413039Y-15516460D02*
X8403515Y-15506936D01*
X8403515Y-15506936D02*
X8393991Y-15487888D01*
X8393991Y-15487888D02*
X8384467Y-15449793D01*
X8384467Y-15449793D02*
X8384467Y-15402174D01*
X8384467Y-15402174D02*
X8393991Y-15364079D01*
X8393991Y-15364079D02*
X8403515Y-15345031D01*
X8403515Y-15345031D02*
X8413039Y-15335508D01*
X8413039Y-15335508D02*
X8432086Y-15325984D01*
X8622563Y-15325984D02*
X8641610Y-15325984D01*
X8641610Y-15325984D02*
X8660658Y-15335508D01*
X8660658Y-15335508D02*
X8670182Y-15345031D01*
X8670182Y-15345031D02*
X8679705Y-15364079D01*
X8679705Y-15364079D02*
X8689229Y-15402174D01*
X8689229Y-15402174D02*
X8689229Y-15449793D01*
X8689229Y-15449793D02*
X8679705Y-15487888D01*
X8679705Y-15487888D02*
X8670182Y-15506936D01*
X8670182Y-15506936D02*
X8660658Y-15516460D01*
X8660658Y-15516460D02*
X8641610Y-15525984D01*
X8641610Y-15525984D02*
X8622563Y-15525984D01*
X8622563Y-15525984D02*
X8603515Y-15516460D01*
X8603515Y-15516460D02*
X8593991Y-15506936D01*
X8593991Y-15506936D02*
X8584467Y-15487888D01*
X8584467Y-15487888D02*
X8574944Y-15449793D01*
X8574944Y-15449793D02*
X8574944Y-15402174D01*
X8574944Y-15402174D02*
X8584467Y-15364079D01*
X8584467Y-15364079D02*
X8593991Y-15345031D01*
X8593991Y-15345031D02*
X8603515Y-15335508D01*
X8603515Y-15335508D02*
X8622563Y-15325984D01*
X8813039Y-15325984D02*
X8832086Y-15325984D01*
X8832086Y-15325984D02*
X8851134Y-15335508D01*
X8851134Y-15335508D02*
X8860658Y-15345031D01*
X8860658Y-15345031D02*
X8870182Y-15364079D01*
X8870182Y-15364079D02*
X8879705Y-15402174D01*
X8879705Y-15402174D02*
X8879705Y-15449793D01*
X8879705Y-15449793D02*
X8870182Y-15487888D01*
X8870182Y-15487888D02*
X8860658Y-15506936D01*
X8860658Y-15506936D02*
X8851134Y-15516460D01*
X8851134Y-15516460D02*
X8832086Y-15525984D01*
X8832086Y-15525984D02*
X8813039Y-15525984D01*
X8813039Y-15525984D02*
X8793991Y-15516460D01*
X8793991Y-15516460D02*
X8784467Y-15506936D01*
X8784467Y-15506936D02*
X8774944Y-15487888D01*
X8774944Y-15487888D02*
X8765420Y-15449793D01*
X8765420Y-15449793D02*
X8765420Y-15402174D01*
X8765420Y-15402174D02*
X8774944Y-15364079D01*
X8774944Y-15364079D02*
X8784467Y-15345031D01*
X8784467Y-15345031D02*
X8793991Y-15335508D01*
X8793991Y-15335508D02*
X8813039Y-15325984D01*
X8965420Y-15525984D02*
X8965420Y-15392650D01*
X8965420Y-15411698D02*
X8974944Y-15402174D01*
X8974944Y-15402174D02*
X8993991Y-15392650D01*
X8993991Y-15392650D02*
X9022563Y-15392650D01*
X9022563Y-15392650D02*
X9041610Y-15402174D01*
X9041610Y-15402174D02*
X9051134Y-15421222D01*
X9051134Y-15421222D02*
X9051134Y-15525984D01*
X9051134Y-15421222D02*
X9060658Y-15402174D01*
X9060658Y-15402174D02*
X9079705Y-15392650D01*
X9079705Y-15392650D02*
X9108277Y-15392650D01*
X9108277Y-15392650D02*
X9127325Y-15402174D01*
X9127325Y-15402174D02*
X9136848Y-15421222D01*
X9136848Y-15421222D02*
X9136848Y-15525984D01*
X9232086Y-15525984D02*
X9232086Y-15392650D01*
X9232086Y-15411698D02*
X9241610Y-15402174D01*
X9241610Y-15402174D02*
X9260658Y-15392650D01*
X9260658Y-15392650D02*
X9289229Y-15392650D01*
X9289229Y-15392650D02*
X9308277Y-15402174D01*
X9308277Y-15402174D02*
X9317801Y-15421222D01*
X9317801Y-15421222D02*
X9317801Y-15525984D01*
X9317801Y-15421222D02*
X9327325Y-15402174D01*
X9327325Y-15402174D02*
X9346372Y-15392650D01*
X9346372Y-15392650D02*
X9374944Y-15392650D01*
X9374944Y-15392650D02*
X9393991Y-15402174D01*
X9393991Y-15402174D02*
X9403515Y-15421222D01*
X9403515Y-15421222D02*
X9403515Y-15525984D01*
X9793991Y-15316460D02*
X9622563Y-15573603D01*
X10051134Y-15325984D02*
X10070182Y-15325984D01*
X10070182Y-15325984D02*
X10089229Y-15335508D01*
X10089229Y-15335508D02*
X10098753Y-15345031D01*
X10098753Y-15345031D02*
X10108277Y-15364079D01*
X10108277Y-15364079D02*
X10117801Y-15402174D01*
X10117801Y-15402174D02*
X10117801Y-15449793D01*
X10117801Y-15449793D02*
X10108277Y-15487888D01*
X10108277Y-15487888D02*
X10098753Y-15506936D01*
X10098753Y-15506936D02*
X10089229Y-15516460D01*
X10089229Y-15516460D02*
X10070182Y-15525984D01*
X10070182Y-15525984D02*
X10051134Y-15525984D01*
X10051134Y-15525984D02*
X10032087Y-15516460D01*
X10032087Y-15516460D02*
X10022563Y-15506936D01*
X10022563Y-15506936D02*
X10013039Y-15487888D01*
X10013039Y-15487888D02*
X10003515Y-15449793D01*
X10003515Y-15449793D02*
X10003515Y-15402174D01*
X10003515Y-15402174D02*
X10013039Y-15364079D01*
X10013039Y-15364079D02*
X10022563Y-15345031D01*
X10022563Y-15345031D02*
X10032087Y-15335508D01*
X10032087Y-15335508D02*
X10051134Y-15325984D01*
X10203515Y-15506936D02*
X10213039Y-15516460D01*
X10213039Y-15516460D02*
X10203515Y-15525984D01*
X10203515Y-15525984D02*
X10193991Y-15516460D01*
X10193991Y-15516460D02*
X10203515Y-15506936D01*
X10203515Y-15506936D02*
X10203515Y-15525984D01*
X10336848Y-15325984D02*
X10355896Y-15325984D01*
X10355896Y-15325984D02*
X10374944Y-15335508D01*
X10374944Y-15335508D02*
X10384468Y-15345031D01*
X10384468Y-15345031D02*
X10393991Y-15364079D01*
X10393991Y-15364079D02*
X10403515Y-15402174D01*
X10403515Y-15402174D02*
X10403515Y-15449793D01*
X10403515Y-15449793D02*
X10393991Y-15487888D01*
X10393991Y-15487888D02*
X10384468Y-15506936D01*
X10384468Y-15506936D02*
X10374944Y-15516460D01*
X10374944Y-15516460D02*
X10355896Y-15525984D01*
X10355896Y-15525984D02*
X10336848Y-15525984D01*
X10336848Y-15525984D02*
X10317801Y-15516460D01*
X10317801Y-15516460D02*
X10308277Y-15506936D01*
X10308277Y-15506936D02*
X10298753Y-15487888D01*
X10298753Y-15487888D02*
X10289229Y-15449793D01*
X10289229Y-15449793D02*
X10289229Y-15402174D01*
X10289229Y-15402174D02*
X10298753Y-15364079D01*
X10298753Y-15364079D02*
X10308277Y-15345031D01*
X10308277Y-15345031D02*
X10317801Y-15335508D01*
X10317801Y-15335508D02*
X10336848Y-15325984D01*
X10470182Y-15325984D02*
X10593991Y-15325984D01*
X10593991Y-15325984D02*
X10527325Y-15402174D01*
X10527325Y-15402174D02*
X10555896Y-15402174D01*
X10555896Y-15402174D02*
X10574944Y-15411698D01*
X10574944Y-15411698D02*
X10584468Y-15421222D01*
X10584468Y-15421222D02*
X10593991Y-15440269D01*
X10593991Y-15440269D02*
X10593991Y-15487888D01*
X10593991Y-15487888D02*
X10584468Y-15506936D01*
X10584468Y-15506936D02*
X10574944Y-15516460D01*
X10574944Y-15516460D02*
X10555896Y-15525984D01*
X10555896Y-15525984D02*
X10498753Y-15525984D01*
X10498753Y-15525984D02*
X10479706Y-15516460D01*
X10479706Y-15516460D02*
X10470182Y-15506936D01*
X10689229Y-15525984D02*
X10727325Y-15525984D01*
X10727325Y-15525984D02*
X10746372Y-15516460D01*
X10746372Y-15516460D02*
X10755896Y-15506936D01*
X10755896Y-15506936D02*
X10774944Y-15478365D01*
X10774944Y-15478365D02*
X10784468Y-15440269D01*
X10784468Y-15440269D02*
X10784468Y-15364079D01*
X10784468Y-15364079D02*
X10774944Y-15345031D01*
X10774944Y-15345031D02*
X10765420Y-15335508D01*
X10765420Y-15335508D02*
X10746372Y-15325984D01*
X10746372Y-15325984D02*
X10708277Y-15325984D01*
X10708277Y-15325984D02*
X10689229Y-15335508D01*
X10689229Y-15335508D02*
X10679706Y-15345031D01*
X10679706Y-15345031D02*
X10670182Y-15364079D01*
X10670182Y-15364079D02*
X10670182Y-15411698D01*
X10670182Y-15411698D02*
X10679706Y-15430746D01*
X10679706Y-15430746D02*
X10689229Y-15440269D01*
X10689229Y-15440269D02*
X10708277Y-15449793D01*
X10708277Y-15449793D02*
X10746372Y-15449793D01*
X10746372Y-15449793D02*
X10765420Y-15440269D01*
X10765420Y-15440269D02*
X10774944Y-15430746D01*
X10774944Y-15430746D02*
X10784468Y-15411698D01*
X10955896Y-15392650D02*
X10955896Y-15525984D01*
X10908277Y-15316460D02*
X10860658Y-15459317D01*
X10860658Y-15459317D02*
X10984468Y-15459317D01*
X11051134Y-15325984D02*
X11051134Y-15364079D01*
X11127325Y-15325984D02*
X11127325Y-15364079D01*
X11422563Y-15602174D02*
X11413039Y-15592650D01*
X11413039Y-15592650D02*
X11393991Y-15564079D01*
X11393991Y-15564079D02*
X11384468Y-15545031D01*
X11384468Y-15545031D02*
X11374944Y-15516460D01*
X11374944Y-15516460D02*
X11365420Y-15468841D01*
X11365420Y-15468841D02*
X11365420Y-15430746D01*
X11365420Y-15430746D02*
X11374944Y-15383127D01*
X11374944Y-15383127D02*
X11384468Y-15354555D01*
X11384468Y-15354555D02*
X11393991Y-15335508D01*
X11393991Y-15335508D02*
X11413039Y-15306936D01*
X11413039Y-15306936D02*
X11422563Y-15297412D01*
X11584468Y-15392650D02*
X11584468Y-15525984D01*
X11536848Y-15316460D02*
X11489229Y-15459317D01*
X11489229Y-15459317D02*
X11613039Y-15459317D01*
X11841610Y-15525984D02*
X11841610Y-15325984D01*
X11927325Y-15525984D02*
X11927325Y-15421222D01*
X11927325Y-15421222D02*
X11917801Y-15402174D01*
X11917801Y-15402174D02*
X11898753Y-15392650D01*
X11898753Y-15392650D02*
X11870182Y-15392650D01*
X11870182Y-15392650D02*
X11851134Y-15402174D01*
X11851134Y-15402174D02*
X11841610Y-15411698D01*
X12051134Y-15525984D02*
X12032087Y-15516460D01*
X12032087Y-15516460D02*
X12022563Y-15506936D01*
X12022563Y-15506936D02*
X12013039Y-15487888D01*
X12013039Y-15487888D02*
X12013039Y-15430746D01*
X12013039Y-15430746D02*
X12022563Y-15411698D01*
X12022563Y-15411698D02*
X12032087Y-15402174D01*
X12032087Y-15402174D02*
X12051134Y-15392650D01*
X12051134Y-15392650D02*
X12079706Y-15392650D01*
X12079706Y-15392650D02*
X12098753Y-15402174D01*
X12098753Y-15402174D02*
X12108277Y-15411698D01*
X12108277Y-15411698D02*
X12117801Y-15430746D01*
X12117801Y-15430746D02*
X12117801Y-15487888D01*
X12117801Y-15487888D02*
X12108277Y-15506936D01*
X12108277Y-15506936D02*
X12098753Y-15516460D01*
X12098753Y-15516460D02*
X12079706Y-15525984D01*
X12079706Y-15525984D02*
X12051134Y-15525984D01*
X12232087Y-15525984D02*
X12213039Y-15516460D01*
X12213039Y-15516460D02*
X12203515Y-15497412D01*
X12203515Y-15497412D02*
X12203515Y-15325984D01*
X12384468Y-15516460D02*
X12365420Y-15525984D01*
X12365420Y-15525984D02*
X12327325Y-15525984D01*
X12327325Y-15525984D02*
X12308277Y-15516460D01*
X12308277Y-15516460D02*
X12298753Y-15497412D01*
X12298753Y-15497412D02*
X12298753Y-15421222D01*
X12298753Y-15421222D02*
X12308277Y-15402174D01*
X12308277Y-15402174D02*
X12327325Y-15392650D01*
X12327325Y-15392650D02*
X12365420Y-15392650D01*
X12365420Y-15392650D02*
X12384468Y-15402174D01*
X12384468Y-15402174D02*
X12393991Y-15421222D01*
X12393991Y-15421222D02*
X12393991Y-15440269D01*
X12393991Y-15440269D02*
X12298753Y-15459317D01*
X12470182Y-15516460D02*
X12489230Y-15525984D01*
X12489230Y-15525984D02*
X12527325Y-15525984D01*
X12527325Y-15525984D02*
X12546372Y-15516460D01*
X12546372Y-15516460D02*
X12555896Y-15497412D01*
X12555896Y-15497412D02*
X12555896Y-15487888D01*
X12555896Y-15487888D02*
X12546372Y-15468841D01*
X12546372Y-15468841D02*
X12527325Y-15459317D01*
X12527325Y-15459317D02*
X12498753Y-15459317D01*
X12498753Y-15459317D02*
X12479706Y-15449793D01*
X12479706Y-15449793D02*
X12470182Y-15430746D01*
X12470182Y-15430746D02*
X12470182Y-15421222D01*
X12470182Y-15421222D02*
X12479706Y-15402174D01*
X12479706Y-15402174D02*
X12498753Y-15392650D01*
X12498753Y-15392650D02*
X12527325Y-15392650D01*
X12527325Y-15392650D02*
X12546372Y-15402174D01*
X12622563Y-15602174D02*
X12632087Y-15592650D01*
X12632087Y-15592650D02*
X12651134Y-15564079D01*
X12651134Y-15564079D02*
X12660658Y-15545031D01*
X12660658Y-15545031D02*
X12670182Y-15516460D01*
X12670182Y-15516460D02*
X12679706Y-15468841D01*
X12679706Y-15468841D02*
X12679706Y-15430746D01*
X12679706Y-15430746D02*
X12670182Y-15383127D01*
X12670182Y-15383127D02*
X12660658Y-15354555D01*
X12660658Y-15354555D02*
X12651134Y-15335508D01*
X12651134Y-15335508D02*
X12632087Y-15306936D01*
X12632087Y-15306936D02*
X12622563Y-15297412D01*
D13*
X7792500Y-15753500D02*
X7847500Y-15698500D01*
X7792500Y-15643500D01*
X7737500Y-15698500D01*
X7792500Y-15753500D01*
D11*
X8213039Y-15789984D02*
X8098753Y-15789984D01*
X8155896Y-15789984D02*
X8155896Y-15589984D01*
X8155896Y-15589984D02*
X8136848Y-15618555D01*
X8136848Y-15618555D02*
X8117801Y-15637603D01*
X8117801Y-15637603D02*
X8098753Y-15647127D01*
X8298753Y-15770936D02*
X8308277Y-15780460D01*
X8308277Y-15780460D02*
X8298753Y-15789984D01*
X8298753Y-15789984D02*
X8289229Y-15780460D01*
X8289229Y-15780460D02*
X8298753Y-15770936D01*
X8298753Y-15770936D02*
X8298753Y-15789984D01*
X8498753Y-15789984D02*
X8384467Y-15789984D01*
X8441610Y-15789984D02*
X8441610Y-15589984D01*
X8441610Y-15589984D02*
X8422563Y-15618555D01*
X8422563Y-15618555D02*
X8403515Y-15637603D01*
X8403515Y-15637603D02*
X8384467Y-15647127D01*
X8622563Y-15589984D02*
X8641610Y-15589984D01*
X8641610Y-15589984D02*
X8660658Y-15599508D01*
X8660658Y-15599508D02*
X8670182Y-15609031D01*
X8670182Y-15609031D02*
X8679705Y-15628079D01*
X8679705Y-15628079D02*
X8689229Y-15666174D01*
X8689229Y-15666174D02*
X8689229Y-15713793D01*
X8689229Y-15713793D02*
X8679705Y-15751888D01*
X8679705Y-15751888D02*
X8670182Y-15770936D01*
X8670182Y-15770936D02*
X8660658Y-15780460D01*
X8660658Y-15780460D02*
X8641610Y-15789984D01*
X8641610Y-15789984D02*
X8622563Y-15789984D01*
X8622563Y-15789984D02*
X8603515Y-15780460D01*
X8603515Y-15780460D02*
X8593991Y-15770936D01*
X8593991Y-15770936D02*
X8584467Y-15751888D01*
X8584467Y-15751888D02*
X8574944Y-15713793D01*
X8574944Y-15713793D02*
X8574944Y-15666174D01*
X8574944Y-15666174D02*
X8584467Y-15628079D01*
X8584467Y-15628079D02*
X8593991Y-15609031D01*
X8593991Y-15609031D02*
X8603515Y-15599508D01*
X8603515Y-15599508D02*
X8622563Y-15589984D01*
X8813039Y-15589984D02*
X8832086Y-15589984D01*
X8832086Y-15589984D02*
X8851134Y-15599508D01*
X8851134Y-15599508D02*
X8860658Y-15609031D01*
X8860658Y-15609031D02*
X8870182Y-15628079D01*
X8870182Y-15628079D02*
X8879705Y-15666174D01*
X8879705Y-15666174D02*
X8879705Y-15713793D01*
X8879705Y-15713793D02*
X8870182Y-15751888D01*
X8870182Y-15751888D02*
X8860658Y-15770936D01*
X8860658Y-15770936D02*
X8851134Y-15780460D01*
X8851134Y-15780460D02*
X8832086Y-15789984D01*
X8832086Y-15789984D02*
X8813039Y-15789984D01*
X8813039Y-15789984D02*
X8793991Y-15780460D01*
X8793991Y-15780460D02*
X8784467Y-15770936D01*
X8784467Y-15770936D02*
X8774944Y-15751888D01*
X8774944Y-15751888D02*
X8765420Y-15713793D01*
X8765420Y-15713793D02*
X8765420Y-15666174D01*
X8765420Y-15666174D02*
X8774944Y-15628079D01*
X8774944Y-15628079D02*
X8784467Y-15609031D01*
X8784467Y-15609031D02*
X8793991Y-15599508D01*
X8793991Y-15599508D02*
X8813039Y-15589984D01*
X8965420Y-15789984D02*
X8965420Y-15656650D01*
X8965420Y-15675698D02*
X8974944Y-15666174D01*
X8974944Y-15666174D02*
X8993991Y-15656650D01*
X8993991Y-15656650D02*
X9022563Y-15656650D01*
X9022563Y-15656650D02*
X9041610Y-15666174D01*
X9041610Y-15666174D02*
X9051134Y-15685222D01*
X9051134Y-15685222D02*
X9051134Y-15789984D01*
X9051134Y-15685222D02*
X9060658Y-15666174D01*
X9060658Y-15666174D02*
X9079705Y-15656650D01*
X9079705Y-15656650D02*
X9108277Y-15656650D01*
X9108277Y-15656650D02*
X9127325Y-15666174D01*
X9127325Y-15666174D02*
X9136848Y-15685222D01*
X9136848Y-15685222D02*
X9136848Y-15789984D01*
X9232086Y-15789984D02*
X9232086Y-15656650D01*
X9232086Y-15675698D02*
X9241610Y-15666174D01*
X9241610Y-15666174D02*
X9260658Y-15656650D01*
X9260658Y-15656650D02*
X9289229Y-15656650D01*
X9289229Y-15656650D02*
X9308277Y-15666174D01*
X9308277Y-15666174D02*
X9317801Y-15685222D01*
X9317801Y-15685222D02*
X9317801Y-15789984D01*
X9317801Y-15685222D02*
X9327325Y-15666174D01*
X9327325Y-15666174D02*
X9346372Y-15656650D01*
X9346372Y-15656650D02*
X9374944Y-15656650D01*
X9374944Y-15656650D02*
X9393991Y-15666174D01*
X9393991Y-15666174D02*
X9403515Y-15685222D01*
X9403515Y-15685222D02*
X9403515Y-15789984D01*
X9793991Y-15580460D02*
X9622563Y-15837603D01*
X10051134Y-15589984D02*
X10070182Y-15589984D01*
X10070182Y-15589984D02*
X10089229Y-15599508D01*
X10089229Y-15599508D02*
X10098753Y-15609031D01*
X10098753Y-15609031D02*
X10108277Y-15628079D01*
X10108277Y-15628079D02*
X10117801Y-15666174D01*
X10117801Y-15666174D02*
X10117801Y-15713793D01*
X10117801Y-15713793D02*
X10108277Y-15751888D01*
X10108277Y-15751888D02*
X10098753Y-15770936D01*
X10098753Y-15770936D02*
X10089229Y-15780460D01*
X10089229Y-15780460D02*
X10070182Y-15789984D01*
X10070182Y-15789984D02*
X10051134Y-15789984D01*
X10051134Y-15789984D02*
X10032087Y-15780460D01*
X10032087Y-15780460D02*
X10022563Y-15770936D01*
X10022563Y-15770936D02*
X10013039Y-15751888D01*
X10013039Y-15751888D02*
X10003515Y-15713793D01*
X10003515Y-15713793D02*
X10003515Y-15666174D01*
X10003515Y-15666174D02*
X10013039Y-15628079D01*
X10013039Y-15628079D02*
X10022563Y-15609031D01*
X10022563Y-15609031D02*
X10032087Y-15599508D01*
X10032087Y-15599508D02*
X10051134Y-15589984D01*
X10203515Y-15770936D02*
X10213039Y-15780460D01*
X10213039Y-15780460D02*
X10203515Y-15789984D01*
X10203515Y-15789984D02*
X10193991Y-15780460D01*
X10193991Y-15780460D02*
X10203515Y-15770936D01*
X10203515Y-15770936D02*
X10203515Y-15789984D01*
X10336848Y-15589984D02*
X10355896Y-15589984D01*
X10355896Y-15589984D02*
X10374944Y-15599508D01*
X10374944Y-15599508D02*
X10384468Y-15609031D01*
X10384468Y-15609031D02*
X10393991Y-15628079D01*
X10393991Y-15628079D02*
X10403515Y-15666174D01*
X10403515Y-15666174D02*
X10403515Y-15713793D01*
X10403515Y-15713793D02*
X10393991Y-15751888D01*
X10393991Y-15751888D02*
X10384468Y-15770936D01*
X10384468Y-15770936D02*
X10374944Y-15780460D01*
X10374944Y-15780460D02*
X10355896Y-15789984D01*
X10355896Y-15789984D02*
X10336848Y-15789984D01*
X10336848Y-15789984D02*
X10317801Y-15780460D01*
X10317801Y-15780460D02*
X10308277Y-15770936D01*
X10308277Y-15770936D02*
X10298753Y-15751888D01*
X10298753Y-15751888D02*
X10289229Y-15713793D01*
X10289229Y-15713793D02*
X10289229Y-15666174D01*
X10289229Y-15666174D02*
X10298753Y-15628079D01*
X10298753Y-15628079D02*
X10308277Y-15609031D01*
X10308277Y-15609031D02*
X10317801Y-15599508D01*
X10317801Y-15599508D02*
X10336848Y-15589984D01*
X10574944Y-15656650D02*
X10574944Y-15789984D01*
X10527325Y-15580460D02*
X10479706Y-15723317D01*
X10479706Y-15723317D02*
X10603515Y-15723317D01*
X10660658Y-15589984D02*
X10784468Y-15589984D01*
X10784468Y-15589984D02*
X10717801Y-15666174D01*
X10717801Y-15666174D02*
X10746372Y-15666174D01*
X10746372Y-15666174D02*
X10765420Y-15675698D01*
X10765420Y-15675698D02*
X10774944Y-15685222D01*
X10774944Y-15685222D02*
X10784468Y-15704269D01*
X10784468Y-15704269D02*
X10784468Y-15751888D01*
X10784468Y-15751888D02*
X10774944Y-15770936D01*
X10774944Y-15770936D02*
X10765420Y-15780460D01*
X10765420Y-15780460D02*
X10746372Y-15789984D01*
X10746372Y-15789984D02*
X10689229Y-15789984D01*
X10689229Y-15789984D02*
X10670182Y-15780460D01*
X10670182Y-15780460D02*
X10660658Y-15770936D01*
X10851134Y-15589984D02*
X10974944Y-15589984D01*
X10974944Y-15589984D02*
X10908277Y-15666174D01*
X10908277Y-15666174D02*
X10936849Y-15666174D01*
X10936849Y-15666174D02*
X10955896Y-15675698D01*
X10955896Y-15675698D02*
X10965420Y-15685222D01*
X10965420Y-15685222D02*
X10974944Y-15704269D01*
X10974944Y-15704269D02*
X10974944Y-15751888D01*
X10974944Y-15751888D02*
X10965420Y-15770936D01*
X10965420Y-15770936D02*
X10955896Y-15780460D01*
X10955896Y-15780460D02*
X10936849Y-15789984D01*
X10936849Y-15789984D02*
X10879706Y-15789984D01*
X10879706Y-15789984D02*
X10860658Y-15780460D01*
X10860658Y-15780460D02*
X10851134Y-15770936D01*
X11051134Y-15589984D02*
X11051134Y-15628079D01*
X11127325Y-15589984D02*
X11127325Y-15628079D01*
X11422563Y-15866174D02*
X11413039Y-15856650D01*
X11413039Y-15856650D02*
X11393991Y-15828079D01*
X11393991Y-15828079D02*
X11384468Y-15809031D01*
X11384468Y-15809031D02*
X11374944Y-15780460D01*
X11374944Y-15780460D02*
X11365420Y-15732841D01*
X11365420Y-15732841D02*
X11365420Y-15694746D01*
X11365420Y-15694746D02*
X11374944Y-15647127D01*
X11374944Y-15647127D02*
X11384468Y-15618555D01*
X11384468Y-15618555D02*
X11393991Y-15599508D01*
X11393991Y-15599508D02*
X11413039Y-15570936D01*
X11413039Y-15570936D02*
X11422563Y-15561412D01*
X11584468Y-15656650D02*
X11584468Y-15789984D01*
X11536848Y-15580460D02*
X11489229Y-15723317D01*
X11489229Y-15723317D02*
X11613039Y-15723317D01*
X11841610Y-15789984D02*
X11841610Y-15589984D01*
X11927325Y-15789984D02*
X11927325Y-15685222D01*
X11927325Y-15685222D02*
X11917801Y-15666174D01*
X11917801Y-15666174D02*
X11898753Y-15656650D01*
X11898753Y-15656650D02*
X11870182Y-15656650D01*
X11870182Y-15656650D02*
X11851134Y-15666174D01*
X11851134Y-15666174D02*
X11841610Y-15675698D01*
X12051134Y-15789984D02*
X12032087Y-15780460D01*
X12032087Y-15780460D02*
X12022563Y-15770936D01*
X12022563Y-15770936D02*
X12013039Y-15751888D01*
X12013039Y-15751888D02*
X12013039Y-15694746D01*
X12013039Y-15694746D02*
X12022563Y-15675698D01*
X12022563Y-15675698D02*
X12032087Y-15666174D01*
X12032087Y-15666174D02*
X12051134Y-15656650D01*
X12051134Y-15656650D02*
X12079706Y-15656650D01*
X12079706Y-15656650D02*
X12098753Y-15666174D01*
X12098753Y-15666174D02*
X12108277Y-15675698D01*
X12108277Y-15675698D02*
X12117801Y-15694746D01*
X12117801Y-15694746D02*
X12117801Y-15751888D01*
X12117801Y-15751888D02*
X12108277Y-15770936D01*
X12108277Y-15770936D02*
X12098753Y-15780460D01*
X12098753Y-15780460D02*
X12079706Y-15789984D01*
X12079706Y-15789984D02*
X12051134Y-15789984D01*
X12232087Y-15789984D02*
X12213039Y-15780460D01*
X12213039Y-15780460D02*
X12203515Y-15761412D01*
X12203515Y-15761412D02*
X12203515Y-15589984D01*
X12384468Y-15780460D02*
X12365420Y-15789984D01*
X12365420Y-15789984D02*
X12327325Y-15789984D01*
X12327325Y-15789984D02*
X12308277Y-15780460D01*
X12308277Y-15780460D02*
X12298753Y-15761412D01*
X12298753Y-15761412D02*
X12298753Y-15685222D01*
X12298753Y-15685222D02*
X12308277Y-15666174D01*
X12308277Y-15666174D02*
X12327325Y-15656650D01*
X12327325Y-15656650D02*
X12365420Y-15656650D01*
X12365420Y-15656650D02*
X12384468Y-15666174D01*
X12384468Y-15666174D02*
X12393991Y-15685222D01*
X12393991Y-15685222D02*
X12393991Y-15704269D01*
X12393991Y-15704269D02*
X12298753Y-15723317D01*
X12470182Y-15780460D02*
X12489230Y-15789984D01*
X12489230Y-15789984D02*
X12527325Y-15789984D01*
X12527325Y-15789984D02*
X12546372Y-15780460D01*
X12546372Y-15780460D02*
X12555896Y-15761412D01*
X12555896Y-15761412D02*
X12555896Y-15751888D01*
X12555896Y-15751888D02*
X12546372Y-15732841D01*
X12546372Y-15732841D02*
X12527325Y-15723317D01*
X12527325Y-15723317D02*
X12498753Y-15723317D01*
X12498753Y-15723317D02*
X12479706Y-15713793D01*
X12479706Y-15713793D02*
X12470182Y-15694746D01*
X12470182Y-15694746D02*
X12470182Y-15685222D01*
X12470182Y-15685222D02*
X12479706Y-15666174D01*
X12479706Y-15666174D02*
X12498753Y-15656650D01*
X12498753Y-15656650D02*
X12527325Y-15656650D01*
X12527325Y-15656650D02*
X12546372Y-15666174D01*
X12622563Y-15866174D02*
X12632087Y-15856650D01*
X12632087Y-15856650D02*
X12651134Y-15828079D01*
X12651134Y-15828079D02*
X12660658Y-15809031D01*
X12660658Y-15809031D02*
X12670182Y-15780460D01*
X12670182Y-15780460D02*
X12679706Y-15732841D01*
X12679706Y-15732841D02*
X12679706Y-15694746D01*
X12679706Y-15694746D02*
X12670182Y-15647127D01*
X12670182Y-15647127D02*
X12660658Y-15618555D01*
X12660658Y-15618555D02*
X12651134Y-15599508D01*
X12651134Y-15599508D02*
X12632087Y-15570936D01*
X12632087Y-15570936D02*
X12622563Y-15561412D01*
M02*
