%TF.GenerationSoftware,KiCad,Pcbnew,8.0.5*%
%TF.CreationDate,2025-10-28T17:55:05-05:00*%
%TF.ProjectId,Microcontroller,4d696372-6f63-46f6-9e74-726f6c6c6572,rev?*%
%TF.SameCoordinates,Original*%
%TF.FileFunction,Copper,L1,Top*%
%TF.FilePolarity,Positive*%
%FSLAX46Y46*%
G04 Gerber Fmt 4.6, Leading zero omitted, Abs format (unit mm)*
G04 Created by KiCad (PCBNEW 8.0.5) date 2025-10-28 17:55:05*
%MOMM*%
%LPD*%
G01*
G04 APERTURE LIST*
G04 Aperture macros list*
%AMRoundRect*
0 Rectangle with rounded corners*
0 $1 Rounding radius*
0 $2 $3 $4 $5 $6 $7 $8 $9 X,Y pos of 4 corners*
0 Add a 4 corners polygon primitive as box body*
4,1,4,$2,$3,$4,$5,$6,$7,$8,$9,$2,$3,0*
0 Add four circle primitives for the rounded corners*
1,1,$1+$1,$2,$3*
1,1,$1+$1,$4,$5*
1,1,$1+$1,$6,$7*
1,1,$1+$1,$8,$9*
0 Add four rect primitives between the rounded corners*
20,1,$1+$1,$2,$3,$4,$5,0*
20,1,$1+$1,$4,$5,$6,$7,0*
20,1,$1+$1,$6,$7,$8,$9,0*
20,1,$1+$1,$8,$9,$2,$3,0*%
G04 Aperture macros list end*
%TA.AperFunction,SMDPad,CuDef*%
%ADD10RoundRect,0.250000X0.262500X0.450000X-0.262500X0.450000X-0.262500X-0.450000X0.262500X-0.450000X0*%
%TD*%
%TA.AperFunction,SMDPad,CuDef*%
%ADD11RoundRect,0.250000X-0.337500X-0.475000X0.337500X-0.475000X0.337500X0.475000X-0.337500X0.475000X0*%
%TD*%
%TA.AperFunction,ComponentPad*%
%ADD12C,2.000000*%
%TD*%
%TA.AperFunction,SMDPad,CuDef*%
%ADD13RoundRect,0.243750X0.243750X0.456250X-0.243750X0.456250X-0.243750X-0.456250X0.243750X-0.456250X0*%
%TD*%
%TA.AperFunction,ComponentPad*%
%ADD14C,0.700000*%
%TD*%
%TA.AperFunction,ComponentPad*%
%ADD15O,0.900000X2.400000*%
%TD*%
%TA.AperFunction,ComponentPad*%
%ADD16O,0.900000X1.700000*%
%TD*%
%TA.AperFunction,SMDPad,CuDef*%
%ADD17RoundRect,0.150000X0.625000X-0.150000X0.625000X0.150000X-0.625000X0.150000X-0.625000X-0.150000X0*%
%TD*%
%TA.AperFunction,SMDPad,CuDef*%
%ADD18RoundRect,0.250000X0.650000X-0.350000X0.650000X0.350000X-0.650000X0.350000X-0.650000X-0.350000X0*%
%TD*%
%TA.AperFunction,SMDPad,CuDef*%
%ADD19RoundRect,0.375000X-0.375000X0.625000X-0.375000X-0.625000X0.375000X-0.625000X0.375000X0.625000X0*%
%TD*%
%TA.AperFunction,SMDPad,CuDef*%
%ADD20RoundRect,0.500000X-1.400000X0.500000X-1.400000X-0.500000X1.400000X-0.500000X1.400000X0.500000X0*%
%TD*%
%TA.AperFunction,SMDPad,CuDef*%
%ADD21RoundRect,0.250000X-0.262500X-0.450000X0.262500X-0.450000X0.262500X0.450000X-0.262500X0.450000X0*%
%TD*%
%TA.AperFunction,SMDPad,CuDef*%
%ADD22RoundRect,0.062500X0.062500X-0.375000X0.062500X0.375000X-0.062500X0.375000X-0.062500X-0.375000X0*%
%TD*%
%TA.AperFunction,SMDPad,CuDef*%
%ADD23RoundRect,0.062500X0.375000X-0.062500X0.375000X0.062500X-0.375000X0.062500X-0.375000X-0.062500X0*%
%TD*%
%TA.AperFunction,HeatsinkPad*%
%ADD24R,5.600000X5.600000*%
%TD*%
%TA.AperFunction,ComponentPad*%
%ADD25R,1.700000X1.700000*%
%TD*%
%TA.AperFunction,ComponentPad*%
%ADD26O,1.700000X1.700000*%
%TD*%
%TA.AperFunction,SMDPad,CuDef*%
%ADD27RoundRect,0.250000X-0.450000X0.262500X-0.450000X-0.262500X0.450000X-0.262500X0.450000X0.262500X0*%
%TD*%
%TA.AperFunction,ViaPad*%
%ADD28C,0.600000*%
%TD*%
%TA.AperFunction,Conductor*%
%ADD29C,0.200000*%
%TD*%
%TA.AperFunction,Conductor*%
%ADD30C,0.500000*%
%TD*%
G04 APERTURE END LIST*
D10*
%TO.P,R5,1*%
%TO.N,Net-(USBC1-CC2)*%
X98535000Y-134120000D03*
%TO.P,R5,2*%
%TO.N,GND*%
X96710000Y-134120000D03*
%TD*%
%TO.P,5.1,1*%
%TO.N,Net-(USBC1-CC1)*%
X98535000Y-137070000D03*
%TO.P,5.1,2*%
%TO.N,GND*%
X96710000Y-137070000D03*
%TD*%
D11*
%TO.P,C6,2*%
%TO.N,GND*%
X105637500Y-114230000D03*
%TO.P,C6,1*%
%TO.N,Net-(U3-VCAP1)*%
X103562500Y-114230000D03*
%TD*%
%TO.P,C4,2*%
%TO.N,GND*%
X91277500Y-119300000D03*
%TO.P,C4,1*%
%TO.N,3V3*%
X89202500Y-119300000D03*
%TD*%
%TO.P,C7,1*%
%TO.N,3V3*%
X94845000Y-126510000D03*
%TO.P,C7,2*%
%TO.N,GND*%
X96920000Y-126510000D03*
%TD*%
D12*
%TO.P,SW1,1,A*%
%TO.N,NRST*%
X81130000Y-126810000D03*
X87630000Y-126810000D03*
%TO.P,SW1,2,B*%
%TO.N,GND*%
X81130000Y-131310000D03*
X87630000Y-131310000D03*
%TD*%
D13*
%TO.P,D2,1,K*%
%TO.N,GND*%
X109320000Y-107300000D03*
%TO.P,D2,2,A*%
%TO.N,Net-(D2-A)*%
X107445000Y-107300000D03*
%TD*%
D14*
%TO.P,USBC1,A1,GND*%
%TO.N,GND*%
X103330000Y-133870000D03*
%TO.P,USBC1,A4,VBUS*%
%TO.N,+5V*%
X104180000Y-133870000D03*
%TO.P,USBC1,A5,CC1*%
%TO.N,Net-(USBC1-CC1)*%
X105030000Y-133870000D03*
%TO.P,USBC1,A6,D+*%
%TO.N,unconnected-(USBC1-D+-PadA6)*%
X105880000Y-133870000D03*
%TO.P,USBC1,A7,D-*%
%TO.N,unconnected-(USBC1-D--PadA7)*%
X106730000Y-133870000D03*
%TO.P,USBC1,A8*%
%TO.N,N/C*%
X107580000Y-133870000D03*
%TO.P,USBC1,A9,VBUS*%
%TO.N,+5V*%
X108430000Y-133870000D03*
%TO.P,USBC1,A12,GND*%
%TO.N,GND*%
X109280000Y-133870000D03*
%TO.P,USBC1,B1,GND*%
X109280000Y-135220000D03*
%TO.P,USBC1,B4,VBUS*%
%TO.N,+5V*%
X108430000Y-135220000D03*
%TO.P,USBC1,B5,CC2*%
%TO.N,Net-(USBC1-CC2)*%
X107580000Y-135220000D03*
%TO.P,USBC1,B6,D+*%
%TO.N,unconnected-(USBC1-D+-PadB6)*%
X106730000Y-135220000D03*
%TO.P,USBC1,B7,D-*%
%TO.N,unconnected-(USBC1-D--PadB7)*%
X105880000Y-135220000D03*
%TO.P,USBC1,B8*%
%TO.N,N/C*%
X105030000Y-135220000D03*
%TO.P,USBC1,B9,VBUS*%
%TO.N,+5V*%
X104180000Y-135220000D03*
%TO.P,USBC1,B12,GND*%
%TO.N,GND*%
X103330000Y-135220000D03*
D15*
%TO.P,USBC1,S1,SHIELD*%
X101980000Y-134850000D03*
D16*
X101980000Y-138230000D03*
D15*
X110630000Y-134850000D03*
D16*
X110630000Y-138230000D03*
%TD*%
D17*
%TO.P,J3,1,Pin_1*%
%TO.N,GND*%
X112920000Y-113170000D03*
%TO.P,J3,2,Pin_2*%
%TO.N,TIM4_CH1*%
X112920000Y-112170000D03*
%TO.P,J3,3,Pin_3*%
%TO.N,+5V*%
X112920000Y-111170000D03*
D18*
%TO.P,J3,MP*%
%TO.N,N/C*%
X116795000Y-114470000D03*
X116795000Y-109870000D03*
%TD*%
D11*
%TO.P,C1,1*%
%TO.N,3V3*%
X99325000Y-120720000D03*
%TO.P,C1,2*%
%TO.N,GND*%
X101400000Y-120720000D03*
%TD*%
D19*
%TO.P,PWRregu1,1,VI*%
%TO.N,+5V*%
X104790000Y-123810000D03*
%TO.P,PWRregu1,2,GND*%
%TO.N,GND*%
X102490000Y-123810000D03*
D20*
X102490000Y-130110000D03*
D19*
%TO.P,PWRregu1,3,VO*%
%TO.N,3V3*%
X100190000Y-123810000D03*
%TD*%
D21*
%TO.P,R2,1*%
%TO.N,ON_LED*%
X102285000Y-107300000D03*
%TO.P,R2,2*%
%TO.N,Net-(D2-A)*%
X104110000Y-107300000D03*
%TD*%
D22*
%TO.P,U3,1,VBAT*%
%TO.N,3V3*%
X94070000Y-118445000D03*
%TO.P,U3,2,PC13*%
%TO.N,unconnected-(U3-PC13-Pad2)*%
X94570000Y-118445000D03*
%TO.P,U3,3,PC14*%
%TO.N,unconnected-(U3-PC14-Pad3)*%
X95070000Y-118445000D03*
%TO.P,U3,4,PC15*%
%TO.N,unconnected-(U3-PC15-Pad4)*%
X95570000Y-118445000D03*
%TO.P,U3,5,PH0*%
%TO.N,RCC_OSC_IN*%
X96070000Y-118445000D03*
%TO.P,U3,6,PH1*%
%TO.N,RCC_OSC_OUT*%
X96570000Y-118445000D03*
%TO.P,U3,7,NRST*%
%TO.N,NRST*%
X97070000Y-118445000D03*
%TO.P,U3,8,VSSA*%
%TO.N,GND*%
X97570000Y-118445000D03*
%TO.P,U3,9,VDDA*%
%TO.N,3V3*%
X98070000Y-118445000D03*
%TO.P,U3,10,PA0*%
%TO.N,BTN*%
X98570000Y-118445000D03*
%TO.P,U3,11,PA1*%
%TO.N,unconnected-(U3-PA1-Pad11)*%
X99070000Y-118445000D03*
%TO.P,U3,12,PA2*%
%TO.N,unconnected-(U3-PA2-Pad12)*%
X99570000Y-118445000D03*
D23*
%TO.P,U3,13,PA3*%
%TO.N,unconnected-(U3-PA3-Pad13)*%
X100257500Y-117757500D03*
%TO.P,U3,14,PA4*%
%TO.N,unconnected-(U3-PA4-Pad14)*%
X100257500Y-117257500D03*
%TO.P,U3,15,PA5*%
%TO.N,unconnected-(U3-PA5-Pad15)*%
X100257500Y-116757500D03*
%TO.P,U3,16,PA6*%
%TO.N,unconnected-(U3-PA6-Pad16)*%
X100257500Y-116257500D03*
%TO.P,U3,17,PA7*%
%TO.N,unconnected-(U3-PA7-Pad17)*%
X100257500Y-115757500D03*
%TO.P,U3,18,PB0*%
%TO.N,unconnected-(U3-PB0-Pad18)*%
X100257500Y-115257500D03*
%TO.P,U3,19,PB1*%
%TO.N,unconnected-(U3-PB1-Pad19)*%
X100257500Y-114757500D03*
%TO.P,U3,20,PB2*%
%TO.N,unconnected-(U3-PB2-Pad20)*%
X100257500Y-114257500D03*
%TO.P,U3,21,PB10*%
%TO.N,USART1_RX*%
X100257500Y-113757500D03*
%TO.P,U3,22,VCAP1*%
%TO.N,Net-(U3-VCAP1)*%
X100257500Y-113257500D03*
%TO.P,U3,23,VSS*%
%TO.N,GND*%
X100257500Y-112757500D03*
%TO.P,U3,24,VDD*%
%TO.N,3V3*%
X100257500Y-112257500D03*
D22*
%TO.P,U3,25,PB12*%
%TO.N,unconnected-(U3-PB12-Pad25)*%
X99570000Y-111570000D03*
%TO.P,U3,26,PB13*%
%TO.N,ON_LED*%
X99070000Y-111570000D03*
%TO.P,U3,27,PB14*%
%TO.N,SYS_JTCK_SWCLK*%
X98570000Y-111570000D03*
%TO.P,U3,28,PB15*%
%TO.N,unconnected-(U3-PB15-Pad28)*%
X98070000Y-111570000D03*
%TO.P,U3,29,PA8*%
%TO.N,unconnected-(U3-PA8-Pad29)*%
X97570000Y-111570000D03*
%TO.P,U3,30,PA9*%
%TO.N,unconnected-(U3-PA9-Pad30)*%
X97070000Y-111570000D03*
%TO.P,U3,31,PA10*%
%TO.N,unconnected-(U3-PA10-Pad31)*%
X96570000Y-111570000D03*
%TO.P,U3,32,PA11*%
%TO.N,unconnected-(U3-PA11-Pad32)*%
X96070000Y-111570000D03*
%TO.P,U3,33,PA12*%
%TO.N,unconnected-(U3-PA12-Pad33)*%
X95570000Y-111570000D03*
%TO.P,U3,34,PA13*%
%TO.N,DIO*%
X95070000Y-111570000D03*
%TO.P,U3,35,VSS*%
%TO.N,GND*%
X94570000Y-111570000D03*
%TO.P,U3,36,VDD*%
%TO.N,3V3*%
X94070000Y-111570000D03*
D23*
%TO.P,U3,37,PA14*%
%TO.N,CLK*%
X93382500Y-112257500D03*
%TO.P,U3,38,PA15*%
%TO.N,unconnected-(U3-PA15-Pad38)*%
X93382500Y-112757500D03*
%TO.P,U3,39,PB3*%
%TO.N,SYS_JTDO-SWO*%
X93382500Y-113257500D03*
%TO.P,U3,40,PB4*%
%TO.N,unconnected-(U3-PB4-Pad40)*%
X93382500Y-113757500D03*
%TO.P,U3,41,PB5*%
%TO.N,unconnected-(U3-PB5-Pad41)*%
X93382500Y-114257500D03*
%TO.P,U3,42,PB6*%
%TO.N,TIM4_CH1*%
X93382500Y-114757500D03*
%TO.P,U3,43,PB7*%
%TO.N,unconnected-(U3-PB7-Pad43)*%
X93382500Y-115257500D03*
%TO.P,U3,44,BOOT0*%
%TO.N,GND*%
X93382500Y-115757500D03*
%TO.P,U3,45,PB8*%
%TO.N,unconnected-(U3-PB8-Pad45)*%
X93382500Y-116257500D03*
%TO.P,U3,46,PB9*%
%TO.N,USART1_TX*%
X93382500Y-116757500D03*
%TO.P,U3,47,VSS*%
%TO.N,GND*%
X93382500Y-117257500D03*
%TO.P,U3,48,VDD*%
%TO.N,3V3*%
X93382500Y-117757500D03*
D24*
%TO.P,U3,49,VSS*%
%TO.N,GND*%
X96820000Y-115007500D03*
%TD*%
D21*
%TO.P,R1,1*%
%TO.N,3V3*%
X80862500Y-136890000D03*
%TO.P,R1,2*%
%TO.N,Net-(D1-A)*%
X82687500Y-136890000D03*
%TD*%
D25*
%TO.P,ST-Link1,1,Pin_1*%
%TO.N,GND*%
X80920000Y-107340000D03*
D26*
%TO.P,ST-Link1,2,Pin_2*%
%TO.N,DIO*%
X80920000Y-109880000D03*
%TO.P,ST-Link1,3,Pin_3*%
%TO.N,CLK*%
X80920000Y-112420000D03*
%TO.P,ST-Link1,4,Pin_4*%
%TO.N,3V3*%
X80920000Y-114960000D03*
%TD*%
D11*
%TO.P,C5,2*%
%TO.N,GND*%
X105550000Y-111440000D03*
%TO.P,C5,1*%
%TO.N,3V3*%
X103475000Y-111440000D03*
%TD*%
D17*
%TO.P,J2,1,Pin_1*%
%TO.N,GND*%
X112920000Y-126600000D03*
%TO.P,J2,2,Pin_2*%
%TO.N,TIM4_CH1*%
X112920000Y-125600000D03*
%TO.P,J2,3,Pin_3*%
%TO.N,+5V*%
X112920000Y-124600000D03*
D18*
%TO.P,J2,MP*%
%TO.N,N/C*%
X116795000Y-127900000D03*
X116795000Y-123300000D03*
%TD*%
D11*
%TO.P,C2,1*%
%TO.N,3V3*%
X86890000Y-111940000D03*
%TO.P,C2,2*%
%TO.N,GND*%
X88965000Y-111940000D03*
%TD*%
%TO.P,C8,1*%
%TO.N,+5V*%
X107235000Y-119530000D03*
%TO.P,C8,2*%
%TO.N,GND*%
X109310000Y-119530000D03*
%TD*%
%TO.P,C3,2*%
%TO.N,GND*%
X91267500Y-122810000D03*
%TO.P,C3,1*%
%TO.N,3V3*%
X89192500Y-122810000D03*
%TD*%
D27*
%TO.P,R3,1*%
%TO.N,NRST*%
X90710000Y-126815000D03*
%TO.P,R3,2*%
%TO.N,3V3*%
X90710000Y-128640000D03*
%TD*%
D13*
%TO.P,D1,1,K*%
%TO.N,GND*%
X87697500Y-136890000D03*
%TO.P,D1,2,A*%
%TO.N,Net-(D1-A)*%
X85822500Y-136890000D03*
%TD*%
D28*
%TO.N,Net-(USBC1-CC1)*%
X98617574Y-137091852D03*
X105900000Y-132510000D03*
%TO.N,GND*%
X96710000Y-134120000D03*
X96710000Y-137070000D03*
%TO.N,3V3*%
X101100000Y-111480000D03*
X89250000Y-119310000D03*
%TO.N,GND*%
X91240000Y-119360000D03*
X105720000Y-114110000D03*
X112920000Y-126600000D03*
X96820000Y-115007500D03*
X92080000Y-116970000D03*
X93520000Y-110660000D03*
X109310000Y-119530000D03*
X105610000Y-111370000D03*
X112920000Y-113170000D03*
X88965000Y-111940000D03*
X97590000Y-119510000D03*
X101400000Y-120720000D03*
X91267500Y-122810000D03*
X102490000Y-130110000D03*
X96962500Y-126470000D03*
X102490000Y-123810000D03*
X109320000Y-107300000D03*
X87830000Y-136980000D03*
X101380000Y-112810000D03*
X92360000Y-115750000D03*
%TO.N,TIM4_CH1*%
X111220000Y-117680000D03*
X92090000Y-114510000D03*
%TO.N,3V3*%
X85010000Y-111940000D03*
%TD*%
D29*
%TO.N,Net-(USBC1-CC1)*%
X105895026Y-132510000D02*
X105900000Y-132510000D01*
X105030000Y-133375026D02*
X105895026Y-132510000D01*
X105030000Y-133870000D02*
X105030000Y-133375026D01*
%TO.N,Net-(USBC1-CC2)*%
X106944974Y-136350000D02*
X107580000Y-135714974D01*
X100765000Y-136350000D02*
X106944974Y-136350000D01*
X98535000Y-134120000D02*
X100765000Y-136350000D01*
X107580000Y-135714974D02*
X107580000Y-135220000D01*
%TO.N,3V3*%
X101100000Y-111480000D02*
X103475000Y-111440000D01*
%TO.N,NRST*%
X96430000Y-124500000D02*
X91751471Y-124500000D01*
X96990000Y-123940000D02*
X96430000Y-124500000D01*
X96990000Y-119261471D02*
X96990000Y-123940000D01*
X97070000Y-119181471D02*
X96990000Y-119261471D01*
X91751471Y-124500000D02*
X90710000Y-125541471D01*
X90710000Y-125541471D02*
X90710000Y-126815000D01*
X97070000Y-118445000D02*
X97070000Y-119181471D01*
X89017500Y-126815000D02*
X90710000Y-126815000D01*
X89012500Y-126810000D02*
X89017500Y-126815000D01*
X87630000Y-126810000D02*
X89012500Y-126810000D01*
%TO.N,Net-(U3-VCAP1)*%
X101951471Y-114230000D02*
X103562500Y-114230000D01*
X100978971Y-113257500D02*
X101951471Y-114230000D01*
X100257500Y-113257500D02*
X100978971Y-113257500D01*
%TO.N,ON_LED*%
X99070000Y-107670000D02*
X99070000Y-111570000D01*
X99440000Y-107300000D02*
X99070000Y-107670000D01*
X102285000Y-107300000D02*
X99440000Y-107300000D01*
%TO.N,GND*%
X100257500Y-112757500D02*
X101380000Y-112810000D01*
X97570000Y-118445000D02*
X97590000Y-119510000D01*
X102350000Y-135220000D02*
X101980000Y-134850000D01*
X93382500Y-115757500D02*
X92367500Y-115757500D01*
X94570000Y-111570000D02*
X94570000Y-111118114D01*
X94111886Y-110660000D02*
X93520000Y-110660000D01*
X92367500Y-117257500D02*
X92080000Y-116970000D01*
X103330000Y-135220000D02*
X103330000Y-133870000D01*
X101352500Y-112757500D02*
X101370000Y-112740000D01*
X103330000Y-135220000D02*
X102350000Y-135220000D01*
X92367500Y-115757500D02*
X92360000Y-115750000D01*
X101380000Y-112810000D02*
X101352500Y-112757500D01*
X97590000Y-119510000D02*
X97570000Y-119510000D01*
X94570000Y-111118114D02*
X94111886Y-110660000D01*
X97570000Y-119510000D02*
X97560000Y-119520000D01*
X93382500Y-117257500D02*
X92367500Y-117257500D01*
X110260000Y-135220000D02*
X110630000Y-134850000D01*
X109280000Y-133870000D02*
X109280000Y-135220000D01*
X109280000Y-135220000D02*
X110260000Y-135220000D01*
%TO.N,Net-(D2-A)*%
X104110000Y-107300000D02*
X107445000Y-107300000D01*
%TO.N,NRST*%
X81130000Y-126810000D02*
X87630000Y-126810000D01*
%TO.N,Net-(D1-A)*%
X82687500Y-136890000D02*
X85822500Y-136890000D01*
%TO.N,+5V*%
X108430000Y-135150761D02*
X108430000Y-135220000D01*
D30*
X108430000Y-127450000D02*
X108430000Y-133870000D01*
X104840000Y-123860000D02*
X104840000Y-132715026D01*
D29*
X104180000Y-134364974D02*
X104335026Y-134520000D01*
X108430000Y-133870000D02*
X108430000Y-135220000D01*
X104335026Y-134520000D02*
X107849239Y-134520000D01*
X104180000Y-134725026D02*
X104335026Y-134570000D01*
X104180000Y-133870000D02*
X104180000Y-135220000D01*
X107849239Y-134570000D02*
X108430000Y-135150761D01*
X104335026Y-134570000D02*
X107849239Y-134570000D01*
D30*
X104790000Y-123810000D02*
X104840000Y-123860000D01*
D29*
X104180000Y-135220000D02*
X104180000Y-134725026D01*
D30*
X104790000Y-123810000D02*
X108430000Y-127450000D01*
D29*
X108430000Y-133939239D02*
X108430000Y-133870000D01*
X104180000Y-133870000D02*
X104180000Y-134364974D01*
X107849239Y-134520000D02*
X108430000Y-133939239D01*
D30*
X104840000Y-132715026D02*
X104180000Y-133375026D01*
X104180000Y-133375026D02*
X104180000Y-133870000D01*
D29*
X104180000Y-133800761D02*
X104180000Y-133870000D01*
%TO.N,CLK*%
X82300000Y-113800000D02*
X91388114Y-113800000D01*
X92930614Y-112257500D02*
X93382500Y-112257500D01*
X80920000Y-112420000D02*
X82300000Y-113800000D01*
X91388114Y-113800000D02*
X92930614Y-112257500D01*
%TO.N,TIM4_CH1*%
X112504448Y-112170000D02*
X112920000Y-112170000D01*
X93382500Y-114757500D02*
X92227500Y-114757500D01*
X111220000Y-117680000D02*
X111220000Y-113454448D01*
X111220000Y-117680000D02*
X111220000Y-124674999D01*
X92227500Y-114757500D02*
X92090000Y-114510000D01*
X112145001Y-125600000D02*
X112920000Y-125600000D01*
X92090000Y-114510000D02*
X92090000Y-114620000D01*
X113525000Y-125650000D02*
X112750001Y-125650000D01*
X111220000Y-113454448D02*
X112504448Y-112170000D01*
X111220000Y-124674999D02*
X112145001Y-125600000D01*
X112750001Y-125650000D02*
X112450000Y-125349999D01*
%TO.N,DIO*%
X95070000Y-110100000D02*
X95070000Y-111570000D01*
X80920000Y-109880000D02*
X94850000Y-109880000D01*
X94850000Y-109880000D02*
X95070000Y-110100000D01*
%TO.N,3V3*%
X94070000Y-111570000D02*
X90192244Y-111570000D01*
X92320000Y-117757500D02*
X92320000Y-118100000D01*
X83717500Y-117757500D02*
X92110000Y-117757500D01*
X100257500Y-112257500D02*
X101075000Y-111440000D01*
X92320000Y-117757500D02*
X93382500Y-117757500D01*
X80920000Y-114960000D02*
X83717500Y-117757500D01*
X99325000Y-120396471D02*
X99325000Y-120720000D01*
X90192244Y-111570000D02*
X89502244Y-110880000D01*
X87950000Y-110880000D02*
X86890000Y-111940000D01*
X93180000Y-118940000D02*
X93575000Y-118940000D01*
X86890000Y-111940000D02*
X85010000Y-111940000D01*
X93575000Y-118940000D02*
X94070000Y-118445000D01*
X98070000Y-119141471D02*
X99325000Y-120396471D01*
X93170000Y-118950000D02*
X93180000Y-118940000D01*
X92320000Y-118100000D02*
X93170000Y-118950000D01*
X98070000Y-118445000D02*
X98070000Y-119141471D01*
X92110000Y-117757500D02*
X92320000Y-117757500D01*
X101075000Y-111440000D02*
X101100000Y-111480000D01*
X89502244Y-110880000D02*
X87950000Y-110880000D01*
%TD*%
%TA.AperFunction,Conductor*%
%TO.N,+5V*%
G36*
X117942539Y-105520185D02*
G01*
X117988294Y-105572989D01*
X117999500Y-105624500D01*
X117999500Y-108758062D01*
X117979815Y-108825101D01*
X117927011Y-108870856D01*
X117857853Y-108880800D01*
X117810405Y-108863602D01*
X117764338Y-108835188D01*
X117764335Y-108835186D01*
X117764334Y-108835186D01*
X117597797Y-108780001D01*
X117597795Y-108780000D01*
X117495010Y-108769500D01*
X116094998Y-108769500D01*
X116094981Y-108769501D01*
X115992203Y-108780000D01*
X115992200Y-108780001D01*
X115825668Y-108835185D01*
X115825663Y-108835187D01*
X115676342Y-108927289D01*
X115552289Y-109051342D01*
X115460187Y-109200663D01*
X115460186Y-109200666D01*
X115405001Y-109367203D01*
X115405001Y-109367204D01*
X115405000Y-109367204D01*
X115394500Y-109469983D01*
X115394500Y-110270001D01*
X115394501Y-110270019D01*
X115405000Y-110372796D01*
X115405001Y-110372799D01*
X115447760Y-110501836D01*
X115460186Y-110539334D01*
X115552288Y-110688656D01*
X115676344Y-110812712D01*
X115825666Y-110904814D01*
X115992203Y-110959999D01*
X116094991Y-110970500D01*
X117495008Y-110970499D01*
X117597797Y-110959999D01*
X117764334Y-110904814D01*
X117810404Y-110876397D01*
X117877796Y-110857958D01*
X117944459Y-110878881D01*
X117989229Y-110932523D01*
X117999500Y-110981937D01*
X117999500Y-113358062D01*
X117979815Y-113425101D01*
X117927011Y-113470856D01*
X117857853Y-113480800D01*
X117810405Y-113463602D01*
X117764338Y-113435188D01*
X117764335Y-113435186D01*
X117764334Y-113435186D01*
X117597797Y-113380001D01*
X117597795Y-113380000D01*
X117495010Y-113369500D01*
X116094998Y-113369500D01*
X116094981Y-113369501D01*
X115992203Y-113380000D01*
X115992200Y-113380001D01*
X115825668Y-113435185D01*
X115825663Y-113435187D01*
X115676342Y-113527289D01*
X115552289Y-113651342D01*
X115460187Y-113800663D01*
X115460185Y-113800668D01*
X115440099Y-113861284D01*
X115405001Y-113967203D01*
X115405001Y-113967204D01*
X115405000Y-113967204D01*
X115394500Y-114069983D01*
X115394500Y-114870001D01*
X115394501Y-114870019D01*
X115405000Y-114972796D01*
X115405001Y-114972799D01*
X115460185Y-115139331D01*
X115460187Y-115139336D01*
X115479608Y-115170822D01*
X115552288Y-115288656D01*
X115676344Y-115412712D01*
X115825666Y-115504814D01*
X115992203Y-115559999D01*
X116094991Y-115570500D01*
X117495008Y-115570499D01*
X117597797Y-115559999D01*
X117764334Y-115504814D01*
X117810404Y-115476397D01*
X117877796Y-115457958D01*
X117944459Y-115478881D01*
X117989229Y-115532523D01*
X117999500Y-115581937D01*
X117999500Y-122188062D01*
X117979815Y-122255101D01*
X117927011Y-122300856D01*
X117857853Y-122310800D01*
X117810405Y-122293602D01*
X117764338Y-122265188D01*
X117764335Y-122265186D01*
X117764334Y-122265186D01*
X117597797Y-122210001D01*
X117597795Y-122210000D01*
X117495010Y-122199500D01*
X116094998Y-122199500D01*
X116094981Y-122199501D01*
X115992203Y-122210000D01*
X115992200Y-122210001D01*
X115825668Y-122265185D01*
X115825663Y-122265187D01*
X115676342Y-122357289D01*
X115552289Y-122481342D01*
X115460187Y-122630663D01*
X115460185Y-122630668D01*
X115433574Y-122710977D01*
X115405001Y-122797203D01*
X115405001Y-122797204D01*
X115405000Y-122797204D01*
X115394500Y-122899983D01*
X115394500Y-123700001D01*
X115394501Y-123700019D01*
X115405000Y-123802796D01*
X115405001Y-123802799D01*
X115447919Y-123932314D01*
X115460186Y-123969334D01*
X115552288Y-124118656D01*
X115676344Y-124242712D01*
X115825666Y-124334814D01*
X115992203Y-124389999D01*
X116094991Y-124400500D01*
X117495008Y-124400499D01*
X117597797Y-124389999D01*
X117764334Y-124334814D01*
X117810404Y-124306397D01*
X117877796Y-124287958D01*
X117944459Y-124308881D01*
X117989229Y-124362523D01*
X117999500Y-124411937D01*
X117999500Y-126788062D01*
X117979815Y-126855101D01*
X117927011Y-126900856D01*
X117857853Y-126910800D01*
X117810405Y-126893602D01*
X117764338Y-126865188D01*
X117764335Y-126865186D01*
X117764334Y-126865186D01*
X117597797Y-126810001D01*
X117597795Y-126810000D01*
X117495010Y-126799500D01*
X116094998Y-126799500D01*
X116094981Y-126799501D01*
X115992203Y-126810000D01*
X115992200Y-126810001D01*
X115825668Y-126865185D01*
X115825663Y-126865187D01*
X115676342Y-126957289D01*
X115552289Y-127081342D01*
X115460187Y-127230663D01*
X115460185Y-127230668D01*
X115432349Y-127314670D01*
X115405001Y-127397203D01*
X115405001Y-127397204D01*
X115405000Y-127397204D01*
X115394500Y-127499983D01*
X115394500Y-128300001D01*
X115394501Y-128300019D01*
X115405000Y-128402796D01*
X115405001Y-128402799D01*
X115460185Y-128569331D01*
X115460186Y-128569334D01*
X115552288Y-128718656D01*
X115676344Y-128842712D01*
X115825666Y-128934814D01*
X115992203Y-128989999D01*
X116094991Y-129000500D01*
X117495008Y-129000499D01*
X117597797Y-128989999D01*
X117764334Y-128934814D01*
X117810404Y-128906397D01*
X117877796Y-128887958D01*
X117944459Y-128908881D01*
X117989229Y-128962523D01*
X117999500Y-129011937D01*
X117999500Y-139375500D01*
X117979815Y-139442539D01*
X117927011Y-139488294D01*
X117875500Y-139499500D01*
X111404073Y-139499500D01*
X111337034Y-139479815D01*
X111291279Y-139427011D01*
X111281335Y-139357853D01*
X111310360Y-139294297D01*
X111316392Y-139287819D01*
X111368299Y-139235911D01*
X111368302Y-139235908D01*
X111472322Y-139080231D01*
X111543973Y-138907251D01*
X111580500Y-138723616D01*
X111580500Y-137736384D01*
X111543973Y-137552749D01*
X111472322Y-137379769D01*
X111472321Y-137379768D01*
X111472318Y-137379762D01*
X111368302Y-137224092D01*
X111368299Y-137224088D01*
X111235911Y-137091700D01*
X111235907Y-137091697D01*
X111080237Y-136987681D01*
X111080228Y-136987676D01*
X110907251Y-136916027D01*
X110907243Y-136916025D01*
X110723620Y-136879500D01*
X110723616Y-136879500D01*
X110536384Y-136879500D01*
X110536379Y-136879500D01*
X110352756Y-136916025D01*
X110352748Y-136916027D01*
X110179771Y-136987676D01*
X110179762Y-136987681D01*
X110024092Y-137091697D01*
X110024088Y-137091700D01*
X109891700Y-137224088D01*
X109891697Y-137224092D01*
X109787681Y-137379762D01*
X109787676Y-137379771D01*
X109716027Y-137552748D01*
X109716025Y-137552756D01*
X109679500Y-137736379D01*
X109679500Y-138723620D01*
X109716025Y-138907243D01*
X109716027Y-138907251D01*
X109787676Y-139080228D01*
X109787681Y-139080237D01*
X109891697Y-139235907D01*
X109891700Y-139235911D01*
X109943608Y-139287819D01*
X109977093Y-139349142D01*
X109972109Y-139418834D01*
X109930237Y-139474767D01*
X109864773Y-139499184D01*
X109855927Y-139499500D01*
X104712721Y-139499500D01*
X104645682Y-139479815D01*
X104599927Y-139427011D01*
X104588743Y-139377840D01*
X104548091Y-137224088D01*
X104545312Y-137076839D01*
X104563728Y-137009441D01*
X104615659Y-136962698D01*
X104669290Y-136950500D01*
X106858305Y-136950500D01*
X106858321Y-136950501D01*
X106865917Y-136950501D01*
X107024028Y-136950501D01*
X107024031Y-136950501D01*
X107176759Y-136909577D01*
X107228853Y-136879500D01*
X107313690Y-136830520D01*
X107425494Y-136718716D01*
X107425494Y-136718714D01*
X107435698Y-136708511D01*
X107435702Y-136708506D01*
X107938506Y-136205702D01*
X107938511Y-136205698D01*
X107948714Y-136195494D01*
X107948716Y-136195494D01*
X108060520Y-136083690D01*
X108060527Y-136083676D01*
X108061198Y-136082804D01*
X108061969Y-136082240D01*
X108066267Y-136077943D01*
X108066936Y-136078612D01*
X108117622Y-136041595D01*
X108185363Y-136036990D01*
X108340661Y-136070000D01*
X108519339Y-136070000D01*
X108694110Y-136032851D01*
X108694111Y-136032851D01*
X108803946Y-135983948D01*
X108873196Y-135974662D01*
X108904818Y-135983947D01*
X108931816Y-135995967D01*
X109015733Y-136033329D01*
X109190609Y-136070500D01*
X109190610Y-136070500D01*
X109369389Y-136070500D01*
X109369391Y-136070500D01*
X109544267Y-136033329D01*
X109628184Y-135995966D01*
X109697433Y-135986682D01*
X109760710Y-136016310D01*
X109783793Y-136045499D01*
X109784293Y-136045166D01*
X109891697Y-136205907D01*
X109891700Y-136205911D01*
X110024088Y-136338299D01*
X110024092Y-136338302D01*
X110179762Y-136442318D01*
X110179768Y-136442321D01*
X110179769Y-136442322D01*
X110352749Y-136513973D01*
X110536379Y-136550499D01*
X110536383Y-136550500D01*
X110536384Y-136550500D01*
X110723617Y-136550500D01*
X110723618Y-136550499D01*
X110907251Y-136513973D01*
X111080231Y-136442322D01*
X111235908Y-136338302D01*
X111368302Y-136205908D01*
X111472322Y-136050231D01*
X111543973Y-135877251D01*
X111580500Y-135693616D01*
X111580500Y-134006384D01*
X111543973Y-133822749D01*
X111472322Y-133649769D01*
X111472321Y-133649768D01*
X111472318Y-133649762D01*
X111368302Y-133494092D01*
X111368299Y-133494088D01*
X111235911Y-133361700D01*
X111235907Y-133361697D01*
X111080237Y-133257681D01*
X111080228Y-133257676D01*
X110907251Y-133186027D01*
X110907243Y-133186025D01*
X110723620Y-133149500D01*
X110723616Y-133149500D01*
X110536384Y-133149500D01*
X110536379Y-133149500D01*
X110352756Y-133186025D01*
X110352748Y-133186027D01*
X110179771Y-133257676D01*
X110179762Y-133257681D01*
X110077542Y-133325983D01*
X110010864Y-133346861D01*
X109943484Y-133328376D01*
X109916501Y-133305853D01*
X109852235Y-133234478D01*
X109852232Y-133234476D01*
X109852231Y-133234475D01*
X109852230Y-133234474D01*
X109707593Y-133129388D01*
X109544267Y-133056671D01*
X109544265Y-133056670D01*
X109416594Y-133029533D01*
X109369391Y-133019500D01*
X109190609Y-133019500D01*
X109153439Y-133027400D01*
X109015734Y-133056670D01*
X109015729Y-133056672D01*
X108904818Y-133106052D01*
X108835568Y-133115336D01*
X108803949Y-133106052D01*
X108694110Y-133057148D01*
X108519339Y-133020000D01*
X108340661Y-133020000D01*
X108165890Y-133057148D01*
X108165887Y-133057149D01*
X108056048Y-133106052D01*
X107986798Y-133115336D01*
X107955179Y-133106052D01*
X107844265Y-133056670D01*
X107716594Y-133029533D01*
X107669391Y-133019500D01*
X107490609Y-133019500D01*
X107453439Y-133027400D01*
X107315734Y-133056670D01*
X107315729Y-133056672D01*
X107205434Y-133105778D01*
X107136184Y-133115062D01*
X107104566Y-133105778D01*
X106994270Y-133056672D01*
X106994265Y-133056670D01*
X106866594Y-133029533D01*
X106819391Y-133019500D01*
X106744573Y-133019500D01*
X106677534Y-132999815D01*
X106631779Y-132947011D01*
X106621835Y-132877853D01*
X106627531Y-132854546D01*
X106685367Y-132689257D01*
X106685368Y-132689255D01*
X106705565Y-132510000D01*
X106699388Y-132455178D01*
X106685369Y-132330750D01*
X106685368Y-132330745D01*
X106625788Y-132160476D01*
X106529815Y-132007737D01*
X106402262Y-131880184D01*
X106249523Y-131784211D01*
X106079254Y-131724631D01*
X106079249Y-131724630D01*
X105900004Y-131704435D01*
X105899996Y-131704435D01*
X105720750Y-131724630D01*
X105720745Y-131724631D01*
X105550476Y-131784211D01*
X105397737Y-131880184D01*
X105270184Y-132007737D01*
X105174210Y-132160478D01*
X105114630Y-132330750D01*
X105105469Y-132412062D01*
X105078402Y-132476476D01*
X105069930Y-132485859D01*
X104676138Y-132879651D01*
X104614815Y-132913136D01*
X104545123Y-132908152D01*
X104489190Y-132866280D01*
X104464773Y-132800816D01*
X104464481Y-132794357D01*
X104440304Y-131513467D01*
X104458719Y-131446075D01*
X104485916Y-131415035D01*
X104601109Y-131321109D01*
X104729698Y-131163407D01*
X104823909Y-130983049D01*
X104879886Y-130787418D01*
X104890500Y-130668037D01*
X104890499Y-129551964D01*
X104879886Y-129432582D01*
X104823909Y-129236951D01*
X104729698Y-129056593D01*
X104652994Y-128962523D01*
X104601109Y-128898890D01*
X104443407Y-128770302D01*
X104442340Y-128769599D01*
X104441884Y-128769060D01*
X104438533Y-128766328D01*
X104439042Y-128765703D01*
X104397199Y-128716269D01*
X104386604Y-128668413D01*
X104325600Y-125436339D01*
X104344016Y-125368941D01*
X104395947Y-125322198D01*
X104449578Y-125310000D01*
X104540000Y-125310000D01*
X105040000Y-125310000D01*
X105241097Y-125310000D01*
X105283824Y-125307102D01*
X105468523Y-125261168D01*
X105639022Y-125176609D01*
X105639025Y-125176607D01*
X105787366Y-125057367D01*
X105787367Y-125057366D01*
X105906607Y-124909025D01*
X105906609Y-124909022D01*
X105991168Y-124738523D01*
X106037102Y-124553824D01*
X106040000Y-124511096D01*
X106040000Y-124060000D01*
X105040000Y-124060000D01*
X105040000Y-125310000D01*
X104540000Y-125310000D01*
X104540000Y-123560000D01*
X105040000Y-123560000D01*
X106040000Y-123560000D01*
X106040000Y-123108903D01*
X106037102Y-123066175D01*
X105991168Y-122881476D01*
X105906609Y-122710977D01*
X105906607Y-122710974D01*
X105787367Y-122562633D01*
X105787366Y-122562632D01*
X105639025Y-122443392D01*
X105639022Y-122443390D01*
X105468523Y-122358831D01*
X105283824Y-122312897D01*
X105241097Y-122310000D01*
X105040000Y-122310000D01*
X105040000Y-123560000D01*
X104540000Y-123560000D01*
X104540000Y-122310000D01*
X104388272Y-122310000D01*
X104321233Y-122290315D01*
X104275478Y-122237511D01*
X104264295Y-122188344D01*
X104224028Y-120054986D01*
X106147501Y-120054986D01*
X106157994Y-120157697D01*
X106213141Y-120324119D01*
X106213143Y-120324124D01*
X106305184Y-120473345D01*
X106429154Y-120597315D01*
X106578375Y-120689356D01*
X106578380Y-120689358D01*
X106744802Y-120744505D01*
X106744809Y-120744506D01*
X106847519Y-120754999D01*
X106984999Y-120754999D01*
X106985000Y-120754998D01*
X106985000Y-119780000D01*
X106147501Y-119780000D01*
X106147501Y-120054986D01*
X104224028Y-120054986D01*
X104204210Y-119005013D01*
X106147500Y-119005013D01*
X106147500Y-119280000D01*
X106985000Y-119280000D01*
X106985000Y-118305000D01*
X107485000Y-118305000D01*
X107485000Y-120754999D01*
X107622472Y-120754999D01*
X107622486Y-120754998D01*
X107725197Y-120744505D01*
X107891619Y-120689358D01*
X107891624Y-120689356D01*
X108040845Y-120597315D01*
X108164818Y-120473342D01*
X108166665Y-120470348D01*
X108168469Y-120468724D01*
X108169298Y-120467677D01*
X108169476Y-120467818D01*
X108218610Y-120423621D01*
X108287573Y-120412396D01*
X108351656Y-120440236D01*
X108377743Y-120470341D01*
X108379788Y-120473656D01*
X108503844Y-120597712D01*
X108653166Y-120689814D01*
X108819703Y-120744999D01*
X108922491Y-120755500D01*
X109697508Y-120755499D01*
X109697516Y-120755498D01*
X109697519Y-120755498D01*
X109753802Y-120749748D01*
X109800297Y-120744999D01*
X109966834Y-120689814D01*
X110116156Y-120597712D01*
X110240212Y-120473656D01*
X110332314Y-120324334D01*
X110377795Y-120187081D01*
X110417567Y-120129638D01*
X110482082Y-120102815D01*
X110550858Y-120115130D01*
X110602058Y-120162673D01*
X110619500Y-120226087D01*
X110619500Y-124588329D01*
X110619499Y-124588347D01*
X110619499Y-124754053D01*
X110619498Y-124754053D01*
X110619499Y-124754056D01*
X110660423Y-124906784D01*
X110660424Y-124906785D01*
X110674934Y-124931919D01*
X110674935Y-124931920D01*
X110739475Y-125043708D01*
X110739481Y-125043716D01*
X110858349Y-125162584D01*
X110858355Y-125162589D01*
X111660140Y-125964374D01*
X111660150Y-125964385D01*
X111664479Y-125968713D01*
X111664481Y-125968716D01*
X111666680Y-125970915D01*
X111689047Y-126003826D01*
X111689287Y-126003685D01*
X111691532Y-126007482D01*
X111692806Y-126009356D01*
X111693253Y-126010390D01*
X111693256Y-126010398D01*
X111708916Y-126036878D01*
X111708918Y-126036881D01*
X111726098Y-126104606D01*
X111708918Y-126163119D01*
X111693253Y-126189606D01*
X111647402Y-126347426D01*
X111647401Y-126347432D01*
X111644500Y-126384298D01*
X111644500Y-126815701D01*
X111647401Y-126852567D01*
X111647402Y-126852573D01*
X111693254Y-127010393D01*
X111693255Y-127010396D01*
X111776917Y-127151862D01*
X111776923Y-127151870D01*
X111893129Y-127268076D01*
X111893133Y-127268079D01*
X111893135Y-127268081D01*
X112034602Y-127351744D01*
X112076224Y-127363836D01*
X112192426Y-127397597D01*
X112192429Y-127397597D01*
X112192431Y-127397598D01*
X112229306Y-127400500D01*
X112868085Y-127400500D01*
X112881969Y-127401280D01*
X112919998Y-127405565D01*
X112920000Y-127405565D01*
X112920002Y-127405565D01*
X112958031Y-127401280D01*
X112971915Y-127400500D01*
X113610686Y-127400500D01*
X113610694Y-127400500D01*
X113647569Y-127397598D01*
X113647571Y-127397597D01*
X113647573Y-127397597D01*
X113689191Y-127385505D01*
X113805398Y-127351744D01*
X113946865Y-127268081D01*
X114063081Y-127151865D01*
X114146744Y-127010398D01*
X114188932Y-126865187D01*
X114192597Y-126852573D01*
X114192598Y-126852567D01*
X114195499Y-126815701D01*
X114195500Y-126815694D01*
X114195500Y-126384306D01*
X114192598Y-126347431D01*
X114146744Y-126189602D01*
X114131084Y-126163122D01*
X114113900Y-126095399D01*
X114131084Y-126036878D01*
X114146742Y-126010401D01*
X114146744Y-126010398D01*
X114192598Y-125852569D01*
X114195500Y-125815694D01*
X114195500Y-125384306D01*
X114192598Y-125347431D01*
X114180881Y-125307102D01*
X114146745Y-125189606D01*
X114146745Y-125189605D01*
X114146744Y-125189604D01*
X114146744Y-125189602D01*
X114130791Y-125162628D01*
X114113611Y-125094905D01*
X114130794Y-125036386D01*
X114146281Y-125010199D01*
X114192100Y-124852486D01*
X114192295Y-124850001D01*
X114192295Y-124850000D01*
X113829050Y-124850000D01*
X113794455Y-124845076D01*
X113647573Y-124802402D01*
X113647567Y-124802401D01*
X113610701Y-124799500D01*
X113610694Y-124799500D01*
X112794000Y-124799500D01*
X112726961Y-124779815D01*
X112681206Y-124727011D01*
X112670000Y-124675500D01*
X112670000Y-124350000D01*
X113170000Y-124350000D01*
X114192295Y-124350000D01*
X114192295Y-124349998D01*
X114192100Y-124347513D01*
X114146281Y-124189801D01*
X114062685Y-124048447D01*
X114062678Y-124048438D01*
X113946561Y-123932321D01*
X113946552Y-123932314D01*
X113805196Y-123848717D01*
X113805193Y-123848716D01*
X113647495Y-123802900D01*
X113647489Y-123802899D01*
X113610649Y-123800000D01*
X113170000Y-123800000D01*
X113170000Y-124350000D01*
X112670000Y-124350000D01*
X112670000Y-123800000D01*
X112229350Y-123800000D01*
X112192510Y-123802899D01*
X112192504Y-123802900D01*
X112034806Y-123848716D01*
X112034800Y-123848718D01*
X112007619Y-123864793D01*
X111939894Y-123881974D01*
X111873632Y-123859813D01*
X111829870Y-123805347D01*
X111820500Y-123758060D01*
X111820500Y-118262412D01*
X111840185Y-118195373D01*
X111847555Y-118185097D01*
X111849810Y-118182267D01*
X111849816Y-118182262D01*
X111945789Y-118029522D01*
X112005368Y-117859255D01*
X112025565Y-117680000D01*
X112005368Y-117500745D01*
X111945789Y-117330478D01*
X111849816Y-117177738D01*
X111849814Y-117177736D01*
X111849813Y-117177734D01*
X111847550Y-117174896D01*
X111846659Y-117172715D01*
X111846111Y-117171842D01*
X111846264Y-117171745D01*
X111821144Y-117110209D01*
X111820500Y-117097587D01*
X111820500Y-114012519D01*
X111840185Y-113945480D01*
X111892989Y-113899725D01*
X111962147Y-113889781D01*
X112007617Y-113905785D01*
X112034602Y-113921744D01*
X112034605Y-113921744D01*
X112034607Y-113921746D01*
X112192426Y-113967597D01*
X112192429Y-113967597D01*
X112192431Y-113967598D01*
X112229306Y-113970500D01*
X112868085Y-113970500D01*
X112881969Y-113971280D01*
X112919998Y-113975565D01*
X112920000Y-113975565D01*
X112920002Y-113975565D01*
X112958031Y-113971280D01*
X112971915Y-113970500D01*
X113610686Y-113970500D01*
X113610694Y-113970500D01*
X113647569Y-113967598D01*
X113647571Y-113967597D01*
X113647573Y-113967597D01*
X113689191Y-113955505D01*
X113805398Y-113921744D01*
X113946865Y-113838081D01*
X114063081Y-113721865D01*
X114146744Y-113580398D01*
X114188932Y-113435187D01*
X114192597Y-113422573D01*
X114192598Y-113422567D01*
X114195499Y-113385701D01*
X114195500Y-113385694D01*
X114195500Y-112954306D01*
X114192598Y-112917431D01*
X114146744Y-112759602D01*
X114131084Y-112733122D01*
X114113900Y-112665399D01*
X114131084Y-112606878D01*
X114146742Y-112580401D01*
X114146744Y-112580398D01*
X114192598Y-112422569D01*
X114195500Y-112385694D01*
X114195500Y-111954306D01*
X114192598Y-111917431D01*
X114146744Y-111759602D01*
X114130791Y-111732627D01*
X114113611Y-111664905D01*
X114130794Y-111606386D01*
X114146281Y-111580199D01*
X114192100Y-111422486D01*
X114192295Y-111420001D01*
X114192295Y-111420000D01*
X113829050Y-111420000D01*
X113794455Y-111415076D01*
X113647573Y-111372402D01*
X113647567Y-111372401D01*
X113610701Y-111369500D01*
X113610694Y-111369500D01*
X112229306Y-111369500D01*
X112229298Y-111369500D01*
X112192432Y-111372401D01*
X112192426Y-111372402D01*
X112045545Y-111415076D01*
X112010950Y-111420000D01*
X111647705Y-111420000D01*
X111647704Y-111420001D01*
X111647899Y-111422488D01*
X111647900Y-111422494D01*
X111693716Y-111580193D01*
X111693717Y-111580196D01*
X111709207Y-111606388D01*
X111726389Y-111674112D01*
X111709207Y-111732627D01*
X111693258Y-111759595D01*
X111693254Y-111759605D01*
X111647402Y-111917426D01*
X111647401Y-111917432D01*
X111644500Y-111954298D01*
X111644500Y-112129350D01*
X111624815Y-112196389D01*
X111608181Y-112217031D01*
X110739481Y-113085730D01*
X110739477Y-113085735D01*
X110695281Y-113162287D01*
X110695281Y-113162288D01*
X110660423Y-113222662D01*
X110660423Y-113222663D01*
X110619499Y-113375391D01*
X110619499Y-113375393D01*
X110619499Y-113543494D01*
X110619500Y-113543507D01*
X110619500Y-117097587D01*
X110599815Y-117164626D01*
X110592450Y-117174896D01*
X110590186Y-117177734D01*
X110494211Y-117330476D01*
X110434631Y-117500745D01*
X110434630Y-117500750D01*
X110414435Y-117679996D01*
X110414435Y-117680003D01*
X110434630Y-117859249D01*
X110434631Y-117859254D01*
X110494211Y-118029523D01*
X110590185Y-118182263D01*
X110592445Y-118185097D01*
X110593334Y-118187275D01*
X110593889Y-118188158D01*
X110593734Y-118188255D01*
X110618855Y-118249783D01*
X110619500Y-118262412D01*
X110619500Y-118833910D01*
X110599815Y-118900949D01*
X110547011Y-118946704D01*
X110477853Y-118956648D01*
X110414297Y-118927623D01*
X110377794Y-118872915D01*
X110364869Y-118833910D01*
X110332314Y-118735666D01*
X110240212Y-118586344D01*
X110116156Y-118462288D01*
X109966834Y-118370186D01*
X109800297Y-118315001D01*
X109800295Y-118315000D01*
X109697510Y-118304500D01*
X108922498Y-118304500D01*
X108922480Y-118304501D01*
X108819703Y-118315000D01*
X108819700Y-118315001D01*
X108653168Y-118370185D01*
X108653163Y-118370187D01*
X108503842Y-118462289D01*
X108379788Y-118586343D01*
X108379783Y-118586349D01*
X108377741Y-118589661D01*
X108375747Y-118591453D01*
X108375307Y-118592011D01*
X108375211Y-118591935D01*
X108325791Y-118636383D01*
X108256828Y-118647602D01*
X108192747Y-118619755D01*
X108166668Y-118589656D01*
X108164819Y-118586659D01*
X108164816Y-118586655D01*
X108040845Y-118462684D01*
X107891624Y-118370643D01*
X107891619Y-118370641D01*
X107725197Y-118315494D01*
X107725190Y-118315493D01*
X107622486Y-118305000D01*
X107485000Y-118305000D01*
X106985000Y-118305000D01*
X106847527Y-118305000D01*
X106847512Y-118305001D01*
X106744802Y-118315494D01*
X106578380Y-118370641D01*
X106578375Y-118370643D01*
X106429154Y-118462684D01*
X106305184Y-118586654D01*
X106213143Y-118735875D01*
X106213141Y-118735880D01*
X106157994Y-118902302D01*
X106157993Y-118902309D01*
X106147500Y-119005013D01*
X104204210Y-119005013D01*
X104138215Y-115508575D01*
X104156630Y-115441184D01*
X104208561Y-115394441D01*
X104214890Y-115391886D01*
X104219328Y-115389817D01*
X104219331Y-115389814D01*
X104219334Y-115389814D01*
X104368656Y-115297712D01*
X104492712Y-115173656D01*
X104494461Y-115170819D01*
X104496169Y-115169283D01*
X104497193Y-115167989D01*
X104497414Y-115168163D01*
X104546406Y-115124096D01*
X104615368Y-115112872D01*
X104679451Y-115140713D01*
X104705537Y-115170817D01*
X104707288Y-115173656D01*
X104831344Y-115297712D01*
X104980666Y-115389814D01*
X105147203Y-115444999D01*
X105249991Y-115455500D01*
X106025008Y-115455499D01*
X106025016Y-115455498D01*
X106025019Y-115455498D01*
X106081302Y-115449748D01*
X106127797Y-115444999D01*
X106294334Y-115389814D01*
X106443656Y-115297712D01*
X106567712Y-115173656D01*
X106659814Y-115024334D01*
X106714999Y-114857797D01*
X106725500Y-114755009D01*
X106725499Y-113704992D01*
X106714999Y-113602203D01*
X106659814Y-113435666D01*
X106567712Y-113286344D01*
X106443656Y-113162288D01*
X106294334Y-113070186D01*
X106127797Y-113015001D01*
X106127795Y-113015000D01*
X106025010Y-113004500D01*
X105249998Y-113004500D01*
X105249980Y-113004501D01*
X105147203Y-113015000D01*
X105147200Y-113015001D01*
X104980668Y-113070185D01*
X104980663Y-113070187D01*
X104831342Y-113162289D01*
X104707285Y-113286346D01*
X104705537Y-113289182D01*
X104703829Y-113290717D01*
X104702807Y-113292011D01*
X104702585Y-113291836D01*
X104653589Y-113335905D01*
X104584626Y-113347126D01*
X104520544Y-113319282D01*
X104494463Y-113289182D01*
X104492714Y-113286346D01*
X104368657Y-113162289D01*
X104368656Y-113162288D01*
X104219334Y-113070186D01*
X104174707Y-113055398D01*
X104117262Y-113015625D01*
X104090440Y-112951108D01*
X104089735Y-112940060D01*
X104085207Y-112700129D01*
X104103622Y-112632735D01*
X104144086Y-112592256D01*
X104281156Y-112507712D01*
X104405212Y-112383656D01*
X104406961Y-112380819D01*
X104408669Y-112379283D01*
X104409693Y-112377989D01*
X104409914Y-112378163D01*
X104458906Y-112334096D01*
X104527868Y-112322872D01*
X104591951Y-112350713D01*
X104618037Y-112380817D01*
X104619788Y-112383656D01*
X104743844Y-112507712D01*
X104893166Y-112599814D01*
X105059703Y-112654999D01*
X105162491Y-112665500D01*
X105937508Y-112665499D01*
X105937516Y-112665498D01*
X105937519Y-112665498D01*
X105993802Y-112659748D01*
X106040297Y-112654999D01*
X106206834Y-112599814D01*
X106356156Y-112507712D01*
X106480212Y-112383656D01*
X106572314Y-112234334D01*
X106627499Y-112067797D01*
X106638000Y-111965009D01*
X106637999Y-110919998D01*
X111647704Y-110919998D01*
X111647705Y-110920000D01*
X112670000Y-110920000D01*
X113170000Y-110920000D01*
X114192295Y-110920000D01*
X114192295Y-110919998D01*
X114192100Y-110917513D01*
X114146281Y-110759801D01*
X114062685Y-110618447D01*
X114062678Y-110618438D01*
X113946561Y-110502321D01*
X113946552Y-110502314D01*
X113805196Y-110418717D01*
X113805193Y-110418716D01*
X113647495Y-110372900D01*
X113647489Y-110372899D01*
X113610649Y-110370000D01*
X113170000Y-110370000D01*
X113170000Y-110920000D01*
X112670000Y-110920000D01*
X112670000Y-110370000D01*
X112229350Y-110370000D01*
X112192510Y-110372899D01*
X112192504Y-110372900D01*
X112034806Y-110418716D01*
X112034803Y-110418717D01*
X111893447Y-110502314D01*
X111893438Y-110502321D01*
X111777321Y-110618438D01*
X111777314Y-110618447D01*
X111693718Y-110759801D01*
X111647899Y-110917513D01*
X111647704Y-110919998D01*
X106637999Y-110919998D01*
X106637999Y-110914992D01*
X106636959Y-110904814D01*
X106627499Y-110812203D01*
X106627498Y-110812200D01*
X106572314Y-110645666D01*
X106480212Y-110496344D01*
X106356156Y-110372288D01*
X106206834Y-110280186D01*
X106040297Y-110225001D01*
X106040295Y-110225000D01*
X105937510Y-110214500D01*
X105162498Y-110214500D01*
X105162480Y-110214501D01*
X105059703Y-110225000D01*
X105059700Y-110225001D01*
X104893168Y-110280185D01*
X104893163Y-110280187D01*
X104743842Y-110372289D01*
X104619785Y-110496346D01*
X104618037Y-110499182D01*
X104616329Y-110500717D01*
X104615307Y-110502011D01*
X104615085Y-110501836D01*
X104566089Y-110545905D01*
X104497126Y-110557126D01*
X104433044Y-110529282D01*
X104406963Y-110499182D01*
X104405214Y-110496346D01*
X104281157Y-110372289D01*
X104281156Y-110372288D01*
X104131834Y-110280186D01*
X104122265Y-110277015D01*
X104064821Y-110237242D01*
X104037999Y-110172726D01*
X104037294Y-110161671D01*
X104008324Y-108626836D01*
X104026740Y-108559440D01*
X104078671Y-108512697D01*
X104132299Y-108500499D01*
X104422508Y-108500499D01*
X104525297Y-108489999D01*
X104691834Y-108434814D01*
X104841156Y-108342712D01*
X104965212Y-108218656D01*
X105057314Y-108069334D01*
X105085095Y-107985495D01*
X105124868Y-107928051D01*
X105189384Y-107901228D01*
X105202801Y-107900500D01*
X106375461Y-107900500D01*
X106442500Y-107920185D01*
X106488255Y-107972989D01*
X106493167Y-107985496D01*
X106522137Y-108072922D01*
X106522142Y-108072933D01*
X106613471Y-108220999D01*
X106613474Y-108221003D01*
X106736496Y-108344025D01*
X106736500Y-108344028D01*
X106884566Y-108435357D01*
X106884569Y-108435358D01*
X106884575Y-108435362D01*
X107049725Y-108490087D01*
X107151652Y-108500500D01*
X107151657Y-108500500D01*
X107738343Y-108500500D01*
X107738348Y-108500500D01*
X107840275Y-108490087D01*
X108005425Y-108435362D01*
X108153503Y-108344026D01*
X108276526Y-108221003D01*
X108276958Y-108220301D01*
X108277381Y-108219921D01*
X108281007Y-108215336D01*
X108281790Y-108215955D01*
X108328902Y-108173575D01*
X108397864Y-108162349D01*
X108461948Y-108190188D01*
X108483842Y-108215455D01*
X108483993Y-108215336D01*
X108486643Y-108218687D01*
X108488040Y-108220299D01*
X108488472Y-108220999D01*
X108488475Y-108221004D01*
X108611496Y-108344025D01*
X108611500Y-108344028D01*
X108759566Y-108435357D01*
X108759569Y-108435358D01*
X108759575Y-108435362D01*
X108924725Y-108490087D01*
X109026652Y-108500500D01*
X109026657Y-108500500D01*
X109613343Y-108500500D01*
X109613348Y-108500500D01*
X109715275Y-108490087D01*
X109880425Y-108435362D01*
X110028503Y-108344026D01*
X110151526Y-108221003D01*
X110242862Y-108072925D01*
X110297587Y-107907775D01*
X110308000Y-107805848D01*
X110308000Y-106794152D01*
X110297587Y-106692225D01*
X110242862Y-106527075D01*
X110242858Y-106527069D01*
X110242857Y-106527066D01*
X110151528Y-106379000D01*
X110151525Y-106378996D01*
X110028503Y-106255974D01*
X110028499Y-106255971D01*
X109880433Y-106164642D01*
X109880427Y-106164639D01*
X109880425Y-106164638D01*
X109880422Y-106164637D01*
X109715276Y-106109913D01*
X109613355Y-106099500D01*
X109613348Y-106099500D01*
X109026652Y-106099500D01*
X109026644Y-106099500D01*
X108924723Y-106109913D01*
X108759577Y-106164637D01*
X108759566Y-106164642D01*
X108611500Y-106255971D01*
X108611496Y-106255974D01*
X108488474Y-106378996D01*
X108488471Y-106379000D01*
X108488038Y-106379703D01*
X108487614Y-106380083D01*
X108483993Y-106384664D01*
X108483210Y-106384045D01*
X108436090Y-106426428D01*
X108367128Y-106437649D01*
X108303046Y-106409806D01*
X108281157Y-106384544D01*
X108281007Y-106384664D01*
X108278359Y-106381315D01*
X108276962Y-106379703D01*
X108276528Y-106379000D01*
X108276525Y-106378996D01*
X108153503Y-106255974D01*
X108153499Y-106255971D01*
X108005433Y-106164642D01*
X108005427Y-106164639D01*
X108005425Y-106164638D01*
X108005422Y-106164637D01*
X107840276Y-106109913D01*
X107738355Y-106099500D01*
X107738348Y-106099500D01*
X107151652Y-106099500D01*
X107151644Y-106099500D01*
X107049723Y-106109913D01*
X106884577Y-106164637D01*
X106884566Y-106164642D01*
X106736500Y-106255971D01*
X106736496Y-106255974D01*
X106613474Y-106378996D01*
X106613471Y-106379000D01*
X106522142Y-106527066D01*
X106522137Y-106527077D01*
X106493167Y-106614504D01*
X106453394Y-106671949D01*
X106388878Y-106698772D01*
X106375461Y-106699500D01*
X105202801Y-106699500D01*
X105135762Y-106679815D01*
X105090007Y-106627011D01*
X105085095Y-106614504D01*
X105057314Y-106530666D01*
X104965212Y-106381344D01*
X104841156Y-106257288D01*
X104691834Y-106165186D01*
X104525297Y-106110001D01*
X104525295Y-106110000D01*
X104422516Y-106099500D01*
X104082303Y-106099500D01*
X104015264Y-106079815D01*
X103969509Y-106027011D01*
X103958325Y-105977842D01*
X103951700Y-105626838D01*
X103970116Y-105559441D01*
X104022047Y-105512698D01*
X104075678Y-105500500D01*
X117875500Y-105500500D01*
X117942539Y-105520185D01*
G37*
%TD.AperFunction*%
%TD*%
%TA.AperFunction,Conductor*%
%TO.N,3V3*%
G36*
X103389851Y-105520185D02*
G01*
X103435606Y-105572989D01*
X103444624Y-105631854D01*
X103446523Y-105631954D01*
X103446290Y-105636375D01*
X103452915Y-105987380D01*
X103452915Y-105987384D01*
X103465414Y-106089955D01*
X103465417Y-106089974D01*
X103468470Y-106103395D01*
X103464143Y-106173130D01*
X103422801Y-106229456D01*
X103412656Y-106236432D01*
X103378844Y-106257287D01*
X103378843Y-106257288D01*
X103285181Y-106350951D01*
X103223858Y-106384436D01*
X103154166Y-106379452D01*
X103109819Y-106350951D01*
X103016157Y-106257289D01*
X103016156Y-106257288D01*
X102902212Y-106187007D01*
X102866836Y-106165187D01*
X102866831Y-106165185D01*
X102865362Y-106164698D01*
X102700297Y-106110001D01*
X102700295Y-106110000D01*
X102597510Y-106099500D01*
X101972498Y-106099500D01*
X101972480Y-106099501D01*
X101869703Y-106110000D01*
X101869700Y-106110001D01*
X101703168Y-106165185D01*
X101703163Y-106165187D01*
X101553842Y-106257289D01*
X101429789Y-106381342D01*
X101337687Y-106530663D01*
X101337685Y-106530668D01*
X101309905Y-106614504D01*
X101270132Y-106671949D01*
X101205616Y-106698772D01*
X101192199Y-106699500D01*
X99526669Y-106699500D01*
X99526653Y-106699499D01*
X99519057Y-106699499D01*
X99360943Y-106699499D01*
X99223087Y-106736438D01*
X99208215Y-106740423D01*
X99208213Y-106740424D01*
X99185631Y-106753460D01*
X99185632Y-106753461D01*
X99071287Y-106819477D01*
X99071282Y-106819481D01*
X98589481Y-107301282D01*
X98589480Y-107301284D01*
X98544578Y-107379057D01*
X98510423Y-107438215D01*
X98469499Y-107590943D01*
X98469499Y-107590945D01*
X98469499Y-107759046D01*
X98469500Y-107759059D01*
X98469500Y-110523399D01*
X98449815Y-110590438D01*
X98397011Y-110636193D01*
X98361696Y-110646337D01*
X98360529Y-110646490D01*
X98352680Y-110648594D01*
X98351801Y-110645314D01*
X98297927Y-110651082D01*
X98287479Y-110648010D01*
X98287323Y-110648595D01*
X98279470Y-110646490D01*
X98169401Y-110632000D01*
X97970596Y-110632000D01*
X97860531Y-110646489D01*
X97852678Y-110648594D01*
X97851802Y-110645324D01*
X97797853Y-110651067D01*
X97787477Y-110648018D01*
X97787323Y-110648595D01*
X97779470Y-110646490D01*
X97669401Y-110632000D01*
X97470596Y-110632000D01*
X97360531Y-110646489D01*
X97352678Y-110648594D01*
X97351802Y-110645324D01*
X97297853Y-110651067D01*
X97287477Y-110648018D01*
X97287323Y-110648595D01*
X97279470Y-110646490D01*
X97169401Y-110632000D01*
X96970596Y-110632000D01*
X96860531Y-110646489D01*
X96852678Y-110648594D01*
X96851802Y-110645324D01*
X96797853Y-110651067D01*
X96787477Y-110648018D01*
X96787323Y-110648595D01*
X96779470Y-110646490D01*
X96669401Y-110632000D01*
X96470596Y-110632000D01*
X96360531Y-110646489D01*
X96352678Y-110648594D01*
X96351802Y-110645324D01*
X96297853Y-110651067D01*
X96287477Y-110648018D01*
X96287323Y-110648595D01*
X96279470Y-110646490D01*
X96169401Y-110632000D01*
X95970596Y-110632000D01*
X95860531Y-110646489D01*
X95852678Y-110648594D01*
X95851802Y-110645324D01*
X95797853Y-110651067D01*
X95787477Y-110648018D01*
X95787323Y-110648595D01*
X95779468Y-110646490D01*
X95778304Y-110646337D01*
X95777395Y-110645934D01*
X95771622Y-110644388D01*
X95771863Y-110643487D01*
X95714410Y-110618065D01*
X95675944Y-110559737D01*
X95670500Y-110523399D01*
X95670500Y-110189059D01*
X95670501Y-110189046D01*
X95670501Y-110020945D01*
X95670501Y-110020943D01*
X95629577Y-109868215D01*
X95579488Y-109781459D01*
X95550520Y-109731284D01*
X95438716Y-109619480D01*
X95438715Y-109619479D01*
X95434385Y-109615149D01*
X95434374Y-109615139D01*
X95337590Y-109518355D01*
X95337588Y-109518352D01*
X95218717Y-109399481D01*
X95218709Y-109399475D01*
X95113697Y-109338847D01*
X95113694Y-109338846D01*
X95081787Y-109320424D01*
X95081786Y-109320423D01*
X95081785Y-109320423D01*
X94929057Y-109279499D01*
X94770943Y-109279499D01*
X94763347Y-109279499D01*
X94763331Y-109279500D01*
X82209091Y-109279500D01*
X82142052Y-109259815D01*
X82096711Y-109207909D01*
X82094037Y-109202175D01*
X82094034Y-109202170D01*
X82094033Y-109202169D01*
X81958495Y-109008599D01*
X81836567Y-108886671D01*
X81803084Y-108825351D01*
X81808068Y-108755659D01*
X81849939Y-108699725D01*
X81880915Y-108682810D01*
X82012331Y-108633796D01*
X82127546Y-108547546D01*
X82213796Y-108432331D01*
X82264091Y-108297483D01*
X82270500Y-108237873D01*
X82270499Y-106442128D01*
X82264091Y-106382517D01*
X82263653Y-106381344D01*
X82213797Y-106247671D01*
X82213793Y-106247664D01*
X82127547Y-106132455D01*
X82127544Y-106132452D01*
X82012335Y-106046206D01*
X82012328Y-106046202D01*
X81877482Y-105995908D01*
X81877483Y-105995908D01*
X81817883Y-105989501D01*
X81817881Y-105989500D01*
X81817873Y-105989500D01*
X81817864Y-105989500D01*
X80022129Y-105989500D01*
X80022123Y-105989501D01*
X79962516Y-105995908D01*
X79827671Y-106046202D01*
X79827664Y-106046206D01*
X79712455Y-106132452D01*
X79712452Y-106132455D01*
X79626206Y-106247664D01*
X79626202Y-106247671D01*
X79575908Y-106382517D01*
X79569501Y-106442116D01*
X79569501Y-106442123D01*
X79569500Y-106442135D01*
X79569500Y-108237870D01*
X79569501Y-108237876D01*
X79575908Y-108297483D01*
X79626202Y-108432328D01*
X79626206Y-108432335D01*
X79712452Y-108547544D01*
X79712455Y-108547547D01*
X79827664Y-108633793D01*
X79827671Y-108633797D01*
X79959081Y-108682810D01*
X80015015Y-108724681D01*
X80039432Y-108790145D01*
X80024580Y-108858418D01*
X80003430Y-108886673D01*
X79881503Y-109008600D01*
X79745965Y-109202169D01*
X79745964Y-109202171D01*
X79646098Y-109416335D01*
X79646094Y-109416344D01*
X79584938Y-109644586D01*
X79584936Y-109644596D01*
X79564341Y-109879999D01*
X79564341Y-109880000D01*
X79584936Y-110115403D01*
X79584938Y-110115413D01*
X79646094Y-110343655D01*
X79646096Y-110343659D01*
X79646097Y-110343663D01*
X79710020Y-110480745D01*
X79745965Y-110557830D01*
X79745967Y-110557834D01*
X79881501Y-110751395D01*
X79881506Y-110751402D01*
X80048597Y-110918493D01*
X80048603Y-110918498D01*
X80234158Y-111048425D01*
X80277783Y-111103002D01*
X80284977Y-111172500D01*
X80253454Y-111234855D01*
X80234158Y-111251575D01*
X80048597Y-111381505D01*
X79881505Y-111548597D01*
X79745965Y-111742169D01*
X79745964Y-111742171D01*
X79646098Y-111956335D01*
X79646094Y-111956344D01*
X79584938Y-112184586D01*
X79584936Y-112184596D01*
X79564341Y-112419999D01*
X79564341Y-112420000D01*
X79584936Y-112655403D01*
X79584938Y-112655413D01*
X79646094Y-112883655D01*
X79646095Y-112883657D01*
X79646097Y-112883663D01*
X79702445Y-113004501D01*
X79745965Y-113097830D01*
X79745967Y-113097834D01*
X79881501Y-113291395D01*
X79881506Y-113291402D01*
X80048597Y-113458493D01*
X80048603Y-113458498D01*
X80057889Y-113465000D01*
X80171432Y-113544504D01*
X80234594Y-113588730D01*
X80278219Y-113643307D01*
X80285413Y-113712805D01*
X80253890Y-113775160D01*
X80234595Y-113791880D01*
X80048922Y-113921890D01*
X80048920Y-113921891D01*
X79881891Y-114088920D01*
X79881886Y-114088926D01*
X79746400Y-114282420D01*
X79746399Y-114282422D01*
X79646570Y-114496507D01*
X79646567Y-114496513D01*
X79589364Y-114709999D01*
X79589364Y-114710000D01*
X80486988Y-114710000D01*
X80454075Y-114767007D01*
X80420000Y-114894174D01*
X80420000Y-115025826D01*
X80454075Y-115152993D01*
X80486988Y-115210000D01*
X79589364Y-115210000D01*
X79646567Y-115423486D01*
X79646570Y-115423492D01*
X79746399Y-115637578D01*
X79881894Y-115831082D01*
X80048917Y-115998105D01*
X80242421Y-116133600D01*
X80456507Y-116233429D01*
X80456516Y-116233433D01*
X80670000Y-116290634D01*
X80670000Y-115393012D01*
X80727007Y-115425925D01*
X80854174Y-115460000D01*
X80985826Y-115460000D01*
X81112993Y-115425925D01*
X81170000Y-115393012D01*
X81170000Y-116290633D01*
X81383483Y-116233433D01*
X81383492Y-116233429D01*
X81597578Y-116133600D01*
X81791082Y-115998105D01*
X81958105Y-115831082D01*
X82093600Y-115637578D01*
X82193429Y-115423492D01*
X82193432Y-115423486D01*
X82250636Y-115210000D01*
X81353012Y-115210000D01*
X81385925Y-115152993D01*
X81420000Y-115025826D01*
X81420000Y-114894174D01*
X81385925Y-114767007D01*
X81353012Y-114710000D01*
X82250636Y-114710000D01*
X82250635Y-114709999D01*
X82209531Y-114556595D01*
X82211194Y-114486745D01*
X82250356Y-114428882D01*
X82314585Y-114401378D01*
X82329306Y-114400501D01*
X82386654Y-114400501D01*
X82386670Y-114400500D01*
X91161284Y-114400500D01*
X91228323Y-114420185D01*
X91274078Y-114472989D01*
X91284504Y-114510617D01*
X91304630Y-114689249D01*
X91304631Y-114689254D01*
X91364211Y-114859523D01*
X91435511Y-114972995D01*
X91460184Y-115012262D01*
X91587738Y-115139816D01*
X91633486Y-115168561D01*
X91679777Y-115220896D01*
X91690425Y-115289949D01*
X91672508Y-115339526D01*
X91634212Y-115400474D01*
X91574631Y-115570745D01*
X91574630Y-115570750D01*
X91554435Y-115749996D01*
X91554435Y-115750003D01*
X91574630Y-115929249D01*
X91574631Y-115929254D01*
X91634212Y-116099525D01*
X91660667Y-116141629D01*
X91679667Y-116208866D01*
X91659299Y-116275701D01*
X91621647Y-116312593D01*
X91577738Y-116340183D01*
X91450184Y-116467737D01*
X91354211Y-116620476D01*
X91294631Y-116790745D01*
X91294630Y-116790750D01*
X91274435Y-116969996D01*
X91274435Y-116970003D01*
X91294630Y-117149249D01*
X91294631Y-117149254D01*
X91354211Y-117319523D01*
X91417343Y-117419996D01*
X91450184Y-117472262D01*
X91577738Y-117599816D01*
X91668080Y-117656582D01*
X91705343Y-117679996D01*
X91730478Y-117695789D01*
X91874133Y-117746056D01*
X91900745Y-117755368D01*
X91900750Y-117755369D01*
X92034177Y-117770402D01*
X92082292Y-117786234D01*
X92121390Y-117808806D01*
X92135716Y-117817077D01*
X92232914Y-117843121D01*
X92288442Y-117858000D01*
X92288443Y-117858000D01*
X92336404Y-117858000D01*
X92403443Y-117877685D01*
X92449198Y-117930489D01*
X92459343Y-117965816D01*
X92459477Y-117966839D01*
X92459478Y-117966842D01*
X92516156Y-118103675D01*
X92606320Y-118221179D01*
X92723824Y-118311343D01*
X92860658Y-118368021D01*
X92970622Y-118382499D01*
X92970637Y-118382500D01*
X93257500Y-118382500D01*
X93257500Y-118006999D01*
X93277185Y-117939960D01*
X93329989Y-117894205D01*
X93381498Y-117882999D01*
X93383500Y-117882999D01*
X93450539Y-117902684D01*
X93496294Y-117955488D01*
X93507500Y-118006999D01*
X93507500Y-118320000D01*
X93820500Y-118320000D01*
X93887539Y-118339685D01*
X93933294Y-118392489D01*
X93944500Y-118444000D01*
X93944500Y-118446000D01*
X93924815Y-118513039D01*
X93872011Y-118558794D01*
X93820500Y-118570000D01*
X93445000Y-118570000D01*
X93445000Y-118856877D01*
X93459478Y-118966841D01*
X93459478Y-118966842D01*
X93516156Y-119103675D01*
X93606320Y-119221179D01*
X93723824Y-119311343D01*
X93860657Y-119368021D01*
X93860665Y-119368023D01*
X93944998Y-119379125D01*
X93945000Y-119379124D01*
X93945000Y-119349470D01*
X93964685Y-119282431D01*
X94017489Y-119236676D01*
X94086647Y-119226732D01*
X94144492Y-119251100D01*
X94146498Y-119252639D01*
X94187694Y-119309070D01*
X94195000Y-119351005D01*
X94195000Y-119379124D01*
X94279343Y-119368021D01*
X94287195Y-119365918D01*
X94288165Y-119369541D01*
X94340116Y-119363419D01*
X94352518Y-119366994D01*
X94352677Y-119366405D01*
X94360526Y-119368508D01*
X94360528Y-119368509D01*
X94470599Y-119383000D01*
X94669400Y-119382999D01*
X94669401Y-119382999D01*
X94698828Y-119379125D01*
X94779472Y-119368509D01*
X94779475Y-119368507D01*
X94787326Y-119366405D01*
X94788210Y-119369707D01*
X94841925Y-119363892D01*
X94852514Y-119367001D01*
X94852674Y-119366405D01*
X94860524Y-119368508D01*
X94860526Y-119368508D01*
X94860528Y-119368509D01*
X94970599Y-119383000D01*
X95169400Y-119382999D01*
X95169401Y-119382999D01*
X95198828Y-119379125D01*
X95279472Y-119368509D01*
X95279475Y-119368507D01*
X95287326Y-119366405D01*
X95288210Y-119369707D01*
X95341925Y-119363892D01*
X95352514Y-119367001D01*
X95352674Y-119366405D01*
X95360524Y-119368508D01*
X95360526Y-119368508D01*
X95360528Y-119368509D01*
X95470599Y-119383000D01*
X95669400Y-119382999D01*
X95669401Y-119382999D01*
X95698828Y-119379125D01*
X95779472Y-119368509D01*
X95779475Y-119368507D01*
X95787326Y-119366405D01*
X95788210Y-119369707D01*
X95841925Y-119363892D01*
X95852514Y-119367001D01*
X95852674Y-119366405D01*
X95860524Y-119368508D01*
X95860526Y-119368508D01*
X95860528Y-119368509D01*
X95970599Y-119383000D01*
X96169400Y-119382999D01*
X96249318Y-119372478D01*
X96318350Y-119383244D01*
X96370606Y-119429623D01*
X96389500Y-119495417D01*
X96389500Y-123639902D01*
X96369815Y-123706941D01*
X96353185Y-123727578D01*
X96217582Y-123863182D01*
X96156262Y-123896666D01*
X96129903Y-123899500D01*
X92329929Y-123899500D01*
X92262890Y-123879815D01*
X92217135Y-123827011D01*
X92207191Y-123757853D01*
X92224389Y-123710404D01*
X92289814Y-123604334D01*
X92344999Y-123437797D01*
X92355500Y-123335009D01*
X92355499Y-122284992D01*
X92344999Y-122182203D01*
X92289814Y-122015666D01*
X92197712Y-121866344D01*
X92073656Y-121742288D01*
X91946174Y-121663657D01*
X91924336Y-121650187D01*
X91924331Y-121650185D01*
X91922862Y-121649698D01*
X91757797Y-121595001D01*
X91757795Y-121595000D01*
X91655010Y-121584500D01*
X90879998Y-121584500D01*
X90879980Y-121584501D01*
X90777203Y-121595000D01*
X90777200Y-121595001D01*
X90610668Y-121650185D01*
X90610663Y-121650187D01*
X90461342Y-121742289D01*
X90337288Y-121866343D01*
X90337283Y-121866349D01*
X90335241Y-121869661D01*
X90333247Y-121871453D01*
X90332807Y-121872011D01*
X90332711Y-121871935D01*
X90283291Y-121916383D01*
X90214328Y-121927602D01*
X90150247Y-121899755D01*
X90124168Y-121869656D01*
X90122319Y-121866659D01*
X90122316Y-121866655D01*
X89998345Y-121742684D01*
X89849124Y-121650643D01*
X89849119Y-121650641D01*
X89682697Y-121595494D01*
X89682690Y-121595493D01*
X89579986Y-121585000D01*
X89442500Y-121585000D01*
X89442500Y-124034999D01*
X89579972Y-124034999D01*
X89579986Y-124034998D01*
X89682697Y-124024505D01*
X89849119Y-123969358D01*
X89849124Y-123969356D01*
X89998345Y-123877315D01*
X90122318Y-123753342D01*
X90124165Y-123750348D01*
X90125969Y-123748724D01*
X90126798Y-123747677D01*
X90126976Y-123747818D01*
X90176110Y-123703621D01*
X90245073Y-123692396D01*
X90309156Y-123720236D01*
X90335243Y-123750341D01*
X90337288Y-123753656D01*
X90461344Y-123877712D01*
X90610666Y-123969814D01*
X90777203Y-124024999D01*
X90879991Y-124035500D01*
X91067374Y-124035499D01*
X91134412Y-124055183D01*
X91180167Y-124107987D01*
X91190111Y-124177145D01*
X91161086Y-124240701D01*
X91155054Y-124247180D01*
X90341286Y-125060949D01*
X90229481Y-125172753D01*
X90229479Y-125172756D01*
X90210825Y-125205067D01*
X90191859Y-125237918D01*
X90179361Y-125259565D01*
X90179359Y-125259567D01*
X90150425Y-125309680D01*
X90150424Y-125309681D01*
X90134544Y-125368943D01*
X90109499Y-125462414D01*
X90109499Y-125462416D01*
X90109499Y-125630517D01*
X90109500Y-125630530D01*
X90109500Y-125722199D01*
X90089815Y-125789238D01*
X90037011Y-125834993D01*
X90024507Y-125839903D01*
X89991962Y-125850688D01*
X89940668Y-125867685D01*
X89940663Y-125867687D01*
X89791342Y-125959789D01*
X89667289Y-126083842D01*
X89667288Y-126083844D01*
X89634495Y-126137011D01*
X89623031Y-126155597D01*
X89571083Y-126202321D01*
X89517492Y-126214500D01*
X89126546Y-126214500D01*
X89094457Y-126210276D01*
X89091557Y-126209499D01*
X89091556Y-126209499D01*
X89086115Y-126209499D01*
X89019076Y-126189814D01*
X88973321Y-126137010D01*
X88972559Y-126135309D01*
X88967330Y-126123389D01*
X88954173Y-126093393D01*
X88883365Y-125985013D01*
X88818166Y-125885217D01*
X88771931Y-125834993D01*
X88649744Y-125702262D01*
X88453509Y-125549526D01*
X88453507Y-125549525D01*
X88453506Y-125549524D01*
X88234811Y-125431172D01*
X88234802Y-125431169D01*
X87999616Y-125350429D01*
X87754335Y-125309500D01*
X87505665Y-125309500D01*
X87260383Y-125350429D01*
X87025197Y-125431169D01*
X87025188Y-125431172D01*
X86806493Y-125549524D01*
X86610257Y-125702261D01*
X86441833Y-125885217D01*
X86305827Y-126093391D01*
X86287440Y-126135311D01*
X86242483Y-126188796D01*
X86175747Y-126209486D01*
X86173884Y-126209500D01*
X82586116Y-126209500D01*
X82519077Y-126189815D01*
X82473322Y-126137011D01*
X82472560Y-126135311D01*
X82454172Y-126093391D01*
X82318166Y-125885217D01*
X82271931Y-125834993D01*
X82149744Y-125702262D01*
X81953509Y-125549526D01*
X81953507Y-125549525D01*
X81953506Y-125549524D01*
X81734811Y-125431172D01*
X81734802Y-125431169D01*
X81499616Y-125350429D01*
X81254335Y-125309500D01*
X81005665Y-125309500D01*
X80760383Y-125350429D01*
X80525197Y-125431169D01*
X80525188Y-125431172D01*
X80306493Y-125549524D01*
X80110257Y-125702261D01*
X79941833Y-125885217D01*
X79805826Y-126093393D01*
X79705936Y-126321118D01*
X79644892Y-126562175D01*
X79644890Y-126562187D01*
X79624357Y-126809994D01*
X79624357Y-126810005D01*
X79644890Y-127057812D01*
X79644892Y-127057824D01*
X79705936Y-127298881D01*
X79805826Y-127526606D01*
X79941833Y-127734782D01*
X79941836Y-127734785D01*
X80110256Y-127917738D01*
X80306491Y-128070474D01*
X80525190Y-128188828D01*
X80760386Y-128269571D01*
X81005665Y-128310500D01*
X81254335Y-128310500D01*
X81499614Y-128269571D01*
X81734810Y-128188828D01*
X81953509Y-128070474D01*
X82149744Y-127917738D01*
X82318164Y-127734785D01*
X82324558Y-127724999D01*
X82360351Y-127670212D01*
X82454173Y-127526607D01*
X82472560Y-127484689D01*
X82517517Y-127431204D01*
X82584253Y-127410514D01*
X82586116Y-127410500D01*
X86173884Y-127410500D01*
X86240923Y-127430185D01*
X86286678Y-127482989D01*
X86287440Y-127484689D01*
X86305827Y-127526608D01*
X86441833Y-127734782D01*
X86441836Y-127734785D01*
X86610256Y-127917738D01*
X86806491Y-128070474D01*
X87025190Y-128188828D01*
X87260386Y-128269571D01*
X87505665Y-128310500D01*
X87754335Y-128310500D01*
X87999614Y-128269571D01*
X88234810Y-128188828D01*
X88453509Y-128070474D01*
X88649744Y-127917738D01*
X88818164Y-127734785D01*
X88824558Y-127724999D01*
X88860351Y-127670212D01*
X88954173Y-127526607D01*
X88970366Y-127489691D01*
X89015321Y-127436205D01*
X89082057Y-127415514D01*
X89083922Y-127415500D01*
X89096557Y-127415500D01*
X89517492Y-127415500D01*
X89584531Y-127435185D01*
X89623029Y-127474401D01*
X89655231Y-127526608D01*
X89667289Y-127546157D01*
X89761304Y-127640172D01*
X89794789Y-127701495D01*
X89789805Y-127771187D01*
X89761305Y-127815534D01*
X89667682Y-127909157D01*
X89575643Y-128058375D01*
X89575641Y-128058380D01*
X89520494Y-128224802D01*
X89520493Y-128224809D01*
X89510000Y-128327513D01*
X89510000Y-128390000D01*
X91909999Y-128390000D01*
X91909999Y-128327528D01*
X91909998Y-128327513D01*
X91899505Y-128224802D01*
X91844358Y-128058380D01*
X91844356Y-128058375D01*
X91752315Y-127909154D01*
X91658695Y-127815534D01*
X91625210Y-127754211D01*
X91630194Y-127684519D01*
X91658691Y-127640176D01*
X91752712Y-127546156D01*
X91844814Y-127396834D01*
X91899999Y-127230297D01*
X91910500Y-127127509D01*
X91910500Y-127034986D01*
X93757501Y-127034986D01*
X93767994Y-127137697D01*
X93823141Y-127304119D01*
X93823143Y-127304124D01*
X93915184Y-127453345D01*
X94039154Y-127577315D01*
X94188375Y-127669356D01*
X94188380Y-127669358D01*
X94354802Y-127724505D01*
X94354809Y-127724506D01*
X94457519Y-127734999D01*
X94594999Y-127734999D01*
X94595000Y-127734998D01*
X94595000Y-126760000D01*
X93757501Y-126760000D01*
X93757501Y-127034986D01*
X91910500Y-127034986D01*
X91910499Y-126502492D01*
X91899999Y-126399703D01*
X91844814Y-126233166D01*
X91752712Y-126083844D01*
X91628656Y-125959788D01*
X91509569Y-125886335D01*
X91479336Y-125867687D01*
X91472791Y-125864636D01*
X91474052Y-125861929D01*
X91427707Y-125829840D01*
X91400886Y-125765323D01*
X91413203Y-125696547D01*
X91436474Y-125664231D01*
X91963887Y-125136819D01*
X92025210Y-125103334D01*
X92051568Y-125100500D01*
X94174833Y-125100500D01*
X94241872Y-125120185D01*
X94287627Y-125172989D01*
X94297571Y-125242147D01*
X94268546Y-125305703D01*
X94213838Y-125342206D01*
X94188378Y-125350642D01*
X94188375Y-125350643D01*
X94039154Y-125442684D01*
X93915184Y-125566654D01*
X93823143Y-125715875D01*
X93823141Y-125715880D01*
X93767994Y-125882302D01*
X93767993Y-125882309D01*
X93757500Y-125985013D01*
X93757500Y-126260000D01*
X94971000Y-126260000D01*
X95038039Y-126279685D01*
X95083794Y-126332489D01*
X95095000Y-126384000D01*
X95095000Y-127734999D01*
X95232472Y-127734999D01*
X95232486Y-127734998D01*
X95335197Y-127724505D01*
X95501619Y-127669358D01*
X95501624Y-127669356D01*
X95650845Y-127577315D01*
X95774818Y-127453342D01*
X95776665Y-127450348D01*
X95778469Y-127448724D01*
X95779298Y-127447677D01*
X95779476Y-127447818D01*
X95828610Y-127403621D01*
X95897573Y-127392396D01*
X95961656Y-127420236D01*
X95987743Y-127450341D01*
X95989788Y-127453656D01*
X96113844Y-127577712D01*
X96263166Y-127669814D01*
X96429703Y-127724999D01*
X96532491Y-127735500D01*
X97307508Y-127735499D01*
X97307516Y-127735498D01*
X97307519Y-127735498D01*
X97363802Y-127729748D01*
X97410297Y-127724999D01*
X97576834Y-127669814D01*
X97726156Y-127577712D01*
X97850212Y-127453656D01*
X97942314Y-127304334D01*
X97997499Y-127137797D01*
X98008000Y-127035009D01*
X98007999Y-125984992D01*
X98005424Y-125959789D01*
X97997499Y-125882203D01*
X97997498Y-125882200D01*
X97992689Y-125867687D01*
X97942314Y-125715666D01*
X97850212Y-125566344D01*
X97726156Y-125442288D01*
X97633388Y-125385069D01*
X97576836Y-125350187D01*
X97576831Y-125350185D01*
X97521261Y-125331771D01*
X97410297Y-125295001D01*
X97410295Y-125295000D01*
X97307516Y-125284500D01*
X96734979Y-125284500D01*
X96667940Y-125264815D01*
X96622185Y-125212011D01*
X96612241Y-125142853D01*
X96641266Y-125079297D01*
X96672973Y-125053116D01*
X96711904Y-125030639D01*
X96798716Y-124980520D01*
X96910520Y-124868716D01*
X96910521Y-124868714D01*
X97268140Y-124511096D01*
X98940000Y-124511096D01*
X98942897Y-124553824D01*
X98988831Y-124738523D01*
X99073390Y-124909022D01*
X99073392Y-124909025D01*
X99192632Y-125057366D01*
X99192633Y-125057367D01*
X99340974Y-125176607D01*
X99340977Y-125176609D01*
X99511476Y-125261168D01*
X99696175Y-125307102D01*
X99738903Y-125310000D01*
X99940000Y-125310000D01*
X99940000Y-124060000D01*
X98940000Y-124060000D01*
X98940000Y-124511096D01*
X97268140Y-124511096D01*
X97470520Y-124308716D01*
X97549577Y-124171784D01*
X97590501Y-124019057D01*
X97590501Y-123860942D01*
X97590501Y-123853347D01*
X97590500Y-123853329D01*
X97590500Y-123108903D01*
X98940000Y-123108903D01*
X98940000Y-123560000D01*
X99940000Y-123560000D01*
X99940000Y-122310000D01*
X99738903Y-122310000D01*
X99696175Y-122312897D01*
X99511476Y-122358831D01*
X99340977Y-122443390D01*
X99340974Y-122443392D01*
X99192633Y-122562632D01*
X99192632Y-122562633D01*
X99073392Y-122710974D01*
X99073390Y-122710977D01*
X98988831Y-122881476D01*
X98942897Y-123066175D01*
X98940000Y-123108903D01*
X97590500Y-123108903D01*
X97590500Y-121244986D01*
X98237501Y-121244986D01*
X98247994Y-121347697D01*
X98303141Y-121514119D01*
X98303143Y-121514124D01*
X98395184Y-121663345D01*
X98519154Y-121787315D01*
X98668375Y-121879356D01*
X98668380Y-121879358D01*
X98834802Y-121934505D01*
X98834809Y-121934506D01*
X98937519Y-121944999D01*
X99074999Y-121944999D01*
X99075000Y-121944998D01*
X99075000Y-120970000D01*
X98237501Y-120970000D01*
X98237501Y-121244986D01*
X97590500Y-121244986D01*
X97590500Y-120426321D01*
X97610185Y-120359282D01*
X97662989Y-120313527D01*
X97700612Y-120303101D01*
X97769255Y-120295368D01*
X97939522Y-120235789D01*
X98047528Y-120167923D01*
X98114764Y-120148924D01*
X98181600Y-120169292D01*
X98226814Y-120222559D01*
X98237500Y-120272918D01*
X98237500Y-120470000D01*
X99451000Y-120470000D01*
X99518039Y-120489685D01*
X99563794Y-120542489D01*
X99575000Y-120594000D01*
X99575000Y-121944999D01*
X99712472Y-121944999D01*
X99712486Y-121944998D01*
X99815197Y-121934505D01*
X99981619Y-121879358D01*
X99981624Y-121879356D01*
X100130845Y-121787315D01*
X100254818Y-121663342D01*
X100256665Y-121660348D01*
X100258469Y-121658724D01*
X100259298Y-121657677D01*
X100259476Y-121657818D01*
X100308610Y-121613621D01*
X100377573Y-121602396D01*
X100441656Y-121630236D01*
X100467743Y-121660341D01*
X100469788Y-121663656D01*
X100593844Y-121787712D01*
X100743166Y-121879814D01*
X100909703Y-121934999D01*
X101012491Y-121945500D01*
X101787508Y-121945499D01*
X101787516Y-121945498D01*
X101787519Y-121945498D01*
X101843802Y-121939748D01*
X101890297Y-121934999D01*
X102056834Y-121879814D01*
X102206156Y-121787712D01*
X102330212Y-121663656D01*
X102422314Y-121514334D01*
X102477499Y-121347797D01*
X102488000Y-121245009D01*
X102487999Y-120194992D01*
X102486712Y-120182396D01*
X102477499Y-120092203D01*
X102477498Y-120092200D01*
X102464219Y-120052126D01*
X102422314Y-119925666D01*
X102330212Y-119776344D01*
X102206156Y-119652288D01*
X102056834Y-119560186D01*
X101890297Y-119505001D01*
X101890295Y-119505000D01*
X101787510Y-119494500D01*
X101012498Y-119494500D01*
X101012480Y-119494501D01*
X100909703Y-119505000D01*
X100909700Y-119505001D01*
X100743168Y-119560185D01*
X100743163Y-119560187D01*
X100593842Y-119652289D01*
X100469788Y-119776343D01*
X100469783Y-119776349D01*
X100467741Y-119779661D01*
X100465747Y-119781453D01*
X100465307Y-119782011D01*
X100465211Y-119781935D01*
X100415791Y-119826383D01*
X100346828Y-119837602D01*
X100282747Y-119809755D01*
X100256668Y-119779656D01*
X100254819Y-119776659D01*
X100254816Y-119776655D01*
X100130845Y-119652684D01*
X99981624Y-119560643D01*
X99981619Y-119560641D01*
X99927838Y-119542820D01*
X99870393Y-119503047D01*
X99843570Y-119438531D01*
X99855885Y-119369755D01*
X99903428Y-119318556D01*
X99913023Y-119313745D01*
X99916425Y-119311781D01*
X99916425Y-119311780D01*
X99916429Y-119311779D01*
X100034036Y-119221536D01*
X100124279Y-119103929D01*
X100181009Y-118966972D01*
X100195500Y-118856901D01*
X100195499Y-118506998D01*
X100215183Y-118439960D01*
X100267987Y-118394205D01*
X100319499Y-118382999D01*
X100669403Y-118382999D01*
X100779463Y-118368511D01*
X100779467Y-118368509D01*
X100779472Y-118368509D01*
X100916429Y-118311779D01*
X101034036Y-118221536D01*
X101124279Y-118103929D01*
X101181009Y-117966972D01*
X101195500Y-117856901D01*
X101195499Y-117658100D01*
X101181009Y-117548028D01*
X101181008Y-117548025D01*
X101178905Y-117540174D01*
X101182207Y-117539289D01*
X101176392Y-117485575D01*
X101179501Y-117474985D01*
X101178905Y-117474826D01*
X101181008Y-117466975D01*
X101181008Y-117466974D01*
X101181009Y-117466972D01*
X101195500Y-117356901D01*
X101195499Y-117158100D01*
X101181009Y-117048028D01*
X101181008Y-117048025D01*
X101178905Y-117040174D01*
X101182207Y-117039289D01*
X101176392Y-116985575D01*
X101179501Y-116974985D01*
X101178905Y-116974826D01*
X101181008Y-116966975D01*
X101181008Y-116966974D01*
X101181009Y-116966972D01*
X101195500Y-116856901D01*
X101195499Y-116658100D01*
X101181009Y-116548028D01*
X101181008Y-116548025D01*
X101178905Y-116540174D01*
X101182207Y-116539289D01*
X101176392Y-116485575D01*
X101179501Y-116474985D01*
X101178905Y-116474826D01*
X101181008Y-116466975D01*
X101181008Y-116466974D01*
X101181009Y-116466972D01*
X101195500Y-116356901D01*
X101195499Y-116158100D01*
X101181009Y-116048028D01*
X101181008Y-116048025D01*
X101178905Y-116040174D01*
X101182207Y-116039289D01*
X101176392Y-115985575D01*
X101179501Y-115974985D01*
X101178905Y-115974826D01*
X101181008Y-115966975D01*
X101181008Y-115966974D01*
X101181009Y-115966972D01*
X101195500Y-115856901D01*
X101195499Y-115658100D01*
X101192797Y-115637578D01*
X101191105Y-115624724D01*
X101181009Y-115548028D01*
X101181008Y-115548025D01*
X101178905Y-115540174D01*
X101182207Y-115539289D01*
X101176392Y-115485575D01*
X101179501Y-115474985D01*
X101178905Y-115474826D01*
X101181008Y-115466975D01*
X101181008Y-115466974D01*
X101181009Y-115466972D01*
X101195500Y-115356901D01*
X101195499Y-115158100D01*
X101181009Y-115048028D01*
X101181008Y-115048025D01*
X101178905Y-115040174D01*
X101182207Y-115039289D01*
X101176392Y-114985575D01*
X101179501Y-114974985D01*
X101178905Y-114974826D01*
X101181008Y-114966975D01*
X101181008Y-114966974D01*
X101181009Y-114966972D01*
X101195500Y-114856901D01*
X101195499Y-114658100D01*
X101192414Y-114634664D01*
X101203180Y-114565629D01*
X101249560Y-114513374D01*
X101316829Y-114494489D01*
X101383630Y-114514970D01*
X101403034Y-114530799D01*
X101582755Y-114710520D01*
X101582757Y-114710521D01*
X101582761Y-114710524D01*
X101680594Y-114767007D01*
X101719687Y-114789577D01*
X101872414Y-114830501D01*
X101872416Y-114830501D01*
X102038125Y-114830501D01*
X102038141Y-114830500D01*
X102386415Y-114830500D01*
X102453454Y-114850185D01*
X102499209Y-114902989D01*
X102504118Y-114915489D01*
X102534608Y-115007500D01*
X102540185Y-115024331D01*
X102540187Y-115024336D01*
X102554799Y-115048025D01*
X102632288Y-115173656D01*
X102756344Y-115297712D01*
X102905666Y-115389814D01*
X103072203Y-115444999D01*
X103174991Y-115455500D01*
X103509942Y-115455499D01*
X103576981Y-115475183D01*
X103622736Y-115527987D01*
X103633919Y-115577156D01*
X103687007Y-118389755D01*
X103698800Y-119014553D01*
X103700090Y-119082892D01*
X103718618Y-120064525D01*
X103758885Y-122197893D01*
X103771384Y-122300456D01*
X103782567Y-122349625D01*
X103814275Y-122443413D01*
X103817099Y-122513226D01*
X103793455Y-122560814D01*
X103792280Y-122562276D01*
X103792278Y-122562278D01*
X103736646Y-122631487D01*
X103679305Y-122671405D01*
X103609483Y-122673985D01*
X103549350Y-122638407D01*
X103543353Y-122631486D01*
X103487722Y-122562278D01*
X103487721Y-122562277D01*
X103339295Y-122442969D01*
X103339292Y-122442967D01*
X103168697Y-122358360D01*
X102983892Y-122312400D01*
X102962506Y-122310950D01*
X102941123Y-122309500D01*
X102941120Y-122309500D01*
X102038877Y-122309500D01*
X102038874Y-122309501D01*
X101996113Y-122312399D01*
X101996112Y-122312399D01*
X101811303Y-122358360D01*
X101640707Y-122442967D01*
X101640704Y-122442969D01*
X101494099Y-122560814D01*
X101492278Y-122562278D01*
X101491993Y-122562633D01*
X101436326Y-122631885D01*
X101378982Y-122671803D01*
X101309160Y-122674383D01*
X101249027Y-122638804D01*
X101243031Y-122631884D01*
X101187364Y-122562630D01*
X101039025Y-122443392D01*
X101039022Y-122443390D01*
X100868523Y-122358831D01*
X100683824Y-122312897D01*
X100641097Y-122310000D01*
X100440000Y-122310000D01*
X100440000Y-125310000D01*
X100641097Y-125310000D01*
X100683824Y-125307102D01*
X100868523Y-125261168D01*
X101039022Y-125176609D01*
X101039025Y-125176607D01*
X101187366Y-125057367D01*
X101187367Y-125057366D01*
X101243033Y-124988115D01*
X101300376Y-124948196D01*
X101370198Y-124945616D01*
X101430331Y-124981194D01*
X101436305Y-124988089D01*
X101492278Y-125057722D01*
X101492280Y-125057724D01*
X101640704Y-125177030D01*
X101640707Y-125177032D01*
X101811302Y-125261639D01*
X101811303Y-125261639D01*
X101811307Y-125261641D01*
X101996111Y-125307600D01*
X102038877Y-125310500D01*
X102941122Y-125310499D01*
X102983889Y-125307600D01*
X103168693Y-125261641D01*
X103339296Y-125177030D01*
X103487722Y-125057722D01*
X103543353Y-124988514D01*
X103600696Y-124948595D01*
X103670518Y-124946015D01*
X103730651Y-124981594D01*
X103736647Y-124988514D01*
X103792278Y-125057722D01*
X103819119Y-125079297D01*
X103823360Y-125082706D01*
X103863278Y-125140050D01*
X103865858Y-125209872D01*
X103859421Y-125228720D01*
X103856392Y-125235698D01*
X103838877Y-125299801D01*
X103838265Y-125301818D01*
X103837975Y-125303097D01*
X103820190Y-125445877D01*
X103877516Y-128483160D01*
X103859100Y-128550559D01*
X103807169Y-128597302D01*
X103753538Y-128609500D01*
X101031971Y-128609500D01*
X101031965Y-128609500D01*
X101031964Y-128609501D01*
X101020316Y-128610536D01*
X100912584Y-128620113D01*
X100716954Y-128676089D01*
X100626772Y-128723196D01*
X100536593Y-128770302D01*
X100536591Y-128770303D01*
X100536590Y-128770304D01*
X100378890Y-128898890D01*
X100250304Y-129056590D01*
X100156089Y-129236954D01*
X100100114Y-129432583D01*
X100100113Y-129432586D01*
X100089500Y-129551966D01*
X100089500Y-130668028D01*
X100089501Y-130668034D01*
X100100113Y-130787415D01*
X100156089Y-130983045D01*
X100156090Y-130983048D01*
X100156091Y-130983049D01*
X100250302Y-131163407D01*
X100250304Y-131163409D01*
X100378890Y-131321109D01*
X100472803Y-131397684D01*
X100536593Y-131449698D01*
X100716951Y-131543909D01*
X100912582Y-131599886D01*
X101031963Y-131610500D01*
X103814863Y-131610499D01*
X103881902Y-131630184D01*
X103927657Y-131682987D01*
X103938841Y-131732159D01*
X103953085Y-132486847D01*
X103934669Y-132554246D01*
X103916788Y-132576868D01*
X103597052Y-132896604D01*
X103597047Y-132896610D01*
X103549738Y-132967412D01*
X103496125Y-133012217D01*
X103426800Y-133020923D01*
X103420865Y-133019812D01*
X103419397Y-133019500D01*
X103419391Y-133019500D01*
X103240609Y-133019500D01*
X103209954Y-133026015D01*
X103065733Y-133056670D01*
X103065728Y-133056672D01*
X102902408Y-133129387D01*
X102757768Y-133234475D01*
X102693498Y-133305854D01*
X102634011Y-133342502D01*
X102564154Y-133341171D01*
X102532458Y-133325983D01*
X102430237Y-133257681D01*
X102430228Y-133257676D01*
X102257251Y-133186027D01*
X102257243Y-133186025D01*
X102073620Y-133149500D01*
X102073616Y-133149500D01*
X101886384Y-133149500D01*
X101886379Y-133149500D01*
X101702756Y-133186025D01*
X101702748Y-133186027D01*
X101529771Y-133257676D01*
X101529762Y-133257681D01*
X101374092Y-133361697D01*
X101374088Y-133361700D01*
X101241700Y-133494088D01*
X101241697Y-133494092D01*
X101137681Y-133649762D01*
X101137676Y-133649771D01*
X101066027Y-133822748D01*
X101066025Y-133822756D01*
X101029500Y-134006379D01*
X101029500Y-135465903D01*
X101009815Y-135532942D01*
X100957011Y-135578697D01*
X100887853Y-135588641D01*
X100824297Y-135559616D01*
X100817819Y-135553584D01*
X99584318Y-134320083D01*
X99550833Y-134258760D01*
X99547999Y-134232402D01*
X99547999Y-133619998D01*
X99547998Y-133619981D01*
X99537499Y-133517203D01*
X99537498Y-133517200D01*
X99526774Y-133484838D01*
X99482314Y-133350666D01*
X99390212Y-133201344D01*
X99266156Y-133077288D01*
X99172466Y-133019500D01*
X99116836Y-132985187D01*
X99116831Y-132985185D01*
X99071899Y-132970296D01*
X98950297Y-132930001D01*
X98950295Y-132930000D01*
X98847510Y-132919500D01*
X98222498Y-132919500D01*
X98222480Y-132919501D01*
X98119703Y-132930000D01*
X98119700Y-132930001D01*
X97953168Y-132985185D01*
X97953163Y-132985187D01*
X97803842Y-133077289D01*
X97710181Y-133170951D01*
X97648858Y-133204436D01*
X97579166Y-133199452D01*
X97534819Y-133170951D01*
X97441157Y-133077289D01*
X97441156Y-133077288D01*
X97347466Y-133019500D01*
X97291836Y-132985187D01*
X97291831Y-132985185D01*
X97246899Y-132970296D01*
X97125297Y-132930001D01*
X97125295Y-132930000D01*
X97022510Y-132919500D01*
X96397498Y-132919500D01*
X96397480Y-132919501D01*
X96294703Y-132930000D01*
X96294700Y-132930001D01*
X96128168Y-132985185D01*
X96128163Y-132985187D01*
X95978842Y-133077289D01*
X95854789Y-133201342D01*
X95762687Y-133350663D01*
X95762685Y-133350668D01*
X95757162Y-133367335D01*
X95707501Y-133517203D01*
X95707501Y-133517204D01*
X95707500Y-133517204D01*
X95697000Y-133619983D01*
X95697000Y-134620001D01*
X95697001Y-134620019D01*
X95707500Y-134722796D01*
X95707501Y-134722799D01*
X95762685Y-134889331D01*
X95762686Y-134889334D01*
X95854788Y-135038656D01*
X95978844Y-135162712D01*
X96128166Y-135254814D01*
X96294703Y-135309999D01*
X96397491Y-135320500D01*
X97022508Y-135320499D01*
X97022516Y-135320498D01*
X97022519Y-135320498D01*
X97078802Y-135314748D01*
X97125297Y-135309999D01*
X97291834Y-135254814D01*
X97441156Y-135162712D01*
X97534819Y-135069049D01*
X97596142Y-135035564D01*
X97665834Y-135040548D01*
X97710181Y-135069049D01*
X97803844Y-135162712D01*
X97953166Y-135254814D01*
X98119703Y-135309999D01*
X98222491Y-135320500D01*
X98834902Y-135320499D01*
X98901941Y-135340183D01*
X98922583Y-135356818D01*
X99369089Y-135803324D01*
X99402574Y-135864647D01*
X99397590Y-135934339D01*
X99355718Y-135990272D01*
X99290254Y-136014689D01*
X99221981Y-135999837D01*
X99216312Y-135996544D01*
X99116840Y-135935189D01*
X99116835Y-135935187D01*
X99116834Y-135935186D01*
X98950297Y-135880001D01*
X98950295Y-135880000D01*
X98847510Y-135869500D01*
X98222498Y-135869500D01*
X98222480Y-135869501D01*
X98119703Y-135880000D01*
X98119700Y-135880001D01*
X97953168Y-135935185D01*
X97953163Y-135935187D01*
X97803842Y-136027289D01*
X97710181Y-136120951D01*
X97648858Y-136154436D01*
X97579166Y-136149452D01*
X97534819Y-136120951D01*
X97441157Y-136027289D01*
X97441156Y-136027288D01*
X97291834Y-135935186D01*
X97125297Y-135880001D01*
X97125295Y-135880000D01*
X97022510Y-135869500D01*
X96397498Y-135869500D01*
X96397480Y-135869501D01*
X96294703Y-135880000D01*
X96294700Y-135880001D01*
X96128168Y-135935185D01*
X96128163Y-135935187D01*
X95978842Y-136027289D01*
X95854789Y-136151342D01*
X95762687Y-136300663D01*
X95762686Y-136300666D01*
X95707501Y-136467203D01*
X95707501Y-136467204D01*
X95707500Y-136467204D01*
X95697000Y-136569983D01*
X95697000Y-137570001D01*
X95697001Y-137570019D01*
X95707500Y-137672796D01*
X95707501Y-137672799D01*
X95752939Y-137809921D01*
X95762686Y-137839334D01*
X95854788Y-137988656D01*
X95978844Y-138112712D01*
X96128166Y-138204814D01*
X96294703Y-138259999D01*
X96397491Y-138270500D01*
X97022508Y-138270499D01*
X97022516Y-138270498D01*
X97022519Y-138270498D01*
X97078802Y-138264748D01*
X97125297Y-138259999D01*
X97291834Y-138204814D01*
X97441156Y-138112712D01*
X97534819Y-138019049D01*
X97596142Y-137985564D01*
X97665834Y-137990548D01*
X97710181Y-138019049D01*
X97803844Y-138112712D01*
X97953166Y-138204814D01*
X98119703Y-138259999D01*
X98222491Y-138270500D01*
X98847508Y-138270499D01*
X98847516Y-138270498D01*
X98847519Y-138270498D01*
X98903802Y-138264748D01*
X98950297Y-138259999D01*
X99116834Y-138204814D01*
X99266156Y-138112712D01*
X99390212Y-137988656D01*
X99482314Y-137839334D01*
X99537499Y-137672797D01*
X99548000Y-137570009D01*
X99547999Y-136569992D01*
X99537499Y-136467203D01*
X99482314Y-136300666D01*
X99420954Y-136201185D01*
X99402515Y-136133795D01*
X99423438Y-136067132D01*
X99477080Y-136022362D01*
X99546410Y-136013701D01*
X99609418Y-136043897D01*
X99614175Y-136048410D01*
X100280139Y-136714374D01*
X100280149Y-136714385D01*
X100284479Y-136718715D01*
X100284480Y-136718716D01*
X100396284Y-136830520D01*
X100475407Y-136876201D01*
X100533215Y-136909577D01*
X100685942Y-136950500D01*
X100685943Y-136950500D01*
X101215927Y-136950500D01*
X101282966Y-136970185D01*
X101328721Y-137022989D01*
X101338665Y-137092147D01*
X101309640Y-137155703D01*
X101303608Y-137162181D01*
X101241700Y-137224088D01*
X101241697Y-137224092D01*
X101137681Y-137379762D01*
X101137676Y-137379771D01*
X101066027Y-137552748D01*
X101066025Y-137552756D01*
X101029500Y-137736379D01*
X101029500Y-138723620D01*
X101066025Y-138907243D01*
X101066027Y-138907251D01*
X101137676Y-139080228D01*
X101137681Y-139080237D01*
X101241697Y-139235907D01*
X101241700Y-139235911D01*
X101293608Y-139287819D01*
X101327093Y-139349142D01*
X101322109Y-139418834D01*
X101280237Y-139474767D01*
X101214773Y-139499184D01*
X101205927Y-139499500D01*
X79124500Y-139499500D01*
X79057461Y-139479815D01*
X79011706Y-139427011D01*
X79000500Y-139375500D01*
X79000500Y-137389986D01*
X79850001Y-137389986D01*
X79860494Y-137492697D01*
X79915641Y-137659119D01*
X79915643Y-137659124D01*
X80007684Y-137808345D01*
X80131654Y-137932315D01*
X80280875Y-138024356D01*
X80280880Y-138024358D01*
X80447302Y-138079505D01*
X80447309Y-138079506D01*
X80550019Y-138089999D01*
X80612499Y-138089998D01*
X80612500Y-138089998D01*
X80612500Y-137140000D01*
X79850001Y-137140000D01*
X79850001Y-137389986D01*
X79000500Y-137389986D01*
X79000500Y-136390013D01*
X79850000Y-136390013D01*
X79850000Y-136640000D01*
X80612500Y-136640000D01*
X80612500Y-135690000D01*
X81112500Y-135690000D01*
X81112500Y-138089999D01*
X81174972Y-138089999D01*
X81174986Y-138089998D01*
X81277697Y-138079505D01*
X81444119Y-138024358D01*
X81444124Y-138024356D01*
X81593342Y-137932317D01*
X81686964Y-137838695D01*
X81748287Y-137805210D01*
X81817979Y-137810194D01*
X81862327Y-137838695D01*
X81956344Y-137932712D01*
X82105666Y-138024814D01*
X82272203Y-138079999D01*
X82374991Y-138090500D01*
X83000008Y-138090499D01*
X83000016Y-138090498D01*
X83000019Y-138090498D01*
X83056302Y-138084748D01*
X83102797Y-138079999D01*
X83269334Y-138024814D01*
X83418656Y-137932712D01*
X83542712Y-137808656D01*
X83634814Y-137659334D01*
X83662595Y-137575495D01*
X83702368Y-137518051D01*
X83766884Y-137491228D01*
X83780301Y-137490500D01*
X84752961Y-137490500D01*
X84820000Y-137510185D01*
X84865755Y-137562989D01*
X84870667Y-137575496D01*
X84899637Y-137662922D01*
X84899642Y-137662933D01*
X84990971Y-137810999D01*
X84990974Y-137811003D01*
X85113996Y-137934025D01*
X85114000Y-137934028D01*
X85262066Y-138025357D01*
X85262069Y-138025358D01*
X85262075Y-138025362D01*
X85427225Y-138080087D01*
X85529152Y-138090500D01*
X85529157Y-138090500D01*
X86115843Y-138090500D01*
X86115848Y-138090500D01*
X86217775Y-138080087D01*
X86382925Y-138025362D01*
X86531003Y-137934026D01*
X86654026Y-137811003D01*
X86654458Y-137810301D01*
X86654881Y-137809921D01*
X86658507Y-137805336D01*
X86659290Y-137805955D01*
X86706402Y-137763575D01*
X86775364Y-137752349D01*
X86839448Y-137780188D01*
X86861342Y-137805455D01*
X86861493Y-137805336D01*
X86864143Y-137808687D01*
X86865540Y-137810299D01*
X86865972Y-137810999D01*
X86865975Y-137811004D01*
X86988996Y-137934025D01*
X86989000Y-137934028D01*
X87137066Y-138025357D01*
X87137069Y-138025358D01*
X87137075Y-138025362D01*
X87302225Y-138080087D01*
X87404152Y-138090500D01*
X87404157Y-138090500D01*
X87990843Y-138090500D01*
X87990848Y-138090500D01*
X88092775Y-138080087D01*
X88257925Y-138025362D01*
X88406003Y-137934026D01*
X88529026Y-137811003D01*
X88620362Y-137662925D01*
X88675087Y-137497775D01*
X88685500Y-137395848D01*
X88685500Y-136384152D01*
X88675087Y-136282225D01*
X88620362Y-136117075D01*
X88620358Y-136117069D01*
X88620357Y-136117066D01*
X88529028Y-135969000D01*
X88529025Y-135968996D01*
X88406003Y-135845974D01*
X88405999Y-135845971D01*
X88257933Y-135754642D01*
X88257927Y-135754639D01*
X88257925Y-135754638D01*
X88257922Y-135754637D01*
X88092776Y-135699913D01*
X87990855Y-135689500D01*
X87990848Y-135689500D01*
X87404152Y-135689500D01*
X87404144Y-135689500D01*
X87302223Y-135699913D01*
X87137077Y-135754637D01*
X87137066Y-135754642D01*
X86989000Y-135845971D01*
X86988996Y-135845974D01*
X86865974Y-135968996D01*
X86865971Y-135969000D01*
X86865538Y-135969703D01*
X86865114Y-135970083D01*
X86861493Y-135974664D01*
X86860710Y-135974045D01*
X86813590Y-136016428D01*
X86744628Y-136027649D01*
X86680546Y-135999806D01*
X86658657Y-135974544D01*
X86658507Y-135974664D01*
X86655859Y-135971315D01*
X86654462Y-135969703D01*
X86654028Y-135969000D01*
X86654025Y-135968996D01*
X86531003Y-135845974D01*
X86530999Y-135845971D01*
X86382933Y-135754642D01*
X86382927Y-135754639D01*
X86382925Y-135754638D01*
X86382922Y-135754637D01*
X86217776Y-135699913D01*
X86115855Y-135689500D01*
X86115848Y-135689500D01*
X85529152Y-135689500D01*
X85529144Y-135689500D01*
X85427223Y-135699913D01*
X85262077Y-135754637D01*
X85262066Y-135754642D01*
X85114000Y-135845971D01*
X85113996Y-135845974D01*
X84990974Y-135968996D01*
X84990971Y-135969000D01*
X84899642Y-136117066D01*
X84899637Y-136117077D01*
X84870667Y-136204504D01*
X84830894Y-136261949D01*
X84766378Y-136288772D01*
X84752961Y-136289500D01*
X83780301Y-136289500D01*
X83713262Y-136269815D01*
X83667507Y-136217011D01*
X83662595Y-136204504D01*
X83661496Y-136201188D01*
X83634814Y-136120666D01*
X83542712Y-135971344D01*
X83418656Y-135847288D01*
X83269334Y-135755186D01*
X83102797Y-135700001D01*
X83102795Y-135700000D01*
X83000010Y-135689500D01*
X82374998Y-135689500D01*
X82374980Y-135689501D01*
X82272203Y-135700000D01*
X82272200Y-135700001D01*
X82105668Y-135755185D01*
X82105663Y-135755187D01*
X81956345Y-135847287D01*
X81862327Y-135941305D01*
X81801003Y-135974789D01*
X81731312Y-135969805D01*
X81686965Y-135941304D01*
X81593345Y-135847684D01*
X81444124Y-135755643D01*
X81444119Y-135755641D01*
X81277697Y-135700494D01*
X81277690Y-135700493D01*
X81174986Y-135690000D01*
X81112500Y-135690000D01*
X80612500Y-135690000D01*
X80612499Y-135689999D01*
X80550028Y-135690000D01*
X80550011Y-135690001D01*
X80447302Y-135700494D01*
X80280880Y-135755641D01*
X80280875Y-135755643D01*
X80131654Y-135847684D01*
X80007684Y-135971654D01*
X79915643Y-136120875D01*
X79915641Y-136120880D01*
X79860494Y-136287302D01*
X79860493Y-136287309D01*
X79850000Y-136390013D01*
X79000500Y-136390013D01*
X79000500Y-131309994D01*
X79624357Y-131309994D01*
X79624357Y-131310005D01*
X79644890Y-131557812D01*
X79644892Y-131557824D01*
X79705936Y-131798881D01*
X79805826Y-132026606D01*
X79941833Y-132234782D01*
X79941836Y-132234785D01*
X80110256Y-132417738D01*
X80306491Y-132570474D01*
X80525190Y-132688828D01*
X80760386Y-132769571D01*
X81005665Y-132810500D01*
X81254335Y-132810500D01*
X81499614Y-132769571D01*
X81734810Y-132688828D01*
X81953509Y-132570474D01*
X82149744Y-132417738D01*
X82318164Y-132234785D01*
X82454173Y-132026607D01*
X82554063Y-131798881D01*
X82615108Y-131557821D01*
X82616261Y-131543909D01*
X82635643Y-131310005D01*
X82635643Y-131309994D01*
X86124357Y-131309994D01*
X86124357Y-131310005D01*
X86144890Y-131557812D01*
X86144892Y-131557824D01*
X86205936Y-131798881D01*
X86305826Y-132026606D01*
X86441833Y-132234782D01*
X86441836Y-132234785D01*
X86610256Y-132417738D01*
X86806491Y-132570474D01*
X87025190Y-132688828D01*
X87260386Y-132769571D01*
X87505665Y-132810500D01*
X87754335Y-132810500D01*
X87999614Y-132769571D01*
X88234810Y-132688828D01*
X88453509Y-132570474D01*
X88649744Y-132417738D01*
X88818164Y-132234785D01*
X88954173Y-132026607D01*
X89054063Y-131798881D01*
X89115108Y-131557821D01*
X89116261Y-131543909D01*
X89135643Y-131310005D01*
X89135643Y-131309994D01*
X89115109Y-131062187D01*
X89115107Y-131062175D01*
X89054063Y-130821118D01*
X88954173Y-130593393D01*
X88818166Y-130385217D01*
X88796557Y-130361744D01*
X88649744Y-130202262D01*
X88453509Y-130049526D01*
X88453507Y-130049525D01*
X88453506Y-130049524D01*
X88234811Y-129931172D01*
X88234802Y-129931169D01*
X87999616Y-129850429D01*
X87754335Y-129809500D01*
X87505665Y-129809500D01*
X87260383Y-129850429D01*
X87025197Y-129931169D01*
X87025188Y-129931172D01*
X86806493Y-130049524D01*
X86610257Y-130202261D01*
X86441833Y-130385217D01*
X86305826Y-130593393D01*
X86205936Y-130821118D01*
X86144892Y-131062175D01*
X86144890Y-131062187D01*
X86124357Y-131309994D01*
X82635643Y-131309994D01*
X82615109Y-131062187D01*
X82615107Y-131062175D01*
X82554063Y-130821118D01*
X82454173Y-130593393D01*
X82318166Y-130385217D01*
X82296557Y-130361744D01*
X82149744Y-130202262D01*
X81953509Y-130049526D01*
X81953507Y-130049525D01*
X81953506Y-130049524D01*
X81734811Y-129931172D01*
X81734802Y-129931169D01*
X81499616Y-129850429D01*
X81254335Y-129809500D01*
X81005665Y-129809500D01*
X80760383Y-129850429D01*
X80525197Y-129931169D01*
X80525188Y-129931172D01*
X80306493Y-130049524D01*
X80110257Y-130202261D01*
X79941833Y-130385217D01*
X79805826Y-130593393D01*
X79705936Y-130821118D01*
X79644892Y-131062175D01*
X79644890Y-131062187D01*
X79624357Y-131309994D01*
X79000500Y-131309994D01*
X79000500Y-128952486D01*
X89510001Y-128952486D01*
X89520494Y-129055197D01*
X89575641Y-129221619D01*
X89575643Y-129221624D01*
X89667684Y-129370845D01*
X89791654Y-129494815D01*
X89940875Y-129586856D01*
X89940880Y-129586858D01*
X90107302Y-129642005D01*
X90107309Y-129642006D01*
X90210019Y-129652499D01*
X90459999Y-129652499D01*
X90960000Y-129652499D01*
X91209972Y-129652499D01*
X91209986Y-129652498D01*
X91312697Y-129642005D01*
X91479119Y-129586858D01*
X91479124Y-129586856D01*
X91628345Y-129494815D01*
X91752315Y-129370845D01*
X91844356Y-129221624D01*
X91844358Y-129221619D01*
X91899505Y-129055197D01*
X91899506Y-129055190D01*
X91909999Y-128952486D01*
X91910000Y-128952473D01*
X91910000Y-128890000D01*
X90960000Y-128890000D01*
X90960000Y-129652499D01*
X90459999Y-129652499D01*
X90460000Y-129652498D01*
X90460000Y-128890000D01*
X89510001Y-128890000D01*
X89510001Y-128952486D01*
X79000500Y-128952486D01*
X79000500Y-123334986D01*
X88105001Y-123334986D01*
X88115494Y-123437697D01*
X88170641Y-123604119D01*
X88170643Y-123604124D01*
X88262684Y-123753345D01*
X88386654Y-123877315D01*
X88535875Y-123969356D01*
X88535880Y-123969358D01*
X88702302Y-124024505D01*
X88702309Y-124024506D01*
X88805019Y-124034999D01*
X88942499Y-124034999D01*
X88942500Y-124034998D01*
X88942500Y-123060000D01*
X88105001Y-123060000D01*
X88105001Y-123334986D01*
X79000500Y-123334986D01*
X79000500Y-122285013D01*
X88105000Y-122285013D01*
X88105000Y-122560000D01*
X88942500Y-122560000D01*
X88942500Y-121585000D01*
X88805027Y-121585000D01*
X88805012Y-121585001D01*
X88702302Y-121595494D01*
X88535880Y-121650641D01*
X88535875Y-121650643D01*
X88386654Y-121742684D01*
X88262684Y-121866654D01*
X88170643Y-122015875D01*
X88170641Y-122015880D01*
X88115494Y-122182302D01*
X88115493Y-122182309D01*
X88105000Y-122285013D01*
X79000500Y-122285013D01*
X79000500Y-119824986D01*
X88115001Y-119824986D01*
X88125494Y-119927697D01*
X88180641Y-120094119D01*
X88180643Y-120094124D01*
X88272684Y-120243345D01*
X88396654Y-120367315D01*
X88545875Y-120459356D01*
X88545880Y-120459358D01*
X88712302Y-120514505D01*
X88712309Y-120514506D01*
X88815019Y-120524999D01*
X88952499Y-120524999D01*
X88952500Y-120524998D01*
X88952500Y-119550000D01*
X88115001Y-119550000D01*
X88115001Y-119824986D01*
X79000500Y-119824986D01*
X79000500Y-118775013D01*
X88115000Y-118775013D01*
X88115000Y-119050000D01*
X88952500Y-119050000D01*
X88952500Y-118075000D01*
X89452500Y-118075000D01*
X89452500Y-120524999D01*
X89589972Y-120524999D01*
X89589986Y-120524998D01*
X89692697Y-120514505D01*
X89859119Y-120459358D01*
X89859124Y-120459356D01*
X90008345Y-120367315D01*
X90132318Y-120243342D01*
X90134165Y-120240348D01*
X90135969Y-120238724D01*
X90136798Y-120237677D01*
X90136976Y-120237818D01*
X90186110Y-120193621D01*
X90255073Y-120182396D01*
X90319156Y-120210236D01*
X90345243Y-120240341D01*
X90347288Y-120243656D01*
X90471344Y-120367712D01*
X90620666Y-120459814D01*
X90787203Y-120514999D01*
X90889991Y-120525500D01*
X91665008Y-120525499D01*
X91665016Y-120525498D01*
X91665019Y-120525498D01*
X91721302Y-120519748D01*
X91767797Y-120514999D01*
X91934334Y-120459814D01*
X92083656Y-120367712D01*
X92207712Y-120243656D01*
X92299814Y-120094334D01*
X92354999Y-119927797D01*
X92365500Y-119825009D01*
X92365499Y-118774992D01*
X92354999Y-118672203D01*
X92299814Y-118505666D01*
X92207712Y-118356344D01*
X92083656Y-118232288D01*
X91934334Y-118140186D01*
X91767797Y-118085001D01*
X91767795Y-118085000D01*
X91665010Y-118074500D01*
X90889998Y-118074500D01*
X90889980Y-118074501D01*
X90787203Y-118085000D01*
X90787200Y-118085001D01*
X90620668Y-118140185D01*
X90620663Y-118140187D01*
X90471342Y-118232289D01*
X90347288Y-118356343D01*
X90347283Y-118356349D01*
X90345241Y-118359661D01*
X90343247Y-118361453D01*
X90342807Y-118362011D01*
X90342711Y-118361935D01*
X90293291Y-118406383D01*
X90224328Y-118417602D01*
X90160247Y-118389755D01*
X90134168Y-118359656D01*
X90132319Y-118356659D01*
X90132316Y-118356655D01*
X90008345Y-118232684D01*
X89859124Y-118140643D01*
X89859119Y-118140641D01*
X89692697Y-118085494D01*
X89692690Y-118085493D01*
X89589986Y-118075000D01*
X89452500Y-118075000D01*
X88952500Y-118075000D01*
X88815027Y-118075000D01*
X88815012Y-118075001D01*
X88712302Y-118085494D01*
X88545880Y-118140641D01*
X88545875Y-118140643D01*
X88396654Y-118232684D01*
X88272684Y-118356654D01*
X88180643Y-118505875D01*
X88180641Y-118505880D01*
X88125494Y-118672302D01*
X88125493Y-118672309D01*
X88115000Y-118775013D01*
X79000500Y-118775013D01*
X79000500Y-105624500D01*
X79020185Y-105557461D01*
X79072989Y-105511706D01*
X79124500Y-105500500D01*
X103322812Y-105500500D01*
X103389851Y-105520185D01*
G37*
%TD.AperFunction*%
%TA.AperFunction,Conductor*%
G36*
X101259238Y-107920185D02*
G01*
X101304993Y-107972989D01*
X101309903Y-107985492D01*
X101337686Y-108069334D01*
X101429788Y-108218656D01*
X101553844Y-108342712D01*
X101703166Y-108434814D01*
X101869703Y-108489999D01*
X101972491Y-108500500D01*
X102597508Y-108500499D01*
X102597516Y-108500498D01*
X102597519Y-108500498D01*
X102665114Y-108493593D01*
X102700297Y-108489999D01*
X102866834Y-108434814D01*
X103016156Y-108342712D01*
X103109819Y-108249049D01*
X103171142Y-108215564D01*
X103240834Y-108220548D01*
X103285181Y-108249049D01*
X103378844Y-108342712D01*
X103460232Y-108392912D01*
X103506957Y-108444860D01*
X103518185Y-108513778D01*
X103503235Y-108633796D01*
X103502914Y-108636376D01*
X103504581Y-108724681D01*
X103531884Y-110171225D01*
X103532818Y-110193843D01*
X103533521Y-110204859D01*
X103533523Y-110204884D01*
X103533524Y-110204897D01*
X103535300Y-110225494D01*
X103535467Y-110227423D01*
X103571230Y-110366783D01*
X103598249Y-110431772D01*
X103599730Y-110434117D01*
X103671630Y-110554939D01*
X103671632Y-110554942D01*
X103685376Y-110567704D01*
X103721108Y-110627745D01*
X103725000Y-110658570D01*
X103725000Y-112258993D01*
X103705315Y-112326032D01*
X103698289Y-112335875D01*
X103673289Y-112367509D01*
X103673285Y-112367515D01*
X103616001Y-112499486D01*
X103615997Y-112499495D01*
X103600663Y-112555615D01*
X103598159Y-112562252D01*
X103579797Y-112709664D01*
X103579797Y-112709666D01*
X103582976Y-112878161D01*
X103564559Y-112945560D01*
X103512628Y-112992303D01*
X103458998Y-113004500D01*
X103174999Y-113004500D01*
X103174980Y-113004501D01*
X103072203Y-113015000D01*
X103072200Y-113015001D01*
X102905668Y-113070185D01*
X102905663Y-113070187D01*
X102756342Y-113162289D01*
X102632289Y-113286342D01*
X102540187Y-113435663D01*
X102540185Y-113435668D01*
X102504121Y-113544504D01*
X102464348Y-113601949D01*
X102399833Y-113628772D01*
X102386415Y-113629500D01*
X102251569Y-113629500D01*
X102184530Y-113609815D01*
X102163888Y-113593181D01*
X102030792Y-113460085D01*
X101997307Y-113398762D01*
X102002291Y-113329070D01*
X102013479Y-113306432D01*
X102022924Y-113291401D01*
X102105789Y-113159522D01*
X102165368Y-112989255D01*
X102167284Y-112972252D01*
X102185565Y-112810003D01*
X102185565Y-112809996D01*
X102165369Y-112630750D01*
X102165368Y-112630745D01*
X102154385Y-112599358D01*
X102105789Y-112460478D01*
X102009816Y-112307738D01*
X101882262Y-112180184D01*
X101828640Y-112146491D01*
X101729523Y-112084211D01*
X101559254Y-112024631D01*
X101559249Y-112024630D01*
X101380004Y-112004435D01*
X101379996Y-112004435D01*
X101264845Y-112017409D01*
X101196023Y-112005354D01*
X101152219Y-111964986D01*
X102387501Y-111964986D01*
X102397994Y-112067697D01*
X102453141Y-112234119D01*
X102453143Y-112234124D01*
X102545184Y-112383345D01*
X102669154Y-112507315D01*
X102818375Y-112599356D01*
X102818380Y-112599358D01*
X102984802Y-112654505D01*
X102984809Y-112654506D01*
X103087519Y-112664999D01*
X103224999Y-112664999D01*
X103225000Y-112664998D01*
X103225000Y-111690000D01*
X102387501Y-111690000D01*
X102387501Y-111964986D01*
X101152219Y-111964986D01*
X101144644Y-111958005D01*
X101136400Y-111941641D01*
X101123841Y-111911322D01*
X101033679Y-111793820D01*
X100916175Y-111703656D01*
X100779341Y-111646978D01*
X100669377Y-111632500D01*
X100361979Y-111632500D01*
X100345852Y-111641305D01*
X100276160Y-111636318D01*
X100220229Y-111594444D01*
X100195815Y-111528979D01*
X100195499Y-111520138D01*
X100195499Y-111158096D01*
X100181011Y-111048036D01*
X100181009Y-111048031D01*
X100181009Y-111048028D01*
X100125912Y-110915013D01*
X102387500Y-110915013D01*
X102387500Y-111190000D01*
X103225000Y-111190000D01*
X103225000Y-110215000D01*
X103087527Y-110215000D01*
X103087512Y-110215001D01*
X102984802Y-110225494D01*
X102818380Y-110280641D01*
X102818375Y-110280643D01*
X102669154Y-110372684D01*
X102545184Y-110496654D01*
X102453143Y-110645875D01*
X102453141Y-110645880D01*
X102397994Y-110812302D01*
X102397993Y-110812309D01*
X102387500Y-110915013D01*
X100125912Y-110915013D01*
X100124279Y-110911071D01*
X100034036Y-110793464D01*
X99916429Y-110703221D01*
X99916425Y-110703219D01*
X99819999Y-110663278D01*
X99779472Y-110646491D01*
X99779471Y-110646490D01*
X99779469Y-110646490D01*
X99778306Y-110646337D01*
X99777396Y-110645934D01*
X99771621Y-110644387D01*
X99771862Y-110643485D01*
X99714411Y-110618066D01*
X99675944Y-110559738D01*
X99670500Y-110523399D01*
X99670500Y-108024500D01*
X99690185Y-107957461D01*
X99742989Y-107911706D01*
X99794500Y-107900500D01*
X101192199Y-107900500D01*
X101259238Y-107920185D01*
G37*
%TD.AperFunction*%
%TA.AperFunction,Conductor*%
G36*
X86439676Y-110500185D02*
G01*
X86485431Y-110552989D01*
X86495375Y-110622147D01*
X86466350Y-110685703D01*
X86407572Y-110723477D01*
X86400421Y-110725289D01*
X86233380Y-110780641D01*
X86233375Y-110780643D01*
X86084154Y-110872684D01*
X85960184Y-110996654D01*
X85868143Y-111145875D01*
X85868141Y-111145880D01*
X85812994Y-111312302D01*
X85812993Y-111312309D01*
X85802500Y-111415013D01*
X85802500Y-111690000D01*
X87016000Y-111690000D01*
X87083039Y-111709685D01*
X87128794Y-111762489D01*
X87140000Y-111814000D01*
X87140000Y-112066000D01*
X87120315Y-112133039D01*
X87067511Y-112178794D01*
X87016000Y-112190000D01*
X85802501Y-112190000D01*
X85802501Y-112464986D01*
X85812994Y-112567697D01*
X85868141Y-112734119D01*
X85868143Y-112734124D01*
X85960184Y-112883345D01*
X86064658Y-112987819D01*
X86098143Y-113049142D01*
X86093159Y-113118834D01*
X86051287Y-113174767D01*
X85985823Y-113199184D01*
X85976977Y-113199500D01*
X82600098Y-113199500D01*
X82533059Y-113179815D01*
X82512417Y-113163181D01*
X82252766Y-112903530D01*
X82219281Y-112842207D01*
X82220671Y-112783757D01*
X82255063Y-112655408D01*
X82275659Y-112420000D01*
X82255063Y-112184592D01*
X82200753Y-111981901D01*
X82193905Y-111956344D01*
X82193904Y-111956343D01*
X82193903Y-111956337D01*
X82094035Y-111742171D01*
X82071289Y-111709685D01*
X81958494Y-111548597D01*
X81791402Y-111381506D01*
X81791396Y-111381501D01*
X81605842Y-111251575D01*
X81562217Y-111196998D01*
X81555023Y-111127500D01*
X81586546Y-111065145D01*
X81605842Y-111048425D01*
X81680221Y-110996344D01*
X81791401Y-110918495D01*
X81958495Y-110751401D01*
X82094035Y-110557830D01*
X82096707Y-110552097D01*
X82142878Y-110499658D01*
X82209091Y-110480500D01*
X86372637Y-110480500D01*
X86439676Y-110500185D01*
G37*
%TD.AperFunction*%
%TA.AperFunction,Conductor*%
G36*
X92662943Y-110500185D02*
G01*
X92708698Y-110552989D01*
X92719124Y-110618384D01*
X92714435Y-110659997D01*
X92714435Y-110660003D01*
X92734630Y-110839249D01*
X92734631Y-110839254D01*
X92794211Y-111009523D01*
X92879754Y-111145663D01*
X92890184Y-111162262D01*
X93017738Y-111289816D01*
X93074504Y-111325484D01*
X93170477Y-111385789D01*
X93179142Y-111388820D01*
X93185248Y-111390957D01*
X93242026Y-111431678D01*
X93267775Y-111496630D01*
X93254320Y-111565192D01*
X93205934Y-111615596D01*
X93144298Y-111632000D01*
X92970596Y-111632000D01*
X92860531Y-111646489D01*
X92860525Y-111646491D01*
X92812625Y-111666332D01*
X92797268Y-111671545D01*
X92698834Y-111697921D01*
X92698823Y-111697926D01*
X92561904Y-111776975D01*
X92561896Y-111776981D01*
X92503717Y-111835161D01*
X92450094Y-111888784D01*
X92450092Y-111888786D01*
X91804667Y-112534212D01*
X91175698Y-113163181D01*
X91114375Y-113196666D01*
X91088017Y-113199500D01*
X89878730Y-113199500D01*
X89811691Y-113179815D01*
X89765936Y-113127011D01*
X89755992Y-113057853D01*
X89785017Y-112994297D01*
X89791049Y-112987819D01*
X89833308Y-112945560D01*
X89895212Y-112883656D01*
X89987314Y-112734334D01*
X90042499Y-112567797D01*
X90053000Y-112465009D01*
X90052999Y-111414992D01*
X90049578Y-111381506D01*
X90042499Y-111312203D01*
X90042498Y-111312200D01*
X90016868Y-111234855D01*
X89987314Y-111145666D01*
X89895212Y-110996344D01*
X89771156Y-110872288D01*
X89621834Y-110780186D01*
X89455297Y-110725001D01*
X89455295Y-110725000D01*
X89448871Y-110722872D01*
X89449573Y-110720751D01*
X89397373Y-110692470D01*
X89363686Y-110631258D01*
X89368440Y-110561551D01*
X89410126Y-110505479D01*
X89475509Y-110480846D01*
X89484764Y-110480500D01*
X92595904Y-110480500D01*
X92662943Y-110500185D01*
G37*
%TD.AperFunction*%
%TA.AperFunction,Conductor*%
G36*
X88512272Y-110500185D02*
G01*
X88558027Y-110552989D01*
X88567971Y-110622147D01*
X88538946Y-110685703D01*
X88481126Y-110722860D01*
X88481130Y-110722871D01*
X88481090Y-110722884D01*
X88480168Y-110723477D01*
X88476480Y-110724411D01*
X88308168Y-110780185D01*
X88308163Y-110780187D01*
X88158842Y-110872289D01*
X88034788Y-110996343D01*
X88034783Y-110996349D01*
X88032741Y-110999661D01*
X88030747Y-111001453D01*
X88030307Y-111002011D01*
X88030211Y-111001935D01*
X87980791Y-111046383D01*
X87911828Y-111057602D01*
X87847747Y-111029755D01*
X87821668Y-110999656D01*
X87819819Y-110996659D01*
X87819816Y-110996655D01*
X87695845Y-110872684D01*
X87546624Y-110780643D01*
X87546619Y-110780641D01*
X87373770Y-110723365D01*
X87374260Y-110721884D01*
X87319967Y-110692468D01*
X87286282Y-110631254D01*
X87291038Y-110561547D01*
X87332726Y-110505476D01*
X87398111Y-110480846D01*
X87407361Y-110480500D01*
X88445233Y-110480500D01*
X88512272Y-110500185D01*
G37*
%TD.AperFunction*%
%TD*%
M02*
