%TF.GenerationSoftware,KiCad,Pcbnew,8.0.5*%
%TF.CreationDate,2025-10-28T17:55:05-05:00*%
%TF.ProjectId,Microcontroller,4d696372-6f63-46f6-9e74-726f6c6c6572,rev?*%
%TF.SameCoordinates,Original*%
%TF.FileFunction,Soldermask,Top*%
%TF.FilePolarity,Negative*%
%FSLAX46Y46*%
G04 Gerber Fmt 4.6, Leading zero omitted, Abs format (unit mm)*
G04 Created by KiCad (PCBNEW 8.0.5) date 2025-10-28 17:55:05*
%MOMM*%
%LPD*%
G01*
G04 APERTURE LIST*
G04 Aperture macros list*
%AMRoundRect*
0 Rectangle with rounded corners*
0 $1 Rounding radius*
0 $2 $3 $4 $5 $6 $7 $8 $9 X,Y pos of 4 corners*
0 Add a 4 corners polygon primitive as box body*
4,1,4,$2,$3,$4,$5,$6,$7,$8,$9,$2,$3,0*
0 Add four circle primitives for the rounded corners*
1,1,$1+$1,$2,$3*
1,1,$1+$1,$4,$5*
1,1,$1+$1,$6,$7*
1,1,$1+$1,$8,$9*
0 Add four rect primitives between the rounded corners*
20,1,$1+$1,$2,$3,$4,$5,0*
20,1,$1+$1,$4,$5,$6,$7,0*
20,1,$1+$1,$6,$7,$8,$9,0*
20,1,$1+$1,$8,$9,$2,$3,0*%
G04 Aperture macros list end*
%ADD10RoundRect,0.250000X0.262500X0.450000X-0.262500X0.450000X-0.262500X-0.450000X0.262500X-0.450000X0*%
%ADD11RoundRect,0.250000X-0.337500X-0.475000X0.337500X-0.475000X0.337500X0.475000X-0.337500X0.475000X0*%
%ADD12C,2.000000*%
%ADD13RoundRect,0.243750X0.243750X0.456250X-0.243750X0.456250X-0.243750X-0.456250X0.243750X-0.456250X0*%
%ADD14C,0.700000*%
%ADD15O,0.900000X2.400000*%
%ADD16O,0.900000X1.700000*%
%ADD17RoundRect,0.150000X0.625000X-0.150000X0.625000X0.150000X-0.625000X0.150000X-0.625000X-0.150000X0*%
%ADD18RoundRect,0.250000X0.650000X-0.350000X0.650000X0.350000X-0.650000X0.350000X-0.650000X-0.350000X0*%
%ADD19RoundRect,0.375000X-0.375000X0.625000X-0.375000X-0.625000X0.375000X-0.625000X0.375000X0.625000X0*%
%ADD20RoundRect,0.500000X-1.400000X0.500000X-1.400000X-0.500000X1.400000X-0.500000X1.400000X0.500000X0*%
%ADD21RoundRect,0.250000X-0.262500X-0.450000X0.262500X-0.450000X0.262500X0.450000X-0.262500X0.450000X0*%
%ADD22RoundRect,0.062500X0.062500X-0.375000X0.062500X0.375000X-0.062500X0.375000X-0.062500X-0.375000X0*%
%ADD23RoundRect,0.062500X0.375000X-0.062500X0.375000X0.062500X-0.375000X0.062500X-0.375000X-0.062500X0*%
%ADD24R,5.600000X5.600000*%
%ADD25R,1.700000X1.700000*%
%ADD26O,1.700000X1.700000*%
%ADD27RoundRect,0.250000X-0.450000X0.262500X-0.450000X-0.262500X0.450000X-0.262500X0.450000X0.262500X0*%
G04 APERTURE END LIST*
D10*
%TO.C,R5*%
X98535000Y-134120000D03*
X96710000Y-134120000D03*
%TD*%
%TO.C,5.1*%
X98535000Y-137070000D03*
X96710000Y-137070000D03*
%TD*%
D11*
%TO.C,C6*%
X105637500Y-114230000D03*
X103562500Y-114230000D03*
%TD*%
%TO.C,C4*%
X91277500Y-119300000D03*
X89202500Y-119300000D03*
%TD*%
%TO.C,C7*%
X94845000Y-126510000D03*
X96920000Y-126510000D03*
%TD*%
D12*
%TO.C,SW1*%
X81130000Y-126810000D03*
X87630000Y-126810000D03*
X81130000Y-131310000D03*
X87630000Y-131310000D03*
%TD*%
D13*
%TO.C,D2*%
X109320000Y-107300000D03*
X107445000Y-107300000D03*
%TD*%
D14*
%TO.C,USBC1*%
X103330000Y-133870000D03*
X104180000Y-133870000D03*
X105030000Y-133870000D03*
X105880000Y-133870000D03*
X106730000Y-133870000D03*
X107580000Y-133870000D03*
X108430000Y-133870000D03*
X109280000Y-133870000D03*
X109280000Y-135220000D03*
X108430000Y-135220000D03*
X107580000Y-135220000D03*
X106730000Y-135220000D03*
X105880000Y-135220000D03*
X105030000Y-135220000D03*
X104180000Y-135220000D03*
X103330000Y-135220000D03*
D15*
X101980000Y-134850000D03*
D16*
X101980000Y-138230000D03*
D15*
X110630000Y-134850000D03*
D16*
X110630000Y-138230000D03*
%TD*%
D17*
%TO.C,J3*%
X112920000Y-113170000D03*
X112920000Y-112170000D03*
X112920000Y-111170000D03*
D18*
X116795000Y-114470000D03*
X116795000Y-109870000D03*
%TD*%
D11*
%TO.C,C1*%
X99325000Y-120720000D03*
X101400000Y-120720000D03*
%TD*%
D19*
%TO.C,PWRregu1*%
X104790000Y-123810000D03*
X102490000Y-123810000D03*
D20*
X102490000Y-130110000D03*
D19*
X100190000Y-123810000D03*
%TD*%
D21*
%TO.C,R2*%
X102285000Y-107300000D03*
X104110000Y-107300000D03*
%TD*%
D22*
%TO.C,U3*%
X94070000Y-118445000D03*
X94570000Y-118445000D03*
X95070000Y-118445000D03*
X95570000Y-118445000D03*
X96070000Y-118445000D03*
X96570000Y-118445000D03*
X97070000Y-118445000D03*
X97570000Y-118445000D03*
X98070000Y-118445000D03*
X98570000Y-118445000D03*
X99070000Y-118445000D03*
X99570000Y-118445000D03*
D23*
X100257500Y-117757500D03*
X100257500Y-117257500D03*
X100257500Y-116757500D03*
X100257500Y-116257500D03*
X100257500Y-115757500D03*
X100257500Y-115257500D03*
X100257500Y-114757500D03*
X100257500Y-114257500D03*
X100257500Y-113757500D03*
X100257500Y-113257500D03*
X100257500Y-112757500D03*
X100257500Y-112257500D03*
D22*
X99570000Y-111570000D03*
X99070000Y-111570000D03*
X98570000Y-111570000D03*
X98070000Y-111570000D03*
X97570000Y-111570000D03*
X97070000Y-111570000D03*
X96570000Y-111570000D03*
X96070000Y-111570000D03*
X95570000Y-111570000D03*
X95070000Y-111570000D03*
X94570000Y-111570000D03*
X94070000Y-111570000D03*
D23*
X93382500Y-112257500D03*
X93382500Y-112757500D03*
X93382500Y-113257500D03*
X93382500Y-113757500D03*
X93382500Y-114257500D03*
X93382500Y-114757500D03*
X93382500Y-115257500D03*
X93382500Y-115757500D03*
X93382500Y-116257500D03*
X93382500Y-116757500D03*
X93382500Y-117257500D03*
X93382500Y-117757500D03*
D24*
X96820000Y-115007500D03*
%TD*%
D21*
%TO.C,R1*%
X80862500Y-136890000D03*
X82687500Y-136890000D03*
%TD*%
D25*
%TO.C,ST-Link1*%
X80920000Y-107340000D03*
D26*
X80920000Y-109880000D03*
X80920000Y-112420000D03*
X80920000Y-114960000D03*
%TD*%
D11*
%TO.C,C5*%
X105550000Y-111440000D03*
X103475000Y-111440000D03*
%TD*%
D17*
%TO.C,J2*%
X112920000Y-126600000D03*
X112920000Y-125600000D03*
X112920000Y-124600000D03*
D18*
X116795000Y-127900000D03*
X116795000Y-123300000D03*
%TD*%
D11*
%TO.C,C2*%
X86890000Y-111940000D03*
X88965000Y-111940000D03*
%TD*%
%TO.C,C8*%
X107235000Y-119530000D03*
X109310000Y-119530000D03*
%TD*%
%TO.C,C3*%
X91267500Y-122810000D03*
X89192500Y-122810000D03*
%TD*%
D27*
%TO.C,R3*%
X90710000Y-126815000D03*
X90710000Y-128640000D03*
%TD*%
D13*
%TO.C,D1*%
X87697500Y-136890000D03*
X85822500Y-136890000D03*
%TD*%
M02*
