M48
; DRILL file {KiCad 8.0.5} date 2025-10-28T17:55:04-0500
; FORMAT={-:-/ absolute / inch / decimal}
; #@! TF.CreationDate,2025-10-28T17:55:04-05:00
; #@! TF.GenerationSoftware,Kicad,Pcbnew,8.0.5
; #@! TF.FileFunction,Plated,1,2,PTH
FMAT,2
INCH
; #@! TA.AperFunction,Plated,PTH,ViaDrill
T1C0.0118
; #@! TA.AperFunction,Plated,PTH,ComponentDrill
T2C0.0157
; #@! TA.AperFunction,Plated,PTH,ComponentDrill
T3C0.0236
; #@! TA.AperFunction,Plated,PTH,ComponentDrill
T4C0.0394
; #@! TA.AperFunction,Plated,PTH,ComponentDrill
T5C0.0433
%
G90
G05
T1
X3.3469Y-4.4071
X3.4579Y-5.3929
X3.5026Y-4.4071
X3.5138Y-4.6972
X3.5921Y-4.6992
X3.5932Y-4.835
X3.6252Y-4.6051
X3.6256Y-4.5083
X3.6362Y-4.5571
X3.6819Y-4.3567
X3.8075Y-5.2803
X3.8075Y-5.3965
X3.8118Y-4.5279
X3.8174Y-4.9791
X3.8421Y-4.7051
X3.8826Y-5.3973
X3.9803Y-4.389
X3.9913Y-4.4413
X3.9921Y-4.7528
X4.035Y-4.8744
X4.035Y-5.1224
X4.1579Y-4.3846
X4.1622Y-4.4925
X4.1693Y-5.2169
X4.3035Y-4.7059
X4.3039Y-4.2244
X4.3787Y-4.6331
X4.4457Y-4.4555
X4.4457Y-4.9843
T2
X4.0681Y-5.2705
X4.0681Y-5.3236
X4.1016Y-5.2705
X4.1016Y-5.3236
X4.135Y-5.2705
X4.135Y-5.3236
X4.1685Y-5.2705
X4.1685Y-5.3236
X4.202Y-5.2705
X4.202Y-5.3236
X4.2354Y-5.2705
X4.2354Y-5.3236
X4.2689Y-5.2705
X4.2689Y-5.3236
X4.3024Y-5.2705
X4.3024Y-5.3236
T4
X3.1858Y-4.226
X3.1858Y-4.326
X3.1858Y-4.426
X3.1858Y-4.526
T5
X3.1941Y-4.9925
X3.1941Y-5.1697
X3.45Y-4.9925
X3.45Y-5.1697
T3
G00X4.015Y-5.2795
M15
G01X4.015Y-5.3386
M16
G05
G00X4.015Y-5.4264
M15
G01X4.015Y-5.4579
M16
G05
G00X4.3555Y-5.2795
M15
G01X4.3555Y-5.3386
M16
G05
G00X4.3555Y-5.4264
M15
G01X4.3555Y-5.4579
M16
G05
M30
