%TF.GenerationSoftware,KiCad,Pcbnew,8.0.5*%
%TF.CreationDate,2025-10-28T17:55:05-05:00*%
%TF.ProjectId,Microcontroller,4d696372-6f63-46f6-9e74-726f6c6c6572,rev?*%
%TF.SameCoordinates,Original*%
%TF.FileFunction,Legend,Top*%
%TF.FilePolarity,Positive*%
%FSLAX46Y46*%
G04 Gerber Fmt 4.6, Leading zero omitted, Abs format (unit mm)*
G04 Created by KiCad (PCBNEW 8.0.5) date 2025-10-28 17:55:05*
%MOMM*%
%LPD*%
G01*
G04 APERTURE LIST*
%ADD10C,0.150000*%
%ADD11C,0.100000*%
%ADD12C,0.120000*%
G04 APERTURE END LIST*
D10*
X106980000Y-110819847D02*
X107075238Y-110819847D01*
X107075238Y-110819847D02*
X107170476Y-110867466D01*
X107170476Y-110867466D02*
X107218095Y-110915085D01*
X107218095Y-110915085D02*
X107265714Y-111010323D01*
X107265714Y-111010323D02*
X107313333Y-111200799D01*
X107313333Y-111200799D02*
X107313333Y-111438894D01*
X107313333Y-111438894D02*
X107265714Y-111629370D01*
X107265714Y-111629370D02*
X107218095Y-111724608D01*
X107218095Y-111724608D02*
X107170476Y-111772228D01*
X107170476Y-111772228D02*
X107075238Y-111819847D01*
X107075238Y-111819847D02*
X106980000Y-111819847D01*
X106980000Y-111819847D02*
X106884762Y-111772228D01*
X106884762Y-111772228D02*
X106837143Y-111724608D01*
X106837143Y-111724608D02*
X106789524Y-111629370D01*
X106789524Y-111629370D02*
X106741905Y-111438894D01*
X106741905Y-111438894D02*
X106741905Y-111200799D01*
X106741905Y-111200799D02*
X106789524Y-111010323D01*
X106789524Y-111010323D02*
X106837143Y-110915085D01*
X106837143Y-110915085D02*
X106884762Y-110867466D01*
X106884762Y-110867466D02*
X106980000Y-110819847D01*
X107741905Y-111724608D02*
X107789524Y-111772228D01*
X107789524Y-111772228D02*
X107741905Y-111819847D01*
X107741905Y-111819847D02*
X107694286Y-111772228D01*
X107694286Y-111772228D02*
X107741905Y-111724608D01*
X107741905Y-111724608D02*
X107741905Y-111819847D01*
X108741904Y-111819847D02*
X108170476Y-111819847D01*
X108456190Y-111819847D02*
X108456190Y-110819847D01*
X108456190Y-110819847D02*
X108360952Y-110962704D01*
X108360952Y-110962704D02*
X108265714Y-111057942D01*
X108265714Y-111057942D02*
X108170476Y-111105561D01*
X109599047Y-111153180D02*
X109599047Y-111819847D01*
X109170476Y-111153180D02*
X109170476Y-111676989D01*
X109170476Y-111676989D02*
X109218095Y-111772228D01*
X109218095Y-111772228D02*
X109313333Y-111819847D01*
X109313333Y-111819847D02*
X109456190Y-111819847D01*
X109456190Y-111819847D02*
X109551428Y-111772228D01*
X109551428Y-111772228D02*
X109599047Y-111724608D01*
X109932381Y-111153180D02*
X110313333Y-111153180D01*
X110075238Y-111819847D02*
X110075238Y-110962704D01*
X110075238Y-110962704D02*
X110122857Y-110867466D01*
X110122857Y-110867466D02*
X110218095Y-110819847D01*
X110218095Y-110819847D02*
X110313333Y-110819847D01*
X106971905Y-113665085D02*
X107019524Y-113617466D01*
X107019524Y-113617466D02*
X107114762Y-113569847D01*
X107114762Y-113569847D02*
X107352857Y-113569847D01*
X107352857Y-113569847D02*
X107448095Y-113617466D01*
X107448095Y-113617466D02*
X107495714Y-113665085D01*
X107495714Y-113665085D02*
X107543333Y-113760323D01*
X107543333Y-113760323D02*
X107543333Y-113855561D01*
X107543333Y-113855561D02*
X107495714Y-113998418D01*
X107495714Y-113998418D02*
X106924286Y-114569847D01*
X106924286Y-114569847D02*
X107543333Y-114569847D01*
X107971905Y-114474608D02*
X108019524Y-114522228D01*
X108019524Y-114522228D02*
X107971905Y-114569847D01*
X107971905Y-114569847D02*
X107924286Y-114522228D01*
X107924286Y-114522228D02*
X107971905Y-114474608D01*
X107971905Y-114474608D02*
X107971905Y-114569847D01*
X108400476Y-113665085D02*
X108448095Y-113617466D01*
X108448095Y-113617466D02*
X108543333Y-113569847D01*
X108543333Y-113569847D02*
X108781428Y-113569847D01*
X108781428Y-113569847D02*
X108876666Y-113617466D01*
X108876666Y-113617466D02*
X108924285Y-113665085D01*
X108924285Y-113665085D02*
X108971904Y-113760323D01*
X108971904Y-113760323D02*
X108971904Y-113855561D01*
X108971904Y-113855561D02*
X108924285Y-113998418D01*
X108924285Y-113998418D02*
X108352857Y-114569847D01*
X108352857Y-114569847D02*
X108971904Y-114569847D01*
X109829047Y-113903180D02*
X109829047Y-114569847D01*
X109400476Y-113903180D02*
X109400476Y-114426989D01*
X109400476Y-114426989D02*
X109448095Y-114522228D01*
X109448095Y-114522228D02*
X109543333Y-114569847D01*
X109543333Y-114569847D02*
X109686190Y-114569847D01*
X109686190Y-114569847D02*
X109781428Y-114522228D01*
X109781428Y-114522228D02*
X109829047Y-114474608D01*
X110162381Y-113903180D02*
X110543333Y-113903180D01*
X110305238Y-114569847D02*
X110305238Y-113712704D01*
X110305238Y-113712704D02*
X110352857Y-113617466D01*
X110352857Y-113617466D02*
X110448095Y-113569847D01*
X110448095Y-113569847D02*
X110543333Y-113569847D01*
X102810000Y-120639847D02*
X102905238Y-120639847D01*
X102905238Y-120639847D02*
X103000476Y-120687466D01*
X103000476Y-120687466D02*
X103048095Y-120735085D01*
X103048095Y-120735085D02*
X103095714Y-120830323D01*
X103095714Y-120830323D02*
X103143333Y-121020799D01*
X103143333Y-121020799D02*
X103143333Y-121258894D01*
X103143333Y-121258894D02*
X103095714Y-121449370D01*
X103095714Y-121449370D02*
X103048095Y-121544608D01*
X103048095Y-121544608D02*
X103000476Y-121592228D01*
X103000476Y-121592228D02*
X102905238Y-121639847D01*
X102905238Y-121639847D02*
X102810000Y-121639847D01*
X102810000Y-121639847D02*
X102714762Y-121592228D01*
X102714762Y-121592228D02*
X102667143Y-121544608D01*
X102667143Y-121544608D02*
X102619524Y-121449370D01*
X102619524Y-121449370D02*
X102571905Y-121258894D01*
X102571905Y-121258894D02*
X102571905Y-121020799D01*
X102571905Y-121020799D02*
X102619524Y-120830323D01*
X102619524Y-120830323D02*
X102667143Y-120735085D01*
X102667143Y-120735085D02*
X102714762Y-120687466D01*
X102714762Y-120687466D02*
X102810000Y-120639847D01*
X103571905Y-121544608D02*
X103619524Y-121592228D01*
X103619524Y-121592228D02*
X103571905Y-121639847D01*
X103571905Y-121639847D02*
X103524286Y-121592228D01*
X103524286Y-121592228D02*
X103571905Y-121544608D01*
X103571905Y-121544608D02*
X103571905Y-121639847D01*
X104571904Y-121639847D02*
X104000476Y-121639847D01*
X104286190Y-121639847D02*
X104286190Y-120639847D01*
X104286190Y-120639847D02*
X104190952Y-120782704D01*
X104190952Y-120782704D02*
X104095714Y-120877942D01*
X104095714Y-120877942D02*
X104000476Y-120925561D01*
X105429047Y-120973180D02*
X105429047Y-121639847D01*
X105000476Y-120973180D02*
X105000476Y-121496989D01*
X105000476Y-121496989D02*
X105048095Y-121592228D01*
X105048095Y-121592228D02*
X105143333Y-121639847D01*
X105143333Y-121639847D02*
X105286190Y-121639847D01*
X105286190Y-121639847D02*
X105381428Y-121592228D01*
X105381428Y-121592228D02*
X105429047Y-121544608D01*
X105762381Y-120973180D02*
X106143333Y-120973180D01*
X105905238Y-121639847D02*
X105905238Y-120782704D01*
X105905238Y-120782704D02*
X105952857Y-120687466D01*
X105952857Y-120687466D02*
X106048095Y-120639847D01*
X106048095Y-120639847D02*
X106143333Y-120639847D01*
X106860000Y-120649847D02*
X106955238Y-120649847D01*
X106955238Y-120649847D02*
X107050476Y-120697466D01*
X107050476Y-120697466D02*
X107098095Y-120745085D01*
X107098095Y-120745085D02*
X107145714Y-120840323D01*
X107145714Y-120840323D02*
X107193333Y-121030799D01*
X107193333Y-121030799D02*
X107193333Y-121268894D01*
X107193333Y-121268894D02*
X107145714Y-121459370D01*
X107145714Y-121459370D02*
X107098095Y-121554608D01*
X107098095Y-121554608D02*
X107050476Y-121602228D01*
X107050476Y-121602228D02*
X106955238Y-121649847D01*
X106955238Y-121649847D02*
X106860000Y-121649847D01*
X106860000Y-121649847D02*
X106764762Y-121602228D01*
X106764762Y-121602228D02*
X106717143Y-121554608D01*
X106717143Y-121554608D02*
X106669524Y-121459370D01*
X106669524Y-121459370D02*
X106621905Y-121268894D01*
X106621905Y-121268894D02*
X106621905Y-121030799D01*
X106621905Y-121030799D02*
X106669524Y-120840323D01*
X106669524Y-120840323D02*
X106717143Y-120745085D01*
X106717143Y-120745085D02*
X106764762Y-120697466D01*
X106764762Y-120697466D02*
X106860000Y-120649847D01*
X107621905Y-121554608D02*
X107669524Y-121602228D01*
X107669524Y-121602228D02*
X107621905Y-121649847D01*
X107621905Y-121649847D02*
X107574286Y-121602228D01*
X107574286Y-121602228D02*
X107621905Y-121554608D01*
X107621905Y-121554608D02*
X107621905Y-121649847D01*
X108621904Y-121649847D02*
X108050476Y-121649847D01*
X108336190Y-121649847D02*
X108336190Y-120649847D01*
X108336190Y-120649847D02*
X108240952Y-120792704D01*
X108240952Y-120792704D02*
X108145714Y-120887942D01*
X108145714Y-120887942D02*
X108050476Y-120935561D01*
X109479047Y-120983180D02*
X109479047Y-121649847D01*
X109050476Y-120983180D02*
X109050476Y-121506989D01*
X109050476Y-121506989D02*
X109098095Y-121602228D01*
X109098095Y-121602228D02*
X109193333Y-121649847D01*
X109193333Y-121649847D02*
X109336190Y-121649847D01*
X109336190Y-121649847D02*
X109431428Y-121602228D01*
X109431428Y-121602228D02*
X109479047Y-121554608D01*
X109812381Y-120983180D02*
X110193333Y-120983180D01*
X109955238Y-121649847D02*
X109955238Y-120792704D01*
X109955238Y-120792704D02*
X110002857Y-120697466D01*
X110002857Y-120697466D02*
X110098095Y-120649847D01*
X110098095Y-120649847D02*
X110193333Y-120649847D01*
X86580000Y-114049847D02*
X86675238Y-114049847D01*
X86675238Y-114049847D02*
X86770476Y-114097466D01*
X86770476Y-114097466D02*
X86818095Y-114145085D01*
X86818095Y-114145085D02*
X86865714Y-114240323D01*
X86865714Y-114240323D02*
X86913333Y-114430799D01*
X86913333Y-114430799D02*
X86913333Y-114668894D01*
X86913333Y-114668894D02*
X86865714Y-114859370D01*
X86865714Y-114859370D02*
X86818095Y-114954608D01*
X86818095Y-114954608D02*
X86770476Y-115002228D01*
X86770476Y-115002228D02*
X86675238Y-115049847D01*
X86675238Y-115049847D02*
X86580000Y-115049847D01*
X86580000Y-115049847D02*
X86484762Y-115002228D01*
X86484762Y-115002228D02*
X86437143Y-114954608D01*
X86437143Y-114954608D02*
X86389524Y-114859370D01*
X86389524Y-114859370D02*
X86341905Y-114668894D01*
X86341905Y-114668894D02*
X86341905Y-114430799D01*
X86341905Y-114430799D02*
X86389524Y-114240323D01*
X86389524Y-114240323D02*
X86437143Y-114145085D01*
X86437143Y-114145085D02*
X86484762Y-114097466D01*
X86484762Y-114097466D02*
X86580000Y-114049847D01*
X87341905Y-114954608D02*
X87389524Y-115002228D01*
X87389524Y-115002228D02*
X87341905Y-115049847D01*
X87341905Y-115049847D02*
X87294286Y-115002228D01*
X87294286Y-115002228D02*
X87341905Y-114954608D01*
X87341905Y-114954608D02*
X87341905Y-115049847D01*
X88341904Y-115049847D02*
X87770476Y-115049847D01*
X88056190Y-115049847D02*
X88056190Y-114049847D01*
X88056190Y-114049847D02*
X87960952Y-114192704D01*
X87960952Y-114192704D02*
X87865714Y-114287942D01*
X87865714Y-114287942D02*
X87770476Y-114335561D01*
X89199047Y-114383180D02*
X89199047Y-115049847D01*
X88770476Y-114383180D02*
X88770476Y-114906989D01*
X88770476Y-114906989D02*
X88818095Y-115002228D01*
X88818095Y-115002228D02*
X88913333Y-115049847D01*
X88913333Y-115049847D02*
X89056190Y-115049847D01*
X89056190Y-115049847D02*
X89151428Y-115002228D01*
X89151428Y-115002228D02*
X89199047Y-114954608D01*
X89532381Y-114383180D02*
X89913333Y-114383180D01*
X89675238Y-115049847D02*
X89675238Y-114192704D01*
X89675238Y-114192704D02*
X89722857Y-114097466D01*
X89722857Y-114097466D02*
X89818095Y-114049847D01*
X89818095Y-114049847D02*
X89913333Y-114049847D01*
X92760000Y-119799847D02*
X92855238Y-119799847D01*
X92855238Y-119799847D02*
X92950476Y-119847466D01*
X92950476Y-119847466D02*
X92998095Y-119895085D01*
X92998095Y-119895085D02*
X93045714Y-119990323D01*
X93045714Y-119990323D02*
X93093333Y-120180799D01*
X93093333Y-120180799D02*
X93093333Y-120418894D01*
X93093333Y-120418894D02*
X93045714Y-120609370D01*
X93045714Y-120609370D02*
X92998095Y-120704608D01*
X92998095Y-120704608D02*
X92950476Y-120752228D01*
X92950476Y-120752228D02*
X92855238Y-120799847D01*
X92855238Y-120799847D02*
X92760000Y-120799847D01*
X92760000Y-120799847D02*
X92664762Y-120752228D01*
X92664762Y-120752228D02*
X92617143Y-120704608D01*
X92617143Y-120704608D02*
X92569524Y-120609370D01*
X92569524Y-120609370D02*
X92521905Y-120418894D01*
X92521905Y-120418894D02*
X92521905Y-120180799D01*
X92521905Y-120180799D02*
X92569524Y-119990323D01*
X92569524Y-119990323D02*
X92617143Y-119895085D01*
X92617143Y-119895085D02*
X92664762Y-119847466D01*
X92664762Y-119847466D02*
X92760000Y-119799847D01*
X93521905Y-120704608D02*
X93569524Y-120752228D01*
X93569524Y-120752228D02*
X93521905Y-120799847D01*
X93521905Y-120799847D02*
X93474286Y-120752228D01*
X93474286Y-120752228D02*
X93521905Y-120704608D01*
X93521905Y-120704608D02*
X93521905Y-120799847D01*
X94521904Y-120799847D02*
X93950476Y-120799847D01*
X94236190Y-120799847D02*
X94236190Y-119799847D01*
X94236190Y-119799847D02*
X94140952Y-119942704D01*
X94140952Y-119942704D02*
X94045714Y-120037942D01*
X94045714Y-120037942D02*
X93950476Y-120085561D01*
X95379047Y-120133180D02*
X95379047Y-120799847D01*
X94950476Y-120133180D02*
X94950476Y-120656989D01*
X94950476Y-120656989D02*
X94998095Y-120752228D01*
X94998095Y-120752228D02*
X95093333Y-120799847D01*
X95093333Y-120799847D02*
X95236190Y-120799847D01*
X95236190Y-120799847D02*
X95331428Y-120752228D01*
X95331428Y-120752228D02*
X95379047Y-120704608D01*
X95712381Y-120133180D02*
X96093333Y-120133180D01*
X95855238Y-120799847D02*
X95855238Y-119942704D01*
X95855238Y-119942704D02*
X95902857Y-119847466D01*
X95902857Y-119847466D02*
X95998095Y-119799847D01*
X95998095Y-119799847D02*
X96093333Y-119799847D01*
X92810000Y-122209847D02*
X92905238Y-122209847D01*
X92905238Y-122209847D02*
X93000476Y-122257466D01*
X93000476Y-122257466D02*
X93048095Y-122305085D01*
X93048095Y-122305085D02*
X93095714Y-122400323D01*
X93095714Y-122400323D02*
X93143333Y-122590799D01*
X93143333Y-122590799D02*
X93143333Y-122828894D01*
X93143333Y-122828894D02*
X93095714Y-123019370D01*
X93095714Y-123019370D02*
X93048095Y-123114608D01*
X93048095Y-123114608D02*
X93000476Y-123162228D01*
X93000476Y-123162228D02*
X92905238Y-123209847D01*
X92905238Y-123209847D02*
X92810000Y-123209847D01*
X92810000Y-123209847D02*
X92714762Y-123162228D01*
X92714762Y-123162228D02*
X92667143Y-123114608D01*
X92667143Y-123114608D02*
X92619524Y-123019370D01*
X92619524Y-123019370D02*
X92571905Y-122828894D01*
X92571905Y-122828894D02*
X92571905Y-122590799D01*
X92571905Y-122590799D02*
X92619524Y-122400323D01*
X92619524Y-122400323D02*
X92667143Y-122305085D01*
X92667143Y-122305085D02*
X92714762Y-122257466D01*
X92714762Y-122257466D02*
X92810000Y-122209847D01*
X93571905Y-123114608D02*
X93619524Y-123162228D01*
X93619524Y-123162228D02*
X93571905Y-123209847D01*
X93571905Y-123209847D02*
X93524286Y-123162228D01*
X93524286Y-123162228D02*
X93571905Y-123114608D01*
X93571905Y-123114608D02*
X93571905Y-123209847D01*
X94571904Y-123209847D02*
X94000476Y-123209847D01*
X94286190Y-123209847D02*
X94286190Y-122209847D01*
X94286190Y-122209847D02*
X94190952Y-122352704D01*
X94190952Y-122352704D02*
X94095714Y-122447942D01*
X94095714Y-122447942D02*
X94000476Y-122495561D01*
X95429047Y-122543180D02*
X95429047Y-123209847D01*
X95000476Y-122543180D02*
X95000476Y-123066989D01*
X95000476Y-123066989D02*
X95048095Y-123162228D01*
X95048095Y-123162228D02*
X95143333Y-123209847D01*
X95143333Y-123209847D02*
X95286190Y-123209847D01*
X95286190Y-123209847D02*
X95381428Y-123162228D01*
X95381428Y-123162228D02*
X95429047Y-123114608D01*
X95762381Y-122543180D02*
X96143333Y-122543180D01*
X95905238Y-123209847D02*
X95905238Y-122352704D01*
X95905238Y-122352704D02*
X95952857Y-122257466D01*
X95952857Y-122257466D02*
X96048095Y-122209847D01*
X96048095Y-122209847D02*
X96143333Y-122209847D01*
D11*
X83537693Y-106990038D02*
X83442455Y-106942419D01*
X83442455Y-106942419D02*
X83299598Y-106942419D01*
X83299598Y-106942419D02*
X83156741Y-106990038D01*
X83156741Y-106990038D02*
X83061503Y-107085276D01*
X83061503Y-107085276D02*
X83013884Y-107180514D01*
X83013884Y-107180514D02*
X82966265Y-107370990D01*
X82966265Y-107370990D02*
X82966265Y-107513847D01*
X82966265Y-107513847D02*
X83013884Y-107704323D01*
X83013884Y-107704323D02*
X83061503Y-107799561D01*
X83061503Y-107799561D02*
X83156741Y-107894800D01*
X83156741Y-107894800D02*
X83299598Y-107942419D01*
X83299598Y-107942419D02*
X83394836Y-107942419D01*
X83394836Y-107942419D02*
X83537693Y-107894800D01*
X83537693Y-107894800D02*
X83585312Y-107847180D01*
X83585312Y-107847180D02*
X83585312Y-107513847D01*
X83585312Y-107513847D02*
X83394836Y-107513847D01*
X84013884Y-107942419D02*
X84013884Y-106942419D01*
X84013884Y-106942419D02*
X84585312Y-107942419D01*
X84585312Y-107942419D02*
X84585312Y-106942419D01*
X85061503Y-107942419D02*
X85061503Y-106942419D01*
X85061503Y-106942419D02*
X85299598Y-106942419D01*
X85299598Y-106942419D02*
X85442455Y-106990038D01*
X85442455Y-106990038D02*
X85537693Y-107085276D01*
X85537693Y-107085276D02*
X85585312Y-107180514D01*
X85585312Y-107180514D02*
X85632931Y-107370990D01*
X85632931Y-107370990D02*
X85632931Y-107513847D01*
X85632931Y-107513847D02*
X85585312Y-107704323D01*
X85585312Y-107704323D02*
X85537693Y-107799561D01*
X85537693Y-107799561D02*
X85442455Y-107894800D01*
X85442455Y-107894800D02*
X85299598Y-107942419D01*
X85299598Y-107942419D02*
X85061503Y-107942419D01*
X83183884Y-111252419D02*
X83183884Y-110252419D01*
X83183884Y-110252419D02*
X83421979Y-110252419D01*
X83421979Y-110252419D02*
X83564836Y-110300038D01*
X83564836Y-110300038D02*
X83660074Y-110395276D01*
X83660074Y-110395276D02*
X83707693Y-110490514D01*
X83707693Y-110490514D02*
X83755312Y-110680990D01*
X83755312Y-110680990D02*
X83755312Y-110823847D01*
X83755312Y-110823847D02*
X83707693Y-111014323D01*
X83707693Y-111014323D02*
X83660074Y-111109561D01*
X83660074Y-111109561D02*
X83564836Y-111204800D01*
X83564836Y-111204800D02*
X83421979Y-111252419D01*
X83421979Y-111252419D02*
X83183884Y-111252419D01*
X84183884Y-111252419D02*
X84183884Y-110252419D01*
X84850550Y-110252419D02*
X85041026Y-110252419D01*
X85041026Y-110252419D02*
X85136264Y-110300038D01*
X85136264Y-110300038D02*
X85231502Y-110395276D01*
X85231502Y-110395276D02*
X85279121Y-110585752D01*
X85279121Y-110585752D02*
X85279121Y-110919085D01*
X85279121Y-110919085D02*
X85231502Y-111109561D01*
X85231502Y-111109561D02*
X85136264Y-111204800D01*
X85136264Y-111204800D02*
X85041026Y-111252419D01*
X85041026Y-111252419D02*
X84850550Y-111252419D01*
X84850550Y-111252419D02*
X84755312Y-111204800D01*
X84755312Y-111204800D02*
X84660074Y-111109561D01*
X84660074Y-111109561D02*
X84612455Y-110919085D01*
X84612455Y-110919085D02*
X84612455Y-110585752D01*
X84612455Y-110585752D02*
X84660074Y-110395276D01*
X84660074Y-110395276D02*
X84755312Y-110300038D01*
X84755312Y-110300038D02*
X84850550Y-110252419D01*
X82858646Y-114462419D02*
X83477693Y-114462419D01*
X83477693Y-114462419D02*
X83144360Y-114843371D01*
X83144360Y-114843371D02*
X83287217Y-114843371D01*
X83287217Y-114843371D02*
X83382455Y-114890990D01*
X83382455Y-114890990D02*
X83430074Y-114938609D01*
X83430074Y-114938609D02*
X83477693Y-115033847D01*
X83477693Y-115033847D02*
X83477693Y-115271942D01*
X83477693Y-115271942D02*
X83430074Y-115367180D01*
X83430074Y-115367180D02*
X83382455Y-115414800D01*
X83382455Y-115414800D02*
X83287217Y-115462419D01*
X83287217Y-115462419D02*
X83001503Y-115462419D01*
X83001503Y-115462419D02*
X82906265Y-115414800D01*
X82906265Y-115414800D02*
X82858646Y-115367180D01*
X83763408Y-114462419D02*
X84096741Y-115462419D01*
X84096741Y-115462419D02*
X84430074Y-114462419D01*
X84668170Y-114462419D02*
X85287217Y-114462419D01*
X85287217Y-114462419D02*
X84953884Y-114843371D01*
X84953884Y-114843371D02*
X85096741Y-114843371D01*
X85096741Y-114843371D02*
X85191979Y-114890990D01*
X85191979Y-114890990D02*
X85239598Y-114938609D01*
X85239598Y-114938609D02*
X85287217Y-115033847D01*
X85287217Y-115033847D02*
X85287217Y-115271942D01*
X85287217Y-115271942D02*
X85239598Y-115367180D01*
X85239598Y-115367180D02*
X85191979Y-115414800D01*
X85191979Y-115414800D02*
X85096741Y-115462419D01*
X85096741Y-115462419D02*
X84811027Y-115462419D01*
X84811027Y-115462419D02*
X84715789Y-115414800D01*
X84715789Y-115414800D02*
X84668170Y-115367180D01*
X83605312Y-113497180D02*
X83557693Y-113544800D01*
X83557693Y-113544800D02*
X83414836Y-113592419D01*
X83414836Y-113592419D02*
X83319598Y-113592419D01*
X83319598Y-113592419D02*
X83176741Y-113544800D01*
X83176741Y-113544800D02*
X83081503Y-113449561D01*
X83081503Y-113449561D02*
X83033884Y-113354323D01*
X83033884Y-113354323D02*
X82986265Y-113163847D01*
X82986265Y-113163847D02*
X82986265Y-113020990D01*
X82986265Y-113020990D02*
X83033884Y-112830514D01*
X83033884Y-112830514D02*
X83081503Y-112735276D01*
X83081503Y-112735276D02*
X83176741Y-112640038D01*
X83176741Y-112640038D02*
X83319598Y-112592419D01*
X83319598Y-112592419D02*
X83414836Y-112592419D01*
X83414836Y-112592419D02*
X83557693Y-112640038D01*
X83557693Y-112640038D02*
X83605312Y-112687657D01*
X84510074Y-113592419D02*
X84033884Y-113592419D01*
X84033884Y-113592419D02*
X84033884Y-112592419D01*
X84843408Y-113592419D02*
X84843408Y-112592419D01*
X85414836Y-113592419D02*
X84986265Y-113020990D01*
X85414836Y-112592419D02*
X84843408Y-113163847D01*
D10*
X97146309Y-138174819D02*
X96670119Y-138174819D01*
X96670119Y-138174819D02*
X96622500Y-138651009D01*
X96622500Y-138651009D02*
X96670119Y-138603390D01*
X96670119Y-138603390D02*
X96765357Y-138555771D01*
X96765357Y-138555771D02*
X97003452Y-138555771D01*
X97003452Y-138555771D02*
X97098690Y-138603390D01*
X97098690Y-138603390D02*
X97146309Y-138651009D01*
X97146309Y-138651009D02*
X97193928Y-138746247D01*
X97193928Y-138746247D02*
X97193928Y-138984342D01*
X97193928Y-138984342D02*
X97146309Y-139079580D01*
X97146309Y-139079580D02*
X97098690Y-139127200D01*
X97098690Y-139127200D02*
X97003452Y-139174819D01*
X97003452Y-139174819D02*
X96765357Y-139174819D01*
X96765357Y-139174819D02*
X96670119Y-139127200D01*
X96670119Y-139127200D02*
X96622500Y-139079580D01*
X97622500Y-139079580D02*
X97670119Y-139127200D01*
X97670119Y-139127200D02*
X97622500Y-139174819D01*
X97622500Y-139174819D02*
X97574881Y-139127200D01*
X97574881Y-139127200D02*
X97622500Y-139079580D01*
X97622500Y-139079580D02*
X97622500Y-139174819D01*
X98622499Y-139174819D02*
X98051071Y-139174819D01*
X98336785Y-139174819D02*
X98336785Y-138174819D01*
X98336785Y-138174819D02*
X98241547Y-138317676D01*
X98241547Y-138317676D02*
X98146309Y-138412914D01*
X98146309Y-138412914D02*
X98051071Y-138460533D01*
X95353333Y-129019580D02*
X95305714Y-129067200D01*
X95305714Y-129067200D02*
X95162857Y-129114819D01*
X95162857Y-129114819D02*
X95067619Y-129114819D01*
X95067619Y-129114819D02*
X94924762Y-129067200D01*
X94924762Y-129067200D02*
X94829524Y-128971961D01*
X94829524Y-128971961D02*
X94781905Y-128876723D01*
X94781905Y-128876723D02*
X94734286Y-128686247D01*
X94734286Y-128686247D02*
X94734286Y-128543390D01*
X94734286Y-128543390D02*
X94781905Y-128352914D01*
X94781905Y-128352914D02*
X94829524Y-128257676D01*
X94829524Y-128257676D02*
X94924762Y-128162438D01*
X94924762Y-128162438D02*
X95067619Y-128114819D01*
X95067619Y-128114819D02*
X95162857Y-128114819D01*
X95162857Y-128114819D02*
X95305714Y-128162438D01*
X95305714Y-128162438D02*
X95353333Y-128210057D01*
X95686667Y-128114819D02*
X96353333Y-128114819D01*
X96353333Y-128114819D02*
X95924762Y-129114819D01*
X83046667Y-125217200D02*
X83189524Y-125264819D01*
X83189524Y-125264819D02*
X83427619Y-125264819D01*
X83427619Y-125264819D02*
X83522857Y-125217200D01*
X83522857Y-125217200D02*
X83570476Y-125169580D01*
X83570476Y-125169580D02*
X83618095Y-125074342D01*
X83618095Y-125074342D02*
X83618095Y-124979104D01*
X83618095Y-124979104D02*
X83570476Y-124883866D01*
X83570476Y-124883866D02*
X83522857Y-124836247D01*
X83522857Y-124836247D02*
X83427619Y-124788628D01*
X83427619Y-124788628D02*
X83237143Y-124741009D01*
X83237143Y-124741009D02*
X83141905Y-124693390D01*
X83141905Y-124693390D02*
X83094286Y-124645771D01*
X83094286Y-124645771D02*
X83046667Y-124550533D01*
X83046667Y-124550533D02*
X83046667Y-124455295D01*
X83046667Y-124455295D02*
X83094286Y-124360057D01*
X83094286Y-124360057D02*
X83141905Y-124312438D01*
X83141905Y-124312438D02*
X83237143Y-124264819D01*
X83237143Y-124264819D02*
X83475238Y-124264819D01*
X83475238Y-124264819D02*
X83618095Y-124312438D01*
X83951429Y-124264819D02*
X84189524Y-125264819D01*
X84189524Y-125264819D02*
X84380000Y-124550533D01*
X84380000Y-124550533D02*
X84570476Y-125264819D01*
X84570476Y-125264819D02*
X84808572Y-124264819D01*
X85713333Y-125264819D02*
X85141905Y-125264819D01*
X85427619Y-125264819D02*
X85427619Y-124264819D01*
X85427619Y-124264819D02*
X85332381Y-124407676D01*
X85332381Y-124407676D02*
X85237143Y-124502914D01*
X85237143Y-124502914D02*
X85141905Y-124550533D01*
X111261905Y-107384819D02*
X111261905Y-106384819D01*
X111261905Y-106384819D02*
X111500000Y-106384819D01*
X111500000Y-106384819D02*
X111642857Y-106432438D01*
X111642857Y-106432438D02*
X111738095Y-106527676D01*
X111738095Y-106527676D02*
X111785714Y-106622914D01*
X111785714Y-106622914D02*
X111833333Y-106813390D01*
X111833333Y-106813390D02*
X111833333Y-106956247D01*
X111833333Y-106956247D02*
X111785714Y-107146723D01*
X111785714Y-107146723D02*
X111738095Y-107241961D01*
X111738095Y-107241961D02*
X111642857Y-107337200D01*
X111642857Y-107337200D02*
X111500000Y-107384819D01*
X111500000Y-107384819D02*
X111261905Y-107384819D01*
X112214286Y-106480057D02*
X112261905Y-106432438D01*
X112261905Y-106432438D02*
X112357143Y-106384819D01*
X112357143Y-106384819D02*
X112595238Y-106384819D01*
X112595238Y-106384819D02*
X112690476Y-106432438D01*
X112690476Y-106432438D02*
X112738095Y-106480057D01*
X112738095Y-106480057D02*
X112785714Y-106575295D01*
X112785714Y-106575295D02*
X112785714Y-106670533D01*
X112785714Y-106670533D02*
X112738095Y-106813390D01*
X112738095Y-106813390D02*
X112166667Y-107384819D01*
X112166667Y-107384819D02*
X112785714Y-107384819D01*
X104066905Y-131524819D02*
X104066905Y-132334342D01*
X104066905Y-132334342D02*
X104114524Y-132429580D01*
X104114524Y-132429580D02*
X104162143Y-132477200D01*
X104162143Y-132477200D02*
X104257381Y-132524819D01*
X104257381Y-132524819D02*
X104447857Y-132524819D01*
X104447857Y-132524819D02*
X104543095Y-132477200D01*
X104543095Y-132477200D02*
X104590714Y-132429580D01*
X104590714Y-132429580D02*
X104638333Y-132334342D01*
X104638333Y-132334342D02*
X104638333Y-131524819D01*
X105066905Y-132477200D02*
X105209762Y-132524819D01*
X105209762Y-132524819D02*
X105447857Y-132524819D01*
X105447857Y-132524819D02*
X105543095Y-132477200D01*
X105543095Y-132477200D02*
X105590714Y-132429580D01*
X105590714Y-132429580D02*
X105638333Y-132334342D01*
X105638333Y-132334342D02*
X105638333Y-132239104D01*
X105638333Y-132239104D02*
X105590714Y-132143866D01*
X105590714Y-132143866D02*
X105543095Y-132096247D01*
X105543095Y-132096247D02*
X105447857Y-132048628D01*
X105447857Y-132048628D02*
X105257381Y-132001009D01*
X105257381Y-132001009D02*
X105162143Y-131953390D01*
X105162143Y-131953390D02*
X105114524Y-131905771D01*
X105114524Y-131905771D02*
X105066905Y-131810533D01*
X105066905Y-131810533D02*
X105066905Y-131715295D01*
X105066905Y-131715295D02*
X105114524Y-131620057D01*
X105114524Y-131620057D02*
X105162143Y-131572438D01*
X105162143Y-131572438D02*
X105257381Y-131524819D01*
X105257381Y-131524819D02*
X105495476Y-131524819D01*
X105495476Y-131524819D02*
X105638333Y-131572438D01*
X106400238Y-132001009D02*
X106543095Y-132048628D01*
X106543095Y-132048628D02*
X106590714Y-132096247D01*
X106590714Y-132096247D02*
X106638333Y-132191485D01*
X106638333Y-132191485D02*
X106638333Y-132334342D01*
X106638333Y-132334342D02*
X106590714Y-132429580D01*
X106590714Y-132429580D02*
X106543095Y-132477200D01*
X106543095Y-132477200D02*
X106447857Y-132524819D01*
X106447857Y-132524819D02*
X106066905Y-132524819D01*
X106066905Y-132524819D02*
X106066905Y-131524819D01*
X106066905Y-131524819D02*
X106400238Y-131524819D01*
X106400238Y-131524819D02*
X106495476Y-131572438D01*
X106495476Y-131572438D02*
X106543095Y-131620057D01*
X106543095Y-131620057D02*
X106590714Y-131715295D01*
X106590714Y-131715295D02*
X106590714Y-131810533D01*
X106590714Y-131810533D02*
X106543095Y-131905771D01*
X106543095Y-131905771D02*
X106495476Y-131953390D01*
X106495476Y-131953390D02*
X106400238Y-132001009D01*
X106400238Y-132001009D02*
X106066905Y-132001009D01*
X107638333Y-132429580D02*
X107590714Y-132477200D01*
X107590714Y-132477200D02*
X107447857Y-132524819D01*
X107447857Y-132524819D02*
X107352619Y-132524819D01*
X107352619Y-132524819D02*
X107209762Y-132477200D01*
X107209762Y-132477200D02*
X107114524Y-132381961D01*
X107114524Y-132381961D02*
X107066905Y-132286723D01*
X107066905Y-132286723D02*
X107019286Y-132096247D01*
X107019286Y-132096247D02*
X107019286Y-131953390D01*
X107019286Y-131953390D02*
X107066905Y-131762914D01*
X107066905Y-131762914D02*
X107114524Y-131667676D01*
X107114524Y-131667676D02*
X107209762Y-131572438D01*
X107209762Y-131572438D02*
X107352619Y-131524819D01*
X107352619Y-131524819D02*
X107447857Y-131524819D01*
X107447857Y-131524819D02*
X107590714Y-131572438D01*
X107590714Y-131572438D02*
X107638333Y-131620057D01*
X108590714Y-132524819D02*
X108019286Y-132524819D01*
X108305000Y-132524819D02*
X108305000Y-131524819D01*
X108305000Y-131524819D02*
X108209762Y-131667676D01*
X108209762Y-131667676D02*
X108114524Y-131762914D01*
X108114524Y-131762914D02*
X108019286Y-131810533D01*
X110394819Y-112503333D02*
X111109104Y-112503333D01*
X111109104Y-112503333D02*
X111251961Y-112550952D01*
X111251961Y-112550952D02*
X111347200Y-112646190D01*
X111347200Y-112646190D02*
X111394819Y-112789047D01*
X111394819Y-112789047D02*
X111394819Y-112884285D01*
X110394819Y-112122380D02*
X110394819Y-111503333D01*
X110394819Y-111503333D02*
X110775771Y-111836666D01*
X110775771Y-111836666D02*
X110775771Y-111693809D01*
X110775771Y-111693809D02*
X110823390Y-111598571D01*
X110823390Y-111598571D02*
X110871009Y-111550952D01*
X110871009Y-111550952D02*
X110966247Y-111503333D01*
X110966247Y-111503333D02*
X111204342Y-111503333D01*
X111204342Y-111503333D02*
X111299580Y-111550952D01*
X111299580Y-111550952D02*
X111347200Y-111598571D01*
X111347200Y-111598571D02*
X111394819Y-111693809D01*
X111394819Y-111693809D02*
X111394819Y-111979523D01*
X111394819Y-111979523D02*
X111347200Y-112074761D01*
X111347200Y-112074761D02*
X111299580Y-112122380D01*
X107444819Y-130412380D02*
X106444819Y-130412380D01*
X106444819Y-130412380D02*
X106444819Y-130031428D01*
X106444819Y-130031428D02*
X106492438Y-129936190D01*
X106492438Y-129936190D02*
X106540057Y-129888571D01*
X106540057Y-129888571D02*
X106635295Y-129840952D01*
X106635295Y-129840952D02*
X106778152Y-129840952D01*
X106778152Y-129840952D02*
X106873390Y-129888571D01*
X106873390Y-129888571D02*
X106921009Y-129936190D01*
X106921009Y-129936190D02*
X106968628Y-130031428D01*
X106968628Y-130031428D02*
X106968628Y-130412380D01*
X106444819Y-129507618D02*
X107444819Y-129269523D01*
X107444819Y-129269523D02*
X106730533Y-129079047D01*
X106730533Y-129079047D02*
X107444819Y-128888571D01*
X107444819Y-128888571D02*
X106444819Y-128650476D01*
X107444819Y-127698095D02*
X106968628Y-128031428D01*
X107444819Y-128269523D02*
X106444819Y-128269523D01*
X106444819Y-128269523D02*
X106444819Y-127888571D01*
X106444819Y-127888571D02*
X106492438Y-127793333D01*
X106492438Y-127793333D02*
X106540057Y-127745714D01*
X106540057Y-127745714D02*
X106635295Y-127698095D01*
X106635295Y-127698095D02*
X106778152Y-127698095D01*
X106778152Y-127698095D02*
X106873390Y-127745714D01*
X106873390Y-127745714D02*
X106921009Y-127793333D01*
X106921009Y-127793333D02*
X106968628Y-127888571D01*
X106968628Y-127888571D02*
X106968628Y-128269523D01*
X107444819Y-127269523D02*
X106778152Y-127269523D01*
X106968628Y-127269523D02*
X106873390Y-127221904D01*
X106873390Y-127221904D02*
X106825771Y-127174285D01*
X106825771Y-127174285D02*
X106778152Y-127079047D01*
X106778152Y-127079047D02*
X106778152Y-126983809D01*
X107397200Y-126269523D02*
X107444819Y-126364761D01*
X107444819Y-126364761D02*
X107444819Y-126555237D01*
X107444819Y-126555237D02*
X107397200Y-126650475D01*
X107397200Y-126650475D02*
X107301961Y-126698094D01*
X107301961Y-126698094D02*
X106921009Y-126698094D01*
X106921009Y-126698094D02*
X106825771Y-126650475D01*
X106825771Y-126650475D02*
X106778152Y-126555237D01*
X106778152Y-126555237D02*
X106778152Y-126364761D01*
X106778152Y-126364761D02*
X106825771Y-126269523D01*
X106825771Y-126269523D02*
X106921009Y-126221904D01*
X106921009Y-126221904D02*
X107016247Y-126221904D01*
X107016247Y-126221904D02*
X107111485Y-126698094D01*
X106778152Y-125364761D02*
X107587676Y-125364761D01*
X107587676Y-125364761D02*
X107682914Y-125412380D01*
X107682914Y-125412380D02*
X107730533Y-125459999D01*
X107730533Y-125459999D02*
X107778152Y-125555237D01*
X107778152Y-125555237D02*
X107778152Y-125698094D01*
X107778152Y-125698094D02*
X107730533Y-125793332D01*
X107397200Y-125364761D02*
X107444819Y-125459999D01*
X107444819Y-125459999D02*
X107444819Y-125650475D01*
X107444819Y-125650475D02*
X107397200Y-125745713D01*
X107397200Y-125745713D02*
X107349580Y-125793332D01*
X107349580Y-125793332D02*
X107254342Y-125840951D01*
X107254342Y-125840951D02*
X106968628Y-125840951D01*
X106968628Y-125840951D02*
X106873390Y-125793332D01*
X106873390Y-125793332D02*
X106825771Y-125745713D01*
X106825771Y-125745713D02*
X106778152Y-125650475D01*
X106778152Y-125650475D02*
X106778152Y-125459999D01*
X106778152Y-125459999D02*
X106825771Y-125364761D01*
X106778152Y-124459999D02*
X107444819Y-124459999D01*
X106778152Y-124888570D02*
X107301961Y-124888570D01*
X107301961Y-124888570D02*
X107397200Y-124840951D01*
X107397200Y-124840951D02*
X107444819Y-124745713D01*
X107444819Y-124745713D02*
X107444819Y-124602856D01*
X107444819Y-124602856D02*
X107397200Y-124507618D01*
X107397200Y-124507618D02*
X107349580Y-124459999D01*
X107444819Y-123459999D02*
X107444819Y-124031427D01*
X107444819Y-123745713D02*
X106444819Y-123745713D01*
X106444819Y-123745713D02*
X106587676Y-123840951D01*
X106587676Y-123840951D02*
X106682914Y-123936189D01*
X106682914Y-123936189D02*
X106730533Y-124031427D01*
X99393333Y-106884819D02*
X99060000Y-106408628D01*
X98821905Y-106884819D02*
X98821905Y-105884819D01*
X98821905Y-105884819D02*
X99202857Y-105884819D01*
X99202857Y-105884819D02*
X99298095Y-105932438D01*
X99298095Y-105932438D02*
X99345714Y-105980057D01*
X99345714Y-105980057D02*
X99393333Y-106075295D01*
X99393333Y-106075295D02*
X99393333Y-106218152D01*
X99393333Y-106218152D02*
X99345714Y-106313390D01*
X99345714Y-106313390D02*
X99298095Y-106361009D01*
X99298095Y-106361009D02*
X99202857Y-106408628D01*
X99202857Y-106408628D02*
X98821905Y-106408628D01*
X99774286Y-105980057D02*
X99821905Y-105932438D01*
X99821905Y-105932438D02*
X99917143Y-105884819D01*
X99917143Y-105884819D02*
X100155238Y-105884819D01*
X100155238Y-105884819D02*
X100250476Y-105932438D01*
X100250476Y-105932438D02*
X100298095Y-105980057D01*
X100298095Y-105980057D02*
X100345714Y-106075295D01*
X100345714Y-106075295D02*
X100345714Y-106170533D01*
X100345714Y-106170533D02*
X100298095Y-106313390D01*
X100298095Y-106313390D02*
X99726667Y-106884819D01*
X99726667Y-106884819D02*
X100345714Y-106884819D01*
X81608333Y-135694819D02*
X81275000Y-135218628D01*
X81036905Y-135694819D02*
X81036905Y-134694819D01*
X81036905Y-134694819D02*
X81417857Y-134694819D01*
X81417857Y-134694819D02*
X81513095Y-134742438D01*
X81513095Y-134742438D02*
X81560714Y-134790057D01*
X81560714Y-134790057D02*
X81608333Y-134885295D01*
X81608333Y-134885295D02*
X81608333Y-135028152D01*
X81608333Y-135028152D02*
X81560714Y-135123390D01*
X81560714Y-135123390D02*
X81513095Y-135171009D01*
X81513095Y-135171009D02*
X81417857Y-135218628D01*
X81417857Y-135218628D02*
X81036905Y-135218628D01*
X82560714Y-135694819D02*
X81989286Y-135694819D01*
X82275000Y-135694819D02*
X82275000Y-134694819D01*
X82275000Y-134694819D02*
X82179762Y-134837676D01*
X82179762Y-134837676D02*
X82084524Y-134932914D01*
X82084524Y-134932914D02*
X81989286Y-134980533D01*
X82428095Y-106587200D02*
X82570952Y-106634819D01*
X82570952Y-106634819D02*
X82809047Y-106634819D01*
X82809047Y-106634819D02*
X82904285Y-106587200D01*
X82904285Y-106587200D02*
X82951904Y-106539580D01*
X82951904Y-106539580D02*
X82999523Y-106444342D01*
X82999523Y-106444342D02*
X82999523Y-106349104D01*
X82999523Y-106349104D02*
X82951904Y-106253866D01*
X82951904Y-106253866D02*
X82904285Y-106206247D01*
X82904285Y-106206247D02*
X82809047Y-106158628D01*
X82809047Y-106158628D02*
X82618571Y-106111009D01*
X82618571Y-106111009D02*
X82523333Y-106063390D01*
X82523333Y-106063390D02*
X82475714Y-106015771D01*
X82475714Y-106015771D02*
X82428095Y-105920533D01*
X82428095Y-105920533D02*
X82428095Y-105825295D01*
X82428095Y-105825295D02*
X82475714Y-105730057D01*
X82475714Y-105730057D02*
X82523333Y-105682438D01*
X82523333Y-105682438D02*
X82618571Y-105634819D01*
X82618571Y-105634819D02*
X82856666Y-105634819D01*
X82856666Y-105634819D02*
X82999523Y-105682438D01*
X83285238Y-105634819D02*
X83856666Y-105634819D01*
X83570952Y-106634819D02*
X83570952Y-105634819D01*
X84190000Y-106253866D02*
X84951905Y-106253866D01*
X85904285Y-106634819D02*
X85428095Y-106634819D01*
X85428095Y-106634819D02*
X85428095Y-105634819D01*
X86237619Y-106634819D02*
X86237619Y-105968152D01*
X86237619Y-105634819D02*
X86190000Y-105682438D01*
X86190000Y-105682438D02*
X86237619Y-105730057D01*
X86237619Y-105730057D02*
X86285238Y-105682438D01*
X86285238Y-105682438D02*
X86237619Y-105634819D01*
X86237619Y-105634819D02*
X86237619Y-105730057D01*
X86713809Y-105968152D02*
X86713809Y-106634819D01*
X86713809Y-106063390D02*
X86761428Y-106015771D01*
X86761428Y-106015771D02*
X86856666Y-105968152D01*
X86856666Y-105968152D02*
X86999523Y-105968152D01*
X86999523Y-105968152D02*
X87094761Y-106015771D01*
X87094761Y-106015771D02*
X87142380Y-106111009D01*
X87142380Y-106111009D02*
X87142380Y-106634819D01*
X87618571Y-106634819D02*
X87618571Y-105634819D01*
X87713809Y-106253866D02*
X87999523Y-106634819D01*
X87999523Y-105968152D02*
X87618571Y-106349104D01*
X88951904Y-106634819D02*
X88380476Y-106634819D01*
X88666190Y-106634819D02*
X88666190Y-105634819D01*
X88666190Y-105634819D02*
X88570952Y-105777676D01*
X88570952Y-105777676D02*
X88475714Y-105872914D01*
X88475714Y-105872914D02*
X88380476Y-105920533D01*
X104345833Y-110119580D02*
X104298214Y-110167200D01*
X104298214Y-110167200D02*
X104155357Y-110214819D01*
X104155357Y-110214819D02*
X104060119Y-110214819D01*
X104060119Y-110214819D02*
X103917262Y-110167200D01*
X103917262Y-110167200D02*
X103822024Y-110071961D01*
X103822024Y-110071961D02*
X103774405Y-109976723D01*
X103774405Y-109976723D02*
X103726786Y-109786247D01*
X103726786Y-109786247D02*
X103726786Y-109643390D01*
X103726786Y-109643390D02*
X103774405Y-109452914D01*
X103774405Y-109452914D02*
X103822024Y-109357676D01*
X103822024Y-109357676D02*
X103917262Y-109262438D01*
X103917262Y-109262438D02*
X104060119Y-109214819D01*
X104060119Y-109214819D02*
X104155357Y-109214819D01*
X104155357Y-109214819D02*
X104298214Y-109262438D01*
X104298214Y-109262438D02*
X104345833Y-109310057D01*
X105250595Y-109214819D02*
X104774405Y-109214819D01*
X104774405Y-109214819D02*
X104726786Y-109691009D01*
X104726786Y-109691009D02*
X104774405Y-109643390D01*
X104774405Y-109643390D02*
X104869643Y-109595771D01*
X104869643Y-109595771D02*
X105107738Y-109595771D01*
X105107738Y-109595771D02*
X105202976Y-109643390D01*
X105202976Y-109643390D02*
X105250595Y-109691009D01*
X105250595Y-109691009D02*
X105298214Y-109786247D01*
X105298214Y-109786247D02*
X105298214Y-110024342D01*
X105298214Y-110024342D02*
X105250595Y-110119580D01*
X105250595Y-110119580D02*
X105202976Y-110167200D01*
X105202976Y-110167200D02*
X105107738Y-110214819D01*
X105107738Y-110214819D02*
X104869643Y-110214819D01*
X104869643Y-110214819D02*
X104774405Y-110167200D01*
X104774405Y-110167200D02*
X104726786Y-110119580D01*
X93164819Y-127184166D02*
X92688628Y-127517499D01*
X93164819Y-127755594D02*
X92164819Y-127755594D01*
X92164819Y-127755594D02*
X92164819Y-127374642D01*
X92164819Y-127374642D02*
X92212438Y-127279404D01*
X92212438Y-127279404D02*
X92260057Y-127231785D01*
X92260057Y-127231785D02*
X92355295Y-127184166D01*
X92355295Y-127184166D02*
X92498152Y-127184166D01*
X92498152Y-127184166D02*
X92593390Y-127231785D01*
X92593390Y-127231785D02*
X92641009Y-127279404D01*
X92641009Y-127279404D02*
X92688628Y-127374642D01*
X92688628Y-127374642D02*
X92688628Y-127755594D01*
X92164819Y-126850832D02*
X92164819Y-126231785D01*
X92164819Y-126231785D02*
X92545771Y-126565118D01*
X92545771Y-126565118D02*
X92545771Y-126422261D01*
X92545771Y-126422261D02*
X92593390Y-126327023D01*
X92593390Y-126327023D02*
X92641009Y-126279404D01*
X92641009Y-126279404D02*
X92736247Y-126231785D01*
X92736247Y-126231785D02*
X92974342Y-126231785D01*
X92974342Y-126231785D02*
X93069580Y-126279404D01*
X93069580Y-126279404D02*
X93117200Y-126327023D01*
X93117200Y-126327023D02*
X93164819Y-126422261D01*
X93164819Y-126422261D02*
X93164819Y-126707975D01*
X93164819Y-126707975D02*
X93117200Y-126803213D01*
X93117200Y-126803213D02*
X93069580Y-126850832D01*
X86021905Y-138994819D02*
X86021905Y-137994819D01*
X86021905Y-137994819D02*
X86260000Y-137994819D01*
X86260000Y-137994819D02*
X86402857Y-138042438D01*
X86402857Y-138042438D02*
X86498095Y-138137676D01*
X86498095Y-138137676D02*
X86545714Y-138232914D01*
X86545714Y-138232914D02*
X86593333Y-138423390D01*
X86593333Y-138423390D02*
X86593333Y-138566247D01*
X86593333Y-138566247D02*
X86545714Y-138756723D01*
X86545714Y-138756723D02*
X86498095Y-138851961D01*
X86498095Y-138851961D02*
X86402857Y-138947200D01*
X86402857Y-138947200D02*
X86260000Y-138994819D01*
X86260000Y-138994819D02*
X86021905Y-138994819D01*
X87545714Y-138994819D02*
X86974286Y-138994819D01*
X87260000Y-138994819D02*
X87260000Y-137994819D01*
X87260000Y-137994819D02*
X87164762Y-138137676D01*
X87164762Y-138137676D02*
X87069524Y-138232914D01*
X87069524Y-138232914D02*
X86974286Y-138280533D01*
D12*
%TO.C,R5*%
X97849564Y-134855000D02*
X97395436Y-134855000D01*
X97849564Y-133385000D02*
X97395436Y-133385000D01*
%TO.C,5.1*%
X97849564Y-137805000D02*
X97395436Y-137805000D01*
X97849564Y-136335000D02*
X97395436Y-136335000D01*
%TO.C,C6*%
X104338748Y-114965000D02*
X104861252Y-114965000D01*
X104338748Y-113495000D02*
X104861252Y-113495000D01*
%TO.C,C4*%
X89978748Y-120035000D02*
X90501252Y-120035000D01*
X89978748Y-118565000D02*
X90501252Y-118565000D01*
%TO.C,C7*%
X95621248Y-125775000D02*
X96143752Y-125775000D01*
X95621248Y-127245000D02*
X96143752Y-127245000D01*
%TO.C,SW1*%
X80880000Y-128310000D02*
X80880000Y-129810000D01*
X82130000Y-132310000D02*
X86630000Y-132310000D01*
X86630000Y-125810000D02*
X82130000Y-125810000D01*
X87880000Y-129810000D02*
X87880000Y-128310000D01*
%TO.C,D2*%
X107382500Y-108260000D02*
X110067500Y-108260000D01*
X110067500Y-106340000D02*
X107382500Y-106340000D01*
X110067500Y-108260000D02*
X110067500Y-106340000D01*
%TO.C,USBC1*%
X101710000Y-136270000D02*
X101710000Y-137170000D01*
X101710000Y-139870000D02*
X101710000Y-142600000D01*
X101710000Y-142600000D02*
X110900000Y-142600000D01*
X101830000Y-133190000D02*
X110780000Y-133190000D01*
X110900000Y-136270000D02*
X110900000Y-137170000D01*
X110900000Y-139870000D02*
X110900000Y-142600000D01*
%TO.C,J3*%
X113135000Y-109560000D02*
X113135000Y-110610000D01*
X113135000Y-113730000D02*
X112145000Y-113730000D01*
X113135000Y-114780000D02*
X113135000Y-113730000D01*
X115635000Y-109560000D02*
X113135000Y-109560000D01*
X115635000Y-114780000D02*
X113135000Y-114780000D01*
X117605000Y-113610000D02*
X117605000Y-110730000D01*
%TO.C,C1*%
X100101248Y-119985000D02*
X100623752Y-119985000D01*
X100101248Y-121455000D02*
X100623752Y-121455000D01*
%TO.C,PWRregu1*%
X99080000Y-125110000D02*
X99080000Y-128870000D01*
X99080000Y-128870000D02*
X100340000Y-128870000D01*
X105900000Y-125110000D02*
X105900000Y-128870000D01*
X105900000Y-128870000D02*
X104640000Y-128870000D01*
X106130000Y-124070000D02*
X105800000Y-123830000D01*
X106130000Y-123590000D01*
X106130000Y-124070000D01*
G36*
X106130000Y-124070000D02*
G01*
X105800000Y-123830000D01*
X106130000Y-123590000D01*
X106130000Y-124070000D01*
G37*
%TO.C,R2*%
X102970436Y-106565000D02*
X103424564Y-106565000D01*
X102970436Y-108035000D02*
X103424564Y-108035000D01*
%TO.C,U3*%
X93210000Y-111397500D02*
X93685000Y-111397500D01*
X93210000Y-111872500D02*
X93210000Y-111397500D01*
X93210000Y-118142500D02*
X93210000Y-118317500D01*
X93685000Y-118617500D02*
X93450000Y-118617500D01*
X100430000Y-111397500D02*
X99955000Y-111397500D01*
X100430000Y-111872500D02*
X100430000Y-111397500D01*
X100430000Y-118142500D02*
X100430000Y-118617500D01*
X100430000Y-118617500D02*
X99955000Y-118617500D01*
X93210000Y-118617500D02*
X92880000Y-118857500D01*
X92880000Y-118377500D01*
X93210000Y-118617500D01*
G36*
X93210000Y-118617500D02*
G01*
X92880000Y-118857500D01*
X92880000Y-118377500D01*
X93210000Y-118617500D01*
G37*
%TO.C,R1*%
X81547936Y-136155000D02*
X82002064Y-136155000D01*
X81547936Y-137625000D02*
X82002064Y-137625000D01*
%TO.C,ST-Link1*%
X79590000Y-106010000D02*
X80920000Y-106010000D01*
X79590000Y-107340000D02*
X79590000Y-106010000D01*
X79590000Y-108610000D02*
X79590000Y-116290000D01*
X79590000Y-108610000D02*
X82250000Y-108610000D01*
X79590000Y-116290000D02*
X82250000Y-116290000D01*
X82250000Y-108610000D02*
X82250000Y-116290000D01*
%TO.C,C5*%
X104251248Y-112175000D02*
X104773752Y-112175000D01*
X104251248Y-110705000D02*
X104773752Y-110705000D01*
%TO.C,J2*%
X113135000Y-122990000D02*
X113135000Y-124040000D01*
X113135000Y-127160000D02*
X112145000Y-127160000D01*
X113135000Y-128210000D02*
X113135000Y-127160000D01*
X115635000Y-122990000D02*
X113135000Y-122990000D01*
X115635000Y-128210000D02*
X113135000Y-128210000D01*
X117605000Y-127040000D02*
X117605000Y-124160000D01*
%TO.C,C2*%
X87666248Y-111205000D02*
X88188752Y-111205000D01*
X87666248Y-112675000D02*
X88188752Y-112675000D01*
%TO.C,C8*%
X108011248Y-118795000D02*
X108533752Y-118795000D01*
X108011248Y-120265000D02*
X108533752Y-120265000D01*
%TO.C,C3*%
X89968748Y-123545000D02*
X90491252Y-123545000D01*
X89968748Y-122075000D02*
X90491252Y-122075000D01*
%TO.C,R3*%
X89975000Y-127500436D02*
X89975000Y-127954564D01*
X91445000Y-127500436D02*
X91445000Y-127954564D01*
%TO.C,D1*%
X85760000Y-137850000D02*
X88445000Y-137850000D01*
X88445000Y-135930000D02*
X85760000Y-135930000D01*
X88445000Y-137850000D02*
X88445000Y-135930000D01*
%TD*%
M02*
