%TF.GenerationSoftware,KiCad,Pcbnew,8.0.5*%
%TF.CreationDate,2025-10-28T17:55:05-05:00*%
%TF.ProjectId,Microcontroller,4d696372-6f63-46f6-9e74-726f6c6c6572,rev?*%
%TF.SameCoordinates,Original*%
%TF.FileFunction,Copper,L2,Bot*%
%TF.FilePolarity,Positive*%
%FSLAX46Y46*%
G04 Gerber Fmt 4.6, Leading zero omitted, Abs format (unit mm)*
G04 Created by KiCad (PCBNEW 8.0.5) date 2025-10-28 17:55:05*
%MOMM*%
%LPD*%
G01*
G04 APERTURE LIST*
%TA.AperFunction,ComponentPad*%
%ADD10C,2.000000*%
%TD*%
%TA.AperFunction,ComponentPad*%
%ADD11C,0.700000*%
%TD*%
%TA.AperFunction,ComponentPad*%
%ADD12O,0.900000X2.400000*%
%TD*%
%TA.AperFunction,ComponentPad*%
%ADD13O,0.900000X1.700000*%
%TD*%
%TA.AperFunction,ComponentPad*%
%ADD14R,1.700000X1.700000*%
%TD*%
%TA.AperFunction,ComponentPad*%
%ADD15O,1.700000X1.700000*%
%TD*%
%TA.AperFunction,ViaPad*%
%ADD16C,0.600000*%
%TD*%
%TA.AperFunction,Conductor*%
%ADD17C,0.200000*%
%TD*%
G04 APERTURE END LIST*
D10*
%TO.P,SW1,1,A*%
%TO.N,NRST*%
X81130000Y-126810000D03*
X87630000Y-126810000D03*
%TO.P,SW1,2,B*%
%TO.N,GND*%
X81130000Y-131310000D03*
X87630000Y-131310000D03*
%TD*%
D11*
%TO.P,USBC1,A1,GND*%
%TO.N,GND*%
X103330000Y-133870000D03*
%TO.P,USBC1,A4,VBUS*%
%TO.N,+5V*%
X104180000Y-133870000D03*
%TO.P,USBC1,A5,CC1*%
%TO.N,Net-(USBC1-CC1)*%
X105030000Y-133870000D03*
%TO.P,USBC1,A6,D+*%
%TO.N,unconnected-(USBC1-D+-PadA6)*%
X105880000Y-133870000D03*
%TO.P,USBC1,A7,D-*%
%TO.N,unconnected-(USBC1-D--PadA7)*%
X106730000Y-133870000D03*
%TO.P,USBC1,A8*%
%TO.N,N/C*%
X107580000Y-133870000D03*
%TO.P,USBC1,A9,VBUS*%
%TO.N,+5V*%
X108430000Y-133870000D03*
%TO.P,USBC1,A12,GND*%
%TO.N,GND*%
X109280000Y-133870000D03*
%TO.P,USBC1,B1,GND*%
X109280000Y-135220000D03*
%TO.P,USBC1,B4,VBUS*%
%TO.N,+5V*%
X108430000Y-135220000D03*
%TO.P,USBC1,B5,CC2*%
%TO.N,Net-(USBC1-CC2)*%
X107580000Y-135220000D03*
%TO.P,USBC1,B6,D+*%
%TO.N,unconnected-(USBC1-D+-PadB6)*%
X106730000Y-135220000D03*
%TO.P,USBC1,B7,D-*%
%TO.N,unconnected-(USBC1-D--PadB7)*%
X105880000Y-135220000D03*
%TO.P,USBC1,B8*%
%TO.N,N/C*%
X105030000Y-135220000D03*
%TO.P,USBC1,B9,VBUS*%
%TO.N,+5V*%
X104180000Y-135220000D03*
%TO.P,USBC1,B12,GND*%
%TO.N,GND*%
X103330000Y-135220000D03*
D12*
%TO.P,USBC1,S1,SHIELD*%
X101980000Y-134850000D03*
D13*
X101980000Y-138230000D03*
D12*
X110630000Y-134850000D03*
D13*
X110630000Y-138230000D03*
%TD*%
D14*
%TO.P,ST-Link1,1,Pin_1*%
%TO.N,GND*%
X80920000Y-107340000D03*
D15*
%TO.P,ST-Link1,2,Pin_2*%
%TO.N,DIO*%
X80920000Y-109880000D03*
%TO.P,ST-Link1,3,Pin_3*%
%TO.N,CLK*%
X80920000Y-112420000D03*
%TO.P,ST-Link1,4,Pin_4*%
%TO.N,3V3*%
X80920000Y-114960000D03*
%TD*%
D16*
%TO.N,Net-(USBC1-CC1)*%
X98617574Y-137091852D03*
X105900000Y-132510000D03*
%TO.N,GND*%
X96710000Y-134120000D03*
X96710000Y-137070000D03*
%TO.N,3V3*%
X101100000Y-111480000D03*
X89250000Y-119310000D03*
%TO.N,GND*%
X91240000Y-119360000D03*
X105720000Y-114110000D03*
X112920000Y-126600000D03*
X96820000Y-115007500D03*
X92080000Y-116970000D03*
X93520000Y-110660000D03*
X109310000Y-119530000D03*
X105610000Y-111370000D03*
X112920000Y-113170000D03*
X88965000Y-111940000D03*
X97590000Y-119510000D03*
X101400000Y-120720000D03*
X91267500Y-122810000D03*
X102490000Y-130110000D03*
X96962500Y-126470000D03*
X102490000Y-123810000D03*
X109320000Y-107300000D03*
X87830000Y-136980000D03*
X101380000Y-112810000D03*
X92360000Y-115750000D03*
%TO.N,TIM4_CH1*%
X111220000Y-117680000D03*
X92090000Y-114510000D03*
%TO.N,3V3*%
X85010000Y-111940000D03*
%TD*%
D17*
%TO.N,Net-(USBC1-CC1)*%
X98610000Y-136409340D02*
X98610000Y-137210000D01*
X102509340Y-132510000D02*
X98610000Y-136409340D01*
X105900000Y-132510000D02*
X102509340Y-132510000D01*
%TO.N,3V3*%
X85610000Y-112540000D02*
X85010000Y-111940000D01*
X100040000Y-112540000D02*
X85610000Y-112540000D01*
X101100000Y-111480000D02*
X100040000Y-112540000D01*
X89250000Y-119390000D02*
X89190000Y-119330000D01*
X89250000Y-119310000D02*
X89250000Y-119390000D01*
X89170000Y-119310000D02*
X89250000Y-119310000D01*
X85010000Y-115150000D02*
X89170000Y-119310000D01*
X85010000Y-111940000D02*
X85010000Y-115150000D01*
%TO.N,GND*%
X109280000Y-135220000D02*
X109280000Y-136880000D01*
X103330000Y-136880000D02*
X101980000Y-138230000D01*
X109280000Y-136880000D02*
X110630000Y-138230000D01*
X103330000Y-135220000D02*
X103330000Y-136880000D01*
%TO.N,TIM4_CH1*%
X92090000Y-114631471D02*
X92090000Y-114510000D01*
X95138529Y-117680000D02*
X92090000Y-114631471D01*
X111220000Y-117680000D02*
X95138529Y-117680000D01*
X92090000Y-114510000D02*
X95260000Y-117680000D01*
%TD*%
%TA.AperFunction,Conductor*%
%TO.N,GND*%
G36*
X117942539Y-105520185D02*
G01*
X117988294Y-105572989D01*
X117999500Y-105624500D01*
X117999500Y-139375500D01*
X117979815Y-139442539D01*
X117927011Y-139488294D01*
X117875500Y-139499500D01*
X111403366Y-139499500D01*
X111336327Y-139479815D01*
X111290572Y-139427011D01*
X111280628Y-139357853D01*
X111309653Y-139294297D01*
X111315685Y-139287819D01*
X111367910Y-139235593D01*
X111367913Y-139235589D01*
X111471875Y-139080000D01*
X111471880Y-139079991D01*
X111543491Y-138907105D01*
X111543493Y-138907097D01*
X111579999Y-138723571D01*
X111580000Y-138723569D01*
X111580000Y-138480000D01*
X110930000Y-138480000D01*
X110930000Y-137980000D01*
X111580000Y-137980000D01*
X111580000Y-137736430D01*
X111579999Y-137736428D01*
X111543493Y-137552902D01*
X111543491Y-137552894D01*
X111471880Y-137380008D01*
X111471875Y-137379999D01*
X111367913Y-137224410D01*
X111367910Y-137224406D01*
X111235593Y-137092089D01*
X111235589Y-137092086D01*
X111080000Y-136988124D01*
X111079991Y-136988119D01*
X110907103Y-136916507D01*
X110907100Y-136916506D01*
X110880000Y-136911115D01*
X110880000Y-137663011D01*
X110870060Y-137645795D01*
X110814205Y-137589940D01*
X110745796Y-137550444D01*
X110669496Y-137530000D01*
X110590504Y-137530000D01*
X110514204Y-137550444D01*
X110445795Y-137589940D01*
X110389940Y-137645795D01*
X110380000Y-137663011D01*
X110380000Y-136911116D01*
X110379999Y-136911115D01*
X110352899Y-136916506D01*
X110352896Y-136916507D01*
X110180008Y-136988119D01*
X110179999Y-136988124D01*
X110024410Y-137092086D01*
X110024406Y-137092089D01*
X109892089Y-137224406D01*
X109892086Y-137224410D01*
X109788124Y-137379999D01*
X109788119Y-137380008D01*
X109716508Y-137552894D01*
X109716506Y-137552902D01*
X109680000Y-137736428D01*
X109680000Y-137980000D01*
X110330000Y-137980000D01*
X110330000Y-138480000D01*
X109680000Y-138480000D01*
X109680000Y-138723571D01*
X109716506Y-138907097D01*
X109716508Y-138907105D01*
X109788119Y-139079991D01*
X109788124Y-139080000D01*
X109892086Y-139235589D01*
X109892089Y-139235593D01*
X109944315Y-139287819D01*
X109977800Y-139349142D01*
X109972816Y-139418834D01*
X109930944Y-139474767D01*
X109865480Y-139499184D01*
X109856634Y-139499500D01*
X102753366Y-139499500D01*
X102686327Y-139479815D01*
X102640572Y-139427011D01*
X102630628Y-139357853D01*
X102659653Y-139294297D01*
X102665685Y-139287819D01*
X102717910Y-139235593D01*
X102717913Y-139235589D01*
X102821875Y-139080000D01*
X102821880Y-139079991D01*
X102893491Y-138907105D01*
X102893493Y-138907097D01*
X102929999Y-138723571D01*
X102930000Y-138723569D01*
X102930000Y-138480000D01*
X102280000Y-138480000D01*
X102280000Y-137980000D01*
X102930000Y-137980000D01*
X102930000Y-137736430D01*
X102929999Y-137736428D01*
X102893493Y-137552902D01*
X102893491Y-137552894D01*
X102821880Y-137380008D01*
X102821875Y-137379999D01*
X102717913Y-137224410D01*
X102717910Y-137224406D01*
X102585593Y-137092089D01*
X102585589Y-137092086D01*
X102430000Y-136988124D01*
X102429991Y-136988119D01*
X102257103Y-136916507D01*
X102257100Y-136916506D01*
X102230000Y-136911115D01*
X102230000Y-137663011D01*
X102220060Y-137645795D01*
X102164205Y-137589940D01*
X102095796Y-137550444D01*
X102019496Y-137530000D01*
X101940504Y-137530000D01*
X101864204Y-137550444D01*
X101795795Y-137589940D01*
X101739940Y-137645795D01*
X101730000Y-137663011D01*
X101730000Y-136911116D01*
X101729999Y-136911115D01*
X101702899Y-136916506D01*
X101702896Y-136916507D01*
X101530008Y-136988119D01*
X101529999Y-136988124D01*
X101374410Y-137092086D01*
X101374406Y-137092089D01*
X101242089Y-137224406D01*
X101242086Y-137224410D01*
X101138124Y-137379999D01*
X101138119Y-137380008D01*
X101066508Y-137552894D01*
X101066506Y-137552902D01*
X101030000Y-137736428D01*
X101030000Y-137980000D01*
X101680000Y-137980000D01*
X101680000Y-138480000D01*
X101030000Y-138480000D01*
X101030000Y-138723571D01*
X101066506Y-138907097D01*
X101066508Y-138907105D01*
X101138119Y-139079991D01*
X101138124Y-139080000D01*
X101242086Y-139235589D01*
X101242089Y-139235593D01*
X101294315Y-139287819D01*
X101327800Y-139349142D01*
X101322816Y-139418834D01*
X101280944Y-139474767D01*
X101215480Y-139499184D01*
X101206634Y-139499500D01*
X79124500Y-139499500D01*
X79057461Y-139479815D01*
X79011706Y-139427011D01*
X79000500Y-139375500D01*
X79000500Y-137091848D01*
X97812009Y-137091848D01*
X97812009Y-137091855D01*
X97832204Y-137271101D01*
X97832205Y-137271106D01*
X97891785Y-137441375D01*
X97947472Y-137530000D01*
X97987758Y-137594114D01*
X98115312Y-137721668D01*
X98268052Y-137817641D01*
X98438319Y-137877220D01*
X98438324Y-137877221D01*
X98617570Y-137897417D01*
X98617574Y-137897417D01*
X98617578Y-137897417D01*
X98796823Y-137877221D01*
X98796826Y-137877220D01*
X98796829Y-137877220D01*
X98967096Y-137817641D01*
X99119836Y-137721668D01*
X99247390Y-137594114D01*
X99343363Y-137441374D01*
X99402942Y-137271107D01*
X99402943Y-137271101D01*
X99423139Y-137091855D01*
X99423139Y-137091848D01*
X99402943Y-136912602D01*
X99402942Y-136912597D01*
X99343362Y-136742328D01*
X99312192Y-136692721D01*
X99293192Y-136625484D01*
X99313560Y-136558649D01*
X99329500Y-136539073D01*
X100818320Y-135050253D01*
X100879642Y-135016770D01*
X100949334Y-135021754D01*
X101005267Y-135063626D01*
X101029684Y-135129090D01*
X101030000Y-135137936D01*
X101030000Y-135693571D01*
X101066506Y-135877097D01*
X101066508Y-135877105D01*
X101138119Y-136049991D01*
X101138124Y-136050000D01*
X101242086Y-136205589D01*
X101242089Y-136205593D01*
X101374406Y-136337910D01*
X101374410Y-136337913D01*
X101529999Y-136441875D01*
X101530012Y-136441882D01*
X101702889Y-136513489D01*
X101702896Y-136513491D01*
X101730000Y-136518882D01*
X101730000Y-135766988D01*
X101739940Y-135784205D01*
X101795795Y-135840060D01*
X101864204Y-135879556D01*
X101940504Y-135900000D01*
X102019496Y-135900000D01*
X102095796Y-135879556D01*
X102164205Y-135840060D01*
X102220060Y-135784205D01*
X102230000Y-135766988D01*
X102230000Y-136518881D01*
X102257103Y-136513491D01*
X102257110Y-136513489D01*
X102429987Y-136441882D01*
X102430000Y-136441875D01*
X102585589Y-136337913D01*
X102585593Y-136337910D01*
X102717910Y-136205593D01*
X102717913Y-136205589D01*
X102825264Y-136044929D01*
X102826269Y-136045600D01*
X102870741Y-136000311D01*
X102938875Y-135984839D01*
X102981593Y-135995319D01*
X103065889Y-136032851D01*
X103240661Y-136070000D01*
X103419339Y-136070000D01*
X103594110Y-136032851D01*
X103594111Y-136032851D01*
X103703946Y-135983948D01*
X103773196Y-135974662D01*
X103804818Y-135983947D01*
X103841573Y-136000311D01*
X103915733Y-136033329D01*
X104090609Y-136070500D01*
X104090610Y-136070500D01*
X104269389Y-136070500D01*
X104269391Y-136070500D01*
X104444267Y-136033329D01*
X104554565Y-135984220D01*
X104623814Y-135974937D01*
X104655432Y-135984219D01*
X104765733Y-136033329D01*
X104940609Y-136070500D01*
X104940610Y-136070500D01*
X105119389Y-136070500D01*
X105119391Y-136070500D01*
X105294267Y-136033329D01*
X105404565Y-135984220D01*
X105473814Y-135974937D01*
X105505432Y-135984219D01*
X105615733Y-136033329D01*
X105790609Y-136070500D01*
X105790610Y-136070500D01*
X105969389Y-136070500D01*
X105969391Y-136070500D01*
X106144267Y-136033329D01*
X106254565Y-135984220D01*
X106323814Y-135974937D01*
X106355432Y-135984219D01*
X106465733Y-136033329D01*
X106640609Y-136070500D01*
X106640610Y-136070500D01*
X106819389Y-136070500D01*
X106819391Y-136070500D01*
X106994267Y-136033329D01*
X107104565Y-135984220D01*
X107173814Y-135974937D01*
X107205432Y-135984219D01*
X107315733Y-136033329D01*
X107490609Y-136070500D01*
X107490610Y-136070500D01*
X107669389Y-136070500D01*
X107669391Y-136070500D01*
X107844267Y-136033329D01*
X107954565Y-135984220D01*
X108023814Y-135974937D01*
X108055432Y-135984219D01*
X108165733Y-136033329D01*
X108340609Y-136070500D01*
X108340610Y-136070500D01*
X108519389Y-136070500D01*
X108519391Y-136070500D01*
X108694267Y-136033329D01*
X108805179Y-135983947D01*
X108874428Y-135974663D01*
X108906050Y-135983947D01*
X109015891Y-136032851D01*
X109190661Y-136070000D01*
X109369339Y-136070000D01*
X109544110Y-136032851D01*
X109628406Y-135995319D01*
X109697656Y-135986033D01*
X109760933Y-136015661D01*
X109784307Y-136045217D01*
X109784737Y-136044930D01*
X109892083Y-136205585D01*
X109892089Y-136205593D01*
X110024406Y-136337910D01*
X110024410Y-136337913D01*
X110179999Y-136441875D01*
X110180012Y-136441882D01*
X110352889Y-136513489D01*
X110352896Y-136513491D01*
X110380000Y-136518882D01*
X110380000Y-135766988D01*
X110389940Y-135784205D01*
X110445795Y-135840060D01*
X110514204Y-135879556D01*
X110590504Y-135900000D01*
X110669496Y-135900000D01*
X110745796Y-135879556D01*
X110814205Y-135840060D01*
X110870060Y-135784205D01*
X110880000Y-135766988D01*
X110880000Y-136518881D01*
X110907103Y-136513491D01*
X110907110Y-136513489D01*
X111079987Y-136441882D01*
X111080000Y-136441875D01*
X111235589Y-136337913D01*
X111235593Y-136337910D01*
X111367910Y-136205593D01*
X111367913Y-136205589D01*
X111471875Y-136050000D01*
X111471880Y-136049991D01*
X111543491Y-135877105D01*
X111543493Y-135877097D01*
X111579999Y-135693571D01*
X111580000Y-135693569D01*
X111580000Y-135100000D01*
X110930000Y-135100000D01*
X110930000Y-134600000D01*
X111580000Y-134600000D01*
X111580000Y-134006430D01*
X111579999Y-134006428D01*
X111543493Y-133822902D01*
X111543491Y-133822894D01*
X111471880Y-133650008D01*
X111471875Y-133649999D01*
X111367913Y-133494410D01*
X111367910Y-133494406D01*
X111235593Y-133362089D01*
X111235589Y-133362086D01*
X111080000Y-133258124D01*
X111079991Y-133258119D01*
X110907103Y-133186507D01*
X110907100Y-133186506D01*
X110880000Y-133181115D01*
X110880000Y-133933011D01*
X110870060Y-133915795D01*
X110814205Y-133859940D01*
X110745796Y-133820444D01*
X110669496Y-133800000D01*
X110590504Y-133800000D01*
X110514204Y-133820444D01*
X110445795Y-133859940D01*
X110389940Y-133915795D01*
X110380000Y-133933011D01*
X110380000Y-133181116D01*
X110379999Y-133181115D01*
X110352899Y-133186506D01*
X110352896Y-133186507D01*
X110180003Y-133258121D01*
X110030746Y-133357851D01*
X110028651Y-133379126D01*
X110034027Y-133388972D01*
X110029043Y-133458664D01*
X110000542Y-133503011D01*
X109491873Y-134011679D01*
X109430550Y-134045164D01*
X109387222Y-134042065D01*
X109393291Y-134039552D01*
X109449552Y-133983291D01*
X109480000Y-133909782D01*
X109480000Y-133830218D01*
X109449552Y-133756709D01*
X109393291Y-133700448D01*
X109319782Y-133670000D01*
X109259285Y-133670000D01*
X109250188Y-133642006D01*
X109248192Y-133572167D01*
X109280438Y-133516007D01*
X109679165Y-133117280D01*
X109679165Y-133117279D01*
X109544115Y-133057150D01*
X109544110Y-133057148D01*
X109369339Y-133020000D01*
X109190661Y-133020000D01*
X109015890Y-133057148D01*
X109015887Y-133057149D01*
X108906048Y-133106052D01*
X108836798Y-133115336D01*
X108805179Y-133106052D01*
X108694265Y-133056670D01*
X108566594Y-133029533D01*
X108519391Y-133019500D01*
X108340609Y-133019500D01*
X108303439Y-133027400D01*
X108165734Y-133056670D01*
X108165729Y-133056672D01*
X108055434Y-133105778D01*
X107986184Y-133115062D01*
X107954566Y-133105778D01*
X107844270Y-133056672D01*
X107844265Y-133056670D01*
X107716594Y-133029533D01*
X107669391Y-133019500D01*
X107490609Y-133019500D01*
X107453439Y-133027400D01*
X107315734Y-133056670D01*
X107315729Y-133056672D01*
X107205434Y-133105778D01*
X107136184Y-133115062D01*
X107104566Y-133105778D01*
X106994270Y-133056672D01*
X106994265Y-133056670D01*
X106866594Y-133029533D01*
X106819391Y-133019500D01*
X106744573Y-133019500D01*
X106677534Y-132999815D01*
X106631779Y-132947011D01*
X106621835Y-132877853D01*
X106627531Y-132854546D01*
X106685367Y-132689257D01*
X106685368Y-132689255D01*
X106685468Y-132688369D01*
X106705565Y-132510003D01*
X106705565Y-132509996D01*
X106685369Y-132330750D01*
X106685368Y-132330745D01*
X106625789Y-132160478D01*
X106529816Y-132007738D01*
X106402262Y-131880184D01*
X106249523Y-131784211D01*
X106079254Y-131724631D01*
X106079249Y-131724630D01*
X105900004Y-131704435D01*
X105899996Y-131704435D01*
X105720750Y-131724630D01*
X105720745Y-131724631D01*
X105550476Y-131784211D01*
X105397736Y-131880185D01*
X105394903Y-131882445D01*
X105392724Y-131883334D01*
X105391842Y-131883889D01*
X105391744Y-131883734D01*
X105330217Y-131908855D01*
X105317588Y-131909500D01*
X102596010Y-131909500D01*
X102595994Y-131909499D01*
X102588398Y-131909499D01*
X102430283Y-131909499D01*
X102353919Y-131929961D01*
X102277554Y-131950423D01*
X102277549Y-131950426D01*
X102140630Y-132029475D01*
X102140622Y-132029481D01*
X98129481Y-136040622D01*
X98129479Y-136040625D01*
X98079361Y-136127434D01*
X98079359Y-136127436D01*
X98050425Y-136177549D01*
X98050424Y-136177550D01*
X98050423Y-136177555D01*
X98009499Y-136330283D01*
X98009499Y-136330285D01*
X98009499Y-136498386D01*
X98009500Y-136498399D01*
X98009500Y-136519264D01*
X97990494Y-136585236D01*
X97891785Y-136742328D01*
X97832205Y-136912597D01*
X97832204Y-136912602D01*
X97812009Y-137091848D01*
X79000500Y-137091848D01*
X79000500Y-131309994D01*
X79624859Y-131309994D01*
X79624859Y-131310005D01*
X79645385Y-131557729D01*
X79645387Y-131557738D01*
X79706412Y-131798717D01*
X79806266Y-132026364D01*
X79906564Y-132179882D01*
X80606212Y-131480234D01*
X80617482Y-131522292D01*
X80689890Y-131647708D01*
X80792292Y-131750110D01*
X80917708Y-131822518D01*
X80959765Y-131833787D01*
X80259942Y-132533609D01*
X80306768Y-132570055D01*
X80306770Y-132570056D01*
X80525385Y-132688364D01*
X80525396Y-132688369D01*
X80760506Y-132769083D01*
X81005707Y-132810000D01*
X81254293Y-132810000D01*
X81499493Y-132769083D01*
X81734603Y-132688369D01*
X81734614Y-132688364D01*
X81953228Y-132570057D01*
X81953231Y-132570055D01*
X82000056Y-132533609D01*
X81300234Y-131833787D01*
X81342292Y-131822518D01*
X81467708Y-131750110D01*
X81570110Y-131647708D01*
X81642518Y-131522292D01*
X81653787Y-131480235D01*
X82353434Y-132179882D01*
X82453731Y-132026369D01*
X82553587Y-131798717D01*
X82614612Y-131557738D01*
X82614614Y-131557729D01*
X82635141Y-131310005D01*
X82635141Y-131309994D01*
X86124859Y-131309994D01*
X86124859Y-131310005D01*
X86145385Y-131557729D01*
X86145387Y-131557738D01*
X86206412Y-131798717D01*
X86306266Y-132026364D01*
X86406564Y-132179882D01*
X87106212Y-131480234D01*
X87117482Y-131522292D01*
X87189890Y-131647708D01*
X87292292Y-131750110D01*
X87417708Y-131822518D01*
X87459765Y-131833787D01*
X86759942Y-132533609D01*
X86806768Y-132570055D01*
X86806770Y-132570056D01*
X87025385Y-132688364D01*
X87025396Y-132688369D01*
X87260506Y-132769083D01*
X87505707Y-132810000D01*
X87754293Y-132810000D01*
X87999493Y-132769083D01*
X88234603Y-132688369D01*
X88234614Y-132688364D01*
X88453228Y-132570057D01*
X88453231Y-132570055D01*
X88500056Y-132533609D01*
X87800234Y-131833787D01*
X87842292Y-131822518D01*
X87967708Y-131750110D01*
X88070110Y-131647708D01*
X88142518Y-131522292D01*
X88153787Y-131480235D01*
X88853434Y-132179882D01*
X88953731Y-132026369D01*
X89053587Y-131798717D01*
X89114612Y-131557738D01*
X89114614Y-131557729D01*
X89135141Y-131310005D01*
X89135141Y-131309994D01*
X89114614Y-131062270D01*
X89114612Y-131062261D01*
X89053587Y-130821282D01*
X88953731Y-130593630D01*
X88853434Y-130440116D01*
X88153787Y-131139764D01*
X88142518Y-131097708D01*
X88070110Y-130972292D01*
X87967708Y-130869890D01*
X87842292Y-130797482D01*
X87800235Y-130786212D01*
X88500057Y-130086390D01*
X88500056Y-130086389D01*
X88453229Y-130049943D01*
X88234614Y-129931635D01*
X88234603Y-129931630D01*
X87999493Y-129850916D01*
X87754293Y-129810000D01*
X87505707Y-129810000D01*
X87260506Y-129850916D01*
X87025396Y-129931630D01*
X87025390Y-129931632D01*
X86806761Y-130049949D01*
X86759942Y-130086388D01*
X86759942Y-130086390D01*
X87459765Y-130786212D01*
X87417708Y-130797482D01*
X87292292Y-130869890D01*
X87189890Y-130972292D01*
X87117482Y-131097708D01*
X87106212Y-131139764D01*
X86406564Y-130440116D01*
X86306267Y-130593632D01*
X86206412Y-130821282D01*
X86145387Y-131062261D01*
X86145385Y-131062270D01*
X86124859Y-131309994D01*
X82635141Y-131309994D01*
X82614614Y-131062270D01*
X82614612Y-131062261D01*
X82553587Y-130821282D01*
X82453731Y-130593630D01*
X82353434Y-130440116D01*
X81653787Y-131139764D01*
X81642518Y-131097708D01*
X81570110Y-130972292D01*
X81467708Y-130869890D01*
X81342292Y-130797482D01*
X81300235Y-130786212D01*
X82000057Y-130086390D01*
X82000056Y-130086389D01*
X81953229Y-130049943D01*
X81734614Y-129931635D01*
X81734603Y-129931630D01*
X81499493Y-129850916D01*
X81254293Y-129810000D01*
X81005707Y-129810000D01*
X80760506Y-129850916D01*
X80525396Y-129931630D01*
X80525390Y-129931632D01*
X80306761Y-130049949D01*
X80259942Y-130086388D01*
X80259942Y-130086390D01*
X80959765Y-130786212D01*
X80917708Y-130797482D01*
X80792292Y-130869890D01*
X80689890Y-130972292D01*
X80617482Y-131097708D01*
X80606212Y-131139764D01*
X79906564Y-130440116D01*
X79806267Y-130593632D01*
X79706412Y-130821282D01*
X79645387Y-131062261D01*
X79645385Y-131062270D01*
X79624859Y-131309994D01*
X79000500Y-131309994D01*
X79000500Y-126809994D01*
X79624357Y-126809994D01*
X79624357Y-126810005D01*
X79644890Y-127057812D01*
X79644892Y-127057824D01*
X79705936Y-127298881D01*
X79805826Y-127526606D01*
X79941833Y-127734782D01*
X79941836Y-127734785D01*
X80110256Y-127917738D01*
X80306491Y-128070474D01*
X80525190Y-128188828D01*
X80760386Y-128269571D01*
X81005665Y-128310500D01*
X81254335Y-128310500D01*
X81499614Y-128269571D01*
X81734810Y-128188828D01*
X81953509Y-128070474D01*
X82149744Y-127917738D01*
X82318164Y-127734785D01*
X82454173Y-127526607D01*
X82554063Y-127298881D01*
X82615108Y-127057821D01*
X82635643Y-126810000D01*
X82635643Y-126809994D01*
X86124357Y-126809994D01*
X86124357Y-126810005D01*
X86144890Y-127057812D01*
X86144892Y-127057824D01*
X86205936Y-127298881D01*
X86305826Y-127526606D01*
X86441833Y-127734782D01*
X86441836Y-127734785D01*
X86610256Y-127917738D01*
X86806491Y-128070474D01*
X87025190Y-128188828D01*
X87260386Y-128269571D01*
X87505665Y-128310500D01*
X87754335Y-128310500D01*
X87999614Y-128269571D01*
X88234810Y-128188828D01*
X88453509Y-128070474D01*
X88649744Y-127917738D01*
X88818164Y-127734785D01*
X88954173Y-127526607D01*
X89054063Y-127298881D01*
X89115108Y-127057821D01*
X89135643Y-126810000D01*
X89115108Y-126562179D01*
X89054063Y-126321119D01*
X88954173Y-126093393D01*
X88818166Y-125885217D01*
X88796557Y-125861744D01*
X88649744Y-125702262D01*
X88453509Y-125549526D01*
X88453507Y-125549525D01*
X88453506Y-125549524D01*
X88234811Y-125431172D01*
X88234802Y-125431169D01*
X87999616Y-125350429D01*
X87754335Y-125309500D01*
X87505665Y-125309500D01*
X87260383Y-125350429D01*
X87025197Y-125431169D01*
X87025188Y-125431172D01*
X86806493Y-125549524D01*
X86610257Y-125702261D01*
X86441833Y-125885217D01*
X86305826Y-126093393D01*
X86205936Y-126321118D01*
X86144892Y-126562175D01*
X86144890Y-126562187D01*
X86124357Y-126809994D01*
X82635643Y-126809994D01*
X82615108Y-126562179D01*
X82554063Y-126321119D01*
X82454173Y-126093393D01*
X82318166Y-125885217D01*
X82296557Y-125861744D01*
X82149744Y-125702262D01*
X81953509Y-125549526D01*
X81953507Y-125549525D01*
X81953506Y-125549524D01*
X81734811Y-125431172D01*
X81734802Y-125431169D01*
X81499616Y-125350429D01*
X81254335Y-125309500D01*
X81005665Y-125309500D01*
X80760383Y-125350429D01*
X80525197Y-125431169D01*
X80525188Y-125431172D01*
X80306493Y-125549524D01*
X80110257Y-125702261D01*
X79941833Y-125885217D01*
X79805826Y-126093393D01*
X79705936Y-126321118D01*
X79644892Y-126562175D01*
X79644890Y-126562187D01*
X79624357Y-126809994D01*
X79000500Y-126809994D01*
X79000500Y-109879999D01*
X79564341Y-109879999D01*
X79564341Y-109880000D01*
X79584936Y-110115403D01*
X79584938Y-110115413D01*
X79646094Y-110343655D01*
X79646096Y-110343659D01*
X79646097Y-110343663D01*
X79745965Y-110557830D01*
X79745967Y-110557834D01*
X79881501Y-110751395D01*
X79881506Y-110751402D01*
X80048597Y-110918493D01*
X80048603Y-110918498D01*
X80234158Y-111048425D01*
X80277783Y-111103002D01*
X80284977Y-111172500D01*
X80253454Y-111234855D01*
X80234158Y-111251575D01*
X80048597Y-111381505D01*
X79881505Y-111548597D01*
X79745965Y-111742169D01*
X79745964Y-111742171D01*
X79646098Y-111956335D01*
X79646094Y-111956344D01*
X79584938Y-112184586D01*
X79584936Y-112184596D01*
X79564341Y-112419999D01*
X79564341Y-112420000D01*
X79584936Y-112655403D01*
X79584938Y-112655413D01*
X79646094Y-112883655D01*
X79646096Y-112883659D01*
X79646097Y-112883663D01*
X79709914Y-113020519D01*
X79745965Y-113097830D01*
X79745967Y-113097834D01*
X79881501Y-113291395D01*
X79881506Y-113291402D01*
X80048597Y-113458493D01*
X80048603Y-113458498D01*
X80234158Y-113588425D01*
X80277783Y-113643002D01*
X80284977Y-113712500D01*
X80253454Y-113774855D01*
X80234158Y-113791575D01*
X80048597Y-113921505D01*
X79881505Y-114088597D01*
X79745965Y-114282169D01*
X79745964Y-114282171D01*
X79646098Y-114496335D01*
X79646094Y-114496344D01*
X79584938Y-114724586D01*
X79584936Y-114724596D01*
X79564341Y-114959999D01*
X79564341Y-114960000D01*
X79584936Y-115195403D01*
X79584938Y-115195413D01*
X79646094Y-115423655D01*
X79646097Y-115423663D01*
X79745965Y-115637830D01*
X79745967Y-115637834D01*
X79854281Y-115792521D01*
X79881505Y-115831401D01*
X80048599Y-115998495D01*
X80145384Y-116066265D01*
X80242165Y-116134032D01*
X80242167Y-116134033D01*
X80242170Y-116134035D01*
X80456337Y-116233903D01*
X80684592Y-116295063D01*
X80872918Y-116311539D01*
X80919999Y-116315659D01*
X80920000Y-116315659D01*
X80920001Y-116315659D01*
X80959234Y-116312226D01*
X81155408Y-116295063D01*
X81383663Y-116233903D01*
X81597830Y-116134035D01*
X81791401Y-115998495D01*
X81958495Y-115831401D01*
X82094035Y-115637830D01*
X82193903Y-115423663D01*
X82255063Y-115195408D01*
X82275659Y-114960000D01*
X82255063Y-114724592D01*
X82193903Y-114496337D01*
X82094035Y-114282171D01*
X81958495Y-114088599D01*
X81958494Y-114088597D01*
X81791402Y-113921506D01*
X81791396Y-113921501D01*
X81605842Y-113791575D01*
X81562217Y-113736998D01*
X81555023Y-113667500D01*
X81586546Y-113605145D01*
X81605842Y-113588425D01*
X81628026Y-113572891D01*
X81791401Y-113458495D01*
X81958495Y-113291401D01*
X82094035Y-113097830D01*
X82193903Y-112883663D01*
X82255063Y-112655408D01*
X82275659Y-112420000D01*
X82255063Y-112184592D01*
X82208626Y-112011285D01*
X82193905Y-111956344D01*
X82193904Y-111956343D01*
X82193903Y-111956337D01*
X82186283Y-111939996D01*
X84204435Y-111939996D01*
X84204435Y-111940003D01*
X84224630Y-112119249D01*
X84224631Y-112119254D01*
X84284211Y-112289523D01*
X84380185Y-112442263D01*
X84382445Y-112445097D01*
X84383334Y-112447275D01*
X84383889Y-112448158D01*
X84383734Y-112448255D01*
X84408855Y-112509783D01*
X84409500Y-112522412D01*
X84409500Y-115063330D01*
X84409499Y-115063348D01*
X84409499Y-115229054D01*
X84409498Y-115229054D01*
X84411303Y-115235789D01*
X84450423Y-115381785D01*
X84474597Y-115423655D01*
X84474600Y-115423659D01*
X84474601Y-115423663D01*
X84474602Y-115423663D01*
X84529479Y-115518714D01*
X84529481Y-115518717D01*
X84648349Y-115637585D01*
X84648355Y-115637590D01*
X88429457Y-119418692D01*
X88462942Y-119480015D01*
X88464029Y-119486613D01*
X88464631Y-119489252D01*
X88524210Y-119659521D01*
X88620184Y-119812262D01*
X88747738Y-119939816D01*
X88900478Y-120035789D01*
X89070745Y-120095368D01*
X89070750Y-120095369D01*
X89249996Y-120115565D01*
X89250000Y-120115565D01*
X89250004Y-120115565D01*
X89429249Y-120095369D01*
X89429252Y-120095368D01*
X89429255Y-120095368D01*
X89599522Y-120035789D01*
X89752262Y-119939816D01*
X89879816Y-119812262D01*
X89975789Y-119659522D01*
X90035368Y-119489255D01*
X90039862Y-119449373D01*
X90055565Y-119310003D01*
X90055565Y-119309996D01*
X90035369Y-119130750D01*
X90035368Y-119130745D01*
X89975788Y-118960476D01*
X89879815Y-118807737D01*
X89752262Y-118680184D01*
X89599523Y-118584211D01*
X89429254Y-118524631D01*
X89429250Y-118524630D01*
X89252172Y-118504679D01*
X89187758Y-118477613D01*
X89178375Y-118469140D01*
X85646819Y-114937584D01*
X85613334Y-114876261D01*
X85610500Y-114849903D01*
X85610500Y-114509996D01*
X91284435Y-114509996D01*
X91284435Y-114510003D01*
X91304630Y-114689249D01*
X91304631Y-114689254D01*
X91364211Y-114859523D01*
X91460184Y-115012262D01*
X91587738Y-115139816D01*
X91740478Y-115235789D01*
X91874674Y-115282746D01*
X91921400Y-115312106D01*
X94653668Y-118044374D01*
X94653678Y-118044385D01*
X94658008Y-118048715D01*
X94658009Y-118048716D01*
X94769813Y-118160520D01*
X94856624Y-118210639D01*
X94856626Y-118210641D01*
X94894680Y-118232611D01*
X94906744Y-118239577D01*
X95059472Y-118280500D01*
X95173331Y-118280500D01*
X95173347Y-118280501D01*
X95180943Y-118280501D01*
X95346653Y-118280501D01*
X95346669Y-118280500D01*
X110637588Y-118280500D01*
X110704627Y-118300185D01*
X110714903Y-118307555D01*
X110717736Y-118309814D01*
X110717738Y-118309816D01*
X110870478Y-118405789D01*
X111040745Y-118465368D01*
X111040750Y-118465369D01*
X111219996Y-118485565D01*
X111220000Y-118485565D01*
X111220004Y-118485565D01*
X111399249Y-118465369D01*
X111399252Y-118465368D01*
X111399255Y-118465368D01*
X111569522Y-118405789D01*
X111722262Y-118309816D01*
X111849816Y-118182262D01*
X111945789Y-118029522D01*
X112005368Y-117859255D01*
X112025565Y-117680000D01*
X112005368Y-117500745D01*
X111945789Y-117330478D01*
X111849816Y-117177738D01*
X111722262Y-117050184D01*
X111711117Y-117043181D01*
X111569523Y-116954211D01*
X111399254Y-116894631D01*
X111399249Y-116894630D01*
X111220004Y-116874435D01*
X111219996Y-116874435D01*
X111040750Y-116894630D01*
X111040745Y-116894631D01*
X110870476Y-116954211D01*
X110717736Y-117050185D01*
X110714903Y-117052445D01*
X110712724Y-117053334D01*
X110711842Y-117053889D01*
X110711744Y-117053734D01*
X110650217Y-117078855D01*
X110637588Y-117079500D01*
X95560097Y-117079500D01*
X95493058Y-117059815D01*
X95472416Y-117043181D01*
X92920700Y-114491465D01*
X92887215Y-114430142D01*
X92885163Y-114417686D01*
X92875368Y-114330745D01*
X92815789Y-114160478D01*
X92719816Y-114007738D01*
X92592262Y-113880184D01*
X92439523Y-113784211D01*
X92269254Y-113724631D01*
X92269249Y-113724630D01*
X92090004Y-113704435D01*
X92089996Y-113704435D01*
X91910750Y-113724630D01*
X91910745Y-113724631D01*
X91740476Y-113784211D01*
X91587737Y-113880184D01*
X91460184Y-114007737D01*
X91364211Y-114160476D01*
X91304631Y-114330745D01*
X91304630Y-114330750D01*
X91284435Y-114509996D01*
X85610500Y-114509996D01*
X85610500Y-113264500D01*
X85630185Y-113197461D01*
X85682989Y-113151706D01*
X85734500Y-113140500D01*
X99953331Y-113140500D01*
X99953347Y-113140501D01*
X99960943Y-113140501D01*
X100119054Y-113140501D01*
X100119057Y-113140501D01*
X100271785Y-113099577D01*
X100321904Y-113070639D01*
X100408716Y-113020520D01*
X100520520Y-112908716D01*
X100520520Y-112908714D01*
X100530728Y-112898507D01*
X100530730Y-112898504D01*
X101118535Y-112310698D01*
X101179856Y-112277215D01*
X101192311Y-112275163D01*
X101279255Y-112265368D01*
X101449522Y-112205789D01*
X101602262Y-112109816D01*
X101729816Y-111982262D01*
X101825789Y-111829522D01*
X101885368Y-111659255D01*
X101885369Y-111659249D01*
X101905565Y-111480003D01*
X101905565Y-111479996D01*
X101885369Y-111300750D01*
X101885368Y-111300745D01*
X101834241Y-111154632D01*
X101825789Y-111130478D01*
X101729816Y-110977738D01*
X101602262Y-110850184D01*
X101449523Y-110754211D01*
X101279254Y-110694631D01*
X101279249Y-110694630D01*
X101100004Y-110674435D01*
X101099996Y-110674435D01*
X100920750Y-110694630D01*
X100920745Y-110694631D01*
X100750476Y-110754211D01*
X100597737Y-110850184D01*
X100470184Y-110977737D01*
X100374210Y-111130478D01*
X100314630Y-111300750D01*
X100304837Y-111387668D01*
X100277770Y-111452082D01*
X100269298Y-111461465D01*
X99827584Y-111903181D01*
X99766261Y-111936666D01*
X99739903Y-111939500D01*
X85926321Y-111939500D01*
X85859282Y-111919815D01*
X85813527Y-111867011D01*
X85803101Y-111829386D01*
X85795368Y-111760745D01*
X85735789Y-111590478D01*
X85639816Y-111437738D01*
X85512262Y-111310184D01*
X85497240Y-111300745D01*
X85359523Y-111214211D01*
X85189254Y-111154631D01*
X85189249Y-111154630D01*
X85010004Y-111134435D01*
X85009996Y-111134435D01*
X84830750Y-111154630D01*
X84830745Y-111154631D01*
X84660476Y-111214211D01*
X84507737Y-111310184D01*
X84380184Y-111437737D01*
X84284211Y-111590476D01*
X84224631Y-111760745D01*
X84224630Y-111760750D01*
X84204435Y-111939996D01*
X82186283Y-111939996D01*
X82094035Y-111742171D01*
X82035977Y-111659254D01*
X81958494Y-111548597D01*
X81791402Y-111381506D01*
X81791396Y-111381501D01*
X81605842Y-111251575D01*
X81562217Y-111196998D01*
X81555023Y-111127500D01*
X81586546Y-111065145D01*
X81605842Y-111048425D01*
X81706793Y-110977738D01*
X81791401Y-110918495D01*
X81958495Y-110751401D01*
X82094035Y-110557830D01*
X82193903Y-110343663D01*
X82255063Y-110115408D01*
X82275659Y-109880000D01*
X82255063Y-109644592D01*
X82193903Y-109416337D01*
X82094035Y-109202171D01*
X81958495Y-109008599D01*
X81836179Y-108886283D01*
X81802696Y-108824963D01*
X81807680Y-108755271D01*
X81849551Y-108699337D01*
X81880529Y-108682422D01*
X82012086Y-108633354D01*
X82012093Y-108633350D01*
X82127187Y-108547190D01*
X82127190Y-108547187D01*
X82213350Y-108432093D01*
X82213354Y-108432086D01*
X82263596Y-108297379D01*
X82263598Y-108297372D01*
X82269999Y-108237844D01*
X82270000Y-108237827D01*
X82270000Y-107590000D01*
X81353012Y-107590000D01*
X81385925Y-107532993D01*
X81420000Y-107405826D01*
X81420000Y-107274174D01*
X81385925Y-107147007D01*
X81353012Y-107090000D01*
X82270000Y-107090000D01*
X82270000Y-106442172D01*
X82269999Y-106442155D01*
X82263598Y-106382627D01*
X82263596Y-106382620D01*
X82213354Y-106247913D01*
X82213350Y-106247906D01*
X82127190Y-106132812D01*
X82127187Y-106132809D01*
X82012093Y-106046649D01*
X82012086Y-106046645D01*
X81877379Y-105996403D01*
X81877372Y-105996401D01*
X81817844Y-105990000D01*
X81170000Y-105990000D01*
X81170000Y-106906988D01*
X81112993Y-106874075D01*
X80985826Y-106840000D01*
X80854174Y-106840000D01*
X80727007Y-106874075D01*
X80670000Y-106906988D01*
X80670000Y-105990000D01*
X80022155Y-105990000D01*
X79962627Y-105996401D01*
X79962620Y-105996403D01*
X79827913Y-106046645D01*
X79827906Y-106046649D01*
X79712812Y-106132809D01*
X79712809Y-106132812D01*
X79626649Y-106247906D01*
X79626645Y-106247913D01*
X79576403Y-106382620D01*
X79576401Y-106382627D01*
X79570000Y-106442155D01*
X79570000Y-107090000D01*
X80486988Y-107090000D01*
X80454075Y-107147007D01*
X80420000Y-107274174D01*
X80420000Y-107405826D01*
X80454075Y-107532993D01*
X80486988Y-107590000D01*
X79570000Y-107590000D01*
X79570000Y-108237844D01*
X79576401Y-108297372D01*
X79576403Y-108297379D01*
X79626645Y-108432086D01*
X79626649Y-108432093D01*
X79712809Y-108547187D01*
X79712812Y-108547190D01*
X79827906Y-108633350D01*
X79827913Y-108633354D01*
X79959470Y-108682421D01*
X80015403Y-108724292D01*
X80039821Y-108789756D01*
X80024970Y-108858029D01*
X80003819Y-108886284D01*
X79881503Y-109008600D01*
X79745965Y-109202169D01*
X79745964Y-109202171D01*
X79646098Y-109416335D01*
X79646094Y-109416344D01*
X79584938Y-109644586D01*
X79584936Y-109644596D01*
X79564341Y-109879999D01*
X79000500Y-109879999D01*
X79000500Y-105624500D01*
X79020185Y-105557461D01*
X79072989Y-105511706D01*
X79124500Y-105500500D01*
X117875500Y-105500500D01*
X117942539Y-105520185D01*
G37*
%TD.AperFunction*%
%TD*%
M02*
