%TF.GenerationSoftware,KiCad,Pcbnew,8.0.5*%
%TF.CreationDate,2025-09-23T17:33:25-05:00*%
%TF.ProjectId,test,74657374-2e6b-4696-9361-645f70636258,rev?*%
%TF.SameCoordinates,Original*%
%TF.FileFunction,Legend,Top*%
%TF.FilePolarity,Positive*%
%FSLAX46Y46*%
G04 Gerber Fmt 4.6, Leading zero omitted, Abs format (unit mm)*
G04 Created by KiCad (PCBNEW 8.0.5) date 2025-09-23 17:33:25*
%MOMM*%
%LPD*%
G01*
G04 APERTURE LIST*
%ADD10C,0.150000*%
%ADD11C,0.120000*%
%ADD12C,0.508000*%
G04 APERTURE END LIST*
D10*
X157839580Y-151628572D02*
X157887200Y-151676191D01*
X157887200Y-151676191D02*
X157934819Y-151819048D01*
X157934819Y-151819048D02*
X157934819Y-151914286D01*
X157934819Y-151914286D02*
X157887200Y-152057143D01*
X157887200Y-152057143D02*
X157791961Y-152152381D01*
X157791961Y-152152381D02*
X157696723Y-152200000D01*
X157696723Y-152200000D02*
X157506247Y-152247619D01*
X157506247Y-152247619D02*
X157363390Y-152247619D01*
X157363390Y-152247619D02*
X157172914Y-152200000D01*
X157172914Y-152200000D02*
X157077676Y-152152381D01*
X157077676Y-152152381D02*
X156982438Y-152057143D01*
X156982438Y-152057143D02*
X156934819Y-151914286D01*
X156934819Y-151914286D02*
X156934819Y-151819048D01*
X156934819Y-151819048D02*
X156982438Y-151676191D01*
X156982438Y-151676191D02*
X157030057Y-151628572D01*
X157934819Y-151057143D02*
X157887200Y-151152381D01*
X157887200Y-151152381D02*
X157839580Y-151200000D01*
X157839580Y-151200000D02*
X157744342Y-151247619D01*
X157744342Y-151247619D02*
X157458628Y-151247619D01*
X157458628Y-151247619D02*
X157363390Y-151200000D01*
X157363390Y-151200000D02*
X157315771Y-151152381D01*
X157315771Y-151152381D02*
X157268152Y-151057143D01*
X157268152Y-151057143D02*
X157268152Y-150914286D01*
X157268152Y-150914286D02*
X157315771Y-150819048D01*
X157315771Y-150819048D02*
X157363390Y-150771429D01*
X157363390Y-150771429D02*
X157458628Y-150723810D01*
X157458628Y-150723810D02*
X157744342Y-150723810D01*
X157744342Y-150723810D02*
X157839580Y-150771429D01*
X157839580Y-150771429D02*
X157887200Y-150819048D01*
X157887200Y-150819048D02*
X157934819Y-150914286D01*
X157934819Y-150914286D02*
X157934819Y-151057143D01*
X157268152Y-150295238D02*
X157934819Y-150295238D01*
X157363390Y-150295238D02*
X157315771Y-150247619D01*
X157315771Y-150247619D02*
X157268152Y-150152381D01*
X157268152Y-150152381D02*
X157268152Y-150009524D01*
X157268152Y-150009524D02*
X157315771Y-149914286D01*
X157315771Y-149914286D02*
X157411009Y-149866667D01*
X157411009Y-149866667D02*
X157934819Y-149866667D01*
X157268152Y-149390476D02*
X157934819Y-149390476D01*
X157363390Y-149390476D02*
X157315771Y-149342857D01*
X157315771Y-149342857D02*
X157268152Y-149247619D01*
X157268152Y-149247619D02*
X157268152Y-149104762D01*
X157268152Y-149104762D02*
X157315771Y-149009524D01*
X157315771Y-149009524D02*
X157411009Y-148961905D01*
X157411009Y-148961905D02*
X157934819Y-148961905D01*
X157887200Y-148104762D02*
X157934819Y-148200000D01*
X157934819Y-148200000D02*
X157934819Y-148390476D01*
X157934819Y-148390476D02*
X157887200Y-148485714D01*
X157887200Y-148485714D02*
X157791961Y-148533333D01*
X157791961Y-148533333D02*
X157411009Y-148533333D01*
X157411009Y-148533333D02*
X157315771Y-148485714D01*
X157315771Y-148485714D02*
X157268152Y-148390476D01*
X157268152Y-148390476D02*
X157268152Y-148200000D01*
X157268152Y-148200000D02*
X157315771Y-148104762D01*
X157315771Y-148104762D02*
X157411009Y-148057143D01*
X157411009Y-148057143D02*
X157506247Y-148057143D01*
X157506247Y-148057143D02*
X157601485Y-148533333D01*
X157887200Y-147200000D02*
X157934819Y-147295238D01*
X157934819Y-147295238D02*
X157934819Y-147485714D01*
X157934819Y-147485714D02*
X157887200Y-147580952D01*
X157887200Y-147580952D02*
X157839580Y-147628571D01*
X157839580Y-147628571D02*
X157744342Y-147676190D01*
X157744342Y-147676190D02*
X157458628Y-147676190D01*
X157458628Y-147676190D02*
X157363390Y-147628571D01*
X157363390Y-147628571D02*
X157315771Y-147580952D01*
X157315771Y-147580952D02*
X157268152Y-147485714D01*
X157268152Y-147485714D02*
X157268152Y-147295238D01*
X157268152Y-147295238D02*
X157315771Y-147200000D01*
X157268152Y-146914285D02*
X157268152Y-146533333D01*
X156934819Y-146771428D02*
X157791961Y-146771428D01*
X157791961Y-146771428D02*
X157887200Y-146723809D01*
X157887200Y-146723809D02*
X157934819Y-146628571D01*
X157934819Y-146628571D02*
X157934819Y-146533333D01*
X157934819Y-146057142D02*
X157887200Y-146152380D01*
X157887200Y-146152380D02*
X157839580Y-146199999D01*
X157839580Y-146199999D02*
X157744342Y-146247618D01*
X157744342Y-146247618D02*
X157458628Y-146247618D01*
X157458628Y-146247618D02*
X157363390Y-146199999D01*
X157363390Y-146199999D02*
X157315771Y-146152380D01*
X157315771Y-146152380D02*
X157268152Y-146057142D01*
X157268152Y-146057142D02*
X157268152Y-145914285D01*
X157268152Y-145914285D02*
X157315771Y-145819047D01*
X157315771Y-145819047D02*
X157363390Y-145771428D01*
X157363390Y-145771428D02*
X157458628Y-145723809D01*
X157458628Y-145723809D02*
X157744342Y-145723809D01*
X157744342Y-145723809D02*
X157839580Y-145771428D01*
X157839580Y-145771428D02*
X157887200Y-145819047D01*
X157887200Y-145819047D02*
X157934819Y-145914285D01*
X157934819Y-145914285D02*
X157934819Y-146057142D01*
X157934819Y-145295237D02*
X157268152Y-145295237D01*
X157458628Y-145295237D02*
X157363390Y-145247618D01*
X157363390Y-145247618D02*
X157315771Y-145199999D01*
X157315771Y-145199999D02*
X157268152Y-145104761D01*
X157268152Y-145104761D02*
X157268152Y-145009523D01*
X157030057Y-144723808D02*
X156982438Y-144676189D01*
X156982438Y-144676189D02*
X156934819Y-144580951D01*
X156934819Y-144580951D02*
X156934819Y-144342856D01*
X156934819Y-144342856D02*
X156982438Y-144247618D01*
X156982438Y-144247618D02*
X157030057Y-144199999D01*
X157030057Y-144199999D02*
X157125295Y-144152380D01*
X157125295Y-144152380D02*
X157220533Y-144152380D01*
X157220533Y-144152380D02*
X157363390Y-144199999D01*
X157363390Y-144199999D02*
X157934819Y-144771427D01*
X157934819Y-144771427D02*
X157934819Y-144152380D01*
X159879580Y-151535073D02*
X159927200Y-151582692D01*
X159927200Y-151582692D02*
X159974819Y-151725549D01*
X159974819Y-151725549D02*
X159974819Y-151820787D01*
X159974819Y-151820787D02*
X159927200Y-151963644D01*
X159927200Y-151963644D02*
X159831961Y-152058882D01*
X159831961Y-152058882D02*
X159736723Y-152106501D01*
X159736723Y-152106501D02*
X159546247Y-152154120D01*
X159546247Y-152154120D02*
X159403390Y-152154120D01*
X159403390Y-152154120D02*
X159212914Y-152106501D01*
X159212914Y-152106501D02*
X159117676Y-152058882D01*
X159117676Y-152058882D02*
X159022438Y-151963644D01*
X159022438Y-151963644D02*
X158974819Y-151820787D01*
X158974819Y-151820787D02*
X158974819Y-151725549D01*
X158974819Y-151725549D02*
X159022438Y-151582692D01*
X159022438Y-151582692D02*
X159070057Y-151535073D01*
X159974819Y-150963644D02*
X159927200Y-151058882D01*
X159927200Y-151058882D02*
X159879580Y-151106501D01*
X159879580Y-151106501D02*
X159784342Y-151154120D01*
X159784342Y-151154120D02*
X159498628Y-151154120D01*
X159498628Y-151154120D02*
X159403390Y-151106501D01*
X159403390Y-151106501D02*
X159355771Y-151058882D01*
X159355771Y-151058882D02*
X159308152Y-150963644D01*
X159308152Y-150963644D02*
X159308152Y-150820787D01*
X159308152Y-150820787D02*
X159355771Y-150725549D01*
X159355771Y-150725549D02*
X159403390Y-150677930D01*
X159403390Y-150677930D02*
X159498628Y-150630311D01*
X159498628Y-150630311D02*
X159784342Y-150630311D01*
X159784342Y-150630311D02*
X159879580Y-150677930D01*
X159879580Y-150677930D02*
X159927200Y-150725549D01*
X159927200Y-150725549D02*
X159974819Y-150820787D01*
X159974819Y-150820787D02*
X159974819Y-150963644D01*
X159308152Y-150201739D02*
X159974819Y-150201739D01*
X159403390Y-150201739D02*
X159355771Y-150154120D01*
X159355771Y-150154120D02*
X159308152Y-150058882D01*
X159308152Y-150058882D02*
X159308152Y-149916025D01*
X159308152Y-149916025D02*
X159355771Y-149820787D01*
X159355771Y-149820787D02*
X159451009Y-149773168D01*
X159451009Y-149773168D02*
X159974819Y-149773168D01*
X159308152Y-149296977D02*
X159974819Y-149296977D01*
X159403390Y-149296977D02*
X159355771Y-149249358D01*
X159355771Y-149249358D02*
X159308152Y-149154120D01*
X159308152Y-149154120D02*
X159308152Y-149011263D01*
X159308152Y-149011263D02*
X159355771Y-148916025D01*
X159355771Y-148916025D02*
X159451009Y-148868406D01*
X159451009Y-148868406D02*
X159974819Y-148868406D01*
X159927200Y-148011263D02*
X159974819Y-148106501D01*
X159974819Y-148106501D02*
X159974819Y-148296977D01*
X159974819Y-148296977D02*
X159927200Y-148392215D01*
X159927200Y-148392215D02*
X159831961Y-148439834D01*
X159831961Y-148439834D02*
X159451009Y-148439834D01*
X159451009Y-148439834D02*
X159355771Y-148392215D01*
X159355771Y-148392215D02*
X159308152Y-148296977D01*
X159308152Y-148296977D02*
X159308152Y-148106501D01*
X159308152Y-148106501D02*
X159355771Y-148011263D01*
X159355771Y-148011263D02*
X159451009Y-147963644D01*
X159451009Y-147963644D02*
X159546247Y-147963644D01*
X159546247Y-147963644D02*
X159641485Y-148439834D01*
X159927200Y-147106501D02*
X159974819Y-147201739D01*
X159974819Y-147201739D02*
X159974819Y-147392215D01*
X159974819Y-147392215D02*
X159927200Y-147487453D01*
X159927200Y-147487453D02*
X159879580Y-147535072D01*
X159879580Y-147535072D02*
X159784342Y-147582691D01*
X159784342Y-147582691D02*
X159498628Y-147582691D01*
X159498628Y-147582691D02*
X159403390Y-147535072D01*
X159403390Y-147535072D02*
X159355771Y-147487453D01*
X159355771Y-147487453D02*
X159308152Y-147392215D01*
X159308152Y-147392215D02*
X159308152Y-147201739D01*
X159308152Y-147201739D02*
X159355771Y-147106501D01*
X159308152Y-146820786D02*
X159308152Y-146439834D01*
X158974819Y-146677929D02*
X159831961Y-146677929D01*
X159831961Y-146677929D02*
X159927200Y-146630310D01*
X159927200Y-146630310D02*
X159974819Y-146535072D01*
X159974819Y-146535072D02*
X159974819Y-146439834D01*
X159974819Y-145963643D02*
X159927200Y-146058881D01*
X159927200Y-146058881D02*
X159879580Y-146106500D01*
X159879580Y-146106500D02*
X159784342Y-146154119D01*
X159784342Y-146154119D02*
X159498628Y-146154119D01*
X159498628Y-146154119D02*
X159403390Y-146106500D01*
X159403390Y-146106500D02*
X159355771Y-146058881D01*
X159355771Y-146058881D02*
X159308152Y-145963643D01*
X159308152Y-145963643D02*
X159308152Y-145820786D01*
X159308152Y-145820786D02*
X159355771Y-145725548D01*
X159355771Y-145725548D02*
X159403390Y-145677929D01*
X159403390Y-145677929D02*
X159498628Y-145630310D01*
X159498628Y-145630310D02*
X159784342Y-145630310D01*
X159784342Y-145630310D02*
X159879580Y-145677929D01*
X159879580Y-145677929D02*
X159927200Y-145725548D01*
X159927200Y-145725548D02*
X159974819Y-145820786D01*
X159974819Y-145820786D02*
X159974819Y-145963643D01*
X159974819Y-145201738D02*
X159308152Y-145201738D01*
X159498628Y-145201738D02*
X159403390Y-145154119D01*
X159403390Y-145154119D02*
X159355771Y-145106500D01*
X159355771Y-145106500D02*
X159308152Y-145011262D01*
X159308152Y-145011262D02*
X159308152Y-144916024D01*
X159974819Y-144058881D02*
X159974819Y-144630309D01*
X159974819Y-144344595D02*
X158974819Y-144344595D01*
X158974819Y-144344595D02*
X159117676Y-144439833D01*
X159117676Y-144439833D02*
X159212914Y-144535071D01*
X159212914Y-144535071D02*
X159260533Y-144630309D01*
X156176166Y-45247939D02*
X156080928Y-45200320D01*
X156080928Y-45200320D02*
X155938071Y-45200320D01*
X155938071Y-45200320D02*
X155795214Y-45247939D01*
X155795214Y-45247939D02*
X155699976Y-45343177D01*
X155699976Y-45343177D02*
X155652357Y-45438415D01*
X155652357Y-45438415D02*
X155604738Y-45628891D01*
X155604738Y-45628891D02*
X155604738Y-45771748D01*
X155604738Y-45771748D02*
X155652357Y-45962224D01*
X155652357Y-45962224D02*
X155699976Y-46057462D01*
X155699976Y-46057462D02*
X155795214Y-46152701D01*
X155795214Y-46152701D02*
X155938071Y-46200320D01*
X155938071Y-46200320D02*
X156033309Y-46200320D01*
X156033309Y-46200320D02*
X156176166Y-46152701D01*
X156176166Y-46152701D02*
X156223785Y-46105081D01*
X156223785Y-46105081D02*
X156223785Y-45771748D01*
X156223785Y-45771748D02*
X156033309Y-45771748D01*
X156652357Y-46200320D02*
X156652357Y-45533653D01*
X156652357Y-45724129D02*
X156699976Y-45628891D01*
X156699976Y-45628891D02*
X156747595Y-45581272D01*
X156747595Y-45581272D02*
X156842833Y-45533653D01*
X156842833Y-45533653D02*
X156938071Y-45533653D01*
X157414262Y-46200320D02*
X157319024Y-46152701D01*
X157319024Y-46152701D02*
X157271405Y-46105081D01*
X157271405Y-46105081D02*
X157223786Y-46009843D01*
X157223786Y-46009843D02*
X157223786Y-45724129D01*
X157223786Y-45724129D02*
X157271405Y-45628891D01*
X157271405Y-45628891D02*
X157319024Y-45581272D01*
X157319024Y-45581272D02*
X157414262Y-45533653D01*
X157414262Y-45533653D02*
X157557119Y-45533653D01*
X157557119Y-45533653D02*
X157652357Y-45581272D01*
X157652357Y-45581272D02*
X157699976Y-45628891D01*
X157699976Y-45628891D02*
X157747595Y-45724129D01*
X157747595Y-45724129D02*
X157747595Y-46009843D01*
X157747595Y-46009843D02*
X157699976Y-46105081D01*
X157699976Y-46105081D02*
X157652357Y-46152701D01*
X157652357Y-46152701D02*
X157557119Y-46200320D01*
X157557119Y-46200320D02*
X157414262Y-46200320D01*
X158604738Y-45533653D02*
X158604738Y-46200320D01*
X158176167Y-45533653D02*
X158176167Y-46057462D01*
X158176167Y-46057462D02*
X158223786Y-46152701D01*
X158223786Y-46152701D02*
X158319024Y-46200320D01*
X158319024Y-46200320D02*
X158461881Y-46200320D01*
X158461881Y-46200320D02*
X158557119Y-46152701D01*
X158557119Y-46152701D02*
X158604738Y-46105081D01*
X159080929Y-45533653D02*
X159080929Y-46200320D01*
X159080929Y-45628891D02*
X159128548Y-45581272D01*
X159128548Y-45581272D02*
X159223786Y-45533653D01*
X159223786Y-45533653D02*
X159366643Y-45533653D01*
X159366643Y-45533653D02*
X159461881Y-45581272D01*
X159461881Y-45581272D02*
X159509500Y-45676510D01*
X159509500Y-45676510D02*
X159509500Y-46200320D01*
X160414262Y-46200320D02*
X160414262Y-45200320D01*
X160414262Y-46152701D02*
X160319024Y-46200320D01*
X160319024Y-46200320D02*
X160128548Y-46200320D01*
X160128548Y-46200320D02*
X160033310Y-46152701D01*
X160033310Y-46152701D02*
X159985691Y-46105081D01*
X159985691Y-46105081D02*
X159938072Y-46009843D01*
X159938072Y-46009843D02*
X159938072Y-45724129D01*
X159938072Y-45724129D02*
X159985691Y-45628891D01*
X159985691Y-45628891D02*
X160033310Y-45581272D01*
X160033310Y-45581272D02*
X160128548Y-45533653D01*
X160128548Y-45533653D02*
X160319024Y-45533653D01*
X160319024Y-45533653D02*
X160414262Y-45581272D01*
X161414262Y-46200320D02*
X160842834Y-46200320D01*
X161128548Y-46200320D02*
X161128548Y-45200320D01*
X161128548Y-45200320D02*
X161033310Y-45343177D01*
X161033310Y-45343177D02*
X160938072Y-45438415D01*
X160938072Y-45438415D02*
X160842834Y-45486034D01*
X158176166Y-92945320D02*
X158176166Y-93659605D01*
X158176166Y-93659605D02*
X158128547Y-93802462D01*
X158128547Y-93802462D02*
X158033309Y-93897701D01*
X158033309Y-93897701D02*
X157890452Y-93945320D01*
X157890452Y-93945320D02*
X157795214Y-93945320D01*
X158604738Y-93040558D02*
X158652357Y-92992939D01*
X158652357Y-92992939D02*
X158747595Y-92945320D01*
X158747595Y-92945320D02*
X158985690Y-92945320D01*
X158985690Y-92945320D02*
X159080928Y-92992939D01*
X159080928Y-92992939D02*
X159128547Y-93040558D01*
X159128547Y-93040558D02*
X159176166Y-93135796D01*
X159176166Y-93135796D02*
X159176166Y-93231034D01*
X159176166Y-93231034D02*
X159128547Y-93373891D01*
X159128547Y-93373891D02*
X158557119Y-93945320D01*
X158557119Y-93945320D02*
X159176166Y-93945320D01*
X156057119Y-141445320D02*
X156057119Y-140445320D01*
X156057119Y-140445320D02*
X156438071Y-140445320D01*
X156438071Y-140445320D02*
X156533309Y-140492939D01*
X156533309Y-140492939D02*
X156580928Y-140540558D01*
X156580928Y-140540558D02*
X156628547Y-140635796D01*
X156628547Y-140635796D02*
X156628547Y-140778653D01*
X156628547Y-140778653D02*
X156580928Y-140873891D01*
X156580928Y-140873891D02*
X156533309Y-140921510D01*
X156533309Y-140921510D02*
X156438071Y-140969129D01*
X156438071Y-140969129D02*
X156057119Y-140969129D01*
X157199976Y-141445320D02*
X157104738Y-141397701D01*
X157104738Y-141397701D02*
X157057119Y-141350081D01*
X157057119Y-141350081D02*
X157009500Y-141254843D01*
X157009500Y-141254843D02*
X157009500Y-140969129D01*
X157009500Y-140969129D02*
X157057119Y-140873891D01*
X157057119Y-140873891D02*
X157104738Y-140826272D01*
X157104738Y-140826272D02*
X157199976Y-140778653D01*
X157199976Y-140778653D02*
X157342833Y-140778653D01*
X157342833Y-140778653D02*
X157438071Y-140826272D01*
X157438071Y-140826272D02*
X157485690Y-140873891D01*
X157485690Y-140873891D02*
X157533309Y-140969129D01*
X157533309Y-140969129D02*
X157533309Y-141254843D01*
X157533309Y-141254843D02*
X157485690Y-141350081D01*
X157485690Y-141350081D02*
X157438071Y-141397701D01*
X157438071Y-141397701D02*
X157342833Y-141445320D01*
X157342833Y-141445320D02*
X157199976Y-141445320D01*
X157866643Y-140778653D02*
X158057119Y-141445320D01*
X158057119Y-141445320D02*
X158247595Y-140969129D01*
X158247595Y-140969129D02*
X158438071Y-141445320D01*
X158438071Y-141445320D02*
X158628547Y-140778653D01*
X159390452Y-141397701D02*
X159295214Y-141445320D01*
X159295214Y-141445320D02*
X159104738Y-141445320D01*
X159104738Y-141445320D02*
X159009500Y-141397701D01*
X159009500Y-141397701D02*
X158961881Y-141302462D01*
X158961881Y-141302462D02*
X158961881Y-140921510D01*
X158961881Y-140921510D02*
X159009500Y-140826272D01*
X159009500Y-140826272D02*
X159104738Y-140778653D01*
X159104738Y-140778653D02*
X159295214Y-140778653D01*
X159295214Y-140778653D02*
X159390452Y-140826272D01*
X159390452Y-140826272D02*
X159438071Y-140921510D01*
X159438071Y-140921510D02*
X159438071Y-141016748D01*
X159438071Y-141016748D02*
X158961881Y-141111986D01*
X159866643Y-141445320D02*
X159866643Y-140778653D01*
X159866643Y-140969129D02*
X159914262Y-140873891D01*
X159914262Y-140873891D02*
X159961881Y-140826272D01*
X159961881Y-140826272D02*
X160057119Y-140778653D01*
X160057119Y-140778653D02*
X160152357Y-140778653D01*
X161009500Y-141445320D02*
X160438072Y-141445320D01*
X160723786Y-141445320D02*
X160723786Y-140445320D01*
X160723786Y-140445320D02*
X160628548Y-140588177D01*
X160628548Y-140588177D02*
X160533310Y-140683415D01*
X160533310Y-140683415D02*
X160438072Y-140731034D01*
D11*
%TO.C,Connector2*%
X155285000Y-145590000D02*
X155285000Y-146640000D01*
X152785000Y-145590000D02*
X155285000Y-145590000D01*
X155285000Y-146640000D02*
X156275000Y-146640000D01*
X150815000Y-146760000D02*
X150815000Y-149640000D01*
X155285000Y-150810000D02*
X155285000Y-149760000D01*
X152785000Y-150810000D02*
X155285000Y-150810000D01*
%TO.C,Connector1*%
X161715000Y-150716501D02*
X161715000Y-149666501D01*
X164215000Y-150716501D02*
X161715000Y-150716501D01*
X161715000Y-149666501D02*
X160725000Y-149666501D01*
X166185000Y-149546501D02*
X166185000Y-146666501D01*
X161715000Y-145496501D02*
X161715000Y-146546501D01*
X164215000Y-145496501D02*
X161715000Y-145496501D01*
D12*
%TO.C,Ground1*%
X156071100Y-45745501D02*
G75*
G02*
X155309100Y-45745501I-381000J0D01*
G01*
X155309100Y-45745501D02*
G75*
G02*
X156071100Y-45745501I381000J0D01*
G01*
%TO.C,J2*%
X156071100Y-93490501D02*
G75*
G02*
X155309100Y-93490501I-381000J0D01*
G01*
X155309100Y-93490501D02*
G75*
G02*
X156071100Y-93490501I381000J0D01*
G01*
%TO.C,Power1*%
X156071100Y-140990501D02*
G75*
G02*
X155309100Y-140990501I-381000J0D01*
G01*
X155309100Y-140990501D02*
G75*
G02*
X156071100Y-140990501I381000J0D01*
G01*
%TD*%
M02*
