%TF.GenerationSoftware,KiCad,Pcbnew,8.0.5*%
%TF.CreationDate,2025-09-23T17:33:25-05:00*%
%TF.ProjectId,test,74657374-2e6b-4696-9361-645f70636258,rev?*%
%TF.SameCoordinates,Original*%
%TF.FileFunction,Copper,L1,Top*%
%TF.FilePolarity,Positive*%
%FSLAX46Y46*%
G04 Gerber Fmt 4.6, Leading zero omitted, Abs format (unit mm)*
G04 Created by KiCad (PCBNEW 8.0.5) date 2025-09-23 17:33:25*
%MOMM*%
%LPD*%
G01*
G04 APERTURE LIST*
G04 Aperture macros list*
%AMRoundRect*
0 Rectangle with rounded corners*
0 $1 Rounding radius*
0 $2 $3 $4 $5 $6 $7 $8 $9 X,Y pos of 4 corners*
0 Add a 4 corners polygon primitive as box body*
4,1,4,$2,$3,$4,$5,$6,$7,$8,$9,$2,$3,0*
0 Add four circle primitives for the rounded corners*
1,1,$1+$1,$2,$3*
1,1,$1+$1,$4,$5*
1,1,$1+$1,$6,$7*
1,1,$1+$1,$8,$9*
0 Add four rect primitives between the rounded corners*
20,1,$1+$1,$2,$3,$4,$5,0*
20,1,$1+$1,$4,$5,$6,$7,0*
20,1,$1+$1,$6,$7,$8,$9,0*
20,1,$1+$1,$8,$9,$2,$3,0*%
G04 Aperture macros list end*
%TA.AperFunction,SMDPad,CuDef*%
%ADD10RoundRect,0.150000X-0.625000X0.150000X-0.625000X-0.150000X0.625000X-0.150000X0.625000X0.150000X0*%
%TD*%
%TA.AperFunction,SMDPad,CuDef*%
%ADD11RoundRect,0.250000X-0.650000X0.350000X-0.650000X-0.350000X0.650000X-0.350000X0.650000X0.350000X0*%
%TD*%
%TA.AperFunction,SMDPad,CuDef*%
%ADD12RoundRect,0.150000X0.625000X-0.150000X0.625000X0.150000X-0.625000X0.150000X-0.625000X-0.150000X0*%
%TD*%
%TA.AperFunction,SMDPad,CuDef*%
%ADD13RoundRect,0.250000X0.650000X-0.350000X0.650000X0.350000X-0.650000X0.350000X-0.650000X-0.350000X0*%
%TD*%
%TA.AperFunction,SMDPad,CuDef*%
%ADD14C,2.082800*%
%TD*%
%TA.AperFunction,ViaPad*%
%ADD15C,0.600000*%
%TD*%
%TA.AperFunction,Conductor*%
%ADD16C,0.800000*%
%TD*%
%TA.AperFunction,Conductor*%
%ADD17C,0.600000*%
%TD*%
G04 APERTURE END LIST*
D10*
%TO.P,Connector2,1,1*%
%TO.N,GND*%
X155500000Y-147200000D03*
%TO.P,Connector2,2,2*%
%TO.N,Signal*%
X155500000Y-148200000D03*
%TO.P,Connector2,3,3*%
%TO.N,+3.3V*%
X155500000Y-149200000D03*
D11*
%TO.P,Connector2,MP*%
%TO.N,N/C*%
X151625000Y-145900000D03*
X151625000Y-150500000D03*
%TD*%
D12*
%TO.P,Connector1,1,1*%
%TO.N,GND*%
X161500000Y-149106501D03*
%TO.P,Connector1,2,2*%
%TO.N,Signal*%
X161500000Y-148106501D03*
%TO.P,Connector1,3,3*%
%TO.N,+3.3V*%
X161500000Y-147106501D03*
D13*
%TO.P,Connector1,MP*%
%TO.N,N/C*%
X165375000Y-150406501D03*
X165375000Y-145806501D03*
%TD*%
D14*
%TO.P,Ground1,1,1*%
%TO.N,GND*%
X158509500Y-45745501D03*
%TD*%
%TO.P,J2,1,1*%
%TO.N,Signal*%
X158509500Y-93490501D03*
%TD*%
%TO.P,Power1,1,1*%
%TO.N,+3.3V*%
X158509500Y-140990501D03*
%TD*%
D15*
%TO.N,GND*%
X158500000Y-147000000D03*
X158500000Y-149500000D03*
X154500000Y-135000000D03*
%TO.N,Signal*%
X159500000Y-149500000D03*
X164500000Y-141500000D03*
%TD*%
D16*
%TO.N,Signal*%
X159500000Y-149500000D02*
X159500000Y-148200000D01*
D17*
X159500000Y-148200000D02*
X161406501Y-148200000D01*
X155500000Y-148200000D02*
X159500000Y-148200000D01*
%TO.N,GND*%
X159000000Y-151000000D02*
X158500000Y-150500000D01*
X159606501Y-151000000D02*
X159000000Y-151000000D01*
X161500000Y-149106501D02*
X159606501Y-151000000D01*
X158500000Y-150500000D02*
X158500000Y-149500000D01*
%TO.N,Signal*%
X161406501Y-148200000D02*
X161500000Y-148106501D01*
D16*
%TO.N,GND*%
X155700000Y-147000000D02*
X155500000Y-147200000D01*
X158500000Y-147000000D02*
X155700000Y-147000000D01*
%TO.N,+3.3V*%
X155500000Y-150000000D02*
X155500000Y-149200000D01*
X160446317Y-152000000D02*
X157500000Y-152000000D01*
X162875000Y-149571317D02*
X160446317Y-152000000D01*
X162875000Y-147641685D02*
X162875000Y-149571317D01*
X157500000Y-152000000D02*
X155500000Y-150000000D01*
X162339816Y-147106501D02*
X162875000Y-147641685D01*
X161500000Y-147106501D02*
X162339816Y-147106501D01*
X158509500Y-144116001D02*
X161500000Y-147106501D01*
X158509500Y-140990501D02*
X158509500Y-144116001D01*
X154660184Y-149200000D02*
X155500000Y-149200000D01*
X153500000Y-148039816D02*
X154660184Y-149200000D01*
X153500000Y-146000001D02*
X153500000Y-148039816D01*
X158509500Y-140990501D02*
X153500000Y-146000001D01*
%TO.N,GND*%
X151919000Y-52336001D02*
X151919000Y-76500000D01*
X151919000Y-76500000D02*
X151919000Y-132419000D01*
X158509500Y-45745501D02*
X151919000Y-52336001D01*
X151919000Y-132419000D02*
X154500000Y-135000000D01*
%TO.N,Signal*%
X164500000Y-94500000D02*
X164500000Y-141500000D01*
X163490501Y-93490501D02*
X164500000Y-94500000D01*
X158509500Y-93490501D02*
X163490501Y-93490501D01*
%TD*%
M02*
