%TF.GenerationSoftware,KiCad,Pcbnew,8.0.5*%
%TF.CreationDate,2025-09-23T17:33:13-05:00*%
%TF.ProjectId,test,74657374-2e6b-4696-9361-645f70636258,rev?*%
%TF.SameCoordinates,Original*%
%TF.FileFunction,Drillmap*%
%TF.FilePolarity,Positive*%
%FSLAX45Y45*%
G04 Gerber Fmt 4.5, Leading zero omitted, Abs format (unit mm)*
G04 Created by KiCad (PCBNEW 8.0.5) date 2025-09-23 17:33:13*
%MOMM*%
%LPD*%
G01*
G04 APERTURE LIST*
%ADD10C,0.254000*%
%ADD11C,0.200000*%
G04 APERTURE END LIST*
D10*
X15850950Y-15849050D02*
X15850950Y-15849050D01*
X15850950Y-3152050D02*
G75*
G02*
X16600000Y-3901100I0J-749050D01*
G01*
X16600000Y-3901100D02*
X16600000Y-15100000D01*
X16600000Y-15100000D02*
G75*
G02*
X15850950Y-15849050I-749050J0D01*
G01*
X15850950Y-3152050D02*
X15850950Y-3152050D01*
X15101900Y-3901100D02*
G75*
G02*
X15850950Y-3152050I749050J0D01*
G01*
X15101900Y-3901100D02*
X15101900Y-15100000D01*
X15850950Y-15849050D02*
G75*
G02*
X15101900Y-15100000I0J749050D01*
G01*
D11*
X15349977Y-16173234D02*
X15349977Y-15973234D01*
X15349977Y-15973234D02*
X15397596Y-15973234D01*
X15397596Y-15973234D02*
X15426167Y-15982758D01*
X15426167Y-15982758D02*
X15445215Y-16001805D01*
X15445215Y-16001805D02*
X15454739Y-16020853D01*
X15454739Y-16020853D02*
X15464262Y-16058948D01*
X15464262Y-16058948D02*
X15464262Y-16087520D01*
X15464262Y-16087520D02*
X15454739Y-16125615D01*
X15454739Y-16125615D02*
X15445215Y-16144662D01*
X15445215Y-16144662D02*
X15426167Y-16163710D01*
X15426167Y-16163710D02*
X15397596Y-16173234D01*
X15397596Y-16173234D02*
X15349977Y-16173234D01*
X15549977Y-16173234D02*
X15549977Y-16039900D01*
X15549977Y-16077996D02*
X15559500Y-16058948D01*
X15559500Y-16058948D02*
X15569024Y-16049424D01*
X15569024Y-16049424D02*
X15588072Y-16039900D01*
X15588072Y-16039900D02*
X15607120Y-16039900D01*
X15673786Y-16173234D02*
X15673786Y-16039900D01*
X15673786Y-15973234D02*
X15664262Y-15982758D01*
X15664262Y-15982758D02*
X15673786Y-15992281D01*
X15673786Y-15992281D02*
X15683310Y-15982758D01*
X15683310Y-15982758D02*
X15673786Y-15973234D01*
X15673786Y-15973234D02*
X15673786Y-15992281D01*
X15797596Y-16173234D02*
X15778548Y-16163710D01*
X15778548Y-16163710D02*
X15769024Y-16144662D01*
X15769024Y-16144662D02*
X15769024Y-15973234D01*
X15902358Y-16173234D02*
X15883310Y-16163710D01*
X15883310Y-16163710D02*
X15873786Y-16144662D01*
X15873786Y-16144662D02*
X15873786Y-15973234D01*
X16130929Y-16173234D02*
X16130929Y-15973234D01*
X16130929Y-15973234D02*
X16197596Y-16116091D01*
X16197596Y-16116091D02*
X16264262Y-15973234D01*
X16264262Y-15973234D02*
X16264262Y-16173234D01*
X16445215Y-16173234D02*
X16445215Y-16068472D01*
X16445215Y-16068472D02*
X16435691Y-16049424D01*
X16435691Y-16049424D02*
X16416643Y-16039900D01*
X16416643Y-16039900D02*
X16378548Y-16039900D01*
X16378548Y-16039900D02*
X16359500Y-16049424D01*
X16445215Y-16163710D02*
X16426167Y-16173234D01*
X16426167Y-16173234D02*
X16378548Y-16173234D01*
X16378548Y-16173234D02*
X16359500Y-16163710D01*
X16359500Y-16163710D02*
X16349977Y-16144662D01*
X16349977Y-16144662D02*
X16349977Y-16125615D01*
X16349977Y-16125615D02*
X16359500Y-16106567D01*
X16359500Y-16106567D02*
X16378548Y-16097043D01*
X16378548Y-16097043D02*
X16426167Y-16097043D01*
X16426167Y-16097043D02*
X16445215Y-16087520D01*
X16540453Y-16039900D02*
X16540453Y-16239900D01*
X16540453Y-16049424D02*
X16559500Y-16039900D01*
X16559500Y-16039900D02*
X16597596Y-16039900D01*
X16597596Y-16039900D02*
X16616643Y-16049424D01*
X16616643Y-16049424D02*
X16626167Y-16058948D01*
X16626167Y-16058948D02*
X16635691Y-16077996D01*
X16635691Y-16077996D02*
X16635691Y-16135139D01*
X16635691Y-16135139D02*
X16626167Y-16154186D01*
X16626167Y-16154186D02*
X16616643Y-16163710D01*
X16616643Y-16163710D02*
X16597596Y-16173234D01*
X16597596Y-16173234D02*
X16559500Y-16173234D01*
X16559500Y-16173234D02*
X16540453Y-16163710D01*
X16721405Y-16154186D02*
X16730929Y-16163710D01*
X16730929Y-16163710D02*
X16721405Y-16173234D01*
X16721405Y-16173234D02*
X16711881Y-16163710D01*
X16711881Y-16163710D02*
X16721405Y-16154186D01*
X16721405Y-16154186D02*
X16721405Y-16173234D01*
X16721405Y-16049424D02*
X16730929Y-16058948D01*
X16730929Y-16058948D02*
X16721405Y-16068472D01*
X16721405Y-16068472D02*
X16711881Y-16058948D01*
X16711881Y-16058948D02*
X16721405Y-16049424D01*
X16721405Y-16049424D02*
X16721405Y-16068472D01*
M02*
